<?xml version="1.0" encoding="UTF-8" standalone="no"?>
<svg
   xmlns:dc="http://purl.org/dc/elements/1.1/"
   xmlns:cc="http://creativecommons.org/ns#"
   xmlns:rdf="http://www.w3.org/1999/02/22-rdf-syntax-ns#"
   xmlns:svg="http://www.w3.org/2000/svg"
   xmlns="http://www.w3.org/2000/svg"
   xml:space="preserve"
   style="enable-background:new 0 0 350 73;"
   viewBox="0 0 350 73"
   y="0px"
   x="0px"
   id="Layer_1"
    width="350" height="73" 
   version="1.1"><metadata
     id="metadata224"><rdf:RDF><cc:Work
         rdf:about=""><dc:format>image/svg+xml</dc:format><dc:type
           rdf:resource="http://purl.org/dc/dcmitype/StillImage" /></cc:Work></rdf:RDF></metadata><defs
     id="defs222" /><style
     id="style2"
     type="text/css">
	.st0{fill:#FFFFFF;}
</style><g
     id="g217"><g
       id="g120"><path
         id="path4"
         d="M96.5,20.7v-1.2l4.4,0v3.8c-0.7,0.5-1.4,0.9-2.1,1.2c-0.7,0.3-1.5,0.4-2.2,0.4c-1,0-1.9-0.2-2.8-0.7    c-0.8-0.4-1.5-1.1-1.9-1.9c-0.4-0.8-0.6-1.7-0.6-2.8c0-1,0.2-1.9,0.6-2.8c0.4-0.9,1-1.5,1.8-1.9c0.8-0.4,1.7-0.6,2.7-0.6    c0.7,0,1.4,0.1,2,0.4c0.6,0.2,1.1,0.6,1.4,1c0.3,0.4,0.6,1,0.8,1.7l-1.2,0.3c-0.2-0.5-0.3-0.9-0.6-1.2c-0.2-0.3-0.6-0.5-1-0.7    c-0.4-0.2-0.9-0.3-1.4-0.3c-0.6,0-1.2,0.1-1.6,0.3c-0.5,0.2-0.8,0.4-1.1,0.8c-0.3,0.3-0.5,0.7-0.7,1c-0.3,0.6-0.4,1.3-0.4,2.1    c0,0.9,0.2,1.7,0.5,2.3c0.3,0.6,0.8,1.1,1.4,1.4s1.3,0.5,1.9,0.5c0.6,0,1.2-0.1,1.7-0.3c0.6-0.2,1-0.5,1.3-0.7v-1.9H96.5z"
         class="st0" /><path
         id="path6"
         d="M102.3,21c0-1.4,0.4-2.4,1.2-3.1c0.6-0.6,1.4-0.8,2.4-0.8c1,0,1.9,0.3,2.5,1c0.7,0.7,1,1.6,1,2.8    c0,1-0.1,1.7-0.4,2.3c-0.3,0.6-0.7,1-1.3,1.3c-0.6,0.3-1.2,0.5-1.8,0.5c-1.1,0-1.9-0.3-2.5-1C102.6,23.2,102.3,22.3,102.3,21z     M103.6,21c0,1,0.2,1.7,0.6,2.2c0.4,0.5,0.9,0.7,1.6,0.7c0.6,0,1.2-0.2,1.6-0.7s0.6-1.2,0.6-2.2c0-0.9-0.2-1.6-0.6-2.1    c-0.4-0.5-0.9-0.7-1.6-0.7c-0.6,0-1.2,0.2-1.6,0.7C103.8,19.3,103.6,20,103.6,21z"
         class="st0" /><path
         id="path8"
         d="M112.9,24.8l-2.9-7.5h1.3l1.6,4.5c0.2,0.5,0.3,1,0.5,1.5c0.1-0.4,0.3-0.9,0.5-1.4l1.7-4.6h1.3l-2.8,7.5H112.9    z"
         class="st0" /><path
         id="path10"
         d="M123.2,22.3l1.3,0.2c-0.2,0.8-0.6,1.4-1.2,1.8s-1.3,0.6-2.1,0.6c-1.1,0-2-0.3-2.6-1c-0.6-0.7-1-1.6-1-2.8    c0-1.3,0.3-2.2,1-2.9s1.5-1,2.5-1c1,0,1.8,0.3,2.5,1c0.6,0.7,1,1.6,1,2.9c0,0.1,0,0.2,0,0.3h-5.6c0,0.8,0.3,1.5,0.7,1.9    c0.4,0.4,0.9,0.7,1.6,0.7c0.5,0,0.9-0.1,1.2-0.4C122.7,23.3,123,22.9,123.2,22.3z M119,20.3h4.2c-0.1-0.6-0.2-1.1-0.5-1.4    c-0.4-0.5-0.9-0.7-1.6-0.7c-0.6,0-1.1,0.2-1.5,0.6C119.3,19.1,119,19.6,119,20.3z"
         class="st0" /><path
         id="path12"
         d="M126.1,24.8v-7.5h1.1v1.1c0.3-0.5,0.6-0.9,0.8-1.1c0.2-0.2,0.5-0.3,0.8-0.3c0.4,0,0.9,0.1,1.3,0.4l-0.4,1.2    c-0.3-0.2-0.6-0.3-0.9-0.3c-0.3,0-0.5,0.1-0.7,0.3c-0.2,0.2-0.4,0.4-0.5,0.7c-0.1,0.5-0.2,0.9-0.2,1.5v3.9H126.1z"
         class="st0" /><path
         id="path14"
         d="M130.9,24.8v-7.5h1.1v1.1c0.6-0.8,1.3-1.2,2.4-1.2c0.5,0,0.9,0.1,1.2,0.2c0.4,0.2,0.7,0.4,0.9,0.6    c0.2,0.3,0.3,0.6,0.4,0.9c0,0.2,0.1,0.6,0.1,1.2v4.6h-1.3v-4.6c0-0.5,0-0.9-0.1-1.2c-0.1-0.3-0.3-0.5-0.5-0.6    c-0.3-0.2-0.5-0.2-0.9-0.2c-0.5,0-1,0.2-1.4,0.5c-0.4,0.3-0.6,1-0.6,2v4.1H130.9z"
         class="st0" /><path
         id="path16"
         d="M138.9,24.8v-7.5h1.1v1.1c0.2-0.4,0.5-0.7,0.9-0.9c0.4-0.2,0.8-0.3,1.3-0.3c0.6,0,1,0.1,1.4,0.3    c0.4,0.2,0.6,0.6,0.8,1c0.6-0.9,1.4-1.3,2.3-1.3c0.7,0,1.3,0.2,1.7,0.6c0.4,0.4,0.6,1,0.6,1.9v5.1h-1.3V20c0-0.5,0-0.9-0.1-1.1    c-0.1-0.2-0.2-0.4-0.4-0.5c-0.2-0.1-0.5-0.2-0.8-0.2c-0.5,0-1,0.2-1.3,0.5c-0.3,0.4-0.5,0.9-0.5,1.7v4.4h-1.3v-4.9    c0-0.6-0.1-1-0.3-1.3c-0.2-0.3-0.5-0.4-1-0.4c-0.4,0-0.7,0.1-1,0.3c-0.3,0.2-0.5,0.5-0.7,0.8c-0.1,0.4-0.2,0.9-0.2,1.6v3.9H138.9z    "
         class="st0" /><path
         id="path18"
         d="M156.1,22.3l1.3,0.2c-0.2,0.8-0.6,1.4-1.2,1.8s-1.3,0.6-2.1,0.6c-1.1,0-2-0.3-2.6-1c-0.6-0.7-1-1.6-1-2.8    c0-1.3,0.3-2.2,1-2.9s1.5-1,2.5-1c1,0,1.8,0.3,2.5,1c0.6,0.7,1,1.6,1,2.9c0,0.1,0,0.2,0,0.3h-5.6c0,0.8,0.3,1.5,0.7,1.9    c0.4,0.4,0.9,0.7,1.6,0.7c0.5,0,0.9-0.1,1.2-0.4C155.7,23.3,155.9,22.9,156.1,22.3z M151.9,20.3h4.2c-0.1-0.6-0.2-1.1-0.5-1.4    c-0.4-0.5-0.9-0.7-1.6-0.7c-0.6,0-1.1,0.2-1.5,0.6C152.2,19.1,152,19.6,151.9,20.3z"
         class="st0" /><path
         id="path20"
         d="M159,24.8v-7.5h1.1v1.1c0.6-0.8,1.3-1.2,2.4-1.2c0.5,0,0.9,0.1,1.2,0.2c0.4,0.2,0.7,0.4,0.9,0.6    c0.2,0.3,0.3,0.6,0.4,0.9c0,0.2,0.1,0.6,0.1,1.2v4.6h-1.3v-4.6c0-0.5,0-0.9-0.1-1.2c-0.1-0.3-0.3-0.5-0.5-0.6    c-0.3-0.2-0.5-0.2-0.9-0.2c-0.5,0-1,0.2-1.4,0.5c-0.4,0.3-0.6,1-0.6,2v4.1H159z"
         class="st0" /><path
         id="path22"
         d="M169.9,23.6l0.2,1.1c-0.4,0.1-0.7,0.1-1,0.1c-0.5,0-0.8-0.1-1.1-0.2c-0.3-0.1-0.4-0.3-0.5-0.6    c-0.1-0.2-0.2-0.7-0.2-1.5v-4.3h-0.9v-1h0.9v-1.9l1.3-0.8v2.6h1.3v1h-1.3v4.4c0,0.4,0,0.6,0.1,0.7c0,0.1,0.1,0.2,0.2,0.2    c0.1,0.1,0.2,0.1,0.4,0.1C169.4,23.7,169.6,23.7,169.9,23.6z"
         class="st0" /><path
         id="path24"
         d="M174.6,21c0-1.4,0.4-2.4,1.2-3.1c0.6-0.6,1.4-0.8,2.4-0.8c1,0,1.9,0.3,2.5,1c0.7,0.7,1,1.6,1,2.8    c0,1-0.1,1.7-0.4,2.3s-0.7,1-1.3,1.3c-0.6,0.3-1.2,0.5-1.8,0.5c-1.1,0-1.9-0.3-2.5-1C175,23.2,174.6,22.3,174.6,21z M175.9,21    c0,1,0.2,1.7,0.6,2.2c0.4,0.5,0.9,0.7,1.6,0.7c0.6,0,1.2-0.2,1.6-0.7c0.4-0.5,0.6-1.2,0.6-2.2c0-0.9-0.2-1.6-0.6-2.1    c-0.4-0.5-0.9-0.7-1.6-0.7c-0.6,0-1.2,0.2-1.6,0.7C176.2,19.3,175.9,20,175.9,21z"
         class="st0" /><path
         id="path26"
         d="M183.5,24.8v-6.5h-1.1v-1h1.1v-0.8c0-0.5,0-0.9,0.1-1.1c0.1-0.3,0.3-0.6,0.6-0.8c0.3-0.2,0.7-0.3,1.3-0.3    c0.4,0,0.8,0,1.2,0.1l-0.2,1.1c-0.3,0-0.5-0.1-0.7-0.1c-0.4,0-0.7,0.1-0.8,0.2c-0.2,0.2-0.2,0.5-0.2,0.9v0.7h1.5v1h-1.5v6.5H183.5    z"
         class="st0" /><path
         id="path28"
         d="M192.8,24.8l-2.5-10.4h2.1l1.6,7.1l1.9-7.1h2.5l1.8,7.2l1.6-7.2h2.1l-2.5,10.4h-2.2l-2.1-7.7l-2.1,7.7H192.8z    "
         class="st0" /><path
         id="path30"
         d="M209,22.4l2,0.3c-0.3,0.7-0.7,1.3-1.2,1.7s-1.2,0.6-2.1,0.6c-1.3,0-2.3-0.4-2.9-1.3c-0.5-0.7-0.7-1.5-0.7-2.6    c0-1.2,0.3-2.2,1-2.9c0.6-0.7,1.5-1.1,2.5-1.1c1.1,0,2,0.4,2.6,1.1c0.6,0.7,1,1.9,0.9,3.4h-5c0,0.6,0.2,1,0.5,1.4    c0.3,0.3,0.7,0.5,1.1,0.5c0.3,0,0.6-0.1,0.8-0.3C208.7,23,208.9,22.7,209,22.4z M209.1,20.4c0-0.6-0.2-1-0.4-1.3    c-0.3-0.3-0.6-0.4-1-0.4c-0.4,0-0.8,0.2-1.1,0.5c-0.3,0.3-0.4,0.7-0.4,1.3H209.1z"
         class="st0" /><path
         id="path32"
         d="M212,22.6l2-0.3c0.1,0.4,0.3,0.7,0.5,0.9s0.6,0.3,1.1,0.3c0.5,0,0.9-0.1,1.2-0.3c0.2-0.1,0.3-0.3,0.3-0.5    c0-0.2,0-0.3-0.1-0.4c-0.1-0.1-0.3-0.2-0.7-0.3c-1.6-0.4-2.6-0.7-3-1c-0.6-0.4-0.9-1-0.9-1.7c0-0.6,0.3-1.2,0.8-1.6    c0.5-0.4,1.3-0.7,2.4-0.7c1,0,1.8,0.2,2.3,0.5c0.5,0.3,0.8,0.8,1,1.5l-1.9,0.3c-0.1-0.3-0.2-0.5-0.5-0.7c-0.2-0.2-0.5-0.2-1-0.2    c-0.5,0-0.9,0.1-1.1,0.2c-0.2,0.1-0.2,0.2-0.2,0.4c0,0.1,0.1,0.3,0.2,0.4c0.2,0.1,0.8,0.3,1.9,0.6c1.1,0.2,1.8,0.5,2.2,0.9    c0.4,0.4,0.6,0.8,0.6,1.5c0,0.7-0.3,1.3-0.9,1.8c-0.6,0.5-1.4,0.7-2.6,0.7c-1,0-1.8-0.2-2.4-0.6C212.6,23.9,212.2,23.3,212,22.6z"
         class="st0" /><path
         id="path34"
         d="M224.2,17.3v1.6h-1.4v3c0,0.6,0,1,0,1.1c0,0.1,0.1,0.2,0.2,0.3s0.2,0.1,0.3,0.1c0.2,0,0.5-0.1,0.8-0.2    l0.2,1.5c-0.5,0.2-1,0.3-1.6,0.3c-0.4,0-0.7-0.1-1-0.2c-0.3-0.1-0.5-0.3-0.6-0.5c-0.1-0.2-0.2-0.4-0.3-0.8c0-0.2-0.1-0.7-0.1-1.4    v-3.3h-0.9v-1.6h0.9v-1.5l2-1.2v2.6H224.2z"
         class="st0" /><path
         id="path36"
         d="M229.9,22.4l2,0.3c-0.3,0.7-0.7,1.3-1.2,1.7s-1.2,0.6-2.1,0.6c-1.3,0-2.3-0.4-2.9-1.3    c-0.5-0.7-0.7-1.5-0.7-2.6c0-1.2,0.3-2.2,1-2.9c0.6-0.7,1.5-1.1,2.5-1.1c1.1,0,2,0.4,2.6,1.1c0.6,0.7,1,1.9,0.9,3.4h-5    c0,0.6,0.2,1,0.5,1.4c0.3,0.3,0.7,0.5,1.1,0.5c0.3,0,0.6-0.1,0.8-0.3C229.7,23,229.8,22.7,229.9,22.4z M230,20.4    c0-0.6-0.2-1-0.4-1.3c-0.3-0.3-0.6-0.4-1-0.4c-0.4,0-0.8,0.2-1.1,0.5c-0.3,0.3-0.4,0.7-0.4,1.3H230z"
         class="st0" /><path
         id="path38"
         d="M235.5,24.8h-2v-7.5h1.8v1.1c0.3-0.5,0.6-0.8,0.9-1c0.3-0.2,0.5-0.2,0.9-0.2c0.5,0,0.9,0.1,1.3,0.4l-0.6,1.7    c-0.3-0.2-0.6-0.3-0.9-0.3c-0.3,0-0.5,0.1-0.7,0.2c-0.2,0.2-0.3,0.4-0.5,0.8c-0.1,0.4-0.2,1.2-0.2,2.5V24.8z"
         class="st0" /><path
         id="path40"
         d="M246.1,24.8h-2v-3.8c0-0.8,0-1.3-0.1-1.6c-0.1-0.2-0.2-0.4-0.4-0.6c-0.2-0.1-0.4-0.2-0.7-0.2    c-0.3,0-0.7,0.1-0.9,0.3c-0.3,0.2-0.5,0.4-0.6,0.7c-0.1,0.3-0.2,0.9-0.2,1.7v3.4h-2v-7.5h1.8v1.1c0.7-0.8,1.5-1.3,2.5-1.3    c0.4,0,0.8,0.1,1.2,0.2c0.4,0.2,0.6,0.4,0.8,0.6c0.2,0.2,0.3,0.5,0.4,0.8c0.1,0.3,0.1,0.8,0.1,1.3V24.8z"
         class="st0" /><path
         id="path42"
         d="M260.9,24.8h-2.3l-0.9-2.4h-4.1l-0.9,2.4h-2.2l4-10.4h2.2L260.9,24.8z M257.1,20.7l-1.4-3.8l-1.4,3.8H257.1z"
         class="st0" /><path
         id="path44"
         d="M267,24.8v-1.1c-0.3,0.4-0.6,0.7-1.1,0.9c-0.4,0.2-0.9,0.3-1.4,0.3c-0.5,0-1-0.1-1.4-0.3    c-0.4-0.2-0.7-0.5-0.9-0.9s-0.3-1-0.3-1.7v-4.7h2v3.4c0,1.1,0,1.7,0.1,1.9c0.1,0.2,0.2,0.4,0.4,0.6c0.2,0.1,0.4,0.2,0.7,0.2    c0.3,0,0.6-0.1,0.9-0.3c0.3-0.2,0.5-0.4,0.6-0.7c0.1-0.3,0.1-0.9,0.1-2v-3.2h2v7.5H267z"
         class="st0" /><path
         id="path46"
         d="M270.2,22.6l2-0.3c0.1,0.4,0.3,0.7,0.5,0.9s0.6,0.3,1.1,0.3c0.5,0,0.9-0.1,1.2-0.3c0.2-0.1,0.3-0.3,0.3-0.5    c0-0.2,0-0.3-0.1-0.4c-0.1-0.1-0.3-0.2-0.7-0.3c-1.6-0.4-2.6-0.7-3-1c-0.6-0.4-0.9-1-0.9-1.7c0-0.6,0.3-1.2,0.8-1.6    c0.5-0.4,1.3-0.7,2.4-0.7c1,0,1.8,0.2,2.3,0.5c0.5,0.3,0.8,0.8,1,1.5l-1.9,0.3c-0.1-0.3-0.2-0.5-0.5-0.7c-0.2-0.2-0.5-0.2-1-0.2    c-0.5,0-0.9,0.1-1.1,0.2c-0.2,0.1-0.2,0.2-0.2,0.4c0,0.1,0.1,0.3,0.2,0.4c0.2,0.1,0.8,0.3,1.9,0.6c1.1,0.2,1.8,0.5,2.2,0.9    c0.4,0.4,0.6,0.8,0.6,1.5c0,0.7-0.3,1.3-0.9,1.8c-0.6,0.5-1.4,0.7-2.6,0.7c-1,0-1.8-0.2-2.4-0.6C270.7,23.9,270.3,23.3,270.2,22.6    z"
         class="st0" /><path
         id="path48"
         d="M282.3,17.3v1.6H281v3c0,0.6,0,1,0,1.1c0,0.1,0.1,0.2,0.2,0.3c0.1,0.1,0.2,0.1,0.3,0.1c0.2,0,0.5-0.1,0.8-0.2    l0.2,1.5c-0.5,0.2-1,0.3-1.6,0.3c-0.4,0-0.7-0.1-1-0.2s-0.5-0.3-0.6-0.5c-0.1-0.2-0.2-0.4-0.3-0.8c0-0.2-0.1-0.7-0.1-1.4v-3.3    h-0.9v-1.6h0.9v-1.5l2-1.2v2.6H282.3z"
         class="st0" /><path
         id="path50"
         d="M285.6,24.8h-2v-7.5h1.8v1.1c0.3-0.5,0.6-0.8,0.9-1c0.3-0.2,0.5-0.2,0.9-0.2c0.5,0,0.9,0.1,1.3,0.4l-0.6,1.7    c-0.3-0.2-0.6-0.3-0.9-0.3c-0.3,0-0.5,0.1-0.7,0.2c-0.2,0.2-0.3,0.4-0.5,0.8c-0.1,0.4-0.2,1.2-0.2,2.5V24.8z"
         class="st0" /><path
         id="path52"
         d="M290.8,19.5l-1.8-0.3c0.2-0.7,0.6-1.3,1-1.6c0.5-0.3,1.2-0.5,2.2-0.5c0.9,0,1.5,0.1,2,0.3    c0.4,0.2,0.7,0.5,0.9,0.8c0.2,0.3,0.3,0.9,0.3,1.8l0,2.3c0,0.7,0,1.1,0.1,1.5c0.1,0.3,0.2,0.6,0.4,1h-2c-0.1-0.1-0.1-0.3-0.2-0.6    c0-0.1-0.1-0.2-0.1-0.2c-0.3,0.3-0.7,0.6-1.1,0.7c-0.4,0.2-0.8,0.2-1.2,0.2c-0.8,0-1.4-0.2-1.8-0.6c-0.4-0.4-0.7-0.9-0.7-1.6    c0-0.4,0.1-0.8,0.3-1.1c0.2-0.3,0.5-0.6,0.9-0.8c0.4-0.2,0.9-0.3,1.6-0.5c0.9-0.2,1.6-0.3,1.9-0.5v-0.2c0-0.4-0.1-0.7-0.3-0.8    c-0.2-0.2-0.5-0.2-1.1-0.2c-0.4,0-0.6,0.1-0.8,0.2C291.1,19,291,19.2,290.8,19.5z M293.5,21.2c-0.3,0.1-0.7,0.2-1.2,0.3    c-0.6,0.1-0.9,0.2-1.1,0.3c-0.3,0.2-0.4,0.4-0.4,0.7c0,0.3,0.1,0.5,0.3,0.7c0.2,0.2,0.5,0.3,0.8,0.3c0.4,0,0.7-0.1,1-0.4    c0.2-0.2,0.4-0.4,0.5-0.7c0.1-0.2,0.1-0.5,0.1-1V21.2z"
         class="st0" /><path
         id="path54"
         d="M297.4,24.8V14.4h2v10.4H297.4z"
         class="st0" /><path
         id="path56"
         d="M301.4,16.2v-1.8h2v1.8H301.4z M301.4,24.8v-7.5h2v7.5H301.4z"
         class="st0" /><path
         id="path58"
         d="M306.9,19.5l-1.8-0.3c0.2-0.7,0.6-1.3,1-1.6c0.5-0.3,1.2-0.5,2.2-0.5c0.9,0,1.5,0.1,2,0.3    c0.4,0.2,0.7,0.5,0.9,0.8c0.2,0.3,0.3,0.9,0.3,1.8l0,2.3c0,0.7,0,1.1,0.1,1.5c0.1,0.3,0.2,0.6,0.4,1h-2c-0.1-0.1-0.1-0.3-0.2-0.6    c0-0.1-0.1-0.2-0.1-0.2c-0.3,0.3-0.7,0.6-1.1,0.7c-0.4,0.2-0.8,0.2-1.2,0.2c-0.8,0-1.4-0.2-1.8-0.6c-0.4-0.4-0.7-0.9-0.7-1.6    c0-0.4,0.1-0.8,0.3-1.1c0.2-0.3,0.5-0.6,0.9-0.8c0.4-0.2,0.9-0.3,1.6-0.5c0.9-0.2,1.6-0.3,1.9-0.5v-0.2c0-0.4-0.1-0.7-0.3-0.8    c-0.2-0.2-0.5-0.2-1.1-0.2c-0.4,0-0.6,0.1-0.8,0.2C307.2,19,307,19.2,306.9,19.5z M309.6,21.2c-0.3,0.1-0.7,0.2-1.2,0.3    c-0.6,0.1-0.9,0.2-1.1,0.3c-0.3,0.2-0.4,0.4-0.4,0.7c0,0.3,0.1,0.5,0.3,0.7c0.2,0.2,0.5,0.3,0.8,0.3c0.4,0,0.7-0.1,1-0.4    c0.2-0.2,0.4-0.4,0.5-0.7c0.1-0.2,0.1-0.5,0.1-1V21.2z"
         class="st0" /><path
         id="path60"
         d="M98.2,38.6l2,0.6c-0.3,1.1-0.8,2-1.6,2.5c-0.7,0.5-1.6,0.8-2.8,0.8c-1.4,0-2.5-0.5-3.4-1.4    c-0.9-0.9-1.3-2.2-1.3-3.9c0-1.7,0.4-3.1,1.3-4c0.9-1,2.1-1.4,3.5-1.4c1.3,0,2.3,0.4,3.1,1.1c0.5,0.4,0.8,1.1,1.1,1.9l-2.1,0.5    c-0.1-0.5-0.4-1-0.8-1.3s-0.9-0.5-1.4-0.5c-0.8,0-1.4,0.3-1.9,0.8s-0.7,1.4-0.7,2.7c0,1.3,0.2,2.2,0.7,2.8    c0.5,0.6,1.1,0.8,1.8,0.8c0.6,0,1-0.2,1.4-0.5S98.1,39.4,98.2,38.6z"
         class="st0" /><path
         id="path62"
         d="M101.6,38.6c0-0.7,0.2-1.3,0.5-1.9c0.3-0.6,0.8-1.1,1.4-1.4c0.6-0.3,1.3-0.5,2-0.5c1.1,0,2.1,0.4,2.8,1.1    c0.7,0.7,1.1,1.7,1.1,2.8c0,1.1-0.4,2.1-1.1,2.8c-0.7,0.7-1.7,1.1-2.8,1.1c-0.7,0-1.3-0.2-2-0.5c-0.6-0.3-1.1-0.8-1.4-1.4    C101.7,40.2,101.6,39.4,101.6,38.6z M103.6,38.7c0,0.7,0.2,1.3,0.5,1.7c0.4,0.4,0.8,0.6,1.3,0.6c0.5,0,1-0.2,1.3-0.6    c0.4-0.4,0.5-1,0.5-1.7c0-0.7-0.2-1.3-0.5-1.7c-0.4-0.4-0.8-0.6-1.3-0.6c-0.5,0-1,0.2-1.3,0.6C103.8,37.4,103.6,37.9,103.6,38.7z"
         class="st0" /><path
         id="path64"
         d="M117.7,42.4h-2v-3.8c0-0.8,0-1.3-0.1-1.6c-0.1-0.2-0.2-0.4-0.4-0.6c-0.2-0.1-0.4-0.2-0.7-0.2    c-0.3,0-0.7,0.1-0.9,0.3c-0.3,0.2-0.5,0.4-0.6,0.7c-0.1,0.3-0.2,0.9-0.2,1.7v3.4h-2v-7.5h1.8V36c0.7-0.8,1.5-1.3,2.5-1.3    c0.4,0,0.8,0.1,1.2,0.2c0.4,0.2,0.6,0.4,0.8,0.6c0.2,0.2,0.3,0.5,0.4,0.8c0.1,0.3,0.1,0.8,0.1,1.3V42.4z"
         class="st0" /><path
         id="path66"
         d="M119,40.3l2-0.3c0.1,0.4,0.3,0.7,0.5,0.9c0.3,0.2,0.6,0.3,1.1,0.3c0.5,0,0.9-0.1,1.2-0.3    c0.2-0.1,0.3-0.3,0.3-0.5c0-0.2,0-0.3-0.1-0.4c-0.1-0.1-0.3-0.2-0.7-0.3c-1.6-0.4-2.6-0.7-3-1c-0.6-0.4-0.9-1-0.9-1.7    c0-0.6,0.3-1.2,0.8-1.6c0.5-0.4,1.3-0.7,2.4-0.7c1,0,1.8,0.2,2.3,0.5s0.8,0.8,1,1.5l-1.9,0.3c-0.1-0.3-0.2-0.5-0.5-0.7    c-0.2-0.2-0.5-0.2-1-0.2c-0.5,0-0.9,0.1-1.1,0.2c-0.2,0.1-0.2,0.2-0.2,0.4c0,0.1,0.1,0.3,0.2,0.4c0.2,0.1,0.8,0.3,1.9,0.6    c1.1,0.2,1.8,0.5,2.2,0.9c0.4,0.4,0.6,0.8,0.6,1.5c0,0.7-0.3,1.3-0.9,1.8c-0.6,0.5-1.4,0.7-2.5,0.7c-1,0-1.8-0.2-2.4-0.6    C119.6,41.6,119.2,41,119,40.3z"
         class="st0" /><path
         id="path68"
         d="M132.1,40l2,0.3c-0.3,0.7-0.7,1.3-1.2,1.7c-0.5,0.4-1.2,0.6-2.1,0.6c-1.3,0-2.3-0.4-2.9-1.3    c-0.5-0.7-0.7-1.5-0.7-2.6c0-1.2,0.3-2.2,1-2.9c0.6-0.7,1.5-1.1,2.5-1.1c1.1,0,2,0.4,2.6,1.1c0.6,0.7,1,1.9,0.9,3.4h-5    c0,0.6,0.2,1,0.5,1.4c0.3,0.3,0.7,0.5,1.1,0.5c0.3,0,0.6-0.1,0.8-0.3C131.8,40.7,132,40.4,132.1,40z M132.2,38    c0-0.6-0.2-1-0.4-1.3c-0.3-0.3-0.6-0.4-1-0.4c-0.4,0-0.8,0.2-1.1,0.5c-0.3,0.3-0.4,0.7-0.4,1.3H132.2z"
         class="st0" /><path
         id="path70"
         d="M137.7,42.4h-2v-7.5h1.8V36c0.3-0.5,0.6-0.8,0.9-1c0.3-0.2,0.5-0.2,0.9-0.2c0.5,0,0.9,0.1,1.3,0.4l-0.6,1.7    c-0.3-0.2-0.6-0.3-0.9-0.3c-0.3,0-0.5,0.1-0.7,0.2c-0.2,0.2-0.3,0.4-0.5,0.8s-0.2,1.2-0.2,2.5V42.4z"
         class="st0" /><path
         id="path72"
         d="M143.5,42.4l-3-7.5h2.1l1.4,3.8l0.4,1.3c0.1-0.3,0.2-0.5,0.2-0.6c0.1-0.2,0.1-0.4,0.2-0.6l1.4-3.8h2l-3,7.5    H143.5z"
         class="st0" /><path
         id="path74"
         d="M151,37.2l-1.8-0.3c0.2-0.7,0.6-1.3,1-1.6c0.5-0.3,1.2-0.5,2.2-0.5c0.9,0,1.5,0.1,2,0.3    c0.4,0.2,0.7,0.5,0.9,0.8c0.2,0.3,0.3,0.9,0.3,1.8l0,2.3c0,0.7,0,1.1,0.1,1.5c0.1,0.3,0.2,0.6,0.4,1h-2c-0.1-0.1-0.1-0.3-0.2-0.6    c0-0.1-0.1-0.2-0.1-0.2c-0.3,0.3-0.7,0.6-1.1,0.7c-0.4,0.2-0.8,0.2-1.2,0.2c-0.8,0-1.4-0.2-1.8-0.6c-0.4-0.4-0.7-0.9-0.7-1.6    c0-0.4,0.1-0.8,0.3-1.1c0.2-0.3,0.5-0.6,0.9-0.8c0.4-0.2,0.9-0.3,1.6-0.5c0.9-0.2,1.6-0.3,1.9-0.5v-0.2c0-0.4-0.1-0.7-0.3-0.8    c-0.2-0.2-0.5-0.2-1.1-0.2c-0.4,0-0.6,0.1-0.8,0.2C151.2,36.6,151.1,36.9,151,37.2z M153.6,38.8c-0.3,0.1-0.7,0.2-1.2,0.3    c-0.6,0.1-0.9,0.2-1.1,0.3c-0.3,0.2-0.4,0.4-0.4,0.7c0,0.3,0.1,0.5,0.3,0.7c0.2,0.2,0.5,0.3,0.8,0.3c0.4,0,0.7-0.1,1-0.4    c0.2-0.2,0.4-0.4,0.5-0.7c0.1-0.2,0.1-0.5,0.1-1V38.8z"
         class="st0" /><path
         id="path76"
         d="M161,34.9v1.6h-1.4v3c0,0.6,0,1,0,1.1c0,0.1,0.1,0.2,0.2,0.3c0.1,0.1,0.2,0.1,0.3,0.1c0.2,0,0.4-0.1,0.8-0.2    l0.2,1.5c-0.5,0.2-1,0.3-1.6,0.3c-0.4,0-0.7-0.1-1-0.2c-0.3-0.1-0.5-0.3-0.6-0.5s-0.2-0.4-0.3-0.8c0-0.2-0.1-0.7-0.1-1.4v-3.3    h-0.9v-1.6h0.9v-1.5l2-1.2v2.6H161z"
         class="st0" /><path
         id="path78"
         d="M162.3,33.9v-1.8h2v1.8H162.3z M162.3,42.4v-7.5h2v7.5H162.3z"
         class="st0" /><path
         id="path80"
         d="M165.9,38.6c0-0.7,0.2-1.3,0.5-1.9c0.3-0.6,0.8-1.1,1.4-1.4c0.6-0.3,1.3-0.5,2-0.5c1.1,0,2.1,0.4,2.8,1.1    c0.7,0.7,1.1,1.7,1.1,2.8c0,1.1-0.4,2.1-1.1,2.8c-0.7,0.7-1.7,1.1-2.8,1.1c-0.7,0-1.3-0.2-2-0.5c-0.6-0.3-1.1-0.8-1.4-1.4    C166.1,40.2,165.9,39.4,165.9,38.6z M167.9,38.7c0,0.7,0.2,1.3,0.5,1.7c0.4,0.4,0.8,0.6,1.3,0.6c0.5,0,1-0.2,1.3-0.6    c0.4-0.4,0.5-1,0.5-1.7c0-0.7-0.2-1.3-0.5-1.7c-0.4-0.4-0.8-0.6-1.3-0.6c-0.5,0-1,0.2-1.3,0.6C168.1,37.4,167.9,37.9,167.9,38.7z"
         class="st0" /><path
         id="path82"
         d="M182,42.4h-2v-3.8c0-0.8,0-1.3-0.1-1.6c-0.1-0.2-0.2-0.4-0.4-0.6c-0.2-0.1-0.4-0.2-0.7-0.2    c-0.3,0-0.7,0.1-0.9,0.3c-0.3,0.2-0.5,0.4-0.6,0.7s-0.2,0.9-0.2,1.7v3.4h-2v-7.5h1.8V36c0.7-0.8,1.5-1.3,2.5-1.3    c0.4,0,0.8,0.1,1.2,0.2c0.4,0.2,0.6,0.4,0.8,0.6c0.2,0.2,0.3,0.5,0.4,0.8c0.1,0.3,0.1,0.8,0.1,1.3V42.4z"
         class="st0" /><path
         id="path84"
         d="M189.5,37.2l-1.8-0.3c0.2-0.7,0.6-1.3,1-1.6c0.5-0.3,1.2-0.5,2.2-0.5c0.9,0,1.5,0.1,2,0.3    c0.4,0.2,0.7,0.5,0.9,0.8c0.2,0.3,0.3,0.9,0.3,1.8l0,2.3c0,0.7,0,1.1,0.1,1.5c0.1,0.3,0.2,0.6,0.4,1h-2c-0.1-0.1-0.1-0.3-0.2-0.6    c0-0.1-0.1-0.2-0.1-0.2c-0.3,0.3-0.7,0.6-1.1,0.7c-0.4,0.2-0.8,0.2-1.2,0.2c-0.8,0-1.4-0.2-1.8-0.6c-0.4-0.4-0.7-0.9-0.7-1.6    c0-0.4,0.1-0.8,0.3-1.1c0.2-0.3,0.5-0.6,0.9-0.8c0.4-0.2,0.9-0.3,1.6-0.5c0.9-0.2,1.6-0.3,1.9-0.5v-0.2c0-0.4-0.1-0.7-0.3-0.8    c-0.2-0.2-0.5-0.2-1.1-0.2c-0.4,0-0.6,0.1-0.8,0.2C189.8,36.6,189.6,36.9,189.5,37.2z M192.2,38.8c-0.3,0.1-0.7,0.2-1.2,0.3    c-0.6,0.1-0.9,0.2-1.1,0.3c-0.3,0.2-0.4,0.4-0.4,0.7c0,0.3,0.1,0.5,0.3,0.7c0.2,0.2,0.5,0.3,0.8,0.3c0.4,0,0.7-0.1,1-0.4    c0.2-0.2,0.4-0.4,0.5-0.7c0.1-0.2,0.1-0.5,0.1-1V38.8z"
         class="st0" /><path
         id="path86"
         d="M202.9,42.4h-2v-3.8c0-0.8,0-1.3-0.1-1.6c-0.1-0.2-0.2-0.4-0.4-0.6c-0.2-0.1-0.4-0.2-0.7-0.2    c-0.3,0-0.7,0.1-0.9,0.3c-0.3,0.2-0.5,0.4-0.6,0.7c-0.1,0.3-0.2,0.9-0.2,1.7v3.4h-2v-7.5h1.8V36c0.7-0.8,1.5-1.3,2.5-1.3    c0.4,0,0.8,0.1,1.2,0.2c0.4,0.2,0.6,0.4,0.8,0.6c0.2,0.2,0.3,0.5,0.4,0.8c0.1,0.3,0.1,0.8,0.1,1.3V42.4z"
         class="st0" /><path
         id="path88"
         d="M211.8,42.4H210v-1.1c-0.3,0.4-0.7,0.7-1.1,1c-0.4,0.2-0.8,0.3-1.3,0.3c-0.9,0-1.6-0.3-2.2-1    c-0.6-0.7-0.9-1.7-0.9-2.9c0-1.3,0.3-2.2,0.9-2.9c0.6-0.7,1.4-1,2.3-1c0.8,0,1.6,0.3,2.2,1v-3.7h2V42.4z M206.5,38.5    c0,0.8,0.1,1.4,0.3,1.7c0.3,0.5,0.8,0.8,1.3,0.8c0.5,0,0.8-0.2,1.2-0.6c0.3-0.4,0.5-1,0.5-1.7c0-0.9-0.2-1.5-0.5-1.9    c-0.3-0.4-0.7-0.6-1.2-0.6c-0.5,0-0.9,0.2-1.2,0.6S206.5,37.8,206.5,38.5z"
         class="st0" /><path
         id="path90"
         d="M217.8,42.4V32.1h3.4c1.3,0,2.1,0.1,2.5,0.2c0.6,0.2,1.1,0.5,1.5,1c0.4,0.5,0.6,1.2,0.6,2    c0,0.6-0.1,1.2-0.3,1.6c-0.2,0.4-0.5,0.8-0.9,1c-0.4,0.2-0.7,0.4-1.1,0.5c-0.5,0.1-1.2,0.1-2.2,0.1h-1.4v3.9H217.8z M219.9,33.8    v2.9h1.1c0.8,0,1.4-0.1,1.7-0.2c0.3-0.1,0.5-0.3,0.7-0.5c0.2-0.2,0.2-0.5,0.2-0.8c0-0.4-0.1-0.7-0.3-0.9c-0.2-0.2-0.5-0.4-0.8-0.5    c-0.2,0-0.8-0.1-1.5-0.1H219.9z"
         class="st0" /><path
         id="path92"
         d="M228.9,37.2l-1.8-0.3c0.2-0.7,0.6-1.3,1-1.6c0.5-0.3,1.2-0.5,2.2-0.5c0.9,0,1.5,0.1,2,0.3    c0.4,0.2,0.7,0.5,0.9,0.8c0.2,0.3,0.3,0.9,0.3,1.8l0,2.3c0,0.7,0,1.1,0.1,1.5c0.1,0.3,0.2,0.6,0.4,1h-2c-0.1-0.1-0.1-0.3-0.2-0.6    c0-0.1-0.1-0.2-0.1-0.2c-0.3,0.3-0.7,0.6-1.1,0.7c-0.4,0.2-0.8,0.2-1.2,0.2c-0.8,0-1.4-0.2-1.8-0.6c-0.4-0.4-0.7-0.9-0.7-1.6    c0-0.4,0.1-0.8,0.3-1.1s0.5-0.6,0.9-0.8c0.4-0.2,0.9-0.3,1.6-0.5c0.9-0.2,1.6-0.3,1.9-0.5v-0.2c0-0.4-0.1-0.7-0.3-0.8    c-0.2-0.2-0.5-0.2-1.1-0.2c-0.4,0-0.6,0.1-0.8,0.2C229.2,36.6,229,36.9,228.9,37.2z M231.6,38.8c-0.3,0.1-0.7,0.2-1.2,0.3    c-0.6,0.1-0.9,0.2-1.1,0.3c-0.3,0.2-0.4,0.4-0.4,0.7c0,0.3,0.1,0.5,0.3,0.7c0.2,0.2,0.5,0.3,0.8,0.3c0.4,0,0.7-0.1,1-0.4    c0.2-0.2,0.4-0.4,0.5-0.7c0.1-0.2,0.1-0.5,0.1-1V38.8z"
         class="st0" /><path
         id="path94"
         d="M237.4,42.4h-2v-7.5h1.8V36c0.3-0.5,0.6-0.8,0.9-1c0.3-0.2,0.5-0.2,0.9-0.2c0.5,0,0.9,0.1,1.3,0.4l-0.6,1.7    c-0.3-0.2-0.6-0.3-0.9-0.3c-0.3,0-0.5,0.1-0.7,0.2c-0.2,0.2-0.3,0.4-0.5,0.8s-0.2,1.2-0.2,2.5V42.4z"
         class="st0" /><path
         id="path96"
         d="M241,42.4V32.1h2v5.5l2.3-2.6h2.4l-2.6,2.7l2.7,4.8h-2.1l-1.9-3.4l-0.9,1v2.4H241z"
         class="st0" /><path
         id="path98"
         d="M248.4,40.3l2-0.3c0.1,0.4,0.3,0.7,0.5,0.9s0.6,0.3,1.1,0.3c0.5,0,0.9-0.1,1.2-0.3c0.2-0.1,0.3-0.3,0.3-0.5    c0-0.2,0-0.3-0.1-0.4c-0.1-0.1-0.3-0.2-0.7-0.3c-1.6-0.4-2.6-0.7-3-1c-0.6-0.4-0.9-1-0.9-1.7c0-0.6,0.3-1.2,0.8-1.6    c0.5-0.4,1.3-0.7,2.4-0.7c1,0,1.8,0.2,2.3,0.5c0.5,0.3,0.8,0.8,1,1.5l-1.9,0.3c-0.1-0.3-0.2-0.5-0.5-0.7c-0.2-0.2-0.5-0.2-1-0.2    c-0.5,0-0.9,0.1-1.1,0.2c-0.2,0.1-0.2,0.2-0.2,0.4c0,0.1,0.1,0.3,0.2,0.4c0.2,0.1,0.8,0.3,1.9,0.6c1.1,0.2,1.8,0.5,2.2,0.9    c0.4,0.4,0.6,0.8,0.6,1.5c0,0.7-0.3,1.3-0.9,1.8c-0.6,0.5-1.4,0.7-2.6,0.7c-1,0-1.8-0.2-2.4-0.6C249,41.6,248.6,41,248.4,40.3z"
         class="st0" /><path
         id="path100"
         d="M267.8,38.6l2,0.6c-0.3,1.1-0.8,2-1.6,2.5c-0.7,0.5-1.6,0.8-2.8,0.8c-1.4,0-2.5-0.5-3.4-1.4    c-0.9-0.9-1.3-2.2-1.3-3.9c0-1.7,0.4-3.1,1.3-4c0.9-1,2.1-1.4,3.5-1.4c1.3,0,2.3,0.4,3.1,1.1c0.5,0.4,0.8,1.1,1.1,1.9l-2.1,0.5    c-0.1-0.5-0.4-1-0.8-1.3c-0.4-0.3-0.9-0.5-1.4-0.5c-0.8,0-1.4,0.3-1.9,0.8c-0.5,0.6-0.7,1.4-0.7,2.7c0,1.3,0.2,2.2,0.7,2.8    c0.5,0.6,1.1,0.8,1.8,0.8c0.6,0,1-0.2,1.4-0.5C267.4,39.9,267.7,39.4,267.8,38.6z"
         class="st0" /><path
         id="path102"
         d="M271.2,38.6c0-0.7,0.2-1.3,0.5-1.9c0.3-0.6,0.8-1.1,1.4-1.4c0.6-0.3,1.3-0.5,2-0.5c1.1,0,2.1,0.4,2.8,1.1    c0.7,0.7,1.1,1.7,1.1,2.8c0,1.1-0.4,2.1-1.1,2.8c-0.7,0.7-1.7,1.1-2.8,1.1c-0.7,0-1.3-0.2-2-0.5c-0.6-0.3-1.1-0.8-1.4-1.4    C271.4,40.2,271.2,39.4,271.2,38.6z M273.2,38.7c0,0.7,0.2,1.3,0.5,1.7c0.4,0.4,0.8,0.6,1.3,0.6c0.5,0,1-0.2,1.3-0.6    c0.4-0.4,0.5-1,0.5-1.7c0-0.7-0.2-1.3-0.5-1.7c-0.4-0.4-0.8-0.6-1.3-0.6c-0.5,0-1,0.2-1.3,0.6C273.4,37.4,273.2,37.9,273.2,38.7z"
         class="st0" /><path
         id="path104"
         d="M280.3,34.9h1.8v1c0.7-0.8,1.4-1.2,2.3-1.2c0.5,0,0.9,0.1,1.3,0.3c0.4,0.2,0.6,0.5,0.9,0.9    c0.3-0.4,0.7-0.7,1.1-0.9c0.4-0.2,0.8-0.3,1.2-0.3c0.6,0,1,0.1,1.4,0.3c0.4,0.2,0.7,0.6,0.9,1c0.1,0.3,0.2,0.8,0.2,1.6v4.8h-2    v-4.3c0-0.7-0.1-1.2-0.2-1.4c-0.2-0.3-0.5-0.4-0.8-0.4c-0.3,0-0.5,0.1-0.8,0.3c-0.2,0.2-0.4,0.4-0.5,0.7c-0.1,0.3-0.2,0.8-0.2,1.6    v3.6h-2v-4.1c0-0.7,0-1.2-0.1-1.4c-0.1-0.2-0.2-0.4-0.3-0.5c-0.1-0.1-0.3-0.2-0.6-0.2c-0.3,0-0.6,0.1-0.8,0.2    c-0.2,0.2-0.4,0.4-0.5,0.7c-0.1,0.3-0.2,0.8-0.2,1.5v3.6h-2V34.9z"
         class="st0" /><path
         id="path106"
         d="M293.2,34.9h1.8v1c0.7-0.8,1.4-1.2,2.3-1.2c0.5,0,0.9,0.1,1.3,0.3c0.4,0.2,0.6,0.5,0.9,0.9    c0.3-0.4,0.7-0.7,1.1-0.9c0.4-0.2,0.8-0.3,1.2-0.3c0.6,0,1,0.1,1.4,0.3c0.4,0.2,0.7,0.6,0.9,1c0.1,0.3,0.2,0.8,0.2,1.6v4.8h-2    v-4.3c0-0.7-0.1-1.2-0.2-1.4c-0.2-0.3-0.5-0.4-0.8-0.4c-0.3,0-0.5,0.1-0.8,0.3c-0.2,0.2-0.4,0.4-0.5,0.7c-0.1,0.3-0.2,0.8-0.2,1.6    v3.6h-2v-4.1c0-0.7,0-1.2-0.1-1.4c-0.1-0.2-0.2-0.4-0.3-0.5c-0.1-0.1-0.3-0.2-0.6-0.2c-0.3,0-0.6,0.1-0.8,0.2    c-0.2,0.2-0.4,0.4-0.5,0.7s-0.2,0.8-0.2,1.5v3.6h-2V34.9z"
         class="st0" /><path
         id="path108"
         d="M306.2,33.9v-1.8h2v1.8H306.2z M306.2,42.4v-7.5h2v7.5H306.2z"
         class="st0" /><path
         id="path110"
         d="M309.5,40.3l2-0.3c0.1,0.4,0.3,0.7,0.5,0.9s0.6,0.3,1.1,0.3c0.5,0,0.9-0.1,1.2-0.3c0.2-0.1,0.3-0.3,0.3-0.5    c0-0.2,0-0.3-0.1-0.4c-0.1-0.1-0.3-0.2-0.7-0.3c-1.6-0.4-2.6-0.7-3-1c-0.6-0.4-0.9-1-0.9-1.7c0-0.6,0.3-1.2,0.8-1.6    c0.5-0.4,1.3-0.7,2.4-0.7c1,0,1.8,0.2,2.3,0.5c0.5,0.3,0.8,0.8,1,1.5l-1.9,0.3c-0.1-0.3-0.2-0.5-0.5-0.7c-0.2-0.2-0.5-0.2-1-0.2    c-0.5,0-0.9,0.1-1.1,0.2c-0.2,0.1-0.2,0.2-0.2,0.4c0,0.1,0.1,0.3,0.2,0.4c0.2,0.1,0.8,0.3,1.9,0.6c1.1,0.2,1.8,0.5,2.2,0.9    c0.4,0.4,0.6,0.8,0.6,1.5c0,0.7-0.3,1.3-0.9,1.8c-0.6,0.5-1.4,0.7-2.6,0.7c-1,0-1.8-0.2-2.4-0.6C310.1,41.6,309.7,41,309.5,40.3z"
         class="st0" /><path
         id="path112"
         d="M317.6,40.3l2-0.3c0.1,0.4,0.3,0.7,0.5,0.9s0.6,0.3,1.1,0.3c0.5,0,0.9-0.1,1.2-0.3c0.2-0.1,0.3-0.3,0.3-0.5    c0-0.2,0-0.3-0.1-0.4c-0.1-0.1-0.3-0.2-0.7-0.3c-1.6-0.4-2.6-0.7-3-1c-0.6-0.4-0.9-1-0.9-1.7c0-0.6,0.3-1.2,0.8-1.6    c0.5-0.4,1.3-0.7,2.4-0.7c1,0,1.8,0.2,2.3,0.5c0.5,0.3,0.8,0.8,1,1.5l-1.9,0.3c-0.1-0.3-0.2-0.5-0.5-0.7c-0.2-0.2-0.5-0.2-1-0.2    c-0.5,0-0.9,0.1-1.1,0.2c-0.2,0.1-0.2,0.2-0.2,0.4c0,0.1,0.1,0.3,0.2,0.4c0.2,0.1,0.8,0.3,1.9,0.6c1.1,0.2,1.8,0.5,2.2,0.9    c0.4,0.4,0.6,0.8,0.6,1.5c0,0.7-0.3,1.3-0.9,1.8c-0.6,0.5-1.4,0.7-2.6,0.7c-1,0-1.8-0.2-2.4-0.6C318.2,41.6,317.8,41,317.6,40.3z"
         class="st0" /><path
         id="path114"
         d="M326.3,33.9v-1.8h2v1.8H326.3z M326.3,42.4v-7.5h2v7.5H326.3z"
         class="st0" /><path
         id="path116"
         d="M329.9,38.6c0-0.7,0.2-1.3,0.5-1.9c0.3-0.6,0.8-1.1,1.4-1.4c0.6-0.3,1.3-0.5,2-0.5c1.1,0,2.1,0.4,2.8,1.1    c0.7,0.7,1.1,1.7,1.1,2.8c0,1.1-0.4,2.1-1.1,2.8c-0.7,0.7-1.7,1.1-2.8,1.1c-0.7,0-1.3-0.2-2-0.5c-0.6-0.3-1.1-0.8-1.4-1.4    C330,40.2,329.9,39.4,329.9,38.6z M331.9,38.7c0,0.7,0.2,1.3,0.5,1.7c0.4,0.4,0.8,0.6,1.3,0.6c0.5,0,1-0.2,1.3-0.6    c0.4-0.4,0.5-1,0.5-1.7c0-0.7-0.2-1.3-0.5-1.7c-0.4-0.4-0.8-0.6-1.3-0.6c-0.5,0-1,0.2-1.3,0.6C332.1,37.4,331.9,37.9,331.9,38.7z"
         class="st0" /><path
         id="path118"
         d="M346,42.4h-2v-3.8c0-0.8,0-1.3-0.1-1.6c-0.1-0.2-0.2-0.4-0.4-0.6c-0.2-0.1-0.4-0.2-0.7-0.2    c-0.3,0-0.7,0.1-0.9,0.3c-0.3,0.2-0.5,0.4-0.6,0.7c-0.1,0.3-0.2,0.9-0.2,1.7v3.4h-2v-7.5h1.8V36c0.7-0.8,1.5-1.3,2.5-1.3    c0.4,0,0.8,0.1,1.2,0.2c0.4,0.2,0.6,0.4,0.8,0.6c0.2,0.2,0.3,0.5,0.4,0.8c0.1,0.3,0.1,0.8,0.1,1.3V42.4z"
         class="st0" /></g><g
       id="g215"><g
         id="g134"><g
           id="g132"><g
             id="XMLID_6_"><g
               id="g122" /><g
               id="g124" /></g><g
             id="XMLID_5_"><g
               id="g127" /><g
               id="g129" /></g></g></g><g
         id="g209"><g
           id="XMLID_4_"><g
             id="g204"><path
               id="path136"
               d="M29.4,29.9c-0.1-0.5-0.5-1.1-0.6-1.8c0-0.3,0-0.5,0.1-0.7c0-0.7,0.3-1.1,0.6-1.7c0.1-0.1,0.3-0.2,0.3-0.3       c-0.3,0-0.5,0.2-0.7,0.4c-0.2,0.2-0.5,0.8-0.6,1.1c0,0,0,0.1,0,0.2c-0.1,0.8,0,1.5,0.3,2C28.9,29.4,29.2,29.8,29.4,29.9z        M87.9,66C87.9,66,87.9,66,87.9,66C87.9,66,87.9,66,87.9,66c0,0.2-0.1,0.3-0.1,0.5c-0.3,0.2-0.7,0.3-1,0.4       c-0.9,0.2-2.3,0.2-3.4,0.2c-0.3,0-0.7,0-1,0.1c-1.4,0.1-3.1,0.3-4.2,0.3c-1.3,0.1-2.5,0.3-3.7,0.4c-0.9,0.1-1.8,0.2-2.8,0.2       c-0.7,0-1.5,0.1-2.3,0.1c-0.3,0-0.5,0-0.8,0c-0.3,0-0.5,0.1-0.7,0.1c-0.2,0-0.4-0.1-0.6-0.1c-0.2,0-0.4,0.1-0.7,0.1       c-0.2,0-0.4,0-0.5,0c-0.4,0-0.8,0.1-1.2,0.1c-0.4,0-0.9,0-1.3,0c-1.4,0.2-2.6,0.2-3.8,0.3c0,0,0,0,0,0c0,0,0,0,0,0       c-0.9,0-1.9-0.1-3,0c0,0,0,0,0,0c0,0,0,0-0.1,0c-1.7,0-3-0.1-4.5-0.2c-1.5,0-3-0.3-4.6-0.4c-0.8,0-1.6,0-2.3,0       c-0.8,0-1.4,0.2-2.1,0.2c-0.7,0-1.4,0-2.1,0c-0.7,0-1.5,0-2.1,0c-0.7,0-1.4,0-2.1,0.1c-0.8,0-1.7,0.1-2.6,0       c-2.4-0.1-4.5-0.3-6.9-0.3c-0.2,0-0.4,0-0.6-0.1c-0.2,0-0.3,0-0.5,0c-0.4,0-0.8-0.1-1.2-0.1c-0.8,0-1.6-0.2-2.5-0.2       c-0.8-0.1-1.5-0.3-2.3-0.3c-0.7,0-1.7,0-2.5-0.2c-0.4,0-0.9-0.2-1.3-0.3c-0.4-0.2-0.9-0.3-1.3-0.4c-0.4,0-1,0-1.5-0.1       c-0.5,0-0.9-0.1-1.4-0.1c-0.4,0-0.9,0-1.3,0c-1-0.1-1.9,0-2.7-0.1c-1.5-0.2-2.7-0.1-4-0.3c-0.1,0.1-0.5,0-0.6,0.1       C3.4,66,3.2,65.9,3,65.7c0-0.1,0-0.1,0-0.2c0.2-0.3,0.8-0.3,0.6-0.9c0.1-0.1,0.3-0.3,0.5-0.3C5,64,6.3,64,7.1,64       c0.2-0.1,0.3-0.1,0.5-0.1c1.8-0.1,3.6,0,5.2-0.5c0.5-0.2,1-0.3,1.5-0.5c0.2-0.2,0.5-0.3,0.7-0.6c0.6-0.6,0.7-1.7,0.9-2.5       c-0.1-1.5,0.2-3.3,0.3-5.2c0-0.8,0-1.7,0.1-2.2c0.1-0.6,0.2-1.3,0.2-1.8c-0.1-0.8-0.3-1.7-0.3-2.4c0-1.1-0.1-2.2,0.1-3.2       c0.1-1.1,0.3-2.1,0.6-3.1c0.1-0.5,0.3-0.9,0.5-1.4c0.2-0.4,0.4-0.9,0.6-1.4c0.1-0.3,0.1-0.7,0.2-1c0.1-0.3,0.1-0.7,0.3-0.9       c0.2-0.3,0.4-0.6,0.6-1c0.1-0.1,0.1-0.3,0.1-0.5c0.1-0.2,0.2-0.3,0.2-0.5c0.2-0.6,0.3-1.3,0.5-1.9c0.2-0.6,0.7-1.1,0.7-1.6       c0.1-0.6,0-1.3,0-1.8c-0.1-1.1-0.1-2.1,0.2-3c0-0.5,0.1-0.8,0.2-1.3c0.1-0.9,0-1.9-0.1-2.9c0-0.3-0.1-0.6-0.1-0.9       c0-0.2,0-0.4,0-0.6c0-0.3-0.1-0.5-0.2-0.8c-0.1-0.4-0.1-0.7-0.1-1.1c-0.1-0.6,0-1.3-0.1-1.8c-0.3-0.5-0.5-1-0.5-1.6       c0-0.2,0-0.4,0-0.5c0-0.3,0.3-1.3,0.6-1.3c0.2,0,0.4,0.2,0.6,0.4c0.3,0.3,0.8,0.7,0.9,1.1c0.1,0.3,0.1,0.8,0.3,0.9       c0.3,0.1,0.8-0.6,0.9-0.8c0.3-0.5,0.4-1.4,0.9-1.8c0.3,0,0.3,0.3,0.4,0.5c0.1,0.4,0.4,0.7,0.3,1.3c-0.3,0.4-0.3,1.2-0.6,1.7       c-0.2,0-0.6-0.2-0.7,0c0.1,0.2,0.5,0.1,0.7,0.2c0.3,0,0.5,0.2,0.8,0.2c0,0.2,0.2,0.1,0.3,0.2c0.2,0.1,0.3,0.5,0.5,0.6       c-0.4,0.4-0.1,0.7,0.2,0.9c0.3,0.3,0.8,0.6,1,0.9c0.1,0.4-0.1,0.8-0.4,1.1c-0.3,0.1-0.6,0.3-1,0.2c-0.2,0.2-0.5,0.2-0.7,0.3       c-0.1,0.6,0.3,1.1,0.5,1.5c0,0.2,0,0.4,0.1,0.6c0.1,0.3,0.5,0.5,0.7,0.8c0.2,0.3,0.6,0.6,0.6,0.9c0,0.2-0.1,0.5,0.2,0.6       c-0.1-0.5,0.4-0.8,0.5-1.2c0.3-0.3,0.6-0.7,1-0.8c0.3-0.3,0.6-0.4,1-0.6c0.3-0.1,0.6-0.3,0.9-0.4c0.7-0.3,1.6-0.7,2.3-1       c0.3-0.1,0.7-0.3,1.2-0.5c0.4-0.1,1-0.4,1.4-0.3c0.2,0,0.4,0.3,0.4,0.4c0,0.3-0.3,0.4-0.6,0.6c-0.3,0.2-0.5,0.4-0.7,0.5       c-0.5,0.3-1.1,0.5-1.5,0.9c-0.4,0.3-1,0.5-1.5,0.9c-0.4,0.3-1,0.6-1.4,1c-0.2,0.2-0.5,0.5-0.6,0.7c-0.2,0.6,0.1,1.5,0.3,1.9       c0.1,0.2,0.2,0.5,0.3,0.5c0.1,0,0.5-0.2,0.8-0.2c0.3-0.1,0.5-0.2,0.7-0.3c0-0.5,0.3-0.8,0.6-0.9c-0.1-0.4,0.2-0.4,0.4-0.6       c0.2-0.1,0.2-0.3,0.4-0.3c0.1,0,0.3,0.1,0.4,0.1c0.2,0,0.3-0.2,0.4-0.2c0.2,0,0.4,0.2,0.5,0.3c0.3-0.2,0.6,0.1,0.5,0.3       c0.2,0,0.3-0.1,0.4,0c0.1,0.1,0,0.4,0.1,0.6c1.9,0.1,4.4,0.1,6.5,0.1c1.6,0,3.7,0.1,5.1,0.1c1.6,0,3,0,5.1,0       c1.6,0,3.5,0.1,5.1,0.1c0.2-0.2,0.1-0.6,0.4-0.8c0.1,0,0.2,0.1,0.4,0c0.2,0,0.3-0.3,0.5-0.3c0.3,0,0.4,0.3,0.7,0.3       c0.1,0,0.3-0.1,0.4-0.1c0.3,0,0.7,0.3,0.8,0.4c0.1,0.1,0,0.2,0.1,0.3c0.1,0.1,0.3,0.2,0.3,0.3c0.1,0.2,0,0.4,0.2,0.6       c0.1,0.1,0.4,0.2,0.6,0.3c0.2,0.1,0.4,0.2,0.6,0.2c0.3-0.2,0.3-0.6,0.4-1.1c0.1-0.3,0.3-0.8,0.2-1.1c-0.1-0.5-0.6-0.6-0.8-1       c-1.3-0.9-2.5-1.9-4.2-2.4c-0.3-0.3-0.7-0.4-1-0.6c-0.6-0.5-0.3-1.1,0.5-1.2c0.1,0.1,0.3,0,0.5,0.1c0.6,0.1,1.1,0.5,1.6,0.7       c0.3,0.1,0.5,0.1,0.8,0.2c0.2,0.1,0.5,0.2,0.7,0.3c0.7,0.3,1.3,0.6,1.9,0.9c0.2,0.1,0.5,0.2,0.7,0.4c0.9,0.6,1.7,1.7,1.6,3       c0.3-0.1,0.2-0.3,0.2-0.8c0.8-1,1.8-1.9,2.3-3.2c0.1-0.3,0.2-0.8,0.1-1.2c-0.6,0.1-1.2-0.6-1.9-0.4c-0.4-0.2-0.5-0.7-0.5-1.1       c0.4-0.2,1.1-0.7,1.4-1.1c0.1-0.2,0.2-0.3,0.2-0.5c0-0.2-0.2-0.3-0.2-0.5c0.3-0.5,1-0.5,1.5-0.8c-0.5-1.1-0.9-3.2,0.2-3.9       c0.2,0.2,0.4,0.5,0.5,0.8c0.2,0.6,0.4,1.5,0.8,1.8c0.6,0.4,0.7-0.3,0.9-0.7c0.3-0.7,0.7-1.5,1.5-1.6c0.2,0.3,0.2,0.7,0.2,1       c0,0.4,0,0.8,0,1.1c0,0.4-0.2,0.7-0.3,1.1c-0.2,0.8-0.1,1.7-0.2,2.7c0,0.2-0.1,0.4-0.1,0.6c-0.1,0.7-0.1,1.2-0.3,1.9       c-0.1,0.6-0.3,1.1-0.3,1.5c0,0.5,0.1,0.8,0.2,1.2c0,0.2,0.1,0.4,0.1,0.7c0.2,1.2,0.4,2.6,0.3,3.9c0,0.6-0.3,1.2-0.3,1.6       c0,0.6,0.3,1.1,0.5,1.5c0.2,0.4,0.3,0.9,0.4,1.4c0.2,0.7,0.5,1.4,0.6,2.1c0.2,0.6,0.5,1.1,0.6,1.7c0.2,0.7,0.3,1.6,0.6,2.2       c0.3,0.6,0.7,1.1,0.9,1.6c0.1,0.4,0.2,0.7,0.3,1.1c0.1,0.5,0.2,0.9,0.2,1.4c0.1,1.1-0.1,2.1-0.2,3.2c0,1,0,1.5,0,2.3       c0,0.9,0.1,1.8,0,2.8c-0.1,0.7,0,1.5,0,2.4c0,1,0,1.9,0.1,2.7c-0.1,1.7,0.2,3.4,0.9,4.4c0.5,0.5,0.9,0.7,1.7,0.9       c0.3,0.1,0.6,0.2,0.8,0.3c0.3,0.1,0.6,0.1,1,0.1c0.2,0,0.4,0.1,0.6,0.1c0.7,0,1.5,0.1,2.2,0.1c0.7,0,1.4,0,2.1,0.1       c0.2,0,0.3,0.1,0.5,0.1c0.2,0,0.4,0,0.6,0c0.7,0.1,1.4,0.1,1.7,0.7c0,0.2-0.1,0.2-0.1,0.4C87.6,65.8,87.9,65.9,87.9,66z        M87.2,66.3c0.2-0.6-0.6-0.2-0.9-0.2c-0.4,0-0.8-0.1-1-0.1c-0.1,0-0.1,0.1-0.2,0.1c-0.4,0-0.8,0-1.1,0c-0.3,0-0.5,0-0.8,0       c-1,0-2.1,0-3.1-0.1c-0.1,0-0.2,0-0.3,0c-0.8,0-1.5-0.1-2.2-0.3c-0.1,0-0.2,0.1-0.3,0.1c-0.4-0.2-0.9,0-1.3-0.1       c-0.2,0-0.4-0.2-0.6-0.1c-0.3-0.2-0.7-0.2-1.1-0.2c-0.3,0-0.6-0.2-0.9-0.2c-0.1,0-0.2,0-0.3,0c-0.1,0-0.1-0.1-0.2-0.1       c-0.1,0-0.2,0-0.3,0c-0.4,0-0.9-0.1-1.2-0.1c-0.2,0-0.4,0.2-0.6,0.2c-0.2,0-0.3-0.1-0.5-0.1c-0.1,0-0.1,0.1-0.2,0.1       c-1.1,0.1-2,0-3,0.1c-0.2,0.2-0.6,0-0.8,0c-0.3,0-1.1,0-1.5,0c-1,0.2-1.9-0.1-3,0.1c-0.3,0-0.6,0.2-0.8,0.2       c-0.2,0-0.4-0.2-0.6-0.2c-0.2,0-0.3,0.2-0.5,0.2c0-0.1,0-0.2-0.1-0.2c-0.2,0-0.3,0.2-0.5,0.2c-0.1-0.1-0.1-0.2-0.1-0.3       c-0.1,0-0.1,0.1-0.2,0.1c0-0.1,0-0.2,0.1-0.4c-0.1-0.1-0.2,0.2-0.3,0.1c-0.1-0.4,0.3-0.6,0.3-1c0.3-0.3,0.8-0.2,1.2-0.3       c0.1,0,0.3-0.2,0.4-0.2c0.1,0,0.3-0.1,0.5-0.1c0.5-0.1,0.9,0,1.2,0.1c0.4,0,0.9,0,1.3,0c0.3,0,0.7-0.1,1.1-0.1       c0.3,0,0.5,0,0.8,0c0.2,0,0.4,0,0.6,0c0.5,0,1-0.1,1.5-0.1c0.6,0,1-0.1,0.8-0.7c0,0,0,0,0,0c-0.5,0-1,0.1-1.5,0.1       c-0.1,0-0.2-0.1-0.3-0.1c-0.5,0-1.2,0.1-1.8,0.2c-0.2,0-0.3,0-0.5,0c-0.5,0-1.1,0.1-1.6,0.1c-0.1,0-0.1,0-0.2,0       c-0.4,0-0.8,0.1-1.2,0.2c-0.3,0-0.7-0.1-1,0c-0.3,0-0.5,0-0.8,0c-0.2,0-0.4,0.1-0.6,0.2c-0.1,0-0.2-0.1-0.3-0.1       c-0.2,0-0.4,0.2-0.6,0.1c-0.1-0.1,0.1-0.2-0.1-0.2c-0.3,0-0.5,0.3-0.7,0.2c-0.1-0.1,0.1-0.2,0.1-0.4c-0.2,0-0.3,0.3-0.5,0.2       c0-0.3,0.4-0.3,0.4-0.6c-0.2-0.3-0.4-0.1-0.6,0c-0.2,0-0.6,0-0.7,0.2c-0.3,0-0.3,0.1-0.6,0c-0.2,0.2-0.5,0.4-0.9,0.5       c-0.1,0-0.1,0.1-0.1,0.2c-0.5,0.3-0.9,0.7-1.6,0.7c-0.3,0.2-0.5,0.4-1,0.4c-0.4,0.3-1,0.5-1.6,0.6c-0.1,0.1-0.2,0.2-0.4,0.2       c-0.2,0.1-0.6,0-0.8,0.1c-0.2,0-0.3,0.1-0.4,0.1c-0.1,0-0.2,0-0.3,0c-0.1,0-0.2,0.1-0.3,0.1c-0.3,0-0.6,0.1-0.9,0.1       c0.1-0.1,0.3-0.3,0.4-0.4c0.7-0.3,1.3-0.7,2-1.1c0.9-0.6,1.7-1.4,2.6-1.9c0.3-0.2,0.5-0.2,0.8-0.1c1.3,0.1,3.3-0.2,4.6,0       c0.3-0.4,0.9-0.6,1.6-0.5c0.4-0.2,1-0.1,1.6-0.1c0.7,0,1.5-0.2,2.2-0.3c1.1-0.1,2.3-0.2,3.1-0.5c0.3-0.3,0.3-0.5,0.4-0.8       c0.1-0.3,0.2-0.6,0.2-0.9c0-1.1-0.1-2.1-0.3-3c0-0.3-0.2-0.7-0.1-1c0-0.3-0.1-0.5-0.1-0.8c-0.1-0.6-0.1-1-0.1-1.5       c-0.1-0.7-0.2-1.5-0.4-2c0-0.1-0.1-0.2-0.2-0.3c-0.2-0.3-0.3-0.8-0.5-1.1c-0.3-0.7-0.4-1.4-0.5-2.1c0-0.3-0.2-0.6-0.2-0.9       c0-0.2,0-0.4,0.1-0.6c0-0.2,0-0.4,0-0.6c0-0.3,0.1-0.6,0.2-0.9c0.1-0.7,0.1-1.1,0.3-1.6c0-0.1,0.1-0.2,0.2-0.2       c0.1-0.2,0.2-0.5,0.3-0.8c0.1-0.2,0.2-0.3,0.2-0.5c0-0.2,0-0.5,0-0.9c-0.1-0.8-0.3-1.5-0.3-2.3c0-0.9-0.1-2-0.2-2.8       c0-0.3-0.2-0.7-0.3-0.7c-0.2-0.1-0.7-0.1-0.9-0.1c-0.6,0-1.2,0.3-1.8,0.4c-0.1,0.1-0.2,0.2-0.3,0.3c-0.1,0-0.1-0.1-0.2-0.1       c-0.1,0.1-0.2,0.1-0.2,0.3c-0.1,1.1-0.1,2.5-0.2,4c-0.1,1.8-0.3,3.7-0.5,5.3c0,0.1,0,0.2,0,0.2c0,0.2-0.1,0.3-0.1,0.5       c0,0-0.1,0.1-0.1,0.2c0.1,0.3,0,0.6-0.1,1c0,0.3-0.2,0.6-0.2,1c-0.1,0.3-0.1,0.6-0.1,1c-0.2,1.4-0.8,2.8-1.2,4       c-0.2,0.6-0.5,1.1-0.8,1.6c0,0.1,0,0.1-0.1,0.3c-0.3,0.4-0.5,0.9-0.8,1.4c-0.2,0.4-0.4,0.9-0.8,1.1c-0.1,0.6-0.7,0.8-0.9,1.3       c-0.8,0.7-1.5,1.7-2.4,2.4c-0.6,0.9-1.6,1.5-2.4,2.3c-1,0.8-1.9,1.6-3.1,2.1c-0.4,0.3-1,0.8-1.6,0.9c-0.5,0-0.7-0.5-1.2-0.6       c-0.7-0.5-1.3-1-1.9-1.5c-0.3-0.3-0.7-0.6-1-0.8c-0.6-0.5-1.2-1.1-1.7-1.6c-0.1-0.1-0.3-0.3-0.4-0.4c-0.1-0.1-0.1-0.2-0.2-0.3       c-0.4-0.4-0.9-0.6-1.1-1.2c-0.4-0.4-0.9-0.9-1.2-1.3c-0.1-0.2-0.1-0.3-0.3-0.4c-0.1-0.2-0.3-0.3-0.3-0.4       c-0.1-0.1-0.1-0.2-0.1-0.3c-0.6-0.8-1.3-1.7-1.8-2.6c-0.2-0.3-0.3-0.6-0.5-0.8c-0.2-0.4-0.4-1-0.6-1.5       c-0.1-0.3-0.3-0.5-0.4-0.8c-0.1-0.3-0.2-0.6-0.3-0.9c-0.4-1-0.9-2.2-1-3.2c0-0.1-0.1-0.1-0.1-0.2c0-0.5-0.2-0.9-0.3-1.4       c-0.1-0.9-0.1-1.8-0.2-2.8c0-0.5-0.1-0.9-0.1-1.3c0-0.4,0-1,0-1.4c-0.1-1.8,0.2-3.3,0.2-4.9c0.1-0.2,0.1-0.4,0-0.5       c-0.3,0-0.4,0-0.6,0c-0.3-0.1-0.5-0.4-0.8-0.6c-0.5-0.3-1.5-0.1-2.3-0.2c0,0,0,0.1-0.1,0.1c0.1,0.4,0.1,0.9,0,1.4       c-0.1,0.5-0.3,0.9-0.3,1.5c-0.1,1-0.2,1.9-0.3,2.7c0,0.3-0.2,0.5-0.2,0.6c0,0.2,0.1,0.6,0.2,0.8c0.1,0.5,0.5,0.9,0.6,1.3       c0.1,0.3,0.1,0.5,0.2,0.6c0.1,0.3,0,0.7,0.1,1.1c0,0.4,0.2,0.8,0.2,1.3c-0.1,0.8-0.2,1.5-0.3,2.2c-0.1,0.6-0.2,1.1-0.4,1.5       c-0.2,0.5-0.6,0.7-0.8,1.2c0,0,0,0,0,0.1c0,0-0.1,0.1-0.1,0.1c-0.1,0.4-0.1,0.7-0.1,1.1c0,0,0,0.1-0.1,0.1       c-0.2,2.9-0.4,5.6-0.7,8.3c0.2,0.9,1.4,0.8,2.2,0.9c1,0.1,2.4,0.3,3.6,0.5c0.6,0,1.2-0.2,1.7,0c0.3,0,0.5,0.2,0.7,0.3       c0.2,0.1,0.4,0,0.6,0.1c0.2,0.1,0.3,0.3,0.6,0.3c0.8,0.1,1.7,0.1,2.5,0.1c0.3,0,0.5-0.1,0.8-0.1c0.2,0,0.4,0.1,0.6,0.1       c0.4,0,1,0,1.3,0.2c1,1.1,2.2,2,3.5,2.8c0,0.2,0.4,0.3,0.4,0.4c-1.1-0.2-1.7-0.6-2.7-0.8c-0.2-0.3-0.5-0.3-0.9-0.5       c-0.4-0.1-0.7-0.2-1.1-0.3c-0.3-0.1-0.7-0.4-1.1-0.4c-0.3-0.4-1-0.4-1.5-0.6c-0.1-0.1-0.1-0.3-0.3-0.4c-0.4,0.1-0.8-0.4-1-0.2       c0,0.1,0.3,0.1,0.3,0.3c-0.1,0-0.2-0.2-0.4-0.1c0,0.1,0,0.1,0,0.3c-0.2,0.1-0.3,0-0.5,0c0,0.1,0.1,0.2,0,0.2       c-0.1,0-0.2-0.1-0.4,0c-0.1-0.2-0.4-0.2-0.7-0.3c-0.4,0-0.8,0.1-1.1,0c-0.2,0-0.4-0.1-0.6-0.1c-1-0.1-1.9-0.1-3-0.2       c-1.3-0.1-2.3-0.1-3.5-0.1c-0.9,0-1.9-0.1-2.8-0.2c0.2,0.5,0.7,0.5,1.2,0.6c0.3,0.1,0.6,0.2,0.9,0.2c0.8,0,1.4,0.1,2.2,0.1       c1-0.1,1.8,0.3,2.5,0.3c0.3,0,0.5-0.1,0.8-0.1c0.2,0,0.6,0.2,0.8,0.3c0.5,0.2,1,0.7,1.3,1c0.1,0.2,0.2,0.4,0.2,0.5       c-0.1,0-0.2-0.3-0.4-0.2c-0.1,0.2,0.1,0.2,0.1,0.3c-0.2,0-0.3,0-0.6-0.1c0,0.1,0.1,0.1,0,0.2c-0.5-0.4-1.4-0.2-2.1-0.3       c-0.1,0-0.3-0.1-0.4-0.1c-0.6,0-1.3,0-1.9,0c-0.7-0.1-1.6,0-2.2-0.2c-0.4-0.1-0.8-0.1-1.2-0.1c-0.3,0-0.6-0.1-0.9-0.1       c-0.3,0-0.5,0.1-0.8,0.2c-0.7,0-1.4-0.3-2.1,0c-0.2-0.2-0.5-0.2-0.7-0.2c-0.3,0-0.6,0-0.9,0c-0.1,0-0.2,0.1-0.3,0.1       c-0.2,0-0.5,0-0.7,0c-0.5,0-1.1,0-1.6,0c-0.1,0-0.2,0.1-0.3,0.1c-0.1,0-0.2,0-0.3,0c-0.5,0.2-1.1,0.4-1.6,0.4       c-1.8,0.2-3.8,0.1-6.1,0.1c-0.6,0-1.1,0.1-1.6,0.1c-1.1,0-1.9-0.3-2.7-0.2c0.2,0.3,0.6,0.4,0.8,0.6c0.1-0.1,0.3,0.1,0.2,0.1       c0.5,0.1,1.2-0.1,1.7-0.1c0.6,0.2,1.4,0.1,2.2,0c0.3,0,0.6,0,0.8,0c0.2,0,0.3,0.1,0.5,0.1c0.1,0,0.2-0.1,0.3-0.1       c0.4,0,0.7,0,1.2,0c0.1,0,0,0.1,0.2,0.1c0.3-0.1,0.7,0.2,1.1,0c0.4,0.2,1.1-0.1,1.5,0c0.1,0,0.1-0.1,0.2-0.2       c0.5,0.1,0.9,0,1.4,0.1c0.6-0.4,1.2,0.5,1.8,0.1c0.4,0.1,0.7,0.2,1,0.2c0.4-0.1,0.7,0.1,1.1,0.1c0.6-0.5,1.5,0.3,2.3,0       c0.8,0.3,1.6,0.3,2.4,0.2c0.1,0,0.1-0.2,0.2-0.2c0.2,0.1,0.8,0.3,1.2,0.3c0.1,0,0.2-0.1,0.3-0.1c0.2,0,0.3,0.1,0.5,0.1       c0.3,0,0.7-0.1,0.9,0.2c0.3-0.2,0.7-0.2,1.1,0c0.1,0,0-0.1,0.2-0.1c0.4,0,0.7,0,1,0.1c0.3,0.1,0.6,0.4,0.9,0.1       c-0.1-0.1-0.3-0.1-0.3-0.3c0.1-0.4,1.2,0.2,1.5,0.1c0.3,0.1,0.6,0.2,1,0.3c0.3-0.2,0.6,0.1,0.8-0.1c-0.2-0.3-0.7-0.3-1-0.5       c0.6,0,1.1,0.5,1.8,0.4c0.1,0,0.3-0.2,0.4-0.2c0.2,0,0.4,0.1,0.6,0.1c0.2,0,0.4,0.1,0.6,0.1c0.3,0,0.6-0.1,1-0.2       c0.4-0.1,0.7,0.1,0.9,0c0.3,0.1,0.7,0.2,1,0.1c0.3,0.1,0.6,0.1,0.9,0c0.1,0,0.1-0.1,0.2-0.1c0.3,0,0.5,0.2,0.8,0.1       c0.2,0,0.4-0.2,0.6-0.2c0.4,0,0.8,0.3,1.3,0.3c0.1,0,0-0.2,0.2-0.2c1,0.3,1.8,0.6,2.7,0.9c0.2-0.2,0.4,0,0.6,0       c0.5,0.1,0.9,0,1.3-0.1c0.2,0,0.3,0,0.5,0c0.5-0.1,0.9-0.2,1.4-0.3c0,0-0.1,0.1,0,0.2c0.5,0,1.3-0.2,1.9-0.4       c0.5,0.3,1.1-0.2,1.5-0.2c-0.3,0.2-0.6,0.4-0.8,0.7c0.5,0.2,1-0.3,1.6-0.4c0,0.1-0.2,0-0.1,0.2c0.4-0.1,0.7-0.2,1.1-0.3       c0.4-0.1,0.7-0.2,1-0.3c0.3,0.3,0.7,0,1,0c0.2,0,0.4,0.1,0.7,0c0.3,0.3,0.8,0,1.2,0.1c0.2,0.4,0.5,0.1,0.7,0.1       c0.3,0,0.6,0.2,0.9,0.3c0.1,0,0.3-0.1,0.5-0.1c0.5,0,0.9,0.1,1.2-0.1c0.3,0,0.6,0.1,0.9,0c0.2,0.1,0.3,0.1,0.5,0.1       c0.4-0.3,1.3-0.4,1.8-0.2c0.2-0.2,0.6-0.1,0.9-0.2c0.1,0.1,0.2,0.2,0.3,0.3c0.1-0.1,0.3-0.1,0.4-0.2c0.1,0,0.2,0.2,0.3,0.3       c0.4,0.1,0.7-0.2,1-0.2c0.1,0.1,0.3,0.2,0.4,0.1c0.2,0.1,0.4,0.3,0.6,0.3c0.1,0,0.3-0.1,0.4-0.2c0.3-0.1,0.8-0.1,1.2-0.2       c0.2-0.1,0.4-0.2,0.6-0.2c0.3,0,0.5,0.1,0.7,0c0,0.1,0,0.1,0,0.2c0.1,0,0.2-0.1,0.3,0c0,0-0.2,0.2-0.2,0.4       c0.5,0.1,1.2-0.1,1.7-0.3c0.4,0.2,0.9-0.2,1.2,0c0.1-0.1,0.5-0.2,0.5,0c0,0.2-0.1,0.2-0.1,0.3c0.5,0.1,0.8-0.3,1.3-0.2       c-0.1,0.1-0.3,0-0.3,0.2c0.2,0.2,0.4,0,0.6-0.1c0.1,0,0.3,0,0.4,0c0.4-0.1,0.8-0.3,1.1-0.4c0.3,0,0.6,0.3,0.8,0.3       c0.2,0,0.4-0.1,0.5-0.1c0,0,0.2,0.1,0.3,0.1c0.1,0,0.2-0.1,0.3-0.1c0.1,0,0.1,0.1,0.2,0.1c0.3,0,0.6-0.1,0.9-0.1       c0.1,0,0.3,0,0.4,0c0.7,0,1.3-0.3,2,0C84.6,66.4,86,66.7,87.2,66.3z M86.5,65.8c0.3,0,0.8,0,0.8-0.4c-1.8-0.2-3-0.3-4.7-0.3       c-0.8-0.2-1.6-0.1-2.3-0.2c-0.2,0-0.5-0.1-0.7-0.1c-0.1,0-0.2,0-0.3,0c-0.7-0.1-1.5-0.3-2.2-0.4c-0.1,0-0.5-0.3-0.6-0.4       c0,0-0.1-0.1-0.1-0.2c0,0-0.1,0-0.2,0c-0.2-0.2-0.3-0.4-0.5-0.6c-0.2-0.2-0.4-0.4-0.5-0.6c-0.1-0.2-0.2-0.3-0.3-0.5       c-0.2-0.4-0.2-0.9-0.3-1.5c-0.2-0.9-0.2-1.6-0.3-2.5c0-1-0.1-1.9-0.2-2.8c0-0.4-0.1-0.8-0.2-1.2c0-0.4,0-0.5-0.3-0.7       c-0.4,0.4,0,0.8,0.1,1.3c0,0.1,0,0.2,0,0.4c0,0.2,0.1,0.4,0.2,0.6c0.1,0.6,0,1,0,1.2c0,0.1,0.1,0.2,0.1,0.4c0,0.3,0,0.7,0,1.1       c0,0.2,0.1,0.4,0.1,0.6c0,0.1-0.1,0.1-0.1,0.2c0,0.6,0.2,1.2,0.2,1.7c0,0.4,0.3,0.8,0.2,1.3c-0.1-0.2-0.1-0.1-0.3,0       c-0.2-0.4-0.1-0.8-0.2-1.2c-0.1-0.8-0.2-1.5-0.3-2.4c0-0.6,0.1-1.2,0-1.8c-0.1-1.2-0.5-2.3-0.8-3.5c-0.1-0.2-0.3-0.6-0.3-0.8       c-0.2-0.2-0.2-0.6-0.5-0.8c-0.1,0.1-0.3,0.2-0.3,0.4c0.3,0.3,0.5,0.6,0.6,0.9c0.4,1,0.6,2.5,0.6,3.4c0,0.7,0.1,1.5,0.2,2.3       c0,0.8,0,1.4,0.1,2.1c0.1,0.4,0.2,0.9,0.3,1.3c0,0.2,0,0.4,0,0.5c0.1,0.7,0.6,0.9,0.9,1.5c0.1,0,0.2,0.1,0.3,0.1       c0.1,0.1,0.2,0.3,0.3,0.4c0.1,0,0.2,0,0.3,0.1c0.3,0.2,0.6,0.5,1,0.4c1.2,0.7,3,1,4.4,0.6c0.3,0.2,0.6,0.1,1,0.1       c1.4,0.1,2.6,0.1,3.8,0.1C85.9,65.9,86.2,65.8,86.5,65.8z M74.4,64.2c0-0.2-0.2-0.3-0.3-0.5c-0.1-0.2-0.2-0.4-0.3-0.6       c-0.4-0.3-1.1,0-1.7-0.1c-0.2,0-0.4-0.2-0.5-0.1c-0.2,0.3,0.1,0.7,0.2,1c0.2,0.1,0.5,0.1,0.8,0.1       C73.1,64.2,73.7,64.2,74.4,64.2z M73.4,62.4c0-0.4-0.1-0.8-0.1-1.2c-0.2-0.7-0.2-1.7-0.3-2.6c-0.1-0.9-0.1-1.7-0.2-2.6       c0-0.2-0.1-0.5-0.1-0.7c0-0.1,0-0.2,0-0.3c0-0.1-0.1-0.3-0.1-0.5c-0.1-0.9-0.3-1.8-0.8-2.4c0,0,0,0-0.1,0       c-0.3,0.3-0.9,0.4-1,0.8c-0.1,0.2-0.1,0.6-0.1,0.8c0,0.3,0.1,0.7,0.1,1.1c0,0.1,0,0.3,0,0.5c0,0.3,0.1,0.6,0.1,0.9       c0,0.5,0,1,0,1.6c0,0.5,0.2,1,0.2,1.5c0.1,1,0.1,2.1,0.4,3.1C72,62.3,72.8,62.4,73.4,62.4z M72,16.3c0-0.3-0.1-0.6-0.1-0.8       c-0.1-0.1-0.1-0.1-0.2-0.2c-0.5,0.3-0.8,0.8-0.9,1.6c-0.2,0.2-0.4,0.4-0.6,0.5c0,0.1,0,0.1,0,0.3c0.3,0,0.5,0.1,0.7,0.1       c0.1-0.2-0.1-0.4,0-0.6c0.2-0.1,0.2-0.3,0.4-0.3c0,0.2,0.2,0.1,0.3,0.1c0.2,0.2,0,0.3,0.1,0.7C71.8,17.2,72,16.8,72,16.3z        M71.5,19.4c0.1-0.4,0-0.6,0.1-1.1c-0.2,0-0.5,0.2-0.5,0.4c0,0.1,0.1,0.2,0.2,0.3C71.4,19.1,71.3,19.4,71.5,19.4z M71.4,64.5       c0-0.5-0.2-1-0.3-1.5c0-0.4,0-0.8-0.1-1.2c-0.2-1.2-0.3-2.4-0.4-3.5c0-0.4-0.1-0.7-0.2-1.2c0-0.5-0.1-0.9-0.2-1.3       c0-0.1,0-0.2,0-0.4c0-0.2-0.1-0.5-0.2-0.7c0-0.3,0-0.6-0.1-0.8c0-0.3-0.3-0.4-0.3-0.7c-0.1-0.4,0.3-0.9,0.4-1.2       c0.1-0.2,0.6-0.5,0.6-0.8c0-0.1-0.3-0.2-0.4-0.4c0,0-0.1-0.1-0.1-0.2c-0.1-0.4-0.1-0.8-0.4-1c-0.3,0-0.7-0.1-0.8,0.2       c0,0.4,0.6,0.6,0.4,1.1c-0.3-0.1-0.4-0.4-0.7-0.4c0.2,0.5,0.7,1,0.5,1.7c-0.1,0-0.2-0.1-0.3-0.1c0-0.3-0.2-0.3-0.3-0.5       c0-0.3-0.2-0.3-0.1-0.6c-0.1-0.3-0.4-0.6-0.6-0.9c0-0.1,0-0.2,0-0.3c-0.1-0.3-0.2-0.6-0.3-0.9c-0.2-0.7-0.3-1.5-0.3-2.2       c0-0.3,0-0.6,0.2-0.8c0.1,0,0.2,0.3,0.3,0.3c0.2-0.4,0.2-1,0.2-1.4c0.1-0.1,0.2-0.3,0.1-0.5c0.4-1,1.2-1.6,1.8-2.3       c0,0,0,0-0.1,0c0,0,0,0,0,0c-0.4,0.2-0.7,0.4-1,0.7c-0.2,0.2-0.5,0.4-0.6,0.6c-0.2,0.2-0.3,0.5-0.4,0.8c-0.3,0.5-0.5,1-0.7,1.5       c0,0.4-0.2,0.6-0.2,0.9c-0.1,1.2,0.1,2,0.3,2.9c0,0.3,0.1,0.4,0.1,0.5c0,0.1,0,0.2,0,0.3c0,0.2,0.2,0.3,0.2,0.5       c0,0.2,0,0.3,0,0.4c0,0.1,0.1,0.2,0.1,0.3c0,0.1,0,0.3,0.1,0.4c0,0.1,0.1,0.3,0.1,0.4c0,0.3,0,0.6,0,0.8c0.1,0.3,0.2,0.7,0.3,1       c0.1,0.4,0.2,0.9,0.1,1.3c0,0.2,0.1,0.3,0.1,0.5c0,0.1-0.1,0.1,0,0.2c0,0.7,0.2,1.1,0.3,1.6c0,0.2,0,0.3,0,0.5       c0,0.3,0.1,0.7,0.1,0.9c0,0.1,0,0.2,0,0.3c0,1.1,0.3,2.5,0.3,3.7c-0.1,0.2-0.3,0.3-0.5,0.3c-0.3,0.1-0.7,0-1.1,0.1       c-0.2,0-0.4,0.1-0.6,0.2c-0.8,0.1-1.5-0.1-2.1,0.3c-0.7-0.3-1.3,0.2-2,0c-0.1,0.1-0.4,0.2-0.4,0.4c0,0.2,0.4,0.2,0.5,0.5       c0,0.1-0.2,0.1-0.2,0.2c0.1,0.2,0.3,0.1,0.5,0.1c0.2,0,0.5,0,0.7,0c0.2,0,0.5,0,0.6,0c0.2,0,0.3-0.3,0.5-0.3       c0.2,0.1,0.4-0.1,0.6-0.1c0.1,0,0.2,0.1,0.3,0.1c0.1,0,0.3,0,0.4,0c0.7,0,1.5,0,2.3-0.1c0.6,0,1.1,0,1.6-0.1       c0.2-0.5,0.2-0.9,0.1-1.5c0-0.4,0-0.7,0-1.1c0-0.5,0.1-1.1,0.1-1.6c0-0.4-0.2-0.8-0.1-1c0,0.2,0.1,0.4,0.2,0.6       c0,0.2,0,0.5,0,0.7c0,0.2,0.1,0.4,0.1,0.7c0.1,0.6,0,1.6,0.2,2.2c0,0.3,0.2,0.5,0.1,0.7c-0.1,0.3-0.4,0.5-0.6,0.8       c0.1,0.1,0.6,0.2,0.8,0.1c0.3,0,0.4-0.2,0.5-0.5C71.2,64.5,71.3,64.6,71.4,64.5z M71,33c0.1-0.6,0.2-1.2,0.1-1.7       c-0.5,0.3-0.3,1-0.5,1.5c-0.4,0.1-0.9,0.3-1.2,0.3c-0.6,0.1-1.4-0.1-2,0c-0.4,0-0.7,0.3-1,0c0.9-0.3,2.1-0.2,2.7-0.8       c-0.1-0.6,0.2-0.7,0.3-1.1c0.2-0.9-0.4-1-0.6-1.5c-0.1-0.3,0-0.6-0.2-0.8c0,0,0,0-0.1,0c-0.1,0.4,0,0.9-0.1,1.5       c0,0.2-0.1,0.4-0.1,0.6c0,0.2,0,0.4,0,0.6c-0.1,0.3-0.5,0.4-0.8,0.6c-0.3,0-0.5,0.1-0.7,0.2c-0.3,0.1-0.6,0-0.9,0.1       c-0.5,0.1-1,0.3-1.4,0.3c-0.2,0-0.3,0-0.5,0c-0.4,0-0.8,0.1-1.1,0c-0.5,0-0.6-0.5-1.2-0.5c0.1,0.3,0.4,0.3,0.5,0.5       c-0.1,0-0.2,0-0.2,0.2c-0.4,0-0.5-0.2-0.9-0.2c0.1,0.3,0.5,0.3,0.9,0.3c0,0.1,0.1,0.2,0.2,0.3c-0.5,0-0.7,0.3-0.9,0.7       c0.4,0.2,0.6-0.1,0.9-0.2c0.1,0,0.2,0,0.3,0.1c0,0,0.1-0.1,0.2-0.1c0.8-0.1,1.6,0,2.4,0.1c0.3,0,0.7-0.1,1-0.1       c0.6,0,1.1,0.1,1.6-0.1c0.5,0,1.1,0.2,1.5,0.1c0.1,0,0.2-0.1,0.2-0.1c0.4,0,0.7,0.1,1-0.1C70.8,33.8,70.9,33.4,71,33z        M70.2,19.5c0.1-0.3-0.3-0.2-0.4-0.3c0,0,0-0.1-0.1-0.1c-0.2-0.1-0.4,0-0.5,0.1c0,0.3-0.4,0.3-0.4,0.5c0,0,0.2,0.1,0.2,0.2       c-0.2,0.4-1,0.4-1.3,0.6c-0.1,0.1-0.2,0.3-0.3,0.1c0-0.4,0.4-0.4,0.5-0.8c-0.5,0-0.8,0.6-1.3,0.6c-0.1,0.2-0.4,0.2-0.5,0.4       c0.1,0.5,0.8,0,1,0.4c-0.1,0.2-0.2,0.3-0.4,0.4c-0.2-0.1-0.6-0.3-0.6,0.1c0.4,0.2,0.7,0.1,1,0.2c0.2,0.5,0.8,0.2,1.2,0.1       c0-0.2-0.1-0.3-0.1-0.6c-0.1-0.1-0.2-0.1-0.2-0.2c-0.2-0.5,0.5-0.7,0.8-0.9c0.3-0.2,0.8-0.1,1-0.2c0-0.1,0.1-0.3,0-0.4       c-0.1-0.1-0.3,0.1-0.4-0.2c0.1-0.1,0.2-0.2,0.3-0.2c0.1,0,0,0.1,0.1,0.1C70,19.6,70.1,19.6,70.2,19.5z M70,18.8       c0.2,0,0.2-0.2,0-0.2C70,18.7,70,18.8,70,18.8z M69.2,20.5c0,0.2,0.2,0.1,0.1,0C69.3,20.5,69.3,20.5,69.2,20.5z M69,40.3       c0.1-0.4,0.6-1.5,0.2-1.8c-0.3,0.1-0.5,0.4-0.7,0.6c-0.1-0.1-0.2,0-0.3-0.1c0-0.1,0-0.2,0.1-0.3c-0.1,0-0.3,0.2-0.4,0       c0.1-0.5,0.1-0.8,0.2-1.3c0-0.1-0.2,0-0.2-0.1c0.3-0.2,0.3-0.7,0.4-1.1c0-0.3,0.3-0.6,0.1-0.8c-0.3-0.1-0.5,0.1-0.7-0.1       c0-0.2-0.1-0.3-0.1-0.6c-0.1,0-0.2,0-0.3-0.1c0-0.3-0.2-0.2-0.2-0.4c-0.5,0-1.2,0.1-1.9,0.1c0,0.7,0.1,1.4,0.1,2       c0.1,1,0,2,0.3,2.8c0.3,1,0.6,1.8,0.8,2.9c-0.3-0.1-0.3-0.4-0.5-0.6c-0.2,0.1-0.3,0.2-0.4,0.2c-0.1,0.3-0.4,0.6-0.3,0.9       c-0.2,0.2-0.3,0.6-0.3,0.8c-0.3,1.2-0.4,2.8-0.2,3.7c0.1,0.6,0.4,1.2,0.6,1.7c0.1,0.3,0.2,0.6,0.3,0.9c0.1,0.3,0.3,0.6,0.4,0.8       c0,0.1,0,0.2,0,0.3c0,0.2,0.1,0.4,0.1,0.6c0,0.2,0.1,0.5,0.1,0.7c0,0.3,0,0.7,0,1.1c0,0.1,0.1,0.2,0.1,0.3c0,0.3,0,0.6,0,0.9       c0,0.1,0.1,0.2,0.1,0.3c0,0.3,0,0.5,0,0.8c0.1,0.8,0.3,1.5,0.3,2.3c0.2,0.4,0,0.9,0.1,1.3c0.1,0.5,0.2,0.8,0.1,1.2       c-0.1,0.5-0.6,0.7-1,0.8c-0.6,0.2-1.2,0.3-1.9,0.2c-0.2,0.2-0.3,0.1-0.5,0.1c-0.3,0-0.8,0.2-1.2,0.2c-0.4,0-0.7,0-1.1,0.1       c-0.1,0-0.2,0.1-0.3,0.1c-0.1,0-0.3-0.1-0.5-0.1c-0.3,0-0.5,0.1-0.7,0.1c0.1,0.3-0.1,0.6,0.1,0.8c1-0.1,2.2-0.2,3.3-0.2       c0.2-0.2,0.9,0,1-0.5c0.9-0.2,2,0,3-0.4c0.1,0,0.1,0.1,0.2,0.1c0-0.3,0.2-0.5,0.3-0.8c0.1-0.6,0-1.5-0.1-2c0-0.5-0.2-1-0.2-1.4       c0-0.7,0.1-1.3-0.2-1.8c0.2-1.3-0.4-2.5-0.3-3.7c0.2,0.3,0.1,0.9,0.5,1c0.2-0.6-0.2-1.2-0.4-1.9c-0.1-0.6-0.2-1-0.4-1.5       c-0.1-0.4-0.2-0.9-0.3-1.3c-0.2-1.1,0-1.9,0.2-3c0.1-0.2,0.2-0.4,0.3-0.7c0.1-0.2,0.3-0.4,0.4-0.7c0-0.1,0-0.2,0.1-0.3       c0.3-1,1-1.6,1.7-2.3C68.6,40.9,68.9,40.7,69,40.3z M69.3,17.3c0.1-0.5-0.5-0.9-0.6-1.5c0-0.1,0-0.2,0-0.3       c0-0.2-0.3-0.7-0.4-0.8c-0.2,0.4,0.1,0.8,0.3,1.1C68.7,16.3,68.7,17.1,69.3,17.3C69.2,17.3,69.2,17.2,69.3,17.3z M68.7,22.5       c0.2-0.2,0.5-0.3,0.5-0.7c-0.2-0.1-0.5-0.5-0.7-0.2c-0.1,0.2,0.1,0.3,0.1,0.4c-0.2,0.2-0.4,0.3-0.6,0.4       c-0.1,1.3-0.4,2.3-1.1,3.2c-0.3,0.3-0.5,0.7-0.7,1c-0.3,0.3-0.7,0.6-0.9,1c-0.2,0-0.3,0.2-0.4,0.3c0,0.4-0.4,0.8-0.4,1.4       c0,0.2,0.1,0.4,0.1,0.7c0,0.4,0,1,0,1.4c0,0,0.1,0.1,0.1,0.2c0.1,0.3,0,0.7,0.2,1c0.7-0.1,1.6-0.1,2-0.6c0-0.1,0-0.1,0-0.2       c0.2-0.4,0.2-0.9,0.4-1.3c0.1,0.1,0,0.3,0.1,0.3c0.2,0,0.3,0,0.6-0.1c0.2-0.2,0.1-0.5,0.1-0.8c0-0.1,0.1-0.2,0.2-0.3       c0.1-0.3,0-0.6,0-0.9c0-0.1,0.1-0.2,0.1-0.3c0-0.2-0.1-0.3,0-0.5c-0.2-0.4,0.2-0.8,0.2-1.2c0-0.1-0.1-0.3-0.1-0.5       c0-0.1,0.1-0.3,0.1-0.5c0-0.2,0.2-0.4,0.2-0.5c0-0.1-0.2-0.2-0.3-0.3c-0.1-0.5,0.6-0.7,0.5-1.1c-0.4-0.1-0.3,0.5-0.8,0.4       c0,0-0.1-0.1-0.1-0.1C68.4,23.5,69.1,23.1,68.7,22.5z M68.5,18c0.1,0,0.1-0.1,0.2-0.1c-0.1-0.4-0.2-0.8-0.6-0.8       C68.2,17.4,68.3,17.8,68.5,18z M68.4,18.5c0.1,0,0.2,0,0.2-0.1c0-0.1-0.1-0.1-0.2,0C68.4,18.4,68.4,18.4,68.4,18.5z M67.8,62.3       c-0.1-0.1-0.6-0.1-0.6,0C67.4,62.5,67.8,62.5,67.8,62.3z M67.6,18.8c-0.4-0.2-0.5,0.2-0.4,0.5c0,0,0.1,0,0.1,0       C67.5,19.3,67.5,19.1,67.6,18.8z M64.5,32.5c0.1-0.3,0-0.3,0-0.6c-0.5-0.2-0.7-0.4-1.2-0.5c-0.2,0.3-0.4,0.6-0.5,0.9       C63.2,32.7,63.9,32.8,64.5,32.5z M64.3,31.3c0-0.5-0.1-0.9-0.1-1.5c-0.4,0.3-0.5,0.8-0.8,1.2C63.8,31.2,64.1,31.3,64.3,31.3z        M63.3,27.1c0.1,0.3,0,0.7-0.1,1c0,0.3,0,0.5-0.1,0.6c0.1,0.1-0.1,0.5-0.1,0.5c0.4-0.6,0.7-1.4,0.7-2.3       c-0.4-0.6-0.8-1.2-1.5-1.6C62.4,26,63.2,26.4,63.3,27.1z M61.8,30.2c0.1-0.1,0.2-0.3,0.1-0.5c-0.3-0.1-0.5-0.3-0.9-0.3       c-0.1,0.1-0.1,0.3-0.2,0.4C61,30.1,61.5,30.1,61.8,30.2z M61.3,31.7c0.1-0.3,0.4-0.7,0.4-1c0-0.2-0.5-0.4-0.8-0.3       c0.1,0.6-0.3,1.8,0.2,1.8C61.3,32.1,61.2,31.9,61.3,31.7z M60.7,34.1c0.6,0.1,1-0.5,0.4-0.5c-0.1,0.2-0.2,0.3-0.4,0.3       C60.7,34,60.7,34.1,60.7,34.1z M60.2,33.2c0.3,0.1,1,0.3,1,0c-0.4-0.1-0.6-0.1-1-0.1C60.2,33.1,60.1,33.1,60.2,33.2z        M60.9,34.7c-0.2-0.1-0.8,0-0.7,0.4c0,0,0.1,0.1,0.2,0C60.6,35,60.7,34.8,60.9,34.7z M60.3,37.3c0-0.6,0.2-1.1,0-1.7       c-0.2-0.1-0.2-0.1-0.4,0c-0.1-0.1-0.1-0.3-0.3-0.4c0-0.4,0-0.8,0.1-1.1c-0.3,0-0.4-0.2-0.4-0.5c0.2-0.2,0.3-0.5,0.1-0.9       c0.2-0.2,0.5-0.2,0.8-0.2c0.2-0.3,0.1-0.6,0.1-0.9c0-0.4,0.1-1,0-1.3C60.2,30,60,30,59.9,29.8c-0.1-0.1-0.1-0.2-0.2-0.3       c-0.2-0.2-0.4-0.3-0.6-0.4c-0.5,0.3-0.9-0.2-1.3-0.1c0,0-0.1,0.1-0.1,0.1c0,0.1,0,0.2-0.1,0.3c-0.2,0-0.2-0.2-0.3-0.2       C56.9,29,56.3,29,56,29c-0.7,0-1.5,0-2.1,0c-2,0-5.2-0.1-7.9-0.2c-2.2-0.1-4.3,0-6.5,0c-1.5,0-3.4-0.1-4.9,0       c-0.1-0.4-0.5-0.1-0.7,0c-0.3-0.1-1.3-0.2-1.6,0C32,29,32.2,29.6,32.1,30c0,0.1-0.1,0.2-0.1,0.3c-0.1,0.5,0,1-0.1,1.8       c0.2,0.2,0.4,0.3,0.6,0.5c0.1,0.3,0.2,0.5,0.1,0.8c0,0.2-0.2,0.5-0.2,0.6c0,0.1,0.2,0.3,0.2,0.4c0,0.2-0.2,0.3-0.2,0.6       c-0.1,0.1-0.4,0.1-0.5,0.2c0,0,0,0.1,0,0.1c0,0-0.1,0-0.1,0c-0.1,0.1-0.1,0.6-0.1,0.8c-0.1,0.5,0,1.2-0.1,1.8       c-0.2,1.5-0.2,3.2-0.1,4.7c0.2,3,0.6,5.6,1.8,7.9c0.3,0.2,0.7-0.1,1-0.3c0.4-0.2,0.9-0.5,1.4-0.6c0.4-0.1,1.1,0,1.2-0.2       c0.1-0.1,0.1-0.3,0.1-0.5c0.1-0.4,0.2-0.8,0.3-1.3c0.1-0.2,0.1-0.5,0.2-0.7c0-0.1,0.2-0.3,0.2-0.4c0.1-0.3,0.1-0.6,0.3-0.9       c0.4-1,0.8-1.9,1.2-2.9c0.4-0.8,0.6-1.8,0.9-2.6c0.4-1.1,0.7-2,1.1-3.1c0.2-0.7,0.6-1.5,0.6-2.2c0-0.3-0.2-0.7-0.5-0.8       c-0.1,0-0.3,0.1-0.4,0.2c-0.6,0.1-1.2-0.2-1.9-0.1c-0.3,0.1-0.9,0.3-1.2,0.2c0.1-0.5,0.6-0.5,0.9-0.8c0.1-0.3,0.4-0.4,0.6-0.6       c0.3-0.3,0.5-0.7,0.8-1c0.3-0.2,0.7-0.4,1.1-0.5c0.3,0,0.8,0.1,1,0.2c0.3,0.1,0.5,0.5,0.6,0.7c1,2.5-0.5,5.2-1,7.6       c-0.1,0-0.1,0.2-0.1,0.2c0,0.2-0.1,0.3-0.1,0.4c-0.2,0.6-0.3,1.3-0.5,2c-0.2,0.7-0.5,1.7-0.6,2.3c-0.2,0.8-0.3,1.6-0.4,2.2       c0,0.3-0.1,0.7-0.1,0.9c0.1,0.3,0.4,0.7,0.7,0.8c0.4,0.1,0.8-0.3,1.2-0.4c1-0.9,2-1.8,2.7-2.9c0.4-0.3,0.7-0.7,1.1-1       c0.5-0.4,1-0.7,1.6-0.9c0.2-0.1,0.3-0.1,0.5-0.2c0.3-0.2,0.6-0.5,0.9-0.7c0.3,0.1,0.3,0.6,0.6,0.7c0.5,0.1,0.8-0.8,1.1-0.9       c0.4,0.1,0.5,0.6,0.7,0.8c0.3-0.1,0.3-0.3,0.6-0.4c0.2,0.3,0.4,0.6,0.5,1c0,0.2,0,0.4,0.2,0.5c0.3,0,0.3-0.3,0.5-0.3       c0.1,0.4,0.4,0.8,0.2,1.3c0.2,0,0.4,0.2,0.7,0.2c0.3,0,0.4-0.3,0.6-0.4c0.3,0.2,0.3,0.6,0.6,0.8c0.1-0.1,0.2-0.3,0.3-0.3       c0.3,0.2,0.3,0.6,0.6,0.9c0.2,0.1,0.2-0.2,0.4-0.2c0.1,0.6,0.8,0.3,1.1,0.3c0.3,0.8-0.1,1.6-0.7,2c0,0.4-0.1,0.6-0.1,0.9       c-0.1,0.2-0.3,0.3-0.3,0.5c0.4,0.2,1.1,0.3,1.6,0.5c0.2,0.1,0.5,0.5,0.8,0.4c0.2,0,0.2-0.4,0.3-0.7c0.1-0.3,0.2-0.5,0.3-0.7       c0.1-0.4,0.1-0.9,0.2-1.3c0.2-0.8,0.4-1.7,0.5-2.4c0.1-0.4,0.1-0.8,0.1-1.2c0-0.5,0.2-1,0.3-1.6c0.1-0.5,0-1,0-1.5       c0.1-1.1,0.1-2.1,0.2-3.1C60.4,37.9,60.3,37.6,60.3,37.3z M59.8,29c0-0.1,0.1-0.1,0.1-0.3C59.6,28.4,59.3,28.9,59.8,29z        M55.5,50.4c0.5-0.1,1.5,0.4,2,0.2c-0.4-0.3-0.9-0.2-1.3-0.5c-0.4,0-0.7,0.2-1.1,0.2c-0.3,0.1-0.6,0-0.9,0.1       c-0.2,0-0.3,0.2-0.6,0.2c0,0-0.1-0.1-0.2,0c-0.5,0.1-1.1,0.3-1.5,0.4c-0.7,0-1.5-0.2-1.7,0.1c1.4,0.4,3,0,4.3-0.3       c0.2-0.1,0.4-0.1,0.6-0.2C55.2,50.5,55.3,50.4,55.5,50.4z M56.6,55.4c0.2-0.3,0.6-0.9,0.5-1.2c-0.1-0.2-0.6-0.3-0.8-0.4       c-0.4-0.2-0.7-0.2-1-0.3c-1.1-0.3-1.5-0.4-2.6-0.3c-0.4,0.1-0.8,0.2-1.2,0.3c-0.2,0-0.4,0-0.7,0c-0.3,0-0.7,0.1-1,0.1       c-0.3,0-0.7-0.1-0.9-0.2c-0.4-0.1-0.7-0.2-1.1-0.3c-0.9-0.1-1.8-0.2-2.6-0.1c-1.6,0.2-3.2,0.8-4.8,0.4c-0.4-0.1-0.6,0-0.9-0.1       c-0.9-0.2-1.8-0.5-2.8-0.4c-0.3,0.1-1.6,0.1-1.7,0.6c0,0.2,0.3,0.7,0.4,1c0.1,0.2,0.4,0.4,0.5,0.6c0.2,0.3,0.3,0.7,0.6,0.8       c0.5-0.2,0.9-0.4,1.5-0.4c1,0,2.1,0.6,3.1,0.7c0.9,0.1,1.7-0.3,2.3-0.4c1.5-0.4,3-0.4,4.7,0c0.8,0.2,1.2,0.4,1.9,0.3       c0.2,0,0.5,0,0.8,0c0.4-0.1,0.9-0.3,1.3-0.3c0.7-0.1,2.1-0.2,2.8,0.1c0.3,0.1,0.8,0.6,1.1,0.5c0.1,0,0.3-0.3,0.4-0.5       C56.4,55.7,56.5,55.5,56.6,55.4z M56.4,47.4c0.1-0.2,0.2-0.4,0.4-0.5c-0.2-0.1-0.6,0.3-0.6,0.5C56.4,47.4,56.3,47.4,56.4,47.4z        M56.4,47.9c0,0,0-0.1-0.1-0.1c-0.2,0.3-0.3,0.6-0.5,0.9C56.1,48.6,56.3,48.2,56.4,47.9z M55.3,47.7c0.2,0,0.7-0.6,0.6-0.8       c0-0.1-0.1-0.1-0.2-0.2C55.6,47,55.3,47.4,55.3,47.7z M55.2,46.4c-0.6-0.2-0.2,0.7-0.4,1C55.2,47.3,55.1,46.8,55.2,46.4z        M53.9,49c0.2-0.3,0.5-0.7,0.4-1c-0.1,0-0.1,0.1-0.2,0.1C54,48.5,53.9,48.7,53.9,49z M53.7,46.6c0.3,0.1,0.5-0.5,0.3-0.7       C53.5,45.8,53.7,46.4,53.7,46.6z M53.7,47.9c-0.1-0.3-0.4-0.1-0.4,0.2c-0.1,0-0.1-0.1-0.2,0c-0.2,0.5,0.6,0.5,0.4,0       C53.4,47.9,53.6,48,53.7,47.9z M53.5,50.4c0.5-0.8-1-1.2-1.2-0.5c0.1,0.1,0.4,0,0.5,0.1c0.1,0.1,0,0.3,0.1,0.5       C52.9,50.6,53.3,50.5,53.5,50.4z M53,46.8c0.3-0.2,0.5-0.7,0-0.9C53,46.3,52.9,46.6,53,46.8z M53.2,48.9       c-0.1-0.2-0.4-0.2-0.6-0.3c-0.2,0-0.4,0-0.6,0c0,0-0.1,0-0.2,0c-0.4,0.3-0.8,0-1.1,0c-0.7-0.1-0.9,0.4-1.4,0.6       c-0.2,0-0.6,0.1-0.8,0.1c-0.1,0-0.3-0.2-0.5-0.1c0-0.1-0.4,0-0.3,0.1c0.4,0.3,1.1,0.3,1.6,0.1c0.3,0.2,0.5,0.2,0.9,0.3       c0-0.2-0.3-0.3-0.1-0.5c0.3,0.2,0.8,0.3,1.1,0.3c-0.1-0.3-0.4-0.2-0.4-0.5C51.5,49.2,52.5,49.3,53.2,48.9z M52,47       c0.5,0.3,0.5-1,0.1-0.7C52,46.5,52,46.8,52,47z M51.1,46c0.6,0.1,0.6-0.7,0.1-0.7C51.2,45.4,51.1,45.7,51.1,46z M51.4,43.8       c-0.3-0.3-0.9,0.4-0.6,0.7C51.1,44.6,51.3,44.2,51.4,43.8z M51.2,46.9c0.2-0.2-0.1-0.7-0.4-0.6C51,46.4,50.9,46.8,51.2,46.9z        M50.4,43.7c0.2-0.1,0.2-0.5,0.1-0.7C50.2,42.9,50.1,43.5,50.4,43.7z M50.4,45.1c0.1,0,0.2,0,0.3,0c0-0.5-0.3-0.6-0.1-1.1       c-0.6,0-1,0.5-1.6,0.6c-0.2,0-0.5,0-0.7,0c-0.3,0.2-0.8,0.1-1,0.4c-0.9,0.4-1.5,1.1-2.2,1.8c-0.6,0.5-1.3,1-1.8,1.7       c0.3,0.1,0.6,0,0.8-0.1c0.2-0.3,0.3-0.6,0.5-0.8c0.1-0.1,0.3,0,0.5-0.2c0-0.1,0-0.2,0-0.3c0.3,0,0.4-0.1,0.5-0.3       c0,0-0.1-0.1-0.1-0.2c0.1-0.1,0.2,0,0.3,0c0.1-0.1,0.1-0.3,0.3-0.4c0.1,0.1,0.2,0.3,0.3,0.2c0.3,0,0-0.4,0-0.6       c0.3,0.1,0.5-0.2,0.7-0.2c0.1,0,0.1,0.2,0.3,0.2c0,0,0.1-0.1,0.1-0.1c0-0.2-0.2-0.3-0.2-0.5c0.2-0.1,0.3-0.2,0.5-0.2       c0,0,0,0.1,0.1,0.2c0.1,0,0.2,0,0.2,0c0.2,0.1,0.2,0.3,0.3,0.3c0.2,0,0.2-0.2,0.2-0.4c0-0.1-0.1-0.1-0.2-0.2       c0.4-0.1,0.8-0.1,1,0.3c0.2,0,0.2-0.1,0.3-0.2c0-0.2-0.2-0.2-0.2-0.4c0.1,0,0.3,0,0.4,0c0.2,0,0.2-0.4,0.4-0.4c0,0,0,0,0,0       c0,0.1-0.2,0.2-0.2,0.3C50.3,44.7,50.2,45,50.4,45.1z M50.1,46.2c0.7,0.2,0.3-1.2-0.2-0.7C50.1,45.7,50,45.9,50.1,46.2z        M50.1,47.2c0.3-0.2,0-0.8-0.3-0.8C49.9,46.7,49.9,47,50.1,47.2z M49.1,46.5c0.5,0.1,0.5-0.9,0-0.8       C49,45.9,49.1,46.3,49.1,46.5z M49,47.2c0.2-0.2-0.1-0.6-0.3-0.4C48.8,47,48.9,47.1,49,47.2z M48.9,43.4       C48.8,43.4,48.8,43.4,48.9,43.4c-0.1,0.2-0.3,0.4-0.2,0.6C48.9,44,48.8,43.7,48.9,43.4z M47.3,50.5c0.2,0.2,0.7,0.2,1.1,0.2       c-0.1-0.1-0.3-0.2-0.5-0.3c-0.3-0.1-0.6-0.2-0.8-0.2c-1-0.5-2-0.2-3.2,0c-0.4,0-0.8,0.2-1.1,0.3c-0.2,0-0.3,0-0.5,0       c-0.9,0-1.6-0.1-2.4-0.2c-0.3,0-0.5-0.2-0.8-0.2C38.6,50,38.2,50,37.9,50c-0.3,0-0.5,0.1-0.7,0.3c0.7,0.1,1.3,0.1,1.9,0.3       c0.9,0.2,1.7,0.6,2.6,0.5C43.6,51,45.3,50.1,47.3,50.5z M48.2,46.8c0.5,0,0.2-1-0.2-0.9c0,0,0,0,0,0.1       C48.2,46.3,48.1,46.5,48.2,46.8z M47.5,44.4c0.2-0.1,0.5-0.5,0.3-0.8c0,0,0,0-0.1,0C47.8,44,47.5,44.1,47.5,44.4z M47.1,47.1       c0.4,0,0.4-0.4,0.2-0.6C46.9,46.4,47,46.9,47.1,47.1z M47.1,44.4c0.2-0.4-0.3-0.3-0.4,0C46.8,44.5,47,44.5,47.1,44.4z M47,47.9       c0.4-0.1,0.2-0.6-0.1-0.5C46.9,47.6,46.9,47.7,47,47.9z M46.2,47.1c-0.2,0.2,0.1,0.6,0.3,0.3C46.5,47.2,46.4,47.1,46.2,47.1z        M46.2,48.5c0.3-0.3,0-0.6,0-0.9c-0.1-0.1-0.3-0.1-0.4-0.2c0,0.1,0,0.5,0.1,0.5c0.1,0,0-0.2,0.1-0.2       C46.1,47.9,46,48.3,46.2,48.5z M46.1,45c-0.1-0.1,0-0.3-0.1-0.3c-0.1,0.1-0.3,0.4-0.1,0.5C46,45.1,46,45,46.1,45z M45,45.6       c0.4,0.1,0.4-0.3,0.2-0.5c-0.1,0,0,0.1,0,0.2c-0.1,0-0.2,0.1-0.2,0.2C45,45.5,45,45.5,45,45.6z M44.8,46.4       c-0.1-0.1,0-0.1,0-0.2c-0.1,0,0-0.2-0.2-0.2c0,0.1-0.1,0.3-0.2,0.4c0.1,0,0,0.2,0.2,0.2C44.7,46.5,44.8,46.4,44.8,46.4z        M43.9,46.9c0,0.2,0.3,0.3,0.3,0c0,0-0.1-0.1-0.1-0.1C44.1,46.8,44,46.8,43.9,46.9z M40.9,33c0.1-0.1,0.2-0.2,0.2-0.4       c0-0.4-0.8-0.5-0.7,0c0,0.1,0.1,0.2,0.2,0.3C40.7,33,40.8,33,40.9,33z M39,34.1c0.2,0,0.3-0.3,0.2-0.5       c-0.2,0.1-0.3,0.2-0.3,0.5C38.9,34,39,34,39,34.1z M36.8,50c0.1-0.1,0.2,0,0.2-0.1c-0.8-0.1-1.3,0.1-2,0.4       c0.3,0.2,0.8,0,1.2-0.2C36.3,50.2,36.6,50.1,36.8,50z M33.4,28.6c0-0.2,0.1-0.2,0.1-0.4c-0.1,0-0.1-0.1-0.1-0.1       c-0.3,0.3-0.6-0.1-0.7,0.3C33,28.4,33.1,28.6,33.4,28.6z M32.3,33.5c0.1,0,0.1-0.1,0.1-0.1c0-0.2-0.2-0.3-0.4-0.3       C32,33.2,32.1,33.5,32.3,33.5z M32.1,62.1c0-0.1,0-0.2,0-0.3c-0.4-0.4-0.8-0.4-1.3-0.4c-0.3,0-0.6-0.1-0.9-0.2       c-1.2-0.2-2.4-0.3-3.5-0.5c-0.3,0-0.6-0.2-0.9-0.3c-0.4-0.3-0.5-0.6-0.5-1.3c0.1-0.6,0.2-1.2,0.2-1.6c0-0.2,0-0.4,0-0.6       c0.1-0.7,0.2-1.4,0.3-2c0-0.2,0.1-0.4,0.1-0.6c0-0.3-0.1-0.5,0-0.7c0.1-0.9,0.2-1.7,0.2-2.6c0-0.1,0.1-0.1,0.1-0.2       c0.1-0.5,0.2-0.8,0.3-1.2c0.5-1.2,1-2.4,1.1-3.8c0-0.6,0-1,0-1.4c0-0.4-0.1-0.7-0.1-1.1c0-0.1,0.1-0.3,0-0.4       c0-0.1-0.1-0.2-0.1-0.3c-0.1-0.5-0.2-0.9-0.5-1.2c0.1-0.2,0-0.3-0.1-0.4c-0.2,0.2,0,0.6-0.4,0.6c0-0.3,0-0.7,0-1.1       c0.1-1.2,0.4-2.3,0.5-3.5c0.1-0.4,0.1-0.8,0.2-1.2c0.1-0.7,0.4-1.7-0.1-2.2c-0.7-0.3-0.5,0.5-0.6,0.8c-0.1,0.2-0.2,0.1-0.3,0.3       c-0.1,0.4,0,0.9,0,1.2c0,0.3-0.2,0.4-0.3,0.6c-0.1,0.4-0.3,0.8-0.6,1.1c-0.2,0-0.3,0-0.5,0.1c0,0.3,0.1,0.5,0,0.8       c-0.2-0.1-0.2-0.3-0.4-0.3c-0.3,0-0.4,0.5-0.5,0.9c0.1,0.1,0.1,0.2,0.1,0.3c0.1,0.2,0.4,0.2,0.5,0.4c0.3,0.4,0.2,1-0.2,1.3       c-0.2-0.1-0.3-0.2-0.4-0.3c-0.3-0.1-0.6-0.1-0.8-0.2c-0.1,0-0.2-0.2-0.3-0.2c-0.2-0.1-0.4-0.1-0.6-0.2       c-0.2,0.2-0.6-0.1-0.7,0.2c0.7,0.5,1.7,0.3,2.2,0.8c0.3,0.3,0.6,0.7,0.9,1.1c0.4,0.7,0.8,1.5,1,2.4c-0.1,0.3,0,0.5,0,0.8       c0,0.3,0,0.6,0,0.9c-0.1,1.7-0.5,3.4-0.8,5c-0.1,0.4-0.1,0.8-0.1,1.1c0,0.2-0.1,0.5-0.2,0.7c-0.1,0.6-0.1,1.2-0.1,1.9       c0,0.3,0,0.5,0.1,0.7c-0.1,0.3,0,0.7,0,1.1c0,0.2-0.1,0.4-0.1,0.6c-0.2,1.2-0.1,2.4-0.1,3.5c0.4,0.2,1,0.1,1.5,0.1       c0.6,0,1.1,0,1.5,0.1c0,0,0.3-0.1,0.2,0.1c-0.1,0.1-0.4,0-0.4,0.2c-0.5,0-1.6-0.3-2,0.1c0.1,0.1,0.3,0,0.4,0       c1,0,1.8,0.3,2.8,0.2c0.3,0,0.5-0.1,0.8,0c0.7,0,1.3,0.2,2,0.3C31.4,62.2,31.8,62.3,32.1,62.1z M32,33.1c0-0.1,0-0.1,0-0.2       c-0.2-0.1-0.7-0.3-0.7,0c-0.1-0.2-0.6,0.2-0.7-0.1c0-0.1,0.2,0,0.2-0.2c-0.1-0.2-0.3-0.1-0.5-0.2c0-0.1,0.3,0,0.3-0.1       c0.1-0.1-0.1-0.1-0.1-0.2c0.1-0.1,0.2-0.1,0.2-0.2c-0.2,0-0.5-0.1-0.6,0.1c-0.5,0-0.9,0.7-1.4,0.3c-0.2-0.1-0.5,0.1-0.8,0.1       c-0.2,0-0.4-0.3-0.6-0.1c-0.1,0-0.2-0.2-0.3-0.2c-0.1,0.1-0.3,0-0.4-0.1c-0.2,0-0.5-0.1-0.7-0.1c-0.1,0-0.1-0.1-0.2-0.1       c-0.1,0-0.2,0-0.3,0c-0.2,0-0.3-0.2-0.5-0.3c-0.3-0.1-0.7,0-0.9-0.1c0,0-0.1-0.1-0.1-0.1c-0.1,0-0.3,0-0.3-0.1       c0-0.4-0.1-1,0.2-1.4c0.2,0.2,0,0.5,0,0.7c0.1,0.6,1,0.8,1.5,0.8c0.2-0.5,0.1-0.8,0.2-1.3c0.3,0.3,0.2,0.9,0.8,0.9       c0.2,0.4,0.4,0.7,0.8,0.9c0.2-0.2,0.1-0.6,0.1-0.9c0.1-0.7,0.2-1.5,0-2.1c0.2-0.8-0.5-1.4-0.4-2.2c-0.2-0.1-0.3-0.2-0.4-0.2       c0-0.3-0.3-0.5-0.4-0.7c-0.5-0.4-0.9-1.1-1.3-1.8c0,0,0-0.1,0-0.1c-0.1-0.4-0.2-0.8-0.3-1.1c0-0.1-0.1-0.4-0.3-0.4       c-0.3,0.3-0.1,0.7,0,1.1c0,0.1,0,0.2,0,0.3c0,0.4,0.2,0.7,0.2,1.2c0,0.2-0.2,0.2-0.2,0.4c0,0.3,0.3,0.7,0.3,1       c0,0.2-0.1,0.3-0.1,0.4c0,0.2,0.2,0.4,0,0.5c-0.3-0.2-0.2-0.6-0.3-1c-0.3,0-0.3-0.3-0.6-0.5c-0.1,0.1-0.1,0.4-0.1,0.5       c0.1,0.5,0.3,0.9,0.6,1.3c0,0.1-0.1,0.1-0.1,0.3c0.2,0.4,0.5,0.8,0.5,1.4c-0.2,0-0.1-0.4-0.3-0.5c-0.1,0-0.2,0-0.2,0       c-0.1,0.5-0.2,1.1-0.4,1.4c-0.2,0.3-0.7,0-1,0.3c0,0.8,0.4,1.6,1.3,1.7c0.2,0,0.4,0,0.6,0.1c0.7,0.1,1.3,0.1,2.1,0.3       c0,0,0.6,0.1,0.7,0.2c0,0.1-0.4,0.2-0.5,0.2c-0.6,0.1-1.1-0.3-1.6-0.3c-0.3,0-0.5,0.1-0.7,0.1c-0.5,0-0.8,0-1.1,0.2       c-0.2-0.1-0.3,0-0.6-0.1c-0.3-0.1-0.3-0.6-0.8-0.5c-0.1,0.2,0,0.6-0.1,0.8c0.2,0.2,0.6-0.1,0.7,0c0,0,0,0,0,0c0,0,0,0,0,0       s0,0,0,0c0,0,0,0,0,0c0,0,0,0,0,0c0.3-0.1,0.7,0,1,0c0.8,0.1,1.6-0.1,2.3-0.1c0.3,0,0.7,0.1,1,0.2c0.4,0,0.9-0.1,1.3-0.1       c0.9,0,1.5,0.3,2.4,0.2c0.1,0,0.1,0.1,0.2,0.1c0.3-0.1,0.5,0,0.7,0.2c0.3,0,0.4,0.2,0.7,0.3c0-0.3-0.4-0.4-0.3-0.8       c0.1,0,0.2,0,0.2-0.1c0-0.1-0.1,0-0.1-0.2C31.7,33,31.7,33.1,32,33.1z M30.8,29.9c0.4-0.2,0.9-0.4,0.7-0.9       c-0.4,0.1-0.9,0.4-1.4,0.6c0,0.2,0,0.5,0.3,0.5C30.5,30.1,30.6,30,30.8,29.9z M31.1,31.5c0.4,0,0.4-1,0.2-1.3       c-0.3,0-0.6,0.2-0.8,0.3C30.5,30.9,30.8,31.5,31.1,31.5z M30.9,63.9c-0.1-0.1-0.3,0-0.3,0.1c0,0.1,0,0.1,0,0.1       C30.8,64.1,30.9,64,30.9,63.9z M29.9,64.7c0.3,0,1,0.3,1.2-0.1c-0.7,0-1.3-0.2-1.8-0.1C29.2,64.7,29.6,64.6,29.9,64.7z        M29.5,64.2c0.1-0.5-0.3-0.8-0.8-0.8c-0.2-0.1-0.7-0.1-1-0.2c-1-0.1-1.8-0.1-2.6-0.2c-0.8-0.1-1.6-0.3-2.3-0.6       c-0.2,0.1-0.2,0.3-0.4,0.3c-0.6,0-0.2-1.3,0.1-1.5c0.1,0,0.1,0.3,0.2,0.2c0.1-0.3,0.2-0.5,0.4-0.6C22.9,60.5,23,60,23,59.4       c0.1-1.5,0.4-3.1,0.6-4.9c0.1-0.7,0.3-1.5,0.3-2.2c0.1-0.3,0-0.7,0.1-1.1c0-0.3,0.2-0.7,0.3-1.1c0-0.2,0-0.3,0.1-0.5       c0-0.2,0.2-0.4,0.2-0.5c0.1-0.4,0.1-0.7,0.2-1c0.1-0.3,0.2-0.6,0.2-0.9c0-0.6,0-1.2-0.1-1.8c0-0.2,0-0.5-0.1-0.7       c-0.1-0.3-0.3-0.6-0.5-1c-0.2-0.6-0.5-1.5-1-1.9c-0.2-0.1-0.7-0.4-0.8-0.2c0,0,0,0,0,0.1c0.6,0.5,1.3,1.2,1.6,2.1       c0,0,0,0.2,0.1,0.2c0.1,0.7,0.1,1.5,0.1,2.2c0,0-0.1,0.3-0.1,0.3c-0.1,0.4-0.1,0.5-0.2,0.7c-0.1,0.3-0.1,0.5-0.2,0.8       c0.3,0,0.3-0.4,0.5-0.6c0,0.1,0.1,0.1,0.2,0.3c-0.1,0.6-0.2,1-0.3,1.6c-0.1,0.3-0.1,0.7-0.3,0.9c-0.1,0.3-0.4,0.6-0.4,1       c0,0.2,0.1,0.3,0.1,0.5c0,0.4-0.2,1-0.3,1.4c-0.1,0.4-0.5,0.8-0.6,1.1c-0.1,0.3,0,0.5-0.1,0.7c-0.1,0.3-0.4,0.5-0.5,0.8       c-0.2,0.5-0.1,1.2-0.2,1.8c0,0.1-0.1,0.2-0.1,0.3c0,0.2,0,0.4,0,0.6c0,0.3-0.1,0.5-0.1,0.8c0,0.2,0,0.5-0.1,0.7       c-0.1,0.9-0.3,1.7-0.2,2.5c0.1,0.5,0.7,1,0,1.2c-0.5-0.6,0-2-0.3-2.8c-0.2,0.3-0.2,0.7-0.3,1.1c0,0.4,0,0.8-0.3,1       c-0.1-0.3,0-0.5,0.1-0.7c0.1-0.3,0-0.7,0.1-1.1c0-0.4,0.1-0.7,0.1-1.1c0-0.5,0.3-0.9,0.2-1.3c-0.3,0.2-0.3,0.7-0.3,1       c-0.1,0.9-0.3,1.8-0.3,2.5c0,0.4-0.4,1-0.3,1.4c0,0.3,0.3,0.5,0.5,0.7c0.8-0.4,1.6,0.2,2.6,0c0-0.2-0.2-0.1-0.2-0.3       c0.5-0.1,0.9-0.1,1.4,0c0.6,0,1.2,0,1.9,0c0.2,0,0.4,0.1,0.5,0.1c0.1,0,0.3,0,0.4,0c0,0,0.1,0,0.2,0c0.3,0,0.5,0,0.8,0       C28.5,64.1,29.1,64.3,29.5,64.2z M29.2,31.9c0-0.2-0.3-0.5-0.5-0.4c-0.2,0.1-0.7,0.3-0.7,0.5C28.3,32.1,28.9,32.1,29.2,31.9z        M28.5,31.1c0.1-0.6-0.5-1-0.6-1.5c0,0.7-0.1,1.2-0.1,1.7C28,31.4,28.2,31.2,28.5,31.1z M26,21.4c0-0.1,0.2-0.1,0.2-0.2       c0-0.2-0.3-0.2-0.5-0.1C25.7,21.3,25.9,21.3,26,21.4z M25.6,20.5c0.1-0.1,0.3,0,0.3-0.1c-0.1-0.5-0.5-0.6-0.8-1c0,0,0,0-0.1,0       c-0.2,0.4,0.3,0.6,0.4,0.9c-0.1,0-0.2,0.1-0.3,0.1c-0.3-0.2-0.5-0.6-0.8-0.7c0,0.2,0,0.3,0,0.6c0,0.2,0.3,0.3,0.3,0.5       c0,0.1,0,0.2,0,0.2c0.1,0.2,0.3,0.3,0.5,0.4c0.1-0.1,0.1-0.3,0.1-0.4c0.2,0,0.4,0,0.4-0.2C25.7,20.6,25.6,20.6,25.6,20.5z        M25,18.5c0-0.2,0-0.2,0.1-0.2c-0.2,0-0.4-0.6-0.6-0.2C24.7,18.2,24.7,18.5,25,18.5z M24.3,21.2c-0.6,0.2,0.6,1,0.8,0.4       C25,21.6,24.6,21.1,24.3,21.2z M24.4,19.5C24.4,19.5,24.4,19.5,24.4,19.5c0-0.1-0.1-0.1-0.1,0c0,0,0,0,0,0.1       C24.4,19.5,24.4,19.6,24.4,19.5z M24,14.6c0,0,0-0.1-0.1-0.1c-0.2,0.2-0.3,0.7-0.4,1c-0.3,0.3-0.8,1.1-0.3,1.4       c0.2-0.1,0.1-0.5,0.1-0.7c0.1-0.2,0.3-0.3,0.3-0.6C24,15.5,23.9,15,24,14.6z M23.5,19.3c0,0,0-0.1,0.1-0.1       c-0.2-0.5-1.2-0.5-1.5-0.1c0.1,0.1,0.2,0.3,0.3,0.4c0.3,0,0.7,0.1,0.9,0c-0.3-0.2-0.7-0.2-1-0.4C22.5,19,22.8,19,23,19       c0,0.1,0,0.3,0.2,0.3c0.1-0.1-0.1-0.1,0-0.2C23.4,19.2,23.3,19.3,23.5,19.3z M22.7,21.7c0.1,0,0.3,0.1,0.4,0       c-0.1-0.1-0.7-0.4-0.7,0c0,0.1,0.1,0.4,0.3,0.5C22.8,22,22.7,21.8,22.7,21.7z M22.7,52.6c0-0.2-0.4-0.3-0.3-0.6       c-0.3-0.3-0.9-0.2-1.2,0c0.2,0.5,0.5,1,0.4,1.6c-0.1,0.3-0.2,0.6-0.2,0.8c0,0.2,0,0.4,0,0.6c0,0.3-0.2,0.6-0.1,0.9       c0.2,0,0.2-0.3,0.2-0.4c0.1-0.7,0.3-1.2,0.4-2C22.1,53.4,22.7,52.8,22.7,52.6z M22.1,54.4c0.4,0,0.4-0.5,0.1-0.5       C22.1,54,22.1,54.2,22.1,54.4z M21.7,20.1c-0.1,0.4,0.3,0.8,0.6,0.8c-0.1-0.3-0.3-0.5-0.4-0.8C21.8,20.1,21.8,20.1,21.7,20.1z        M22.4,22.2c0-0.4-0.1-0.7-0.3-1c0,0-0.1,0-0.1,0c0,0,0,0,0,0.1C22,21.7,22,22.2,22.4,22.2z M21.6,17.1       c0.2-0.4-0.1-0.8-0.3-1.2c-0.2-0.3-0.3-0.6-0.4-0.8c-0.2-0.3-0.6-0.7-0.8-0.2c-0.2,0.6-0.3,1.5,0.2,1.6c0-0.3,0-0.6,0.3-0.9       c0.3,0.1,0.4,0.5,0.3,0.8C21.3,16.6,21.3,17,21.6,17.1z M21.8,51c-0.1-0.2-0.5,0-0.7,0c-0.1-0.1-0.1-0.2-0.2-0.3       c-0.2-0.3-0.8-0.3-1-0.1c0.1,0.3,0.4,0.3,0.6,0.5c0.2,0.2,0.3,0.6,0.7,0.7C21.3,51.5,21.6,51.3,21.8,51z M21.1,32.3       c0.3-0.1,0.1-0.7-0.1-0.9c0,0,0,0-0.1,0C20.8,31.6,21,32,21.1,32.3z M20.7,57.8c0.2-1.6,0.7-3,0.4-4.6c0-0.3-0.3-0.6-0.2-0.9       c-0.2-0.6-0.9-0.4-1.1,0c-0.4,1.2-0.8,2.5-0.8,3.6c-0.1,2.2-0.5,4.2-0.9,6.1c0.7,0.1,1.4-0.1,2.1-0.1c0.2-0.3,0.2-0.6,0.2-1       C20.4,59.7,20.5,58.9,20.7,57.8z M21.1,18.4c-0.1-0.2-0.3-0.4-0.4-0.4c-0.1,0.4-0.2,0.8,0,1.1C20.8,18.9,20.9,18.5,21.1,18.4z        M18.8,63.6c0.6-0.1,1.2,0,1.1-0.9c-0.5-0.2-1.2,0.1-1.9,0c-0.2,0.2-0.4,0.1-0.6,0.3c-0.1,0.1-0.1,0.2-0.2,0.3       c-0.1,0.1-0.3,0.2-0.3,0.4C17.6,63.8,18.5,63.5,18.8,63.6z M19.7,49.8c0-0.1,0-0.1,0-0.2c-0.2-0.1-0.5-0.1-0.7,0       C19.2,49.7,19.3,49.8,19.7,49.8z M19.2,52.8c0.1-0.4,0.2-0.7,0.2-1.1c-0.2,0.3-0.3,0.7-0.5,1.1s-0.2,0.9-0.3,1.3       c-0.1,0.4-0.3,0.8-0.4,1.2c-0.1,0.5-0.1,0.9-0.2,1.4c-0.1,0.7-0.1,1.3-0.2,2.1c0,0.2-0.1,0.3-0.1,0.4c0,0.1,0,0.4-0.2,0.4       c-0.1-1.3,0.3-2.7,0.5-4.1c0-0.4,0-0.7,0.1-1.1c0.1-0.6,0.4-1.1,0.3-1.6c0-0.1-0.1-0.3-0.1-0.4c0-0.2,0-0.5,0.1-0.7       c0-0.2,0.1-0.5-0.1-0.6c-0.2,0.2-0.1,0.4-0.2,0.7c-0.1,0.9-0.5,2-0.4,3c-0.1,0.1-0.1,0.3-0.1,0.5c0,0.1-0.1,0.2-0.1,0.3       c-0.1,0.4-0.1,0.8-0.2,1.2c0,0.3,0,0.6,0,0.9c0,0.1-0.1,0.1-0.1,0.2c0,0.1,0,0.2,0,0.3c0,0.1-0.1,0.3-0.1,0.4       c0,0.4-0.1,0.9-0.1,1.3c0,0.2,0,0.4,0,0.6c-0.1,0.3-0.3,0.6-0.2,0.9c-0.2,0.6-0.5,1.2-0.9,1.7c-0.9,0.9-2.4,1.3-3.8,1.3       c-0.6,0-1.2,0.1-1.7,0.2C9.1,64.6,8,64.6,7,64.7c-0.4-0.1-0.8,0-1.1,0c-0.3,0-0.7-0.1-0.9,0.1c0,0-0.3,0-0.1,0       c0.9,0,2,0.2,3,0.2c0.7,0,1.5,0,1.9,0c0.4-0.1,0.8-0.1,1.1-0.1c0.3,0,0.7,0.1,1,0c0.1,0,0.3-0.1,0.4-0.1c0.4,0,0.8,0,1.2,0       c1.4-0.2,2.3-0.4,3-1.1c0.3-0.3,0.6-1,0.9-1.5c0.1-0.2,0.2-0.5,0.3-0.8c0.3-1.2,0.4-2.4,0.5-3.6c0.2-0.5,0.2-1.4,0.3-2.1       c0.1-0.7,0.3-1.6,0.4-2.1C19,53.3,19.1,53.1,19.2,52.8z"
               class="st0" /><path
               id="path138"
               d="M70.5,60.8c0.1,1.1,0.7,2.1,0.3,3c-0.2,0-0.1-0.2-0.3-0.3c0-1.5-0.3-2.8-0.4-4.1c-0.2-0.3-0.2-1-0.3-1.5       c-0.1-1.2-0.3-2.5-0.8-3.4c-0.1-0.2-0.4-0.3-0.3-0.6c0-0.1-0.1-0.1-0.2-0.2c0-0.2,0.1-0.2,0.2-0.3c0-0.4-0.3-0.8-0.3-1.2       c0.2,0.1,0.3,0.3,0.4,0.4c0.2,0,0.1-0.2,0.2-0.2c0.3,0.2,0.6,0.7,0.6,1.2c0,0.3,0.2,0.7,0.2,1c0,0.2,0,0.3,0,0.4       c0,0.3,0.1,0.6,0.1,0.9c0,0.1,0.1,0.3,0.1,0.4c0.2,1.1,0.4,2,0.4,3C70.5,60,70.5,60.4,70.5,60.8z"
               class="st0" /><path
               id="path140"
               d="M67.3,62.4c0-0.2,0.4-0.1,0.6,0C67.8,62.5,67.4,62.5,67.3,62.4z"
               class="st0" /><path
               id="path142"
               d="M62.4,17.8c0,0.2-0.3,0.2-0.4,0.3c-0.1,0.3-0.1,0.6-0.2,0.9c-0.1,0.6-0.5,1-1,1.2c0.1,0.2-0.1,0.3-0.1,0.5       c0,0.4,0.3,0.9,0.2,1.2c-0.3-0.3-0.5-0.8-0.4-1.3c-0.2,0-0.2,0.6-0.1,0.8c-0.3,0.4,0.4,0.5,0.2,0.9c-0.2,0-0.1-0.1-0.3-0.1       c-0.1-0.6-0.3-1.1-0.2-1.6C60,20.8,60,21.1,60,21.5c0,0.5,0.4,0.8,0.3,1.2c-0.4,0.1-0.3-0.2-0.3-0.3c0-0.3-0.2-0.5-0.3-0.8       c0-0.5,0.2-0.9,0.1-1.2c-0.4,0.2-0.2,0.5-0.3,0.9c0.1,0.1,0.1,0.4,0,0.5c-0.2,0-0.2-0.1-0.3-0.2c0-0.4,0.1-0.7,0.2-1.2       c-0.6,0-0.4,0.9-0.4,1.3c-0.4-0.1-0.2-0.9-0.1-1.3c-0.4-0.2-0.5-0.4-0.6-1c0-0.3-0.1-0.5-0.1-0.7c0-0.4,0-0.7-0.1-1       c-0.2-0.2-0.8-0.3-1.1,0c0,0.2-0.1,0.4-0.1,0.7c-0.4,0.4-0.8,0.8-1.2,1.1c-0.2,0.4-0.5,0.7-0.7,1c-0.2,0.3-0.3,0.6-0.5,0.8       c-0.1,0.2-0.3,0.3-0.4,0.4c-0.1,0.2-0.2,0.4-0.3,0.6c-0.1,0.3-0.5,0.5-0.6,0.8c0.4,0.1,0.7,0.2,1,0.4c0.2,0.5,0.5,1,0.3,1.6       c-0.2,0.2-0.3,0.4-0.5,0.6c-0.3,0.2-0.9,0.1-1.2,0c-0.4,0.2-0.7,0.2-1.1,0.1c-0.3,0.3-0.9,0.3-1.3,0c-0.3,0.1-0.6,0.2-0.9,0.1       c-0.1,0-0.2-0.1-0.3-0.1c-0.1,0-0.3,0.1-0.4,0.1c-0.2,0-0.5,0-0.7,0c-0.2-0.1-0.4-0.2-0.6-0.2s-0.4,0.1-0.5,0.1       c-0.2,0-0.3-0.1-0.6-0.1c-0.3-0.1-0.3,0.1-0.5,0.1c-0.4,0.2-0.7,0-1-0.1c-0.5,0.1-0.9,0.3-1.3-0.1c-0.4,0.2-1.1,0.2-1.4-0.1       c-0.4,0.2-0.9,0.3-1.4,0c-0.5,0.2-1.2,0.3-1.8,0.2c-0.8-0.4-1.4-1.5-0.8-2.3c0.2-0.3,0.6-0.3,0.9-0.5c0-0.3-0.2-0.3-0.3-0.5       c-0.3-0.4-0.6-1-1-1.6c-0.3-0.5-0.7-1-1-1.5c-0.1-0.2-0.2-0.4-0.3-0.5c-0.3-0.3-0.7-0.5-0.9-0.9c-0.1-0.2,0-0.4,0-0.6       c0-0.3-0.3-0.5-0.6-0.7c-0.5-0.1-0.7,0.2-0.8,0.5c0.2,0.8-0.1,1.6-0.3,2.2c-0.1,0.4-0.2,0.6-0.6,0.7c0,0.6-0.3,1.1-0.4,1.7       c-0.1,0-0.2,0-0.3,0c0.1-0.3,0.4-0.5,0.5-0.9c0.1-0.2,0.2-0.6-0.1-0.7c-0.2,0.1-0.1,0.2-0.1,0.4c0,0.5-0.4,1-0.5,1.4       c-0.1,0.1-0.3,0.5-0.5,0.2c0.2-0.3,0.4-0.5,0.6-0.8c0-0.1-0.1-0.1,0-0.2c0.2-0.2,0.2-0.6,0.1-0.9c-0.2,0.6-0.2,1.5-0.8,1.7       c0.2-0.5,0.7-0.9,0.5-1.6c-0.3,0.3-0.1,1-0.6,1.1c-0.1-0.3,0.5-0.6,0.2-1c-0.1,0.4-0.2,0.9-0.6,0.9c0-0.3,0.1-0.3,0.3-0.3       c0.2-0.4,0.3-0.9-0.2-1c-0.5-0.5-0.3-1.5-0.7-2.1c-0.1-0.1-0.3-0.2-0.3-0.4c0.3-0.3,0.7,0.3,1,0.2c0.3-0.1,0.1-0.7,0.3-1       c0.2,0,0.2,0.1,0.3,0.1c0.5-0.1,0.6-1,0.5-1.3c-0.2,0.3,0,0.8-0.3,1c-0.1,0-0.1-0.1-0.1-0.1c-0.1,0-0.2,0.2-0.3,0.1       c0-0.1,0-0.1,0-0.2c0-0.1,0.2-0.1,0.3-0.1c0-0.2,0.2-0.4,0.1-0.7c-0.1-0.2-0.3-0.2-0.4-0.4c-0.4-0.6-0.4-1.8-1-2.1       c0.6-0.2,0.9,0.5,1.5,0.4c0.2-0.5,0.4-1,0.7-1.4c0.4,0,0.9-0.2,1.3,0c0.5,0.2,0.5,0.8,0.8,1.2c-0.1,0.1,0,0.1,0,0.2       c0.2,0.2,0.1,0.7,0.4,0.8c0.2-0.1,0.1-0.4,0-0.6c0-0.3,0.1-0.7,0-0.9c-0.1-0.2-0.3-0.3-0.5-0.5c-0.2-0.3-0.2-0.5-0.3-0.9       c-0.6-0.9-1.2-1.8-2-2.5c0-0.1,0-0.2,0-0.3c0.3-0.2,0.4-0.3,0.8-0.2c1.1,0.1,1.5,1.1,1.6,2.2c0,0.2,0,0.4,0,0.6       c0.1,0.2,0.3,0.4,0.6,0.4c0.2-0.1,0.2-0.4,0.3-0.6c-0.1-0.4-0.5-0.5-0.5-1c0-0.2,0.1-0.4,0.1-0.7c0-0.6-0.4-1.4-0.8-1.7       c-0.2-0.2-0.7-0.4-0.7-0.8c0.1-0.3,0.6-0.2,0.8-0.1c0.6,0.2,1,0.9,1.1,1.5c0,0.3-0.1,0.7,0,1c0,0.2,0.5,0.9,0.6,0.3       c-0.4-0.5,0.1-1.2,0-1.8c0-0.3-0.1-0.5-0.2-0.7c-0.2-0.4-0.8-0.7-0.6-1.3c0.3-0.1,0.6,0.1,0.8,0.2c0.2,0.2,0.4,0.5,0.5,0.9       c0.1,0.8-0.3,1.3-0.1,1.8c0.5,0.1,0.4-0.3,0.5-0.6C37,7.7,37.2,7.4,37.1,7c0-0.8-0.7-1-0.7-1.7c0.6-0.2,1,0.4,1.1,0.9       c0.2,0.7-0.3,1.4,0.1,1.8c0.3-0.1,0.4-0.4,0.5-0.6c0.2-0.7-0.3-1.5,0.1-2.2c0.5,0,0.6,0.4,0.7,0.7c0.1,0.6-0.4,1-0.1,1.5       C39,7.4,39.1,7.1,39.2,7c0.1-0.3,0.2-0.7,0.2-1.1c0-0.4-0.2-0.7,0.3-0.8c0,0,0,0,0,0c0.8,0.4-0.1,1.3,0.1,2       c0.2,0,0.3-0.1,0.3-0.2c0.4-0.4,0.3-1.5,1-1.4c0.2,0.2,0.2,0.4,0.1,0.6c-0.3,0.1-0.7,0.6-0.4,1c0.3,0,0.5,0,0.7,0.1       c0,0.2,0,0.3,0,0.6c-0.7,0-1.4,0-2.1,0.2c-0.7,0.1-1.4,0.4-1.9,0.8c-0.4,0.4-0.7,0.9-1,1.4c-0.7,1.1-0.9,2.6-0.8,3.9       c0,0.4,0.2,0.8,0.1,1.2c0.2,0.6,0.4,1.2,0.6,1.8c0.2,0.5,0.3,0.9,0.6,1.3c0.2,0.4,0.4,0.8,0.6,1.2c0.3,0.4,0.6,0.9,0.9,1.3       c0.3,0.4,0.6,0.9,1,1.2c0.2,0,0.3-0.2,0.3-0.3c0.1-0.8-0.5-1.8-0.7-2.4c-0.4-0.6-0.6-1.4-1.1-1.8c-0.3,0.1-0.7,0.1-0.9,0       c-0.2-0.1-0.3-0.3-0.3-0.4c-0.1-0.3,0.1-0.6,0-0.9c-0.1-0.3-0.3-0.3-0.4-0.6c0-0.4,0.1-0.6,0.2-0.8c0-0.2-0.2-0.3-0.2-0.4       c-0.2-0.5,0.3-0.8,0.5-1.1c-0.1-0.7,0.4-1.1,0.9-1.3c0.2-0.5,0.4-0.9,1-0.9c0.1,0,0.3,0.1,0.4,0.1c0.2-0.1,0.3-0.3,0.3-0.4       c0.2,0,0.4-0.1,0.6-0.1c0.2,0,0.3,0.1,0.5,0.1c0.2,0,0.5-0.2,0.7-0.2c0.4,0,0.7,0.2,1,0.5c0.4-0.1,1-0.1,1.2,0.4       c0.6-0.1,1,0.3,1.2,0.7c0.4-0.4,0.8-1.1,0.8-1.6c-0.3-0.3-0.6,0.3-1,0.2c-0.1-0.5,0-1.3,0-1.7c0.4,0,0.6,0.3,1,0.3       c0-0.5-0.4-0.8-0.6-1.2c0.9,0,1.7-0.1,2.4,0.1c-0.1,0.3-0.5,0.6-0.6,1c0.3,0,0.6-0.3,1-0.3c0.1,0.3,0,0.7-0.1,1       c0,0.3,0.1,0.6-0.1,0.8c-0.4,0-0.7-0.5-1-0.2c0,0.6,0.3,0.8,0.6,1.2c0,0.3,0.1,0.5,0.3,0.5c0.1,0,0.2-0.2,0.3-0.3       c0.2-0.2,0.6-0.2,0.9-0.2c0.2-0.1,0.2-0.3,0.3-0.4c0.3-0.2,0.7-0.3,1.1-0.1c0.2-0.3,0.6-0.5,1-0.3c0.2,0,0.3,0.2,0.5,0.3       c0.6-0.3,1.2-0.3,1.5,0.3c0.2,0,0.4,0.1,0.7,0.1c0.3,0.2,0.6,0.3,0.7,0.6c0,0,0,0.2,0,0.2c0.1,0.2,0.5,0.2,0.6,0.2       c0.2,0.1,0.4,0.3,0.4,0.5c0,0.2-0.1,0.6,0,0.8c0.2,0.3,0.5,0.4,0.4,0.9c0,0.1-0.2,0.2-0.2,0.4c0,0.1,0.1,0.2,0.2,0.3       c0.2,0.5-0.1,0.8-0.4,1c0.1,0.7-0.2,1.2-0.8,1.2c-0.1,0-0.3-0.1-0.4,0c-0.3,0-0.4,0.5-0.4,0.8c-0.1,0.1-0.2,0.2-0.3,0.3       c-0.4,0.8-1.2,2-1.3,3c0,0.3,0,0.6,0.2,0.7c0.5-0.2,0.6-0.8,1-1.2c0.3-0.8,1-1.3,1.3-2.2c0.4-0.5,0.7-1.1,0.9-1.8       c0.7-1,0.8-2.4,0.8-3.7c0-0.3-0.1-0.7-0.1-1c0-0.2,0-0.4,0-0.6c-0.1-0.3-0.2-0.6-0.3-0.9c-0.3-0.9-0.8-1.7-1.4-2.3       c-0.4-0.3-0.9-0.4-1.4-0.6c-0.3-0.1-0.5-0.2-0.8-0.3c-0.5-0.2-1.3-0.3-1.8-0.4c0-0.1-0.1-0.3,0-0.4c0.3-0.1,0.6,0,0.8-0.2       C51.4,6.5,51,6.3,51,5.9c0-0.3,0.3-0.5,0.6-0.3c0.3,0.3-0.2,2,0.9,1.7c0.3-0.3-0.2-0.6-0.2-1c-0.1-0.4,0.1-0.5,0.3-0.9       c0.3-0.1,0.3,0.1,0.5,0.3c0,0.3-0.1,0.6,0,1c0.1,0.3,0.3,0.9,0.5,0.9c0.3,0,0.3-0.3,0.3-0.4c-0.2-0.6-0.6-1.4-0.1-2       c0.3-0.1,0.5,0.1,0.6,0.3c-0.2,0.9-0.4,1.7,0,2.4c0.1,0.1,0.3,0.3,0.5,0.2c0-0.4-0.1-0.9-0.1-1.2c0-0.1,0.1-0.6,0.2-0.7       c0.1-0.1,0.6-0.3,0.8-0.3c0.3,0.1,0.2,0.5,0.1,0.7c-0.1,0.2-0.3,0.3-0.4,0.5C55.1,7.2,55,7.5,55,7.7c0,0.2,0.3,0.5,0.3,0.7       c0.1,0.3-0.1,0.9,0.5,0.9c0.2-0.6-0.2-1.1-0.1-1.8c0-0.2,0.2-0.5,0.4-0.7c0.1-0.1,0.5-0.4,0.6-0.4c0.4,0,0.5,0.3,0.3,0.5       c-0.1,0.2-0.5,0.6-0.7,1c0,0,0,0.1-0.1,0.2c0,0.1-0.1,0.1-0.1,0.2c-0.1,0.4,0.1,0.9,0,1.2c0,0.2-0.3,0.5-0.2,0.7       c0.1,0.4,0.6,0.1,0.6-0.1c0-0.8,0.1-1.2,0.3-2c0.2,0,0.2-0.3,0.3-0.5c0,0,0.1,0,0.2-0.1c0.1,0,0.1-0.1,0.1-0.2       c0,0,0.1,0,0.2-0.1c0.1,0,0.1-0.1,0.1-0.1c0.1,0,0.3-0.1,0.4-0.1c0.4-0.2,0.6-0.2,0.8,0.2c-0.5,0.8-1.7,1.3-1.7,2.3       c-0.2,0.3-0.1,0.7-0.2,1c-0.1,0.3-0.4,0.5-0.6,0.8c0,0.1,0,0.5,0.1,0.7c0.6,0,0.7-0.7,0.8-1.1c0.2-0.9,0.8-1.3,1.5-1.8       c0.5-0.1,1.3-0.5,1.5,0c-0.1,0.2-0.4,0.1-0.6,0.2c-0.5,0.2-0.6,0.6-1,1c-0.3,0.2-0.6,0.3-0.8,0.5c-0.3,0.5-0.2,1.1-0.5,1.6       c-0.2,0.3-0.6,0.4-0.6,0.7c-0.1,0.5,0,0.9,0,1.4c0.3-0.1,0.3-0.5,0.5-0.6c0-0.4,0.2-0.5,0.3-0.8c0.1-0.2,0.2-0.4,0.3-0.5       c0.1-0.1,0.4-0.2,0.5-0.2c0.1,0,0.3,0,0.5,0c0.4,0.1,0.6,0.2,0.8,0.3c0.3,0.3,0.2,0.9,0.6,1.1c0.4,0,0.5-0.3,0.8-0.4       c0.2,0.4-0.2,0.7-0.4,1.1c-0.2,0.6,0,1.2-0.6,1.3c-0.1,0.5,0.5,0.5,0.3,0.9c-0.4-0.2-0.3-0.7-0.6-0.9c-0.2,0.4,0.3,0.6,0.3,0.9       c-0.5,0.1-0.4-0.6-0.6-0.9c-0.3,0.2,0,0.6,0.1,0.9c0.1,0.1,0.3,0.3,0.3,0.5c-0.2,0.2-0.4,0-0.4-0.3c-0.2,0-0.2,0-0.3,0       c-0.2-0.3-0.2-0.9-0.2-1.2c-0.6,0.1,0.1,0.5-0.1,0.9c-0.3,0-0.3-0.6-0.3-0.8c-0.1-0.3-0.4-0.3-0.5-0.6c-0.1-0.4,0.2-0.7-0.1-1       c-0.3,0.1-0.4,0.4-0.6,0.6c0,0.4-0.2,0.6-0.3,0.9c-0.3,0.1-0.7,0.4-0.6,0.9c0.4-0.1,0.5-0.4,0.9-0.4c0.5-0.1,1,0.4,1.3,0.7       c0.2,0.2,0.4,0.4,0.5,0.6c0.1,0.2,0.1,0.3,0.3,0.4c0.2,0,0.4-0.2,0.6-0.2c0.3,0.1,0.3,0.4,0.6,0.5       C61.6,18.1,61.9,17.6,62.4,17.8z M61.4,19.4c0-0.4,0.2-0.8,0.2-1.2c-0.2,0.1-0.4,0.4-0.6,0.5c-0.1,0.1-0.2,0.3-0.4,0.2       c0-0.3,0.2-0.8-0.1-0.9c-0.3,0.1-0.4,0.9-0.8,0.6c0-0.3-0.2-1-0.6-1.1c0,0.3,0.1,0.7,0,1c-0.2-0.1-0.3-0.3-0.4-0.3       c-0.3,0.3,0.2,0.7,0.2,1.2c0,0.2-0.2,0.4-0.1,0.6c0.1,0.7,1,0.1,1.6,0.2c0.1,0,0.2,0.1,0.3,0.1C61,20,61.3,19.6,61.4,19.4z        M61,14.6c0.1-0.3,0.2-0.5,0.1-0.7c-0.3,0.1-0.5,0.3-0.6,0.6c-0.2-0.4-0.1-0.9-0.5-1.2c-0.2,0.2-0.2,0.7-0.4,0.9       c-0.2-0.2-0.3-0.6-0.6-0.7c-0.1,0.3-0.2,0.8-0.3,1.2c0,0.3,0,0.7,0.4,0.8c0.1,0,0.3,0,0.5,0c0.3,0,0.5,0.1,0.7,0.1       C60.9,15.4,60.9,15,61,14.6z M59.8,16.6c0-0.3,0-0.7-0.1-1C59.5,16,59.6,16.3,59.8,16.6z M58.9,12.9c0,0-0.1,0-0.1,0       c-0.1,0.3-0.7,0.5-0.5,0.9C58.5,13.6,58.8,13.2,58.9,12.9z M57.6,17.1c0-0.7-0.7-0.3-0.8,0.2c0,0,0.1,0,0,0       C57.2,17.3,57.4,17.2,57.6,17.1z M54.8,16.4c0.8,0.3,1.3-1,0.5-1c-0.3,0-0.5,0.1-0.7,0.3C54.5,16,54.6,16.2,54.8,16.4z        M55.1,15.2c0.5,0,0.7-1.2,0-1.1c-0.3,0-0.5,0.2-0.5,0.3C54.4,14.9,54.8,15.2,55.1,15.2z M54.3,14c0.7,0.3,1.2-0.6,0.8-1.1       c-0.4-0.4-1.2-0.2-1.1,0.7C54.1,13.7,54.1,13.9,54.3,14z M54.6,17.6c1,0.2,0.6-1.6-0.2-0.8C54.4,17.1,54.3,17.5,54.6,17.6z        M54.1,16.8c0.7-1.4,0.1-3.1-1-3.7c-0.5-0.3-1.1-0.5-1.8-0.5c-1.1,0.1-2,0.6-3,0.9c-0.2,0.3-0.5,0.6-0.5,0.9       c0.4-0.1,0.8-0.2,1.2-0.3c0.2-0.1,0.5-0.2,0.7-0.3c0.2-0.1,0.5-0.1,0.8-0.2c0.2-0.1,0.3-0.2,0.5-0.2c0.7-0.1,1.2,0.1,1.6,0.3       c0.2,0.1,0.5,0.2,0.7,0.4c0.3,0.7,0.7,1.6,0.3,2.5C53.6,16.7,53.8,16.8,54.1,16.8z M53.4,13.1c0.9,0.2,1-1,0.5-1.2       c-0.3-0.2-0.8,0-0.9,0.3C52.8,12.6,53.2,12.9,53.4,13.1z M54.1,17.1c-0.2-0.2-0.6-0.4-0.9-0.2c0.1,0.6-0.1,0.8,0.2,1.1       C53.8,18,53.9,17.5,54.1,17.1z M53.4,18.7c0.1-0.1,0.2-0.1,0.2-0.2c0-0.3-0.2-0.2-0.4-0.3C53,18.5,53.3,18.6,53.4,18.7z M53,19       c0.1-0.1,0.2-0.1,0.2-0.2c0-0.1-0.1-0.1-0.2-0.1c-0.6,0.3-0.6,1.2-1.3,1.4c-0.9,0.3-1.2-0.6-1.6-1.1c-0.3,0-0.7,0-1-0.1       c-0.2,0.1-0.3,0.2-0.3,0.4c-0.5,0.4-1.1,0.4-1.7,0.2c-0.3-0.1-0.4-0.6-0.7-0.6c-0.1,0-0.2,0-0.3,0c-0.1,0-0.2-0.1-0.3-0.1       c-0.2,0-0.2,0.3-0.3,0.4c-0.4,0.4-1.2,0.6-1.9,0.3c-0.2-0.1-0.3-0.3-0.5-0.3c-0.4-0.1-0.6,0-1,0.1c-0.3,0.3-0.6,0.7-1,0.8       c-0.4,0-0.6-0.4-1-0.3c-0.2-0.2-0.2-0.5-0.4-0.5c-0.4,0,0,0.7,0.1,1c0.3,0.3,0.7,0.4,1.3,0.4c0.1,0,0.2,0,0.3-0.1       c0.6,0.1,0.8-0.6,1.1-0.8c0.2,0.3,0.5,0.2,0.6-0.1c0.4,0,0.6,0.3,0.9,0.3c0.8,0.2,1.5-0.2,2-0.6c0.1,0.1,0.1,0.1,0.3,0.2       c0.1,0,0.1-0.3,0.3-0.2c0.3,0.5,1,0.9,1.7,0.8c0.5-0.1,0.9-0.4,1.2-0.6c0.1,0.1,0.2,0.2,0.3,0.3c0.2,0,0.1-0.2,0.3-0.2       c0.2,0.3,0.3,0.5,0.5,0.8c0.3,0.2,0.6,0.5,1.1,0.4c0.1,0,0.1-0.1,0.2-0.1c0.5,0.1,0.7-0.4,0.9-0.7c0.1-0.1,0.2-0.2,0.3-0.3       C52.9,19.5,52.9,19.2,53,19z M53,15c0.1-0.2-0.1-0.3,0-0.6c-0.3-0.3-0.7-0.5-1-0.7c-0.1,0-0.1,0-0.2,0c-0.3-0.1-0.7-0.2-1-0.1       c-0.5,0.1-1.1,0.4-1.7,0.6c-0.3,0.1-0.6,0.2-0.9,0.3c-0.3,0.1-0.7,0.1-0.7,0.4c0.5,0,1.1-0.1,1.7,0c0.4,0,0.7,0.3,1.1,0.2       c0.1,0,0.2-0.1,0.3-0.1C51.4,14.6,52.3,14.3,53,15z M52,19c0.5-0.1,1.2-0.5,1-1c-0.1-0.2-0.7-0.8-0.9-0.6       C52.1,17.8,51.9,18.5,52,19z M52.7,25.3c0,0,0.1-0.1,0.1-0.1c-0.2-0.6-0.4-1.3-1-1.5c0,0,0,0-0.1,0c-0.1,0.2,0.1,0.5,0.3,0.9       C52.1,24.9,52.3,25.3,52.7,25.3z M52.3,12.5c0.6,0,0.8-0.8,0.3-1.2C51.5,11,51.4,12.4,52.3,12.5z M52.1,21.1       c-0.4,0.1-0.9,0-1.5-0.3c-0.2-0.3-0.6-0.6-0.7-1c-0.3,0.2-0.5,0-0.7-0.1c-0.5,0.2-0.8,0.5-1.3,0.5c-0.6,0-1-0.3-1.6-0.6       c0-0.1-0.1,0.1-0.2,0.1c-0.1,0-0.2-0.2-0.3-0.1c-0.5,0.2-0.9,0.7-1.6,0.6c-0.3,0-0.7-0.3-0.9-0.3c-0.3,0-0.2,0.2-0.3,0.3       c-0.2,0.1-0.4,0-0.6-0.1c-0.4,0.7-1.3,1.1-2.2,0.8c0,0.3,0.1,0.6,0.2,0.8c0.7-0.1,1.2,0,1.9,0.1c0.3-0.2,0.7,0,0.9,0.1       c0.2,0,0.6-0.2,0.8,0c0.3-0.1,0.5-0.1,0.8,0c0.5-0.1,1.2,0.1,1.9-0.2c0.3,0.2,0.7,0.2,1,0c0.6,0.2,1.2,0,2,0       c0.1,0,0.1,0.1,0.2,0.1c0.2,0,0.4-0.1,0.7-0.1c0.1,0,0.1,0.1,0.2,0.1C51.3,21.6,52,22,52.1,21.1z M52,23c0.1-1-0.6-1.1-1.3-1       c-0.1,0-0.1-0.2-0.3-0.2c-0.2,0-0.3,0.3-0.6,0.3c-0.1,0-0.3-0.2-0.4-0.2c-0.2,0-0.4,0.1-0.7,0c-0.1,0-0.2-0.1-0.3-0.1       c-0.1,0-0.2,0.1-0.3,0.2c-0.2,0-0.3-0.1-0.5-0.1S47.2,22,47,22c-0.2,0-0.3-0.1-0.4-0.1c-0.1,0-0.2,0.1-0.3,0.1       c-0.2,0-0.3-0.2-0.4-0.2c-0.2,0-0.5,0.2-0.7,0.2c-0.3-0.1-0.5,0.1-0.9,0.1c-0.1,0-0.1-0.2-0.2-0.2c-0.2,0.1-0.3,0.1-0.6,0.1       c-0.2-0.2-0.5-0.1-0.7,0c-0.3,0-0.5-0.1-0.9,0c-0.3-0.3-0.9,0.1-1.2-0.1C40.5,22,40.4,22,40.2,22c-0.1,0.1-0.2,0.3-0.4,0.3       c-0.1,0.2,0,0.4,0,0.5c0.3-0.1,0.5,0.1,0.8,0c0.3,0.1,0.4,0.3,0.6,0.2c0.2,0,0.4-0.2,0.6-0.2c0.4-0.1,0.5,0.1,0.8,0.2       c0.4,0,0.9-0.1,1.3-0.1c0.3,0,0.5,0.1,0.7,0.1c0.3,0,0.5-0.2,0.7-0.2c0.3,0,0.6,0.2,0.9,0.2c0.3,0,0.5-0.1,0.8-0.1       c0.2,0,0.3,0.1,0.5,0.1c0.4,0,0.8-0.1,1.2-0.1c0.3,0.3,0.6,0,1,0c0.3,0,0.6,0.2,0.8,0.2c0.2,0,0.4-0.2,0.6-0.2       C51.5,23,51.7,22.9,52,23z M50.4,11.6c-0.3,0.9,1.2,1.2,1,0C51.3,11.1,50.6,11.2,50.4,11.6z M51,19.1c0.9,0.1,0.9-1.5,0.2-1.6       c-0.4-0.1-0.5,0.3-0.8,0.3c-0.1-0.2,0.2-0.5,0.2-0.7c0.1-0.5-0.1-0.9-0.3-1.2c-0.4-0.1-0.8,0.5-0.8,0.9c0,0.3,0.2,0.8-0.1,1       c-0.3-0.6-1.3-0.7-1.5,0.1c-0.1,0.4,0.1,0.9,0.4,1.1c0.2-0.2,0.2-0.6,0.6-0.6C49.4,18.5,51.2,17.9,51,19.1z M50,25.1       c0.3,0.2,1,0.3,1.4,0.2c0-0.4-0.4-0.9-0.6-1.3c-0.1-0.3-0.3-0.6-0.8-0.6c-0.6,0.3-1.4-0.3-1.9-0.1c0.1,0.6,0.7,1,0.7,1.5       c0.3,0.3,0.7,0.5,1.3,0.4C50,25.3,50,25.2,50,25.1z M49.3,12.7c0.6,0.1,1.1-0.6,0.6-1.1C49.1,11.1,48.8,12.6,49.3,12.7z        M49.2,18.7c0.3,0.1,1,0.2,1.1-0.1c-0.4-0.2-0.6-0.1-1.1-0.1C49.2,18.6,49.2,18.6,49.2,18.7z M48.4,13.3       c0.5-0.1,0.5-1.1-0.1-1.1C47.7,12.3,47.7,13.4,48.4,13.3z M47.9,13.2c-0.2,0-0.3,0-0.5,0c-0.3,0.5-0.4,1-0.6,1.5       c-0.2,0.6-0.4,1.2-0.3,1.9c0.1,0,0.2,0.1,0.3,0c0.1-0.7,0.4-1.3,0.4-2C47.5,14.3,47.8,13.7,47.9,13.2z M47.5,10.3       c0.2-0.3,0.3-0.6,0.1-0.9c-0.3,0-0.6,0.1-0.7,0.3c0,0.1-0.1,0.2-0.1,0.3C46.9,10.2,47.1,10.3,47.5,10.3z M47.4,18.7       c0.1-0.5,0.2-0.9,0-1.2c-0.4,0-0.4,0.3-0.8,0.3c-0.1,0.2-0.1,0.4,0,0.7C46.9,18.4,47.1,18.7,47.4,18.7z M47.2,13.1       c-0.4-0.1-0.6,0.3-0.7,0.6c0.1,0.1,0.1,0.3,0.2,0.3C46.9,13.7,47.1,13.4,47.2,13.1z M47,12.5c0.1-0.1,0.1-0.3,0.1-0.5       c-0.2-0.2-0.6,0-0.7-0.3c-0.1-0.1,0.1-0.3-0.1-0.5c-0.5-0.1-0.3,0.4-0.4,0.6c-0.2,0.1-0.5,0-0.7,0.1c-0.1,0.1-0.1,0.3,0,0.4       C45.7,12.5,46.2,12.3,47,12.5z M46.5,9.2c0.1-0.2,0.4-0.3,0.3-0.6c0-0.4-0.9-0.3-1.2-0.3c0,0.3,0.2,0.5,0.3,0.7       C46.1,9.2,46.3,9.2,46.5,9.2z M46.6,12.8c0.2,0,0.2-0.2,0.2-0.3c0,0-0.1,0-0.1,0C46.6,12.6,46.6,12.7,46.6,12.8z M46.8,11.7       c0.1-0.3-0.3-0.3-0.3-0.1C46.6,11.7,46.7,11.7,46.8,11.7z M45.8,11c0.3,0.3,1,0.1,0.7-0.5c-0.2-0.1-0.4,0-0.5,0       C45.9,10.7,45.8,10.8,45.8,11z M46.4,18.5c0.1-0.3-0.1-0.5-0.2-0.6c0.2-0.1,0.4-0.6,0.6-0.9c-0.2-0.1-0.7-0.2-1-0.1       c-0.1,0-0.2,0-0.3,0.1c0.1,0.4,0.4,0.6,0.5,0.9c-0.1,0.1-0.1,0.3-0.2,0.5C45.9,18.6,46.2,18.7,46.4,18.5z M46.2,13.1       c0.2-0.1,0.2-0.3,0.2-0.6c-0.2,0-0.3,0-0.4,0c0,0.2-0.1,0.4,0,0.5C46.1,13,46.2,13.1,46.2,13.1z M46.4,13.2c-0.2,0-0.4,0-0.5,0       c0,0.1,0.1,0.3,0.2,0.3C46.3,13.5,46.4,13.4,46.4,13.2z M46.3,15c0.1-0.1,0-0.2,0.1-0.5c-0.2-0.1-0.5-0.1-0.7-0.1       c-0.1,0.1-0.1,0.4,0,0.5C46,14.8,46.2,14.9,46.3,15z M46.3,16.5c0.1-0.2,0-0.5-0.2-0.6c-0.6-0.1-0.7,0.4-0.4,0.7       C45.9,16.6,46.2,16.6,46.3,16.5z M46.1,10.3c0.5,0,0.6-1,0-0.8C45.7,9.6,45.7,10.3,46.1,10.3z M46.3,14.3       c0.2-0.4-0.6-0.6-0.5-0.1C45.9,14.3,46.1,14.2,46.3,14.3z M45.7,15.6c0.3,0.1,0.6,0,0.6-0.3c-0.2-0.1-0.5-0.2-0.7,0       C45.6,15.4,45.7,15.6,45.7,15.6z M45.8,25.3c0.2-0.3-0.1-0.6-0.2-0.8c-0.5-0.8-0.6-1.5-1.7-1c-0.3-0.2-0.9-0.4-1.1,0       c0.3,0.7,0.5,1.9,1.6,1.8c0.2,0,0.3-0.1,0.5-0.1C45.2,25.2,45.5,25.3,45.8,25.3z M45.7,12.9c0-0.1,0-0.3,0-0.4       c-0.1,0-0.2,0-0.3,0C45.3,12.8,45.5,13,45.7,12.9z M45.7,11.4c-0.2-0.1-0.5,0.1-0.3,0.3C45.7,11.7,45.7,11.6,45.7,11.4z        M45.7,18.5c0-0.2,0-0.3,0.1-0.4c-0.2-0.2-0.4-0.4-0.7-0.5c-0.2,0.3-0.2,0.8-0.1,1.1C45.2,18.7,45.4,18.5,45.7,18.5z M45.6,14       c0-0.2,0.2-0.2,0.3-0.4c-0.2-0.2-0.4-0.6-0.8-0.6C45.2,13.3,45.3,13.7,45.6,14z M44.9,10.2c0.5,0.2,0.9-0.2,0.5-0.6       C45,9.2,44.6,9.8,44.9,10.2z M45.5,16.6c0-1.3,0-2.7-0.7-3.6c-0.2,0-0.3,0-0.4,0.1c0,0.6,0.4,1.1,0.4,1.6       c0.3,0.5,0.1,1.4,0.2,1.9C45.2,16.7,45.2,16.6,45.5,16.6z M42.7,14.8c0.8-0.1,1.3,0,2,0c-0.1-0.3-0.5-0.3-0.8-0.5       c-0.2-0.1-0.4-0.3-0.7-0.4c-0.2-0.1-0.5-0.2-0.7-0.3c-0.1,0-0.2-0.2-0.3-0.2c-0.3-0.1-0.8-0.2-1.1-0.2c-0.6,0-2.1,0.5-1.9,1.3       c0.6-0.3,1.2-0.3,1.8-0.1c0.1,0.1,0.3,0.1,0.4,0.1c0.2,0.1,0.6,0.3,0.8,0.3C42.2,15,42.5,14.9,42.7,14.8z M43.5,13.9       c0.3,0.2,0.6,0.4,0.9,0.3c0-0.3-0.1-0.4-0.2-0.7c-0.3-0.3-0.6-0.5-1-0.6c-0.9-0.7-2.1-0.7-3.3-0.4c-0.3,0.2-0.6,0.3-1,0.5       c-0.2,0.2-0.4,0.4-0.6,0.6c-0.7,1.1-0.5,2.5,0.1,3.6c0.3-0.1,0.5-0.1,0.6-0.3c-0.2-0.6-0.3-0.9-0.3-1.5c0-0.4,0-0.8,0.2-1.1       c0.3-0.6,0.9-1,1.6-1.2c1-0.3,1.8,0.1,2.7,0.4C43.2,13.7,43.3,13.8,43.5,13.9z M44.2,18.8c0.2-0.3,0.4-0.8,0.4-1.3       c-0.3-0.2-0.5-0.6-1-0.5c-0.2,0.1-0.3,0.4-0.5,0.5c0-0.3,0-0.6-0.1-0.9c-0.2-0.3-0.5-1-0.9-0.7c-0.3,0.2-0.3,0.9-0.3,1.2       c0,0.2,0.3,0.5,0.1,0.6c-0.2-0.3-0.8-0.3-1-0.1c-0.3,0.4,0,1.1,0.3,1.3c0.2-0.2,0.1-0.6,0.5-0.6c0.1,0.1,0.3,0.1,0.4,0.2       c0.2-0.2,0.4-0.1,0.7-0.2c0.3-0.1,0.3-0.5,0.7-0.4c0.1,0,0.2,0.1,0.3,0.1C43.8,18.4,43.9,18.7,44.2,18.8z M43.8,12.8       c0.7,0.1,0.8-1.1,0-0.9C43.2,12,43.4,12.8,43.8,12.8z M43.1,12.2c0.4-0.5-0.5-1.1-0.9-0.5C42.1,12.2,42.8,12.5,43.1,12.2z        M42.1,18.8c0.1,0.3,1.2,0.3,1-0.2C42.8,18.6,42.3,18.6,42.1,18.8z M42,11.8c0.3-0.6-0.8-1.1-1.1-0.5c-0.1,0.2,0,0.3,0.1,0.6       C41.3,12.2,41.8,12.1,42,11.8z M42,25.1C42,25,42,25,42,24.8c-0.2-0.5-0.4-1.1-0.9-1.4c-0.4,0.4,0.2,0.6,0.2,1       c0.1,0.1,0.3,0.3,0.3,0.5C41.8,24.9,41.8,25.1,42,25.1z M40.5,12.1c0.6-0.8-0.7-1.5-1-0.7c-0.1,0.2,0,0.4,0,0.5       C39.7,12.2,40.2,12.3,40.5,12.1z M40.6,19.1c0.1-0.5-0.2-0.9-0.3-1.4c-0.1-0.1-0.5,0.6-0.6,0.7C39.5,18.8,40.2,19.1,40.6,19.1z        M40.5,25.2c0-0.2-0.1-0.3-0.2-0.4c-0.2-0.4-0.3-1.2-0.8-1.4c-0.3-0.1-0.3,0.1-0.5,0.1c-0.1,0-0.3,0-0.4,0.1       c-0.6,0.4-0.3,1.5,0.3,1.6c0.1,0,0.1-0.2,0.3-0.2C39.4,25.4,40,25.4,40.5,25.2z M39.2,19c0.3,0.2,0.5-0.1,0.4-0.4       c-0.2-0.1-0.3,0.1-0.4,0.1C39.1,18.8,39.2,18.9,39.2,19z M39.5,17.9c0-0.3,0.1-0.6-0.1-0.8c-0.3,0-0.7,0.2-0.9,0.3       c0,0.3,0.3,1,0.5,1.2C39.6,18.7,39.5,18.1,39.5,17.9z M38.4,12.7c0.4,0.3,1.2-0.2,0.9-0.8c-0.3-0.4-1.2-0.4-1.2,0.2       C38.1,12.2,38.3,12.6,38.4,12.7z M37.9,13.7c0.4-0.1,0.7-0.8,0.3-1.1c-0.1-0.1-0.6-0.1-0.7-0.1c0,0-0.3,0.2-0.3,0.3       C36.9,13.2,37.4,13.7,37.9,13.7z M38,16.9c0-0.2-0.2-0.6-0.4-0.6c0,0-0.2,0-0.2,0c-0.3,0.1-0.5,0.4-0.4,0.6       C37,17.5,38,17.5,38,16.9z M37.6,15.9c0.3-0.6-0.3-1.4-0.8-0.9C36.2,15.6,37,16.4,37.6,15.9z M37.3,14.8c0.6,0,0.6-1.2-0.2-1.1       C36.3,13.8,36.6,14.9,37.3,14.8z M35.5,16.6c0.1-0.2,0-0.6-0.1-0.8c-0.1-0.1-0.2-0.1-0.3-0.2c-0.2-0.1-0.4-0.3-0.4-0.5       c0-0.2,0-0.4-0.1-0.6c-0.1-0.2-0.2-0.3-0.3-0.5c-0.1-0.2-0.1-0.4-0.3-0.4c-0.4,0.3-0.1,0.7-0.1,1.1c0,0.3-0.3,0.5-0.4,0.7       c-0.2,0.3-0.1,0.6-0.3,0.8c-0.1,0.1-0.2,0.2-0.2,0.3c-0.1,0-0.1,0.1-0.2,0c0,0-0.1-0.1-0.1-0.1c0.3-0.1,0.4-0.6,0.4-1       c-0.1,0-0.1-0.1-0.2,0c0,0.2,0.1,0.6-0.1,0.8c-0.2-0.2,0.1-0.6-0.2-0.7c0,0.4-0.1,1.2-0.5,1.6c0,0.2,0.2,0.4,0.3,0.4       c0.2-0.3,0.4-0.7,0.8-0.9c0.2-0.4,0.6-0.7,1.1-0.7C34.8,15.8,35.1,16.4,35.5,16.6z M34.6,16.4c0.1,0.1,0.4,0.2,0.5,0.1       C35.1,16.3,34.5,16,34.6,16.4z M34.2,13.1c0-0.3-0.1-0.9-0.5-0.8C33.8,12.6,33.9,13,34.2,13.1z M33.6,19.2       c0.1-0.5,0.4-1.5,0.1-2c-0.1,0.3-0.3,0.6-0.6,0.7c-0.1-0.4-0.1-0.6,0-1.1c0,0-0.1,0-0.1,0c-0.3,0.3-0.5,0.6-0.7,1       c-0.3-0.2-0.4-0.5-0.6-0.6c-0.2,0.3-0.1,0.8-0.2,1.1c-0.3,0-0.4-0.3-0.7-0.3c0,0.3,0.3,0.5,0.3,0.9c0.1,0.3,0,0.6,0.2,0.8       c0.6,0,1.5-0.1,2,0C33.6,19.6,33.6,19.4,33.6,19.2z M33.1,14.9c0.5-0.2,0.5-0.6,0.3-1.3c-0.1-0.3-0.1-0.6-0.3-0.8       c-0.3,0.3-0.3,0.8-0.5,1.2c-0.1-0.3-0.2-0.6-0.3-0.9c-0.3,0.1-0.3,0.6-0.6,0.8c-0.2-0.1-0.4-0.3-0.7-0.3c0,0.3,0.3,0.5,0.4,0.8       c0.1,0.2,0,0.5,0.3,0.6C32.2,14.9,32.8,14.9,33.1,14.9z M31.9,15.9c0.2,0,0.2-0.3,0.1-0.4c0,0-0.1,0-0.1,0       C31.9,15.7,31.9,15.8,31.9,15.9z M31.8,16.3c0.1,0,0.2-0.3,0.1-0.3C31.9,16.1,31.7,16.2,31.8,16.3z"
               class="st0" /><path
               id="path144"
               d="M55.4,15.8c0.1,0.2-0.2,0.4-0.4,0.5c-0.1-0.1-0.2-0.1-0.2-0.2c0-0.1,0-0.2,0.1-0.2c0.1,0,0.1,0.1,0.2,0.2       C55.3,15.9,55.2,15.7,55.4,15.8z"
               class="st0" /><path
               id="path146"
               d="M55.3,14.6c0.1,0,0.1,0,0.2,0.1c0,0.2-0.2,0.3-0.4,0.3c-0.4-0.1-0.1-0.8,0-0.2       C55.2,14.7,55.2,14.6,55.3,14.6z"
               class="st0" /><path
               id="path148"
               d="M55,17.1c0.1,0.4-0.6,0.6-0.5,0.1c0.1,0,0.1,0,0.2,0.1C54.8,17.2,54.9,17,55,17.1z"
               class="st0" /><path
               id="path150"
               d="M54.8,13.3c0.1,0,0.1,0.1,0.2,0.1c0,0.1-0.1,0.1-0.1,0.3c-0.3,0.2-0.8-0.3-0.3-0.4c0,0,0,0.1,0.1,0.1       C54.7,13.5,54.7,13.3,54.8,13.3z"
               class="st0" /><path
               id="path152"
               d="M53.8,12.5c0,0.1,0,0.1,0,0.2c-0.3,0.1-0.6-0.1-0.6-0.4c0.2-0.3,0.2,0,0.3,0.2       C53.7,12.5,53.7,12.5,53.8,12.5z"
               class="st0" /><path
               id="path154"
               d="M52.4,11.9c0.1,0,0.1,0,0.1,0.1c0,0.2-0.2,0.3-0.4,0.3c-0.1-0.1-0.2-0.3,0-0.3c0.1,0,0.1,0,0.1,0.1       C52.4,12,52.3,11.9,52.4,11.9z"
               class="st0" /><path
               id="path156"
               d="M51.1,11.8c0.2,0.4-0.5,0.4-0.5,0c0.1-0.1,0.2,0,0.2,0.1C51,11.9,51,11.8,51.1,11.8z"
               class="st0" /><path
               id="path158"
               d="M49.9,22.6c0.4-0.1,0.6-0.3,0.9-0.2c-0.1,0.1-0.2,0.2-0.1,0.4C50.4,22.8,50,22.9,49.9,22.6z"
               class="st0" /><path
               id="path160"
               d="M50.1,23.8c0.3,0.3,0.6,0.9,0.3,1.2c-0.3-0.1-0.5-0.2-0.7-0.4c0,0.1,0.1,0.3,0,0.4       c-0.4,0.1-0.6-0.3-0.7-0.6c-0.2,0-0.2-0.1-0.1-0.3c0.3,0,0.4,0.3,0.6,0.5c0.1-0.2-0.1-0.4,0-0.7c0.3,0.1,0.5,0.2,0.6,0.6       c0.5,0.2,0.2-0.4,0-0.6C50.1,24,50,23.9,50.1,23.8z"
               class="st0" /><path
               id="path162"
               d="M50.2,20.7c0.1,0.3-0.3,0.5-0.7,0.5c-0.1,0-0.6-0.1-0.7-0.2c-0.6-0.3,0.2-1.3,0.6-0.7       C49.8,20.4,50,20.5,50.2,20.7z"
               class="st0" /><path
               id="path164"
               d="M49.6,12.3c0-0.1,0.2-0.2,0.3-0.1c0,0.3-0.4,0.4-0.6,0.2C49.3,12.2,49.5,12.2,49.6,12.3z"
               class="st0" /><path
               id="path166"
               d="M48.5,12.8c0,0.3-0.4,0.4-0.5,0.2C48,12.8,48.3,12.8,48.5,12.8z"
               class="st0" /><path
               id="path168"
               d="M47.5,22.5c0.3-0.1,0.5-0.4,0.9-0.3c0,0.1-0.2,0.2-0.1,0.4C48,22.7,47.7,22.7,47.5,22.5z"
               class="st0" /><path
               id="path170"
               d="M46.6,20.2c0.3,0,0.7,0.3,0.6,0.7c-0.2,0.2-0.8,0.2-1.3,0.2c-0.3,0-0.7,0-0.9-0.1c-0.3-0.3,0-0.9,0.4-0.8       c0.2,0,0.2,0.2,0.4,0.3c0-0.2,0.1-0.4,0.4-0.3c0,0.1,0.1,0.2,0.2,0.3C46.6,20.5,46.5,20.2,46.6,20.2z"
               class="st0" /><path
               id="path172"
               d="M46.8,12.6c0,0.1,0,0.3-0.2,0.3c0-0.2-0.1-0.2,0-0.3C46.7,12.5,46.8,12.5,46.8,12.6z"
               class="st0" /><path
               id="path174"
               d="M46.1,22.5c0,0.1,0.2,0,0.2,0.1c-0.3,0.3-0.7-0.1-0.9,0c0.1-0.4,0.5-0.3,0.9-0.4       C46.3,22.4,46.1,22.4,46.1,22.5z"
               class="st0" /><path
               id="path176"
               d="M45.2,24.8c-0.3,0.3-0.6-0.2-1-0.3c0,0.2,0.1,0.2,0.1,0.3c-0.6,0.2-1-0.5-1-0.9c0.3-0.1,0.3,0.4,0.5,0.6       c0.1-0.1,0.1-0.2,0.1-0.3c0.3-0.1,0.6,0.1,0.8,0.2c0.1-0.2-0.3-0.4-0.1-0.7C45,24.1,45.1,24.4,45.2,24.8z"
               class="st0" /><path
               id="path178"
               d="M43.7,12.3c0.1,0.2,0.3-0.1,0.5,0.1C44.1,12.7,43.6,12.9,43.7,12.3C43.6,12.4,43.7,12.4,43.7,12.3z"
               class="st0" /><path
               id="path180"
               d="M43.9,22.7c-0.2,0.2-0.5-0.1-0.9-0.2c0,0,0-0.1,0-0.2c0.3,0,0.6-0.2,0.7-0.1       C43.7,22.4,43.8,22.6,43.9,22.7z"
               class="st0" /><path
               id="path182"
               d="M43.4,20.3c0.3,0.3,0.1,0.8-0.3,0.9c-0.3,0-0.4,0-0.8,0c-0.5-0.2-0.3-0.9,0.3-0.7       C42.7,20.3,43,20.3,43.4,20.3z"
               class="st0" /><path
               id="path184"
               d="M42.9,11.8c0.1,0,0.1,0.2,0,0.3c-0.2,0-0.2,0.1-0.4,0.1c-0.1-0.1-0.1-0.2,0-0.3       C42.6,11.9,42.7,11.9,42.9,11.8z"
               class="st0" /><path
               id="path186"
               d="M41.7,22.5c0,0.1,0.2,0,0.1,0.1c-0.3,0.1-0.9,0-1.1-0.3C41,22.3,41.8,22,41.7,22.5z"
               class="st0" /><path
               id="path188"
               d="M41.8,11.6c0,0.5-0.7,0.4-0.6,0c0.2-0.1,0.2,0.1,0.2,0.2c0.1,0,0.1-0.1,0.2-0.2       C41.7,11.5,41.7,11.6,41.8,11.6z"
               class="st0" /><path
               id="path190"
               d="M40.4,11.7c0.1,0.2-0.3,0.4-0.5,0.3c0-0.1,0-0.2,0-0.3C40.2,11.8,40.2,11.7,40.4,11.7z"
               class="st0" /><path
               id="path192"
               d="M39.9,24.8c-0.3,0.1-0.4-0.4-0.8-0.4c-0.2,0.1-0.1,0.4-0.3,0.5c-0.4,0-0.5-0.3-0.6-0.7       c0.2-0.2,0.4,0.2,0.4,0.3c0.1-0.2,0.3-0.6,0.7-0.3c0.1,0,0.1-0.1,0.2-0.1C39.7,24.3,39.9,24.6,39.9,24.8z"
               class="st0" /><path
               id="path194"
               d="M38.8,12.2c0.2,0,0.2-0.2,0.4-0.1c0,0.4-0.2,0.5-0.6,0.4c0-0.1-0.1-0.1-0.1-0.2       C38.6,12.1,38.7,12.1,38.8,12.2z"
               class="st0" /><path
               id="path196"
               d="M37.7,13.1c0.1-0.1,0.3-0.2,0.3,0c-0.1,0.1-0.2,0.3-0.3,0.3c-0.1-0.1-0.2-0.2-0.2-0.4       C37.7,13,37.7,13.1,37.7,13.1z"
               class="st0" /><path
               id="path198"
               d="M37.7,16.8c0,0,0,0.2,0,0.2c-0.1,0.1-0.5,0.2-0.5-0.1C37.4,16.9,37.5,16.9,37.7,16.8z"
               class="st0" /><path
               id="path200"
               d="M37.3,14.2c0.4,0.2-0.2,0.5-0.3,0.2c0-0.1,0-0.1,0-0.2C37.1,14.2,37.2,14.3,37.3,14.2z"
               class="st0" /><path
               id="path202"
               d="M36.8,15.8c-0.3-0.3,0.4-0.4,0.5-0.3C37.3,15.9,37.1,15.8,36.8,15.8z"
               class="st0" /></g><g
             id="g206" /></g></g><polygon
         id="polygon211"
         points="53.9,65.2 56.7,65.3 56.3,65.8 53.6,65.7   "
         class="st0" /><polygon
         id="polygon213"
         points="53.4,66 56.1,66.1 55.8,66.5 53,66.6   "
         class="st0" /></g></g></svg>