<?xml version="1.0" encoding="UTF-8" standalone="no"?>
<svg
   xmlns:dc="http://purl.org/dc/elements/1.1/"
   xmlns:cc="http://creativecommons.org/ns#"
   xmlns:rdf="http://www.w3.org/1999/02/22-rdf-syntax-ns#"
   xmlns:svg="http://www.w3.org/2000/svg"
   xmlns="http://www.w3.org/2000/svg"
   xml:space="preserve"
   style="enable-background:new 0 0 450 130;"
   viewBox="0 0 450 130"
   y="0px"
   x="0px"
   id="Layer_1"
   height="87"
   width="300"
   version="1.1"><metadata
     id="metadata258"><rdf:RDF><cc:Work
         rdf:about=""><dc:format>image/svg+xml</dc:format><dc:type
           rdf:resource="http://purl.org/dc/dcmitype/StillImage" /></cc:Work></rdf:RDF></metadata><defs
     id="defs256" /><style
     id="style2"
     type="text/css">
	.st0{fill:#FFFFFF;}
	.st1{fill:#FFFFFE;}
</style><g
     id="g251"><path
       id="path4"
       d="M144.8,41.8V26.4h5.3c1.2,0,2.1,0.1,2.8,0.2c0.9,0.2,1.6,0.6,2.3,1.1c0.8,0.7,1.4,1.6,1.8,2.6   c0.4,1.1,0.6,2.3,0.6,3.7c0,1.2-0.1,2.2-0.4,3.1c-0.3,0.9-0.6,1.7-1.1,2.3c-0.4,0.6-0.9,1.1-1.4,1.4c-0.5,0.3-1.1,0.6-1.8,0.8   s-1.5,0.3-2.5,0.3L144.8,41.8L144.8,41.8z M146.9,40h3.3c1,0,1.8-0.1,2.4-0.3c0.6-0.2,1-0.5,1.4-0.8c0.5-0.5,0.9-1.1,1.1-2   c0.3-0.8,0.4-1.8,0.4-3c0-1.6-0.3-2.9-0.8-3.7c-0.5-0.9-1.2-1.4-1.9-1.7c-0.5-0.2-1.4-0.3-2.6-0.3H147L146.9,40L146.9,40z"
       class="st0" /><path
       id="path6"
       d="M167.9,38.2l2,0.2c-0.3,1.1-0.9,2-1.7,2.7c-0.8,0.6-1.9,0.9-3.2,0.9c-1.6,0-2.9-0.5-3.9-1.5s-1.4-2.4-1.4-4.2   c0-1.9,0.5-3.3,1.5-4.4s2.2-1.6,3.8-1.6c1.5,0,2.7,0.5,3.7,1.5c0.9,1,1.4,2.5,1.4,4.3c0,0.1,0,0.3,0,0.5h-8.3   c0.1,1.2,0.4,2.2,1,2.8c0.6,0.7,1.4,1,2.3,1c0.7,0,1.3-0.2,1.8-0.5C167.2,39.6,167.6,39,167.9,38.2z M161.6,35.2h6.3   c-0.1-0.9-0.3-1.6-0.7-2.1c-0.6-0.7-1.4-1.1-2.4-1.1c-0.9,0-1.6,0.3-2.2,0.9C162,33.4,161.7,34.2,161.6,35.2z"
       class="st0" /><path
       id="path8"
       d="M172.2,46.1V30.7h1.7v1.5c0.4-0.6,0.9-1,1.4-1.3s1.1-0.4,1.9-0.4c1,0,1.8,0.2,2.5,0.7s1.3,1.2,1.7,2.1   s0.6,1.9,0.6,2.9c0,1.1-0.2,2.2-0.6,3.1c-0.4,0.9-1,1.6-1.8,2.1s-1.6,0.7-2.5,0.7c-0.6,0-1.2-0.1-1.7-0.4c-0.5-0.3-0.9-0.6-1.2-1   v5.4C174.2,46.1,172.2,46.1,172.2,46.1z M173.9,36.3c0,1.4,0.3,2.5,0.9,3.2c0.6,0.7,1.3,1,2.1,1s1.6-0.4,2.2-1.1   c0.6-0.7,0.9-1.8,0.9-3.3c0-1.4-0.3-2.5-0.9-3.2c-0.6-0.7-1.3-1.1-2.1-1.1s-1.5,0.4-2.1,1.1C174.2,33.8,173.9,34.9,173.9,36.3z"
       class="st0" /><path
       id="path10"
       d="M191.5,40.5c-0.7,0.6-1.4,1-2,1.3c-0.7,0.2-1.3,0.4-2.1,0.4c-1.2,0-2.2-0.3-2.8-0.9c-0.7-0.6-1-1.4-1-2.3   c0-0.5,0.1-1,0.4-1.5c0.2-0.5,0.6-0.8,1-1.1s0.9-0.5,1.4-0.6c0.4-0.1,0.9-0.2,1.7-0.3c1.5-0.2,2.7-0.4,3.4-0.7c0-0.3,0-0.4,0-0.5   c0-0.8-0.2-1.3-0.5-1.6c-0.5-0.4-1.2-0.6-2.2-0.6c-0.9,0-1.6,0.2-2,0.5s-0.7,0.9-0.9,1.7L184,34c0.2-0.8,0.4-1.4,0.8-1.9   c0.4-0.5,0.9-0.9,1.7-1.1c0.7-0.3,1.6-0.4,2.5-0.4c1,0,1.7,0.1,2.3,0.3c0.6,0.2,1,0.5,1.3,0.8s0.5,0.8,0.6,1.3   c0.1,0.3,0.1,0.9,0.1,1.7v2.5c0,1.8,0,2.9,0.1,3.3c0.1,0.5,0.2,0.9,0.5,1.3h-2C191.7,41.5,191.6,41,191.5,40.5z M191.4,36.2   c-0.7,0.3-1.7,0.5-3.1,0.7c-0.8,0.1-1.3,0.2-1.7,0.4c-0.3,0.1-0.6,0.3-0.7,0.6c-0.2,0.3-0.3,0.6-0.3,0.9c0,0.5,0.2,0.9,0.6,1.3   c0.4,0.3,0.9,0.5,1.7,0.5c0.7,0,1.4-0.2,1.9-0.5c0.6-0.3,1-0.8,1.3-1.3c0.2-0.4,0.3-1.1,0.3-1.9V36.2z"
       class="st0" /><path
       id="path12"
       d="M196.2,41.8V30.7h1.7v1.7c0.4-0.8,0.8-1.3,1.2-1.6c0.4-0.3,0.8-0.4,1.2-0.4c0.6,0,1.3,0.2,1.9,0.6l-0.7,1.8   c-0.5-0.3-0.9-0.4-1.4-0.4c-0.4,0-0.8,0.1-1.1,0.4c-0.3,0.2-0.6,0.6-0.7,1c-0.2,0.7-0.3,1.4-0.3,2.2v5.9h-1.8V41.8z"
       class="st0" /><path
       id="path14"
       d="M207.5,40.2l0.3,1.7c-0.5,0.1-1,0.2-1.4,0.2c-0.7,0-1.2-0.1-1.6-0.3c-0.4-0.2-0.6-0.5-0.8-0.9   s-0.2-1.1-0.2-2.2v-6.4h-1.4v-1.5h1.4V28l1.9-1.1v3.9h1.9v1.5h-1.9v6.5c0,0.5,0,0.9,0.1,1c0.1,0.2,0.2,0.3,0.3,0.4   c0.2,0.1,0.4,0.1,0.6,0.1C206.9,40.2,207.2,40.2,207.5,40.2z"
       class="st0" /><path
       id="path16"
       d="M209.4,41.8V30.7h1.7v1.6c0.4-0.5,0.8-1,1.4-1.3c0.6-0.3,1.2-0.5,2-0.5s1.5,0.2,2,0.5s0.9,0.8,1.1,1.4   c0.9-1.3,2-2,3.5-2c1.1,0,2,0.3,2.6,0.9s0.9,1.6,0.9,2.8v7.7h-1.9v-7.1c0-0.8-0.1-1.3-0.2-1.6c-0.1-0.3-0.3-0.6-0.7-0.8   c-0.3-0.2-0.7-0.3-1.1-0.3c-0.8,0-1.4,0.3-2,0.8c-0.5,0.5-0.8,1.4-0.8,2.5v6.5H216v-7.3c0-0.8-0.2-1.5-0.5-1.9S214.7,32,214,32   c-0.5,0-1,0.1-1.5,0.4c-0.5,0.3-0.8,0.7-1,1.2s-0.3,1.3-0.3,2.3v5.8L209.4,41.8L209.4,41.8z"
       class="st0" /><path
       id="path18"
       d="M235,38.2l2,0.2c-0.3,1.1-0.9,2-1.7,2.7c-0.8,0.6-1.9,0.9-3.2,0.9c-1.6,0-2.9-0.5-3.9-1.5s-1.4-2.4-1.4-4.2   c0-1.9,0.5-3.3,1.5-4.4c1-1,2.2-1.6,3.8-1.6c1.5,0,2.7,0.5,3.7,1.5c0.9,1,1.4,2.5,1.4,4.3c0,0.1,0,0.3,0,0.5h-8.3   c0.1,1.2,0.4,2.2,1,2.8c0.6,0.7,1.4,1,2.3,1c0.7,0,1.3-0.2,1.8-0.5C234.4,39.6,234.8,39,235,38.2z M228.8,35.2h6.3   c-0.1-0.9-0.3-1.6-0.7-2.1c-0.6-0.7-1.4-1.1-2.4-1.1c-0.9,0-1.6,0.3-2.2,0.9C229.2,33.4,228.9,34.2,228.8,35.2z"
       class="st0" /><path
       id="path20"
       d="M239.4,41.8V30.7h1.7v1.6c0.8-1.2,2-1.8,3.6-1.8c0.7,0,1.3,0.1,1.9,0.4c0.6,0.2,1,0.6,1.3,1s0.5,0.9,0.6,1.4   c0.1,0.4,0.1,1,0.1,1.8V42h-1.9v-7c0-0.8-0.1-1.4-0.2-1.7c-0.1-0.4-0.4-0.7-0.8-0.9c-0.4-0.2-0.8-0.3-1.3-0.3   c-0.8,0-1.5,0.3-2.1,0.8s-0.9,1.5-0.9,2.9v6.1L239.4,41.8L239.4,41.8z"
       class="st0" /><path
       id="path22"
       d="M255.5,40.2l0.3,1.7c-0.5,0.1-1,0.2-1.4,0.2c-0.7,0-1.2-0.1-1.6-0.3c-0.4-0.2-0.6-0.5-0.8-0.9   s-0.2-1.1-0.2-2.2v-6.4h-1.4v-1.5h1.4V28l1.9-1.1v3.9h1.9v1.5h-1.9v6.5c0,0.5,0,0.9,0.1,1c0.1,0.2,0.2,0.3,0.3,0.4   c0.2,0.1,0.4,0.1,0.6,0.1C254.9,40.2,255.2,40.2,255.5,40.2z"
       class="st0" /><path
       id="path24"
       d="M262.7,36.3c0-2.1,0.6-3.6,1.7-4.6c1-0.8,2.1-1.2,3.5-1.2c1.5,0,2.8,0.5,3.8,1.5c1,1,1.5,2.4,1.5,4.2   c0,1.4-0.2,2.6-0.6,3.4s-1.1,1.5-1.9,1.9c-0.8,0.5-1.7,0.7-2.7,0.7c-1.6,0-2.8-0.5-3.8-1.5C263.2,39.6,262.7,38.1,262.7,36.3z    M264.6,36.3c0,1.4,0.3,2.5,0.9,3.2s1.4,1.1,2.4,1.1c0.9,0,1.7-0.4,2.4-1.1c0.6-0.7,0.9-1.8,0.9-3.3c0-1.4-0.3-2.4-0.9-3.1   c-0.6-0.7-1.4-1.1-2.3-1.1s-1.7,0.4-2.4,1.1C264.9,33.7,264.6,34.8,264.6,36.3z"
       class="st0" /><path
       id="path26"
       d="M275.8,41.8v-9.7h-1.7v-1.5h1.7v-1.2c0-0.8,0.1-1.3,0.2-1.7c0.2-0.5,0.5-0.9,1-1.2c0.5-0.3,1.1-0.5,1.9-0.5   c0.5,0,1.1,0.1,1.8,0.2l-0.3,1.7c-0.4-0.1-0.8-0.1-1.1-0.1c-0.6,0-1,0.1-1.2,0.4c-0.2,0.2-0.4,0.7-0.4,1.4v1h2.2v1.5h-2.2v9.7   H275.8z"
       class="st0" /><path
       id="path28"
       d="M287.5,26.4h6.2c1.2,0,2.1,0.1,2.7,0.2s1.1,0.3,1.6,0.6s0.9,0.8,1.2,1.3c0.3,0.5,0.5,1.1,0.5,1.8   c0,0.7-0.2,1.4-0.6,2c-0.4,0.6-0.9,1.1-1.6,1.4c0.9,0.3,1.7,0.7,2.2,1.4s0.8,1.4,0.8,2.3c0,0.7-0.2,1.4-0.5,2.1   c-0.3,0.7-0.8,1.2-1.3,1.6c-0.6,0.4-1.3,0.6-2.1,0.7c-0.5,0.1-1.8,0.1-3.8,0.1h-5.3L287.5,26.4L287.5,26.4z M290.7,29v3.6h2   c1.2,0,2,0,2.3-0.1c0.5-0.1,1-0.2,1.3-0.6c0.3-0.3,0.5-0.7,0.5-1.2s-0.1-0.9-0.4-1.2c-0.3-0.3-0.7-0.5-1.2-0.5   c-0.3,0-1.2-0.1-2.7-0.1h-1.8V29z M290.7,35.1v4.1h2.9c1.1,0,1.8,0,2.1-0.1c0.5-0.1,0.8-0.3,1.1-0.6c0.3-0.3,0.4-0.8,0.4-1.3   s-0.1-0.9-0.3-1.2c-0.2-0.3-0.6-0.6-1-0.7c-0.4-0.1-1.3-0.2-2.8-0.2H290.7z"
       class="st0" /><path
       id="path30"
       d="M303.1,29.1v-2.7h3v2.7H303.1z M303.1,41.8V30.7h3v11.2h-3V41.8z"
       class="st0" /><path
       id="path32"
       d="M308.4,36.1c0-1,0.2-1.9,0.7-2.9c0.5-0.9,1.2-1.6,2.1-2.1s1.9-0.7,3-0.7c1.7,0,3.1,0.5,4.2,1.6   c1.1,1.1,1.6,2.5,1.6,4.2s-0.5,3.1-1.6,4.2c-1.1,1.1-2.5,1.7-4.1,1.7c-1,0-2-0.2-2.9-0.7s-1.6-1.1-2.1-2   C308.7,38.5,308.4,37.4,308.4,36.1z M311.4,36.3c0,1.1,0.3,2,0.8,2.6s1.2,0.9,1.9,0.9c0.8,0,1.4-0.3,1.9-0.9   c0.5-0.6,0.8-1.4,0.8-2.6c0-1.1-0.3-1.9-0.8-2.5s-1.2-0.9-1.9-0.9c-0.8,0-1.4,0.3-1.9,0.9S311.4,35.1,311.4,36.3z"
       class="st0" /><path
       id="path34"
       d="M332.5,41.8h-2.8v-1.6c-0.5,0.6-1,1.1-1.6,1.4c-0.6,0.3-1.2,0.5-1.9,0.5c-1.3,0-2.4-0.5-3.3-1.6   s-1.4-2.5-1.4-4.3c0-1.9,0.4-3.3,1.3-4.3s2-1.5,3.4-1.5c1.3,0,2.3,0.5,3.2,1.6v-5.6h3L332.5,41.8L332.5,41.8z M324.6,36   c0,1.2,0.2,2.1,0.5,2.6c0.5,0.8,1.1,1.2,2,1.2c0.7,0,1.3-0.3,1.7-0.9c0.5-0.6,0.7-1.4,0.7-2.6c0-1.3-0.2-2.2-0.7-2.8   s-1.1-0.8-1.8-0.8c-0.7,0-1.3,0.3-1.8,0.8C324.9,34.1,324.6,34.9,324.6,36z"
       class="st0" /><path
       id="path36"
       d="M335.5,29.1v-2.7h3v2.7H335.5z M335.5,41.8V30.7h3v11.2h-3V41.8z"
       class="st0" /><path
       id="path38"
       d="M344.5,41.8L340,30.7h3.1l2.1,5.7l0.6,1.9c0.2-0.5,0.3-0.8,0.3-1c0.1-0.3,0.2-0.6,0.3-0.9l2.1-5.7h3l-4.4,11.2   h-2.6V41.8z"
       class="st0" /><path
       id="path40"
       d="M360,38.3l3,0.5c-0.4,1.1-1,1.9-1.8,2.5s-1.8,0.8-3.1,0.8c-1.9,0-3.4-0.6-4.3-1.9c-0.7-1-1.1-2.3-1.1-3.9   c0-1.9,0.5-3.3,1.5-4.4s2.2-1.6,3.7-1.6c1.7,0,3,0.5,3.9,1.6c1,1.1,1.4,2.8,1.4,5.1h-7.4c0,0.9,0.3,1.6,0.7,2.1s1,0.7,1.7,0.7   c0.5,0,0.9-0.1,1.2-0.4S359.8,38.8,360,38.3z M360.1,35.3c0-0.9-0.2-1.5-0.7-2s-0.9-0.7-1.5-0.7s-1.2,0.2-1.6,0.7s-0.6,1.1-0.6,1.9   L360.1,35.3L360.1,35.3z"
       class="st0" /><path
       id="path42"
       d="M368.3,41.8h-3V30.7h2.8v1.6c0.5-0.8,0.9-1.2,1.3-1.5c0.4-0.2,0.8-0.4,1.3-0.4c0.7,0,1.3,0.2,1.9,0.6l-0.9,2.6   c-0.5-0.3-1-0.5-1.4-0.5s-0.8,0.1-1.1,0.3s-0.5,0.6-0.7,1.2c-0.2,0.6-0.2,1.8-0.2,3.8L368.3,41.8L368.3,41.8z"
       class="st0" /><path
       id="path44"
       d="M372.8,38.7l3-0.5c0.1,0.6,0.4,1,0.8,1.3s0.9,0.4,1.6,0.4c0.8,0,1.3-0.1,1.7-0.4c0.3-0.2,0.4-0.5,0.4-0.8   c0-0.2-0.1-0.4-0.2-0.6c-0.1-0.1-0.5-0.3-1-0.4c-2.4-0.5-3.9-1-4.5-1.4c-0.9-0.6-1.3-1.4-1.3-2.5c0-1,0.4-1.8,1.1-2.4   c0.8-0.7,2-1,3.6-1c1.5,0,2.7,0.2,3.4,0.7c0.7,0.5,1.3,1.2,1.5,2.2l-2.8,0.5c-0.1-0.4-0.3-0.8-0.7-1s-0.8-0.3-1.4-0.3   c-0.8,0-1.3,0.1-1.7,0.3c-0.2,0.2-0.3,0.4-0.3,0.6c0,0.2,0.1,0.4,0.3,0.5c0.3,0.2,1.2,0.5,2.8,0.8c1.6,0.4,2.7,0.8,3.3,1.3   c0.6,0.5,0.9,1.3,0.9,2.2c0,1-0.4,1.9-1.3,2.6s-2.1,1.1-3.8,1.1c-1.5,0-2.7-0.3-3.6-0.9C373.7,40.6,373.1,39.7,372.8,38.7z"
       class="st0" /><path
       id="path46"
       d="M385.9,29.1v-2.7h3v2.7H385.9z M385.9,41.8V30.7h3v11.2h-3V41.8z"
       class="st0" /><path
       id="path48"
       d="M397,30.7V33h-2v4.5c0,0.9,0,1.4,0.1,1.6c0,0.2,0.1,0.3,0.3,0.4c0.1,0.1,0.3,0.1,0.5,0.1   c0.3,0,0.7-0.1,1.2-0.3l0.3,2.3c-0.7,0.3-1.5,0.4-2.3,0.4c-0.5,0-1-0.1-1.4-0.3s-0.7-0.4-0.9-0.7s-0.3-0.7-0.4-1.2   c-0.1-0.3-0.1-1-0.1-2.1V33h-1.4v-2.4h1.4v-2.2l3-1.7v4C395.3,30.7,397,30.7,397,30.7z"
       class="st0" /><path
       id="path50"
       d="M397.7,30.7h3.2l2.7,7.9l2.6-7.9h3.1l-4,10.8l-0.7,1.9c-0.3,0.7-0.5,1.2-0.7,1.5s-0.5,0.6-0.8,0.8   s-0.7,0.4-1.1,0.5s-0.9,0.2-1.5,0.2s-1.1-0.1-1.7-0.2l-0.3-2.3c0.5,0.1,0.9,0.1,1.3,0.1c0.7,0,1.2-0.2,1.5-0.6s0.6-0.9,0.8-1.5   L397.7,30.7z"
       class="st0" /><path
       id="path52"
       d="M409.4,38.9h3V41c0,0.9-0.1,1.5-0.2,2s-0.4,0.9-0.8,1.3c-0.4,0.4-0.9,0.7-1.6,0.9l-0.6-1.2   c0.6-0.2,1-0.5,1.3-0.8s0.4-0.8,0.4-1.4h-1.4L409.4,38.9L409.4,38.9z"
       class="st0" /><path
       id="path54"
       d="M154.6,61.8l3,1c-0.5,1.7-1.2,2.9-2.3,3.8c-1.1,0.8-2.4,1.2-4.1,1.2c-2.1,0-3.7-0.7-5.1-2.1   c-1.3-1.4-2-3.3-2-5.7c0-2.6,0.7-4.6,2-6s3.1-2.1,5.2-2.1c1.9,0,3.4,0.6,4.6,1.7c0.7,0.7,1.2,1.6,1.6,2.8l-3.1,0.7   c-0.2-0.8-0.6-1.4-1.1-1.9s-1.3-0.7-2.1-0.7c-1.1,0-2.1,0.4-2.8,1.2s-1.1,2.2-1.1,4c0,2,0.4,3.3,1.1,4.2c0.7,0.8,1.6,1.2,2.7,1.2   c0.8,0,1.5-0.3,2.1-0.8C154,63.8,154.4,62.9,154.6,61.8z"
       class="st0" /><path
       id="path56"
       d="M159.6,61.7c0-1,0.2-1.9,0.7-2.9c0.5-0.9,1.2-1.6,2.1-2.1c0.9-0.5,1.9-0.7,3-0.7c1.7,0,3.1,0.5,4.2,1.6   c1.1,1.1,1.6,2.5,1.6,4.2s-0.5,3.1-1.6,4.2s-2.5,1.7-4.1,1.7c-1,0-2-0.2-2.9-0.7s-1.6-1.1-2.1-2S159.6,63,159.6,61.7z M162.7,61.9   c0,1.1,0.3,2,0.8,2.6s1.2,0.9,1.9,0.9c0.8,0,1.4-0.3,1.9-0.9s0.8-1.4,0.8-2.6c0-1.1-0.3-1.9-0.8-2.5s-1.2-0.9-1.9-0.9   c-0.8,0-1.4,0.3-1.9,0.9C162.9,59.9,162.7,60.8,162.7,61.9z"
       class="st0" /><path
       id="path58"
       d="M183.7,67.5h-3v-5.7c0-1.2-0.1-2-0.2-2.3c-0.1-0.4-0.3-0.6-0.6-0.8s-0.6-0.3-1-0.3c-0.5,0-1,0.1-1.4,0.4   c-0.4,0.3-0.7,0.7-0.8,1.1c-0.2,0.5-0.2,1.3-0.2,2.6v5.1h-3V56.3h2.8v1.6c1-1.3,2.2-1.9,3.7-1.9c0.7,0,1.3,0.1,1.8,0.4   c0.5,0.2,0.9,0.5,1.2,0.9s0.5,0.8,0.6,1.2c0.1,0.5,0.2,1.1,0.2,2v7H183.7z"
       class="st0" /><path
       id="path60"
       d="M185.7,64.3l3-0.5c0.1,0.6,0.4,1,0.8,1.3c0.4,0.3,0.9,0.4,1.6,0.4c0.8,0,1.3-0.1,1.7-0.4   c0.3-0.2,0.4-0.5,0.4-0.8c0-0.2-0.1-0.4-0.2-0.6c-0.1-0.1-0.5-0.3-1-0.4c-2.4-0.5-3.9-1-4.5-1.4c-0.9-0.6-1.3-1.4-1.3-2.5   c0-1,0.4-1.8,1.1-2.4c0.8-0.7,2-1,3.6-1c1.5,0,2.7,0.2,3.4,0.7s1.3,1.2,1.5,2.2l-2.8,0.5c-0.1-0.4-0.3-0.8-0.7-1   c-0.3-0.2-0.8-0.3-1.4-0.3c-0.8,0-1.3,0.1-1.7,0.3c-0.2,0.2-0.3,0.4-0.3,0.6c0,0.2,0.1,0.4,0.3,0.5c0.3,0.2,1.2,0.5,2.8,0.8   c1.6,0.4,2.7,0.8,3.3,1.3s0.9,1.3,0.9,2.2c0,1-0.4,1.9-1.3,2.6c-0.9,0.7-2.1,1.1-3.8,1.1c-1.5,0-2.7-0.3-3.6-0.9   C186.5,66.2,185.9,65.3,185.7,64.3z"
       class="st0" /><path
       id="path62"
       d="M205.2,63.9l3,0.5c-0.4,1.1-1,1.9-1.8,2.5s-1.8,0.8-3.1,0.8c-1.9,0-3.4-0.6-4.3-1.9c-0.7-1-1.1-2.3-1.1-3.9   c0-1.9,0.5-3.3,1.5-4.4s2.2-1.6,3.7-1.6c1.7,0,3,0.5,3.9,1.6c1,1.1,1.4,2.8,1.4,5.1H201c0,0.9,0.3,1.6,0.7,2.1   c0.5,0.5,1,0.7,1.7,0.7c0.5,0,0.9-0.1,1.2-0.4C204.8,64.9,205,64.5,205.2,63.9z M205.4,60.9c0-0.9-0.2-1.5-0.7-2   c-0.4-0.4-0.9-0.7-1.5-0.7s-1.2,0.2-1.6,0.7c-0.4,0.5-0.6,1.1-0.6,1.9L205.4,60.9L205.4,60.9z"
       class="st0" /><path
       id="path64"
       d="M213.5,67.5h-3V56.3h2.8v1.6c0.5-0.8,0.9-1.2,1.3-1.5c0.4-0.2,0.8-0.4,1.3-0.4c0.7,0,1.3,0.2,1.9,0.6l-0.9,2.6   c-0.5-0.3-1-0.5-1.4-0.5s-0.8,0.1-1.1,0.3s-0.5,0.6-0.7,1.2c-0.2,0.6-0.2,1.8-0.2,3.8L213.5,67.5L213.5,67.5z"
       class="st0" /><path
       id="path66"
       d="M222.2,67.5l-4.5-11.2h3.1l2.1,5.7l0.6,1.9c0.2-0.5,0.3-0.8,0.3-1c0.1-0.3,0.2-0.6,0.3-0.9l2.1-5.7h3   l-4.4,11.2H222.2z"
       class="st0" /><path
       id="path68"
       d="M233.3,59.7l-2.7-0.5c0.3-1.1,0.8-1.9,1.6-2.4c0.7-0.5,1.8-0.8,3.3-0.8c1.3,0,2.3,0.2,3,0.5   c0.6,0.3,1.1,0.7,1.4,1.2c0.3,0.5,0.4,1.4,0.4,2.7v3.5c0,1,0,1.7,0.1,2.2s0.3,1,0.5,1.5H238c-0.1-0.2-0.2-0.5-0.3-0.9   c0-0.2-0.1-0.3-0.1-0.3c-0.5,0.5-1,0.9-1.6,1.1s-1.2,0.4-1.8,0.4c-1.2,0-2.1-0.3-2.7-0.9s-1-1.4-1-2.4c0-0.6,0.2-1.2,0.5-1.7   s0.7-0.9,1.3-1.1c0.5-0.3,1.3-0.5,2.4-0.7c1.4-0.3,2.3-0.5,2.9-0.7v-0.3c0-0.6-0.1-1-0.4-1.2c-0.3-0.2-0.8-0.4-1.6-0.4   c-0.5,0-0.9,0.1-1.2,0.3C233.7,58.8,233.5,59.2,233.3,59.7z M237.3,62.1c-0.4,0.1-1,0.3-1.8,0.5s-1.4,0.3-1.6,0.5   c-0.4,0.3-0.6,0.6-0.6,1s0.2,0.8,0.5,1.1c0.3,0.3,0.7,0.5,1.2,0.5s1-0.2,1.5-0.5c0.4-0.3,0.6-0.6,0.7-1c0.1-0.3,0.1-0.7,0.1-1.4   L237.3,62.1L237.3,62.1z"
       class="st0" /><path
       id="path70"
       d="M248.2,56.3v2.4h-2v4.5c0,0.9,0,1.4,0.1,1.6c0,0.2,0.1,0.3,0.3,0.4s0.3,0.1,0.5,0.1c0.3,0,0.7-0.1,1.2-0.3   l0.3,2.3c-0.7,0.3-1.5,0.4-2.3,0.4c-0.5,0-1-0.1-1.4-0.3c-0.4-0.2-0.7-0.4-0.9-0.7s-0.3-0.7-0.4-1.2c-0.1-0.3-0.1-1-0.1-2.1v-4.9   h-1.4v-2.4h1.4v-2.2l3-1.7v4L248.2,56.3L248.2,56.3z"
       class="st0" /><path
       id="path72"
       d="M250.3,54.8V52h3v2.7L250.3,54.8L250.3,54.8z M250.3,67.5V56.3h3v11.2H250.3z"
       class="st0" /><path
       id="path74"
       d="M255.6,61.7c0-1,0.2-1.9,0.7-2.9c0.5-0.9,1.2-1.6,2.1-2.1s1.9-0.7,3-0.7c1.7,0,3.1,0.5,4.2,1.6   s1.6,2.5,1.6,4.2s-0.5,3.1-1.6,4.2s-2.5,1.7-4.1,1.7c-1,0-2-0.2-2.9-0.7s-1.6-1.1-2.1-2C255.9,64.1,255.6,63,255.6,61.7z    M258.7,61.9c0,1.1,0.3,2,0.8,2.6s1.2,0.9,1.9,0.9c0.8,0,1.4-0.3,1.9-0.9s0.8-1.4,0.8-2.6c0-1.1-0.3-1.9-0.8-2.5s-1.2-0.9-1.9-0.9   c-0.8,0-1.4,0.3-1.9,0.9C258.9,59.9,258.7,60.8,258.7,61.9z"
       class="st0" /><path
       id="path76"
       d="M279.7,67.5h-3v-5.7c0-1.2-0.1-2-0.2-2.3c-0.1-0.4-0.3-0.6-0.6-0.8c-0.3-0.2-0.6-0.3-1-0.3   c-0.5,0-1,0.1-1.4,0.4c-0.4,0.3-0.7,0.7-0.8,1.1c-0.2,0.5-0.2,1.3-0.2,2.6v5.1h-3V56.3h2.8v1.6c1-1.3,2.2-1.9,3.7-1.9   c0.7,0,1.3,0.1,1.8,0.4c0.5,0.2,0.9,0.5,1.2,0.9c0.3,0.4,0.5,0.8,0.6,1.2c0.1,0.5,0.2,1.1,0.2,2v7H279.7z"
       class="st0" /><path
       id="path78"
       d="M290.9,59.7l-2.7-0.5c0.3-1.1,0.8-1.9,1.6-2.4c0.7-0.5,1.8-0.8,3.3-0.8c1.3,0,2.3,0.2,3,0.5   c0.6,0.3,1.1,0.7,1.4,1.2s0.4,1.4,0.4,2.7v3.5c0,1,0,1.7,0.1,2.2s0.3,1,0.5,1.5h-2.9c-0.1-0.2-0.2-0.5-0.3-0.9   c0-0.2-0.1-0.3-0.1-0.3c-0.5,0.5-1,0.9-1.6,1.1s-1.2,0.4-1.8,0.4c-1.2,0-2.1-0.3-2.7-0.9s-1-1.4-1-2.4c0-0.6,0.2-1.2,0.5-1.7   s0.7-0.9,1.3-1.1c0.5-0.3,1.3-0.5,2.4-0.7c1.4-0.3,2.3-0.5,2.9-0.7v-0.3c0-0.6-0.1-1-0.4-1.2s-0.8-0.4-1.6-0.4   c-0.5,0-0.9,0.1-1.2,0.3C291.3,58.8,291.1,59.2,290.9,59.7z M294.8,62.1c-0.4,0.1-1,0.3-1.8,0.5s-1.4,0.3-1.6,0.5   c-0.4,0.3-0.6,0.6-0.6,1s0.2,0.8,0.5,1.1c0.3,0.3,0.7,0.5,1.2,0.5s1-0.2,1.5-0.5c0.4-0.3,0.6-0.6,0.7-1c0.1-0.3,0.1-0.7,0.1-1.4   L294.8,62.1L294.8,62.1z"
       class="st0" /><path
       id="path80"
       d="M310.9,67.5h-3v-5.7c0-1.2-0.1-2-0.2-2.3c-0.1-0.4-0.3-0.6-0.6-0.8c-0.3-0.2-0.6-0.3-1-0.3   c-0.5,0-1,0.1-1.4,0.4c-0.4,0.3-0.7,0.7-0.8,1.1c-0.2,0.5-0.2,1.3-0.2,2.6v5.1h-3V56.3h2.8v1.6c1-1.3,2.2-1.9,3.7-1.9   c0.7,0,1.3,0.1,1.8,0.4c0.5,0.2,0.9,0.5,1.2,0.9c0.3,0.4,0.5,0.8,0.6,1.2c0.1,0.5,0.2,1.1,0.2,2v7H310.9z"
       class="st0" /><path
       id="path82"
       d="M324.1,67.5h-2.8v-1.6c-0.5,0.6-1,1.1-1.6,1.4s-1.2,0.5-1.9,0.5c-1.3,0-2.4-0.5-3.3-1.6s-1.4-2.5-1.4-4.3   c0-1.9,0.4-3.3,1.3-4.3s2-1.5,3.4-1.5c1.3,0,2.3,0.5,3.2,1.6V52h3L324.1,67.5L324.1,67.5z M316.2,61.6c0,1.2,0.2,2.1,0.5,2.6   c0.5,0.8,1.1,1.2,2,1.2c0.7,0,1.3-0.3,1.7-0.9c0.5-0.6,0.7-1.4,0.7-2.6c0-1.3-0.2-2.2-0.7-2.8s-1.1-0.8-1.8-0.8   c-0.7,0-1.3,0.3-1.8,0.8S316.2,60.5,316.2,61.6z"
       class="st0" /><path
       id="path84"
       d="M346.2,67.5h-3.4l-1.3-3.5h-6.2l-1.3,3.5h-3.3l6-15.5h3.3L346.2,67.5z M340.5,61.4l-2.1-5.7l-2.1,5.7H340.5z"
       class="st0" /><path
       id="path86"
       d="M353,56.3v2.4h-2v4.5c0,0.9,0,1.4,0.1,1.6c0,0.2,0.1,0.3,0.3,0.4s0.3,0.1,0.5,0.1c0.3,0,0.7-0.1,1.2-0.3   l0.3,2.3c-0.7,0.3-1.5,0.4-2.3,0.4c-0.5,0-1-0.1-1.4-0.3c-0.4-0.2-0.7-0.4-0.9-0.7c-0.2-0.3-0.3-0.7-0.4-1.2   c-0.1-0.3-0.1-1-0.1-2.1v-4.9h-1.4v-2.4h1.4v-2.2l3-1.7v4L353,56.3L353,56.3z"
       class="st0" /><path
       id="path88"
       d="M360.2,56.3v2.4h-2v4.5c0,0.9,0,1.4,0.1,1.6s0.1,0.3,0.3,0.4s0.3,0.1,0.5,0.1c0.3,0,0.7-0.1,1.2-0.3l0.3,2.3   c-0.7,0.3-1.5,0.4-2.3,0.4c-0.5,0-1-0.1-1.4-0.3s-0.7-0.4-0.9-0.7s-0.3-0.7-0.4-1.2c-0.1-0.3-0.1-1-0.1-2.1v-4.9h-1.4v-2.4h1.4   v-2.2l3-1.7v4L360.2,56.3L360.2,56.3z"
       class="st0" /><path
       id="path90"
       d="M365,67.5h-3V56.3h2.8v1.6c0.5-0.8,0.9-1.2,1.3-1.5s0.8-0.4,1.3-0.4c0.7,0,1.3,0.2,1.9,0.6l-0.9,2.6   c-0.5-0.3-1-0.5-1.4-0.5s-0.8,0.1-1.1,0.3c-0.3,0.2-0.5,0.6-0.7,1.2S365,62.1,365,64V67.5z"
       class="st0" /><path
       id="path92"
       d="M372.8,59.7l-2.7-0.5c0.3-1.1,0.8-1.9,1.6-2.4c0.7-0.5,1.8-0.8,3.3-0.8c1.3,0,2.3,0.2,3,0.5   c0.6,0.3,1.1,0.7,1.4,1.2s0.4,1.4,0.4,2.7v3.5c0,1,0,1.7,0.1,2.2s0.3,1,0.5,1.5h-2.9c-0.1-0.2-0.2-0.5-0.3-0.9   c0-0.2-0.1-0.3-0.1-0.3c-0.5,0.5-1,0.9-1.6,1.1s-1.2,0.4-1.8,0.4c-1.2,0-2.1-0.3-2.7-0.9c-0.7-0.6-1-1.4-1-2.4   c0-0.6,0.2-1.2,0.5-1.7s0.7-0.9,1.3-1.1s1.3-0.5,2.4-0.7c1.4-0.3,2.3-0.5,2.9-0.7v-0.3c0-0.6-0.1-1-0.4-1.2s-0.8-0.4-1.6-0.4   c-0.5,0-0.9,0.1-1.2,0.3S373,59.2,372.8,59.7z M376.8,62.1c-0.4,0.1-1,0.3-1.8,0.5s-1.4,0.3-1.6,0.5c-0.4,0.3-0.6,0.6-0.6,1   s0.2,0.8,0.5,1.1c0.3,0.3,0.7,0.5,1.2,0.5s1-0.2,1.5-0.5c0.4-0.3,0.6-0.6,0.7-1c0.1-0.3,0.1-0.7,0.1-1.4L376.8,62.1L376.8,62.1z"
       class="st0" /><path
       id="path94"
       d="M392.4,59.6l-2.9,0.5c-0.1-0.6-0.3-1-0.7-1.3c-0.3-0.3-0.8-0.4-1.4-0.4c-0.7,0-1.3,0.3-1.8,0.8   c-0.4,0.5-0.7,1.4-0.7,2.6c0,1.3,0.2,2.3,0.7,2.8c0.4,0.5,1,0.8,1.8,0.8c0.6,0,1-0.2,1.4-0.5s0.6-0.9,0.8-1.6l2.9,0.5   c-0.3,1.3-0.9,2.3-1.7,3c-0.9,0.7-2,1-3.4,1c-1.6,0-2.9-0.5-3.9-1.5S382,63.8,382,62s0.5-3.3,1.5-4.3s2.3-1.5,4-1.5   c1.4,0,2.4,0.3,3.3,0.9C391.4,57.5,392,58.4,392.4,59.6z"
       class="st0" /><path
       id="path96"
       d="M399.8,56.3v2.4h-2v4.5c0,0.9,0,1.4,0.1,1.6s0.1,0.3,0.3,0.4s0.3,0.1,0.5,0.1c0.3,0,0.7-0.1,1.2-0.3l0.3,2.3   c-0.7,0.3-1.5,0.4-2.3,0.4c-0.5,0-1-0.1-1.4-0.3c-0.4-0.2-0.7-0.4-0.9-0.7s-0.3-0.7-0.4-1.2c-0.1-0.3-0.1-1-0.1-2.1v-4.9h-1.4v-2.4   h1.4v-2.2l3-1.7v4L399.8,56.3L399.8,56.3z"
       class="st0" /><path
       id="path98"
       d="M401.8,54.8V52h3v2.7L401.8,54.8L401.8,54.8z M401.8,67.5V56.3h3v11.2H401.8z"
       class="st0" /><path
       id="path100"
       d="M407.1,61.7c0-1,0.2-1.9,0.7-2.9c0.5-0.9,1.2-1.6,2.1-2.1s1.9-0.7,3-0.7c1.7,0,3.1,0.5,4.2,1.6   s1.6,2.5,1.6,4.2s-0.5,3.1-1.6,4.2s-2.5,1.7-4.1,1.7c-1,0-2-0.2-2.9-0.7s-1.6-1.1-2.1-2C407.4,64.1,407.1,63,407.1,61.7z    M410.2,61.9c0,1.1,0.3,2,0.8,2.6s1.2,0.9,1.9,0.9c0.8,0,1.4-0.3,1.9-0.9s0.8-1.4,0.8-2.6c0-1.1-0.3-1.9-0.8-2.5s-1.2-0.9-1.9-0.9   c-0.8,0-1.4,0.3-1.9,0.9C410.4,59.9,410.2,60.8,410.2,61.9z"
       class="st0" /><path
       id="path102"
       d="M431.2,67.5h-3v-5.7c0-1.2-0.1-2-0.2-2.3c-0.1-0.4-0.3-0.6-0.6-0.8c-0.3-0.2-0.6-0.3-1-0.3   c-0.5,0-1,0.1-1.4,0.4c-0.4,0.3-0.7,0.7-0.8,1.1c-0.2,0.5-0.2,1.3-0.2,2.6v5.1h-3V56.3h2.8v1.6c1-1.3,2.2-1.9,3.7-1.9   c0.7,0,1.3,0.1,1.8,0.4c0.5,0.2,0.9,0.5,1.2,0.9c0.3,0.4,0.5,0.8,0.6,1.2c0.1,0.5,0.2,1.1,0.2,2v7H431.2z"
       class="st0" /><path
       id="path104"
       d="M433.1,64.3l3-0.5c0.1,0.6,0.4,1,0.8,1.3s0.9,0.4,1.6,0.4c0.8,0,1.3-0.1,1.7-0.4c0.3-0.2,0.4-0.5,0.4-0.8   c0-0.2-0.1-0.4-0.2-0.6c-0.1-0.1-0.5-0.3-1-0.4c-2.4-0.5-3.9-1-4.5-1.4c-0.9-0.6-1.3-1.4-1.3-2.5c0-1,0.4-1.8,1.1-2.4   c0.8-0.7,2-1,3.6-1c1.5,0,2.7,0.2,3.4,0.7c0.7,0.5,1.3,1.2,1.5,2.2l-2.8,0.5c-0.1-0.4-0.3-0.8-0.7-1c-0.3-0.2-0.8-0.3-1.4-0.3   c-0.8,0-1.3,0.1-1.7,0.3c-0.2,0.2-0.3,0.4-0.3,0.6c0,0.2,0.1,0.4,0.3,0.5c0.3,0.2,1.2,0.5,2.8,0.8c1.6,0.4,2.7,0.8,3.3,1.3   c0.6,0.5,0.9,1.3,0.9,2.2c0,1-0.4,1.9-1.3,2.6c-0.9,0.7-2.1,1.1-3.8,1.1c-1.5,0-2.7-0.3-3.6-0.9C434,66.2,433.4,65.3,433.1,64.3z"
       class="st0" /><g
       id="g130"><path
         id="path106"
         d="M22.7,108.6v-1.3h3.5v3.2c-0.3,0.3-0.8,0.6-1.5,0.9c-0.6,0.2-1.3,0.4-1.9,0.4c-0.8,0-1.6-0.2-2.2-0.5    s-1.1-0.8-1.4-1.5c-0.3-0.6-0.5-1.4-0.5-2.1c0-0.8,0.2-1.6,0.5-2.2s0.9-1.1,1.5-1.5c0.5-0.3,1.1-0.4,1.9-0.4c1,0,1.8,0.2,2.3,0.6    c0.6,0.4,0.9,1,1.1,1.7l-1.6,0.3c-0.1-0.4-0.3-0.7-0.6-0.9c-0.3-0.2-0.7-0.3-1.2-0.3c-0.7,0-1.3,0.2-1.7,0.7    c-0.4,0.4-0.6,1.1-0.6,2s0.2,1.7,0.6,2.1c0.4,0.5,1,0.7,1.7,0.7c0.3,0,0.7-0.1,1-0.2s0.6-0.3,0.9-0.5v-1h-1.8V108.6z"
         class="st0" /><path
         id="path108"
         d="M27.3,107.6c0-0.8,0.1-1.5,0.4-2c0.2-0.4,0.4-0.8,0.7-1.1c0.3-0.3,0.7-0.6,1-0.7c0.5-0.2,1.1-0.3,1.7-0.3    c1.2,0,2.1,0.4,2.8,1.1s1.1,1.7,1.1,3s-0.3,2.3-1,3s-1.6,1.1-2.8,1.1s-2.1-0.4-2.8-1.1S27.3,108.9,27.3,107.6z M29,107.5    c0,0.9,0.2,1.6,0.6,2c0.4,0.5,0.9,0.7,1.6,0.7c0.6,0,1.2-0.2,1.6-0.7c0.4-0.5,0.6-1.2,0.6-2.1s-0.2-1.6-0.6-2    c-0.4-0.4-0.9-0.7-1.6-0.7s-1.2,0.2-1.6,0.7C29.2,105.9,29,106.6,29,107.5z"
         class="st0" /><path
         id="path110"
         d="M38.3,111.5l-2.8-8h1.7l2,5.9l1.9-5.9h1.7l-2.8,8H38.3z"
         class="st0" /><path
         id="path112"
         d="M43.7,111.5v-8h5.9v1.3h-4.3v1.8h4v1.3h-4v2.2h4.4v1.3L43.7,111.5L43.7,111.5z"
         class="st0" /><path
         id="path114"
         d="M51.1,111.5v-8h3.4c0.8,0,1.5,0.1,1.9,0.2s0.7,0.4,0.9,0.8s0.3,0.8,0.3,1.3c0,0.6-0.2,1.1-0.5,1.5    c-0.4,0.4-0.9,0.6-1.6,0.7c0.3,0.2,0.6,0.4,0.9,0.7c0.2,0.2,0.5,0.7,0.9,1.3l1,1.6h-1.9l-1.2-1.7c-0.4-0.6-0.7-1-0.8-1.2    c-0.2-0.2-0.3-0.3-0.5-0.3s-0.4-0.1-0.8-0.1h-0.3v3.3h-1.7V111.5z M52.7,106.9h1.2c0.8,0,1.3,0,1.4-0.1c0.2-0.1,0.3-0.2,0.5-0.3    c0.1-0.2,0.2-0.4,0.2-0.6c0-0.3-0.1-0.5-0.2-0.6c-0.1-0.2-0.3-0.3-0.6-0.3c-0.1,0-0.5,0-1.2,0h-1.3    C52.7,105,52.7,106.9,52.7,106.9z"
         class="st0" /><path
         id="path116"
         d="M59.2,111.5v-8h1.6l3.3,5.3v-5.3h1.5v8H64l-3.2-5.2v5.2H59.2z"
         class="st0" /><path
         id="path118"
         d="M67.2,111.5v-8h2.4L71,109l1.4-5.4h2.4v8h-1.5v-6.3l-1.6,6.3h-1.5l-1.6-6.3v6.3L67.2,111.5L67.2,111.5z"
         class="st0" /><path
         id="path120"
         d="M76.4,111.5v-8h5.9v1.3H78v1.8h4v1.3h-4v2.2h4.4v1.3L76.4,111.5L76.4,111.5z"
         class="st0" /><path
         id="path122"
         d="M83.9,111.5v-8h1.6l3.3,5.3v-5.3h1.5v8h-1.6l-3.2-5.2v5.2H83.9z"
         class="st0" /><path
         id="path124"
         d="M93.7,111.5v-6.6h-2.4v-1.3h6.3v1.3h-2.4v6.6H93.7z"
         class="st0" /><path
         id="path126"
         d="M101.4,107.6c0-0.8,0.1-1.5,0.4-2c0.2-0.4,0.4-0.8,0.7-1.1c0.3-0.3,0.7-0.6,1-0.7c0.5-0.2,1.1-0.3,1.7-0.3    c1.2,0,2.1,0.4,2.8,1.1c0.7,0.7,1.1,1.7,1.1,3s-0.3,2.3-1,3s-1.6,1.1-2.8,1.1c-1.2,0-2.1-0.4-2.8-1.1S101.4,108.9,101.4,107.6z     M103.1,107.5c0,0.9,0.2,1.6,0.6,2c0.4,0.5,0.9,0.7,1.6,0.7c0.6,0,1.2-0.2,1.6-0.7s0.6-1.2,0.6-2.1s-0.2-1.6-0.6-2    s-0.9-0.7-1.6-0.7s-1.2,0.2-1.6,0.7C103.3,105.9,103.1,106.6,103.1,107.5z"
         class="st0" /><path
         id="path128"
         d="M110.4,111.5v-8h5.5v1.3H112v1.9h3.3v1.3H112v3.4L110.4,111.5L110.4,111.5z"
         class="st0" /></g><g
       id="g146"><path
         id="path132"
         d="M8.2,124.9l-1.9-8H8l1.2,5.5l1.5-5.5h1.9l1.4,5.6l1.2-5.6h1.6l-1.9,8h-1.7l-1.6-5.9l-1.6,5.9H8.2z"
         class="st0" /><path
         id="path134"
         d="M17.6,124.9v-8h5.9v1.3h-4.3v1.8h4v1.3h-4v2.2h4.4v1.3L17.6,124.9L17.6,124.9z"
         class="st0" /><path
         id="path136"
         d="M24.6,122.3l1.6-0.2c0.1,0.5,0.3,0.9,0.6,1.2c0.3,0.2,0.7,0.4,1.2,0.4s0.9-0.1,1.2-0.3    c0.3-0.2,0.4-0.5,0.4-0.8c0-0.2-0.1-0.3-0.2-0.5c-0.1-0.1-0.3-0.2-0.6-0.3c-0.2-0.1-0.6-0.2-1.3-0.3c-0.9-0.2-1.5-0.5-1.8-0.8    c-0.5-0.4-0.7-1-0.7-1.6c0-0.4,0.1-0.8,0.3-1.1c0.2-0.4,0.6-0.6,1-0.8c0.4-0.2,1-0.3,1.6-0.3c1,0,1.8,0.2,2.3,0.7s0.8,1,0.8,1.8    l-1.6,0.1c-0.1-0.4-0.2-0.7-0.4-0.9c-0.2-0.2-0.6-0.3-1-0.3c-0.5,0-0.8,0.1-1.1,0.3c-0.2,0.1-0.3,0.3-0.3,0.5s0.1,0.3,0.2,0.5    c0.2,0.2,0.7,0.3,1.5,0.5s1.4,0.4,1.7,0.6c0.4,0.2,0.7,0.5,0.9,0.8c0.2,0.3,0.3,0.8,0.3,1.3s-0.1,0.9-0.4,1.3s-0.6,0.7-1.1,0.9    c-0.5,0.2-1,0.3-1.7,0.3c-1,0-1.8-0.2-2.3-0.7S24.7,123.2,24.6,122.3z"
         class="st0" /><path
         id="path138"
         d="M34.2,124.9v-6.6h-2.4V117h6.3v1.3h-2.4v6.6H34.2z"
         class="st0" /><path
         id="path140"
         d="M39.2,124.9v-8h5.9v1.3h-4.3v1.8h4v1.3h-4v2.2h4.4v1.3L39.2,124.9L39.2,124.9z"
         class="st0" /><path
         id="path142"
         d="M46.6,124.9v-8H50c0.8,0,1.5,0.1,1.9,0.2s0.7,0.4,0.9,0.8s0.3,0.8,0.3,1.3c0,0.6-0.2,1.1-0.5,1.5    c-0.4,0.4-0.9,0.6-1.6,0.7c0.3,0.2,0.6,0.4,0.9,0.7c0.2,0.2,0.5,0.7,0.9,1.3l1,1.6h-1.9l-1.2-1.7c-0.4-0.6-0.7-1-0.8-1.2    c-0.2-0.2-0.3-0.3-0.5-0.3s-0.4-0.1-0.8-0.1h-0.3v3.3h-1.7V124.9z M48.2,120.3h1.2c0.8,0,1.3,0,1.4-0.1c0.2-0.1,0.3-0.2,0.5-0.3    c0.1-0.2,0.2-0.4,0.2-0.6c0-0.3-0.1-0.5-0.2-0.6c-0.1-0.2-0.3-0.3-0.6-0.3c-0.1,0-0.5,0-1.2,0h-1.3    C48.2,118.4,48.2,120.3,48.2,120.3z"
         class="st0" /><path
         id="path144"
         d="M54.6,124.9v-8h1.6l3.3,5.3v-5.3H61v8h-1.6l-3.2-5.2v5.2H54.6z"
         class="st0" /></g><g
       id="g166"><path
         id="path148"
         d="M72.5,124.9h-1.7l-0.7-1.8h-3.2l-0.7,1.8h-1.7l3.1-8h1.7L72.5,124.9z M69.6,121.7l-1.1-3l-1.1,3H69.6z"
         class="st0" /><path
         id="path150"
         d="M73.4,116.9H75v4.3c0,0.7,0,1.1,0.1,1.3c0.1,0.3,0.2,0.6,0.5,0.8c0.3,0.2,0.6,0.3,1.1,0.3s0.8-0.1,1-0.3    c0.2-0.2,0.4-0.4,0.4-0.7c0-0.3,0.1-0.7,0.1-1.4v-4.4h1.6v4.2c0,1,0,1.6-0.1,2s-0.2,0.7-0.5,1c-0.2,0.3-0.5,0.5-0.9,0.6    c-0.4,0.2-0.9,0.2-1.5,0.2c-0.8,0-1.3-0.1-1.7-0.3c-0.4-0.2-0.7-0.4-0.9-0.7c-0.2-0.3-0.4-0.6-0.5-0.9c-0.1-0.5-0.2-1.1-0.2-2    L73.4,116.9L73.4,116.9z"
         class="st0" /><path
         id="path152"
         d="M81,122.3l1.6-0.2c0.1,0.5,0.3,0.9,0.6,1.2c0.3,0.2,0.7,0.4,1.2,0.4s0.9-0.1,1.2-0.3c0.3-0.2,0.4-0.5,0.4-0.8    c0-0.2-0.1-0.3-0.2-0.5c-0.1-0.1-0.3-0.2-0.6-0.3c-0.2-0.1-0.6-0.2-1.3-0.3c-0.9-0.2-1.5-0.5-1.8-0.8c-0.5-0.4-0.7-1-0.7-1.6    c0-0.4,0.1-0.8,0.3-1.1c0.2-0.4,0.6-0.6,1-0.8c0.4-0.2,1-0.3,1.6-0.3c1,0,1.8,0.2,2.3,0.7c0.5,0.4,0.8,1,0.8,1.8l-1.6,0.1    c-0.1-0.4-0.2-0.7-0.4-0.9c-0.2-0.2-0.6-0.3-1-0.3c-0.5,0-0.8,0.1-1.1,0.3c-0.2,0.1-0.3,0.3-0.3,0.5s0.1,0.3,0.2,0.5    c0.2,0.2,0.7,0.3,1.5,0.5s1.4,0.4,1.7,0.6c0.4,0.2,0.7,0.5,0.9,0.8c0.2,0.3,0.3,0.8,0.3,1.3s-0.1,0.9-0.4,1.3s-0.6,0.7-1.1,0.9    c-0.5,0.2-1,0.3-1.7,0.3c-1,0-1.8-0.2-2.3-0.7S81.1,123.2,81,122.3z"
         class="st0" /><path
         id="path154"
         d="M90.6,124.9v-6.6h-2.4V117h6.3v1.3h-2.4v6.6H90.6z"
         class="st0" /><path
         id="path156"
         d="M95.6,124.9v-8H99c0.8,0,1.5,0.1,1.9,0.2s0.7,0.4,0.9,0.8c0.2,0.4,0.3,0.8,0.3,1.3c0,0.6-0.2,1.1-0.5,1.5    c-0.4,0.4-0.9,0.6-1.6,0.7c0.3,0.2,0.6,0.4,0.9,0.7c0.2,0.2,0.5,0.7,0.9,1.3l1,1.6h-1.9l-1.2-1.7c-0.4-0.6-0.7-1-0.8-1.2    c-0.2-0.2-0.3-0.3-0.5-0.3s-0.4-0.1-0.8-0.1h-0.3v3.3h-1.7V124.9z M97.2,120.3h1.2c0.8,0,1.3,0,1.4-0.1c0.2-0.1,0.3-0.2,0.5-0.3    c0.1-0.2,0.2-0.4,0.2-0.6c0-0.3-0.1-0.5-0.2-0.6c-0.1-0.2-0.3-0.3-0.6-0.3c-0.1,0-0.5,0-1.2,0h-1.3V120.3z"
         class="st0" /><path
         id="path158"
         d="M110.8,124.9H109l-0.7-1.8h-3.2l-0.7,1.8h-1.7l3.1-8h1.7L110.8,124.9z M107.8,121.7l-1.1-3l-1.1,3H107.8z"
         class="st0" /><path
         id="path160"
         d="M111.7,124.9V117h1.6v6.6h4v1.3H111.7z"
         class="st0" /><path
         id="path162"
         d="M118.4,124.9v-8h1.6v8H118.4z"
         class="st0" /><path
         id="path164"
         d="M128.7,124.9H127l-0.7-1.8h-3.2l-0.7,1.8h-1.7l3.1-8h1.7L128.7,124.9z M125.7,121.7l-1.1-3l-1.1,3H125.7z"
         class="st0" /></g><g
       id="g172"><g
         id="g170"><g
           id="XMLID_12_" /><g
           id="XMLID_11_" /></g></g><g
       id="g245"><g
         id="XMLID_10_"><g
           id="g242"><path
             id="path174"
             d="M103.8,88.3c0.2,1.6,1,3.1,0.5,4.4c-0.3,0-0.1-0.3-0.4-0.4c0-2.2-0.4-4.1-0.6-6c-0.3-0.5-0.3-1.4-0.4-2.2      c-0.1-1.8-0.4-3.7-1.2-4.9c-0.2-0.3-0.6-0.5-0.5-0.8c0-0.1-0.2-0.1-0.2-0.3c0-0.2,0.2-0.3,0.3-0.5c0-0.5-0.4-1.2-0.4-1.7      c0.2,0.1,0.4,0.4,0.6,0.5c0.2,0,0.1-0.2,0.3-0.3c0.5,0.3,0.8,1,0.8,1.7c0,0.5,0.3,1,0.3,1.4c0,0.2,0,0.4,0,0.6      c0,0.4,0.2,0.9,0.2,1.4c0,0.2,0.1,0.4,0.1,0.5c0.3,1.6,0.5,2.9,0.6,4.4C103.8,87.2,103.8,87.7,103.8,88.3z"
             class="st0" /><path
             id="path176"
             d="M100,90.6c-0.1,0.3-0.7,0.3-0.8,0C99.2,90.4,99.8,90.4,100,90.6z"
             class="st0" /><path
             id="path178"
             d="M92.1,26c0,0.2-0.4,0.3-0.5,0.5c-0.2,0.4-0.2,0.9-0.3,1.3c-0.1,0.9-0.7,1.5-1.4,1.8      c0.1,0.3-0.2,0.5-0.2,0.8c-0.1,0.6,0.4,1.2,0.3,1.8c-0.5-0.5-0.8-1.2-0.6-1.9c-0.3,0-0.3,0.9-0.1,1.2c-0.4,0.6,0.5,0.7,0.3,1.3      c-0.2,0-0.2-0.2-0.4-0.2c-0.2-0.9-0.5-1.6-0.3-2.4c-0.2,0.3-0.3,0.8-0.2,1.3c0.1,0.7,0.5,1.2,0.5,1.7c-0.5,0.1-0.4-0.3-0.4-0.5      c-0.1-0.4-0.3-0.8-0.4-1.2c0-0.7,0.3-1.2,0.1-1.7c-0.6,0.3-0.3,0.7-0.4,1.3c0.1,0.2,0.1,0.5,0,0.7c-0.3,0-0.2-0.2-0.4-0.3      c0.1-0.6,0.2-1.1,0.3-1.7c-0.8,0-0.6,1.3-0.5,1.9c-0.6-0.2-0.3-1.3-0.2-1.9c-0.6-0.3-0.7-0.6-0.9-1.4c-0.1-0.4-0.2-0.8-0.2-1.1      c0-0.6,0.1-1.1-0.2-1.4c-0.2-0.3-1.1-0.5-1.6-0.1c0,0.3-0.1,0.6-0.2,1c-0.5,0.6-1.2,1.1-1.8,1.6c-0.3,0.6-0.7,1-1.1,1.4      c-0.3,0.4-0.5,0.8-0.7,1.2c-0.2,0.3-0.4,0.4-0.6,0.6c-0.2,0.3-0.3,0.6-0.5,0.9c-0.2,0.5-0.8,0.7-0.9,1.2      c0.5,0.2,1.1,0.3,1.5,0.6c0.3,0.7,0.7,1.4,0.5,2.3c-0.3,0.3-0.5,0.6-0.7,0.8c-0.4,0.2-1.4,0.2-1.8-0.1c-0.5,0.2-1.1,0.3-1.6,0.1      c-0.5,0.4-1.3,0.4-1.9,0c-0.4,0.1-0.8,0.2-1.3,0.1c-0.2,0-0.3-0.2-0.4-0.2c-0.2,0-0.4,0.2-0.6,0.2c-0.3,0.1-0.7,0-1,0      c-0.3-0.1-0.5-0.3-0.8-0.3s-0.5,0.2-0.7,0.2c-0.3,0.1-0.5-0.1-0.8-0.2c-0.4-0.1-0.4,0.1-0.7,0.2c-0.5,0.2-1.1,0.1-1.5-0.2      c-0.7,0.2-1.3,0.5-1.9-0.1c-0.6,0.3-1.6,0.3-2.1-0.1c-0.6,0.3-1.3,0.5-2,0.1c-0.7,0.3-1.7,0.5-2.7,0.3C57,36.9,56,35.3,56.9,34      c0.3-0.4,0.8-0.5,1.3-0.7c0-0.4-0.3-0.4-0.5-0.7c-0.5-0.6-0.9-1.5-1.4-2.3c-0.5-0.7-1.1-1.5-1.5-2.1c-0.2-0.3-0.2-0.5-0.4-0.8      c-0.4-0.5-1.1-0.7-1.3-1.3c-0.1-0.3,0.1-0.6,0-0.8c-0.1-0.4-0.5-0.7-0.9-1c-0.8-0.1-1,0.3-1.1,0.8c0.3,1.1-0.2,2.3-0.4,3.2      c-0.1,0.5-0.3,0.9-0.8,1c0.1,0.9-0.4,1.6-0.6,2.4c-0.1,0-0.3,0-0.4-0.1c0.1-0.3,0.5-0.7,0.7-1.2c0.1-0.3,0.2-0.9-0.2-1.1      c-0.3,0.1-0.1,0.3-0.2,0.6c-0.1,0.7-0.5,1.4-0.7,2.1c-0.2,0.2-0.5,0.7-0.8,0.3c0.2-0.4,0.6-0.7,0.8-1.2c0-0.2-0.2-0.1,0-0.3      c0.3-0.3,0.3-0.9,0.1-1.4c-0.3,0.9-0.3,2.2-1.1,2.4c0.3-0.7,1-1.3,0.7-2.3c-0.4,0.4-0.1,1.5-0.8,1.6c-0.1-0.5,0.7-0.9,0.3-1.5      c-0.2,0.5-0.3,1.3-0.9,1.3c0-0.4,0.2-0.4,0.4-0.5c0.2-0.5,0.4-1.3-0.3-1.4c-0.7-0.8-0.4-2.2-1.1-3c-0.2-0.2-0.4-0.3-0.5-0.6      c0.5-0.4,1,0.4,1.5,0.3s0.2-1,0.4-1.5c0.3-0.1,0.2,0.2,0.4,0.2c0.7-0.2,0.9-1.5,0.7-1.9c-0.3,0.4,0,1.1-0.5,1.5      c-0.2,0-0.1-0.2-0.2-0.2c-0.2,0.1-0.3,0.3-0.5,0.2c0-0.1-0.1-0.1,0-0.3c0-0.2,0.3-0.1,0.4-0.2c0.1-0.3,0.3-0.5,0.1-1      c-0.1-0.2-0.4-0.3-0.5-0.5c-0.6-0.8-0.6-2.6-1.5-3c0.9-0.3,1.3,0.8,2.1,0.6c0.3-0.7,0.6-1.5,1.1-2c0.6,0,1.3-0.3,1.9,0      c0.7,0.3,0.8,1.2,1.2,1.8c-0.1,0.1,0,0.1,0,0.3c0.3,0.3,0.2,1,0.6,1.2c0.3-0.2,0.1-0.6,0.1-0.9c0-0.5,0.1-1.1,0-1.3      c-0.1-0.3-0.5-0.4-0.7-0.7c-0.3-0.4-0.3-0.8-0.5-1.3c-0.8-1.3-1.7-2.7-2.9-3.6c0-0.2-0.1-0.3,0-0.5c0.4-0.3,0.6-0.4,1.2-0.3      c1.5,0.2,2.1,1.6,2.3,3.2c0,0.3,0,0.6,0,0.8c0.1,0.3,0.5,0.6,0.8,0.6c0.3-0.1,0.3-0.5,0.4-0.8c-0.2-0.6-0.7-0.8-0.7-1.4      c0-0.3,0.1-0.6,0.1-1c-0.1-0.9-0.6-2-1.1-2.4c-0.3-0.3-1.1-0.5-1-1.1c0.1-0.5,0.8-0.3,1.2-0.2c0.8,0.3,1.5,1.3,1.6,2.2      c0,0.5-0.2,1-0.1,1.5c0,0.3,0.7,1.3,0.8,0.5c-0.6-0.8,0.1-1.7,0-2.6c0-0.4-0.1-0.8-0.3-1.1c-0.3-0.6-1.1-1.1-0.8-1.9      c0.5-0.1,0.9,0.1,1.1,0.3c0.3,0.3,0.6,0.8,0.7,1.3c0.2,1.1-0.4,1.9-0.2,2.5c0.8,0.2,0.6-0.5,0.7-0.8c0.1-0.6,0.4-1,0.3-1.6      c-0.1-1.1-1.1-1.5-1-2.5C55.4,7.5,56,8.4,56.1,9c0.3,1.1-0.5,2,0.1,2.5c0.5-0.1,0.6-0.6,0.7-0.9c0.3-1-0.5-2.2,0.1-3.1      c0.7,0.1,0.9,0.5,1,1c0.1,0.8-0.5,1.4-0.2,2.2c0.3,0.1,0.5-0.3,0.7-0.5c0.1-0.5,0.3-1,0.3-1.6c-0.1-0.6-0.3-1.1,0.4-1.1l0,0      c1.2,0.6-0.1,1.8,0.1,2.9c0.2,0,0.4-0.1,0.5-0.2c0.6-0.6,0.4-2.1,1.5-2.1c0.2,0.2,0.3,0.5,0.1,0.9c-0.5,0.2-1,0.9-0.6,1.4      c0.4,0,0.7,0,1,0.2c0,0.3-0.1,0.4,0,0.8c-1.1,0-2.1,0.1-3.1,0.2c-1,0.2-2,0.6-2.7,1.2c-0.6,0.6-1,1.2-1.5,2      c-1.1,1.6-1.3,3.8-1.2,5.7c0,0.6,0.2,1.1,0.2,1.7c0.3,0.9,0.6,1.8,0.9,2.6c0.3,0.7,0.5,1.3,0.8,1.9s0.6,1.2,0.9,1.8      c0.4,0.6,0.9,1.2,1.3,1.9c0.4,0.6,0.8,1.3,1.4,1.8c0.3-0.1,0.4-0.3,0.4-0.5c0.2-1.1-0.8-2.5-1-3.4c-0.6-0.8-0.8-2-1.6-2.7      c-0.5,0.2-1,0.2-1.3,0c-0.2-0.2-0.4-0.4-0.5-0.5c-0.1-0.4,0.1-0.9,0-1.2c-0.1-0.4-0.5-0.5-0.6-0.9c-0.1-0.5,0.1-0.8,0.3-1.2      c0-0.3-0.2-0.4-0.3-0.5c-0.2-0.7,0.4-1.1,0.7-1.6c-0.2-1,0.6-1.6,1.4-1.9c0.3-0.7,0.6-1.4,1.4-1.4c0.2,0,0.4,0.2,0.6,0.1      c0.3-0.1,0.4-0.4,0.5-0.6c0.3,0,0.6-0.2,0.9-0.2c0.2,0,0.4,0.1,0.7,0.1s0.7-0.3,1-0.3c0.6,0,1,0.3,1.4,0.8      c0.6-0.2,1.5-0.1,1.8,0.5c0.9-0.2,1.5,0.4,1.7,1c0.6-0.6,1.1-1.6,1.2-2.4c-0.5-0.4-0.9,0.4-1.4,0.3c-0.2-0.8,0-1.9,0-2.5      c0.6,0.1,0.9,0.4,1.5,0.5c0-0.7-0.6-1.1-0.8-1.8c1.3,0,2.5-0.2,3.5,0.2c-0.1,0.5-0.7,0.9-0.8,1.5c0.5,0,0.9-0.4,1.5-0.5      c0.1,0.4,0,1-0.1,1.4c0,0.4,0.1,0.8-0.2,1.2c-0.6,0.1-1-0.8-1.5-0.3c0,0.8,0.4,1.2,0.8,1.7c0,0.5,0.1,0.8,0.4,0.8      c0.2,0,0.3-0.3,0.4-0.4c0.3-0.3,0.8-0.3,1.3-0.3c0.2-0.1,0.3-0.4,0.5-0.5c0.4-0.3,1-0.4,1.6-0.2c0.3-0.4,0.9-0.7,1.5-0.5      c0.3,0.1,0.4,0.3,0.7,0.4c0.8-0.5,1.7-0.4,2.1,0.4c0.3,0,0.5,0.2,1,0.1c0.4,0.3,0.9,0.5,1,0.9c0,0.1,0,0.3,0,0.3      c0.2,0.2,0.7,0.3,0.8,0.3c0.3,0.2,0.6,0.4,0.6,0.7c0.1,0.3-0.2,0.9,0,1.2c0.3,0.4,0.7,0.6,0.6,1.3c0,0.2-0.3,0.4-0.3,0.6      s0.2,0.3,0.3,0.5c0.2,0.7-0.1,1.1-0.5,1.5c0.1,1.1-0.3,1.7-1.1,1.7c-0.2,0-0.4-0.1-0.6-0.1c-0.5,0-0.5,0.7-0.5,1.2      c-0.2,0.1-0.3,0.3-0.5,0.4c-0.6,1.2-1.7,2.9-1.9,4.3c0,0.4,0,0.9,0.3,1.1c0.7-0.3,0.9-1.2,1.4-1.7c0.5-1.2,1.5-1.9,1.9-3.1      c0.6-0.7,1-1.6,1.4-2.5c1-1.5,1.2-3.5,1.1-5.4c0-0.5-0.2-1-0.2-1.5c0-0.3,0-0.6,0-0.9c-0.1-0.4-0.3-0.9-0.4-1.3      c-0.5-1.3-1.1-2.4-2-3.3c-0.6-0.4-1.3-0.6-2.1-0.9c-0.4-0.2-0.8-0.3-1.1-0.4c-0.8-0.3-1.9-0.4-2.7-0.5c0-0.2-0.1-0.4,0-0.6      c0.4-0.2,0.8,0,1.1-0.3c0.1-0.7-0.5-1.1-0.5-1.6s0.5-0.8,0.8-0.4c0.5,0.5-0.3,2.9,1.3,2.5c0.5-0.4-0.3-0.9-0.3-1.5      c-0.1-0.6,0.1-0.8,0.4-1.3c0.5-0.1,0.5,0.1,0.7,0.4c0,0.4-0.2,0.9-0.1,1.5c0.1,0.5,0.4,1.3,0.7,1.3c0.4,0,0.4-0.4,0.5-0.6      c-0.3-0.9-0.8-2-0.2-2.8C79.7,7.7,80,8,80.2,8.2c-0.3,1.2-0.6,2.5,0,3.5c0.2,0.1,0.4,0.3,0.7,0.2c0-0.5-0.2-1.3-0.1-1.8      c0-0.1,0.2-0.9,0.3-1.1c0.1-0.2,0.8-0.5,1.1-0.5c0.4,0.1,0.3,0.7,0.1,1c-0.1,0.2-0.4,0.4-0.6,0.7s-0.4,0.8-0.4,1.1      s0.4,0.7,0.5,1c0.1,0.5-0.1,1.3,0.8,1.3c0.3-0.8-0.3-1.6-0.1-2.6c0-0.2,0.3-0.7,0.5-1c0.1-0.1,0.8-0.5,0.9-0.5      c0.5,0,0.7,0.4,0.5,0.8c-0.1,0.3-0.7,0.8-1,1.4c0,0-0.1,0.2-0.1,0.3s-0.1,0.2-0.1,0.3c-0.2,0.6,0.1,1.2,0.1,1.7      c0,0.3-0.4,0.7-0.3,1.1c0.2,0.6,0.8,0.1,0.9-0.2c0-1.1,0.2-1.8,0.5-2.9c0.2-0.1,0.3-0.5,0.5-0.7c0,0,0.2,0,0.3-0.1      c0.1-0.1,0.1-0.2,0.2-0.3c0.1,0,0.2,0,0.3-0.1c0.1-0.1,0.1-0.2,0.2-0.2c0.1-0.1,0.4-0.1,0.5-0.2c0.5-0.2,0.8-0.3,1.1,0.3      c-0.8,1.1-2.5,1.9-2.5,3.4c-0.3,0.4-0.1,1-0.3,1.5c-0.2,0.5-0.6,0.8-0.8,1.2c0,0.2,0,0.7,0.2,1c0.9,0.1,1-1,1.1-1.6      c0.3-1.3,1.1-1.9,2.2-2.5c0.8-0.1,1.8-0.7,2.2,0c-0.1,0.3-0.5,0.2-0.8,0.3c-0.7,0.3-0.8,0.9-1.4,1.5c-0.4,0.3-0.9,0.5-1.1,0.8      c-0.4,0.7-0.3,1.6-0.8,2.3c-0.2,0.4-0.8,0.6-0.9,1.1c-0.2,0.8-0.1,1.3,0,2c0.5-0.1,0.4-0.7,0.8-0.9c0-0.5,0.3-0.8,0.5-1.2      c0.2-0.3,0.3-0.6,0.5-0.8c0.2-0.1,0.6-0.3,0.8-0.3c0.1,0,0.5,0,0.8,0.1c0.5,0.1,0.9,0.3,1.2,0.5c0.4,0.4,0.3,1.2,0.8,1.5      c0.5,0,0.7-0.4,1.2-0.5c0.3,0.5-0.3,1-0.5,1.6c-0.3,0.8,0,1.8-0.8,1.8c-0.2,0.7,0.7,0.8,0.4,1.3c-0.5-0.3-0.5-1-0.9-1.3      c-0.3,0.5,0.4,0.9,0.4,1.3c-0.7,0.1-0.5-0.8-0.8-1.4c-0.4,0.2,0,0.9,0.1,1.2c0.2,0.2,0.5,0.5,0.4,0.7c-0.3,0.3-0.5,0-0.6-0.4      c-0.3,0-0.3,0-0.5,0c-0.2-0.5-0.3-1.3-0.3-1.8c-0.9,0.2,0.1,0.7-0.1,1.3c-0.4-0.1-0.4-0.9-0.4-1.2c-0.1-0.4-0.5-0.4-0.7-0.8      c-0.2-0.5,0.2-1.1-0.1-1.5c-0.5,0.1-0.6,0.6-0.9,0.9c0,0.6-0.3,0.9-0.4,1.3c-0.5,0.2-1,0.6-0.8,1.3c0.6-0.1,0.8-0.5,1.2-0.6      c0.7-0.1,1.5,0.6,1.9,1.1c0.3,0.3,0.6,0.6,0.8,0.8c0.2,0.2,0.2,0.5,0.5,0.5s0.5-0.3,0.8-0.3c0.4,0.1,0.4,0.6,0.8,0.7      C90.9,26.4,91.4,25.7,92.1,26z M90.7,28.3c0-0.6,0.3-1.2,0.3-1.8c-0.3,0.1-0.5,0.5-0.9,0.7c-0.1,0.2-0.3,0.5-0.5,0.3      c0.1-0.4,0.3-1.2-0.1-1.4c-0.5,0.1-0.5,1.4-1.2,0.8c0.1-0.4-0.3-1.4-0.8-1.6c0,0.4,0.2,1-0.1,1.4c-0.2-0.2-0.4-0.4-0.6-0.5      C86.3,26.8,87,27.3,87,28c0,0.3-0.2,0.6-0.2,0.9c0.2,1,1.4,0.2,2.3,0.3c0.1,0,0.3,0.1,0.4,0.1C90,29.2,90.5,28.7,90.7,28.3z       M90.1,21.4c0.1-0.4,0.3-0.7,0.2-1c-0.4,0.1-0.7,0.4-0.9,0.8c-0.3-0.5-0.2-1.4-0.7-1.8c-0.3,0.3-0.3,1-0.6,1.3      c-0.3-0.3-0.4-0.8-0.9-1c-0.2,0.4-0.3,1.2-0.4,1.8c-0.1,0.5,0.1,1,0.5,1.1c0.2,0,0.5,0,0.7,0c0.4,0,0.8,0.2,1.1,0.1      C89.9,22.5,89.9,22,90.1,21.4z M88.3,24.2c0-0.4,0-1-0.2-1.4C88,23.4,88,23.9,88.3,24.2z M87,18.9c-0.1,0-0.1,0-0.2,0      c-0.2,0.5-1.1,0.8-0.7,1.3C86.5,20,86.9,19.4,87,18.9z M85.2,25c0-1-1.1-0.4-1.1,0.2c0,0,0.1,0,0.1,0.1      C84.6,25.3,84.9,25.2,85.2,25z M81.1,24c1.1,0.4,1.8-1.4,0.7-1.5c-0.4,0-0.7,0.2-1,0.5C80.7,23.5,80.8,23.7,81.1,24z M81.6,22.2      c0.8,0,1.1-1.7,0-1.5c-0.4,0-0.7,0.3-0.8,0.5C80.6,21.8,81.2,22.2,81.6,22.2z M80.4,20.5c1,0.4,1.8-0.8,1.2-1.6      c-0.5-0.6-1.8-0.3-1.6,1C80.1,20.1,80.1,20.4,80.4,20.5z M80.8,25.7c1.5,0.3,0.9-2.4-0.3-1.1C80.5,25,80.4,25.7,80.8,25.7z       M80,24.6c1.1-2.1,0.1-4.5-1.4-5.4c-0.7-0.5-1.6-0.8-2.7-0.7c-1.6,0.1-3,0.8-4.4,1.3c-0.2,0.4-0.7,0.8-0.8,1.3      c0.5-0.2,1.2-0.3,1.8-0.5c0.3-0.1,0.7-0.4,1-0.5s0.8-0.1,1.1-0.3c0.3-0.1,0.5-0.3,0.7-0.3c1-0.2,1.7,0.2,2.3,0.5      c0.3,0.2,0.7,0.3,1,0.6c0.5,1.1,1,2.3,0.5,3.6C79.4,24.5,79.7,24.5,80,24.6z M79.1,19.1c1.3,0.3,1.4-1.4,0.7-1.8      c-0.4-0.2-1.1,0-1.3,0.5C78.2,18.4,78.7,18.9,79.1,19.1z M80,25.1c-0.3-0.3-0.9-0.5-1.3-0.3c0.1,0.8-0.1,1.2,0.3,1.6      C79.7,26.3,79.7,25.6,80,25.1z M79.1,27.3c0.1-0.1,0.2-0.1,0.3-0.3c0-0.4-0.3-0.3-0.6-0.4C78.5,27,78.9,27.2,79.1,27.3z       M78.5,27.8c0.1-0.1,0.3-0.1,0.3-0.3c0-0.1-0.2-0.1-0.3-0.2c-0.8,0.5-0.9,1.7-1.9,2c-1.3,0.4-1.8-0.8-2.4-1.6      c-0.5-0.1-1,0-1.4-0.1c-0.2,0.1-0.4,0.3-0.5,0.6c-0.7,0.5-1.6,0.6-2.4,0.3c-0.4-0.2-0.5-0.8-1.1-0.9c-0.1,0-0.3,0.1-0.4,0.1      c-0.2,0-0.3-0.2-0.5-0.1c-0.3,0.1-0.3,0.4-0.5,0.6c-0.6,0.6-1.8,0.8-2.7,0.4c-0.2-0.1-0.5-0.4-0.8-0.5c-0.5-0.1-0.8,0.1-1.5,0.2      c-0.4,0.5-0.8,1.1-1.4,1.1c-0.6,0-0.9-0.5-1.4-0.5c-0.3-0.3-0.3-0.7-0.6-0.8c-0.6,0,0,1,0.1,1.5c0.4,0.4,1.1,0.6,1.9,0.6      c0.1,0,0.3,0,0.4-0.1c0.9,0.2,1.1-0.9,1.6-1.1c0.2,0.5,0.8,0.3,0.8-0.2c0.5,0,0.9,0.4,1.3,0.5c1.2,0.3,2.1-0.2,2.9-0.9      c0.1,0.1,0.2,0.2,0.4,0.3c0.1-0.1,0.2-0.4,0.4-0.3c0.5,0.7,1.4,1.2,2.5,1.1c0.8-0.1,1.3-0.5,1.7-0.9c0.2,0.2,0.3,0.3,0.5,0.5      c0.3,0,0.2-0.3,0.5-0.3c0.3,0.4,0.4,0.8,0.7,1.2c0.5,0.3,0.8,0.7,1.6,0.6c0.1,0,0.2-0.1,0.3-0.2c0.8,0.1,1-0.5,1.3-1      c0.1-0.2,0.3-0.3,0.4-0.4C78.4,28.5,78.4,28,78.5,27.8z M78.5,21.9c0.1-0.2-0.1-0.5-0.1-0.8c-0.4-0.4-1-0.7-1.5-1.1      c-0.1,0.1-0.2,0-0.3,0c-0.4-0.2-1-0.2-1.5-0.1c-0.8,0.2-1.6,0.6-2.4,0.9c-0.4,0.1-0.9,0.3-1.3,0.4s-1,0.1-1,0.5      c0.7,0,1.6-0.2,2.5,0c0.5,0.1,1.1,0.4,1.6,0.3c0.2,0,0.3-0.2,0.5-0.2C76.2,21.5,77.5,21,78.5,21.9z M77,27.8      c0.7-0.2,1.8-0.7,1.5-1.4c-0.1-0.3-1-1.2-1.3-0.9C77.1,26.1,76.9,27.1,77,27.8z M78,36.9c0-0.1,0.1-0.1,0.2-0.2      c-0.3-0.9-0.6-1.9-1.5-2.2h-0.1c-0.1,0.3,0.2,0.8,0.4,1.2C77.2,36.3,77.4,36.9,78,36.9z M77.4,18.3c0.9,0,1.2-1.2,0.5-1.7      C76.4,16.2,76.2,18.3,77.4,18.3z M77.1,30.8c-0.6,0.2-1.4,0-2.1-0.4c-0.3-0.5-0.8-0.9-1.1-1.4c-0.4,0.3-0.7,0-1-0.2      c-0.7,0.2-1.2,0.7-1.9,0.7c-0.8,0.1-1.5-0.5-2.3-0.8c-0.1-0.1-0.1,0.2-0.3,0.1c-0.2,0-0.3-0.3-0.5-0.2c-0.7,0.3-1.3,1-2.3,0.8      c-0.5-0.1-1-0.5-1.3-0.5c-0.4,0-0.3,0.3-0.5,0.4c-0.3,0.2-0.6,0-0.9-0.1c-0.6,1-1.9,1.6-3.2,1.1c0,0.5,0.1,0.9,0.3,1.2      c1-0.2,1.8,0,2.8,0.1c0.5-0.3,1,0.1,1.3,0.1c0.3,0,0.8-0.4,1.1,0c0.5-0.1,0.7-0.1,1.1,0c0.7-0.2,1.8,0.1,2.8-0.3      c0.4,0.3,1,0.2,1.4,0c0.8,0.3,1.8,0.1,2.9,0c0.1,0,0.2,0.2,0.3,0.2c0.3,0,0.6-0.1,1.1-0.2c0.1,0,0.2,0.2,0.3,0.2      C76,31.5,77,32.1,77.1,30.8z M77.1,33.6c0.2-1.4-0.8-1.6-1.8-1.4c-0.2-0.1-0.2-0.3-0.4-0.3c-0.3,0-0.5,0.4-0.8,0.4      c-0.2,0-0.4-0.3-0.6-0.3c-0.3,0-0.6,0.1-1,0c-0.2,0-0.3-0.1-0.4-0.1c-0.2,0-0.3,0.2-0.5,0.2c-0.3,0-0.5-0.2-0.8-0.2      s-0.6,0.2-1.1,0.1c-0.3,0-0.4-0.1-0.6-0.1c-0.1,0-0.3,0.1-0.4,0.1c-0.2,0-0.4-0.3-0.6-0.3c-0.3,0-0.7,0.2-1.1,0.3      c-0.5-0.2-0.7,0.2-1.3,0.1c-0.1,0-0.1-0.3-0.3-0.3c-0.3,0.1-0.5,0.2-0.8,0.2c-0.3-0.3-0.7-0.2-1-0.1c-0.4-0.1-0.7-0.1-1.3,0      c-0.5-0.4-1.3,0.1-1.8-0.2c-0.3,0.2-0.5,0.1-0.8,0.1c-0.2,0.2-0.3,0.4-0.5,0.5c-0.1,0.2,0,0.6-0.1,0.8c0.4-0.1,0.8,0.1,1.2,0      c0.4,0.1,0.6,0.4,0.9,0.3c0.3,0,0.5-0.2,0.8-0.3c0.6-0.1,0.8,0.2,1.2,0.2c0.5,0,1.3-0.2,1.9-0.2c0.4,0,0.7,0.1,1,0.2      c0.5,0,0.7-0.2,1.1-0.2s0.8,0.3,1.3,0.3c0.4,0,0.8-0.2,1.2-0.1c0.3,0,0.5,0.2,0.8,0.2c0.5,0,1.1-0.2,1.7-0.2      c0.5,0.4,0.9,0,1.5,0c0.4,0,0.8,0.3,1.2,0.2c0.3,0,0.5-0.2,0.8-0.2C76.3,33.5,76.6,33.4,77.1,33.6z M74.7,17      c-0.5,1.2,1.8,1.7,1.5,0C76,16.3,75,16.4,74.7,17z M75.5,28c1.2,0.1,1.3-2.2,0.3-2.4c-0.5-0.1-0.7,0.4-1.2,0.5      c-0.1-0.3,0.2-0.7,0.3-1c0.1-0.8-0.2-1.3-0.5-1.8c-0.6-0.2-1.1,0.7-1.2,1.2s0.3,1.1-0.2,1.4c-0.4-0.8-1.9-1-2.1,0.1      c-0.1,0.6,0.2,1.3,0.6,1.6c0.3-0.3,0.3-0.9,0.9-0.9C73.3,27,75.9,26.2,75.5,28z M74.2,36.7c0.5,0.3,1.4,0.5,2,0.3      c0-0.6-0.6-1.3-0.9-1.8c-0.1-0.5-0.5-0.8-1.1-0.8c-0.9,0.5-2-0.4-2.8-0.1c0.1,0.9,1,1.4,1,2.2c0.4,0.5,1.1,0.7,1.9,0.6      C74.2,36.9,74.1,36.7,74.2,36.7z M73.2,18.7c0.8,0.2,1.6-0.9,0.8-1.6C72.8,16.3,72.3,18.5,73.2,18.7z M73,27.3      c0.5,0.1,1.4,0.3,1.5-0.2C74,26.9,73.6,27,72.9,27C72.9,27.1,72.9,27.2,73,27.3z M71.9,19.4c0.7-0.2,0.7-1.6-0.1-1.6      C70.8,18,70.9,19.7,71.9,19.4z M71,19.4c-0.2,0-0.5-0.1-0.7,0c-0.5,0.7-0.5,1.5-0.8,2.2c-0.3,0.8-0.6,1.7-0.5,2.7      c0.2,0,0.3,0.1,0.5,0.1c0.1-1.1,0.5-1.9,0.6-2.9C70.6,20.9,71,20.1,71,19.4z M70.5,15.1c0.3-0.4,0.4-0.8,0.1-1.3      c-0.4,0-0.8,0.1-1,0.4c-0.1,0.1-0.1,0.3-0.1,0.5C69.7,15.1,70,15.2,70.5,15.1z M70.4,27.4c0.1-0.7,0.3-1.2,0-1.7      c-0.5,0-0.6,0.4-1.1,0.4c-0.1,0.3-0.2,0.6,0,1C69.6,27,70,27.4,70.4,27.4z M70.1,19.1C69.4,19,69.3,19.6,69,20      c0.2,0.1,0.2,0.4,0.3,0.5C69.7,20.1,70,19.7,70.1,19.1z M69.8,18.3c0.1-0.1,0.2-0.5,0.1-0.7c-0.3-0.3-0.8,0-1-0.4      c-0.1-0.2,0.1-0.5-0.2-0.7c-0.7-0.1-0.4,0.6-0.6,0.9c-0.3,0.1-0.7-0.1-1,0.1c-0.1,0.2-0.1,0.5,0,0.6      C68,18.3,68.7,18.1,69.8,18.3z M69.1,13.6c0.1-0.3,0.5-0.5,0.5-0.8c0-0.6-1.3-0.5-1.8-0.4c0,0.5,0.3,0.7,0.4,1.1      C68.5,13.5,68.8,13.6,69.1,13.6z M69.3,18.8c0.3,0,0.3-0.3,0.3-0.4c0,0-0.1,0-0.2,0C69.2,18.6,69.3,18.6,69.3,18.8z M69.5,17.2      c0.1-0.4-0.4-0.5-0.4-0.1C69.2,17.2,69.3,17.2,69.5,17.2z M68,16.1c0.4,0.4,1.5,0.1,1-0.7c-0.2-0.1-0.5-0.1-0.8,0      C68.1,15.7,68.1,15.9,68,16.1z M69,27c0.2-0.4-0.1-0.7-0.3-0.9c0.3-0.1,0.6-0.8,0.8-1.3c-0.3-0.2-1-0.3-1.5-0.2      c-0.1,0-0.3,0-0.5,0.2c0.2,0.5,0.6,0.8,0.8,1.4c-0.1,0.2-0.2,0.5-0.3,0.7C68.1,27.2,68.7,27.3,69,27z M68.7,19.2      C69,19,69,18.7,69,18.4c-0.3,0-0.4,0-0.6,0c-0.1,0.3-0.1,0.5,0,0.8C68.5,19.1,68.6,19.2,68.7,19.2z M69,19.4      c-0.3,0.1-0.6,0-0.8,0c0.1,0.2,0.2,0.4,0.3,0.5C68.8,19.8,69,19.7,69,19.4z M68.8,21.9c0.2-0.1,0.1-0.3,0.1-0.7      c-0.3-0.1-0.7-0.1-1-0.1c-0.2,0.2-0.2,0.5,0,0.7C68.3,21.7,68.6,21.9,68.8,21.9z M68.8,24.2c0.2-0.3,0-0.7-0.3-0.9      c-0.8-0.2-1,0.5-0.6,1C68.2,24.3,68.7,24.3,68.8,24.2z M68.5,15.2c0.7,0.1,0.8-1.4,0-1.2C67.9,14.1,68,15.1,68.5,15.2z       M68.7,20.9c0.3-0.6-0.8-0.8-0.7-0.1C68.2,20.9,68.5,20.8,68.7,20.9z M68,22.9c0.5,0.2,0.9,0,0.9-0.5c-0.3-0.1-0.7-0.3-1.1,0      C67.8,22.5,67.9,22.8,68,22.9z M68.1,36.9c0.3-0.4-0.1-0.8-0.3-1.1c-0.7-1.1-0.9-2.2-2.5-1.5c-0.5-0.3-1.3-0.5-1.6,0.1      c0.4,1.1,0.7,2.7,2.4,2.6c0.2,0,0.5-0.2,0.7-0.2C67.2,36.8,67.6,37,68.1,36.9z M68,18.9c0.1-0.2,0-0.4,0-0.5      c-0.2,0-0.3,0.1-0.4,0C67.4,18.7,67.6,19,68,18.9z M68,16.8c-0.3-0.2-0.8,0.2-0.4,0.4C67.9,17.2,68,17.1,68,16.8z M67.9,27      c0-0.3,0-0.5,0.1-0.6c-0.3-0.3-0.6-0.5-1-0.7c-0.3,0.5-0.3,1.1-0.2,1.6C67.2,27.3,67.5,27.1,67.9,27z M67.7,20.5      c0-0.3,0.3-0.3,0.4-0.5c-0.3-0.3-0.5-0.9-1.1-0.8C67.2,19.6,67.4,20.1,67.7,20.5z M66.7,15.1c0.7,0.4,1.2-0.3,0.8-0.9      C66.9,13.6,66.4,14.4,66.7,15.1z M67.6,24.4c0-1.9,0-4-1-5.2c-0.2,0-0.5,0-0.5,0.2c0.1,0.9,0.6,1.5,0.5,2.3      c0.5,0.8,0.2,2,0.3,2.7C67.2,24.5,67.2,24.3,67.6,24.4z M63.6,21.7c1.1-0.2,1.9,0.1,2.9,0c-0.2-0.4-0.8-0.5-1.2-0.7      c-0.3-0.2-0.6-0.4-1-0.5c-0.3-0.2-0.7-0.3-1.1-0.4c-0.2-0.1-0.3-0.2-0.5-0.3c-0.5-0.2-1.1-0.2-1.6-0.2c-0.9,0-3,0.8-2.7,1.9      c0.9-0.4,1.8-0.5,2.6-0.2c0.2,0.1,0.4,0.1,0.5,0.2c0.3,0.1,0.8,0.5,1.1,0.5C62.9,21.9,63.3,21.8,63.6,21.7z M64.7,20.3      c0.4,0.2,0.8,0.5,1.3,0.5c0-0.5-0.2-0.6-0.3-1c-0.4-0.4-0.9-0.7-1.5-0.9c-1.4-1-3-1-4.8-0.6C59,18.6,58.6,18.9,58,19      c-0.3,0.3-0.5,0.6-0.9,0.9c-1,1.6-0.8,3.6,0.1,5.2c0.4-0.1,0.7-0.1,0.9-0.4c-0.2-0.8-0.5-1.4-0.5-2.1c0-0.5,0.1-1.2,0.3-1.6      c0.4-0.8,1.3-1.4,2.3-1.7c1.4-0.4,2.6,0.2,3.9,0.6C64.3,20.1,64.5,20.2,64.7,20.3z M65.7,27.5c0.3-0.5,0.5-1.2,0.5-1.8      c-0.4-0.3-0.8-0.9-1.5-0.7c-0.3,0.2-0.5,0.6-0.7,0.7c0-0.5,0-0.9-0.1-1.3c-0.3-0.5-0.7-1.4-1.3-1.1c-0.4,0.2-0.5,1.4-0.4,1.8      c0.1,0.3,0.4,0.7,0.1,0.9c-0.3-0.5-1.1-0.5-1.5-0.1c-0.5,0.6,0,1.6,0.5,1.9c0.3-0.3,0.2-0.9,0.7-0.9c0.1,0.2,0.4,0.2,0.6,0.3      c0.3-0.3,0.6-0.1,1-0.3c0.4-0.2,0.5-0.7,1-0.6c0.1,0,0.2,0.1,0.4,0.2C65.2,26.9,65.4,27.3,65.7,27.5z M65.2,18.8      c1,0.1,1.1-1.6-0.1-1.3C64.2,17.7,64.5,18.7,65.2,18.8z M64.1,17.9c0.6-0.7-0.7-1.5-1.2-0.7C62.7,17.9,63.7,18.3,64.1,17.9z       M62.6,27.5c0.1,0.5,1.7,0.4,1.5-0.3C63.7,27.2,63,27.2,62.6,27.5z M62.5,17.3c0.4-0.9-1.1-1.6-1.6-0.7c-0.1,0.3,0,0.4,0.1,0.8      C61.5,17.9,62.3,17.8,62.5,17.3z M62.5,36.6c0.1-0.1,0.1-0.1,0.1-0.4c-0.3-0.8-0.6-1.6-1.3-2.1c-0.5,0.5,0.3,0.9,0.3,1.5      c0.2,0.2,0.5,0.4,0.4,0.7C62.2,36.3,62.2,36.6,62.5,36.6z M60.4,17.7c0.8-1.1-1-2.2-1.4-1.1c-0.1,0.2,0,0.6,0,0.8      C59.1,17.8,59.9,18,60.4,17.7z M60.5,28c0.1-0.7-0.3-1.3-0.5-2c-0.2-0.1-0.8,0.8-0.9,1C58.9,27.5,59.9,27.9,60.5,28z M60.3,36.8      c0-0.3-0.2-0.4-0.3-0.6c-0.3-0.6-0.5-1.8-1.2-2c-0.4-0.1-0.4,0.1-0.7,0.2c-0.2,0.1-0.4,0-0.5,0.1c-0.8,0.5-0.5,2.2,0.5,2.4      c0.2,0,0.1-0.3,0.4-0.3C58.8,37.1,59.7,37.1,60.3,36.8z M58.4,27.8c0.5,0.2,0.7-0.2,0.6-0.6c-0.2-0.2-0.4,0.1-0.6,0.1      C58.3,27.5,58.4,27.7,58.4,27.8z M59,26.1c0-0.4,0.1-0.8-0.1-1.1c-0.5-0.1-1,0.3-1.4,0.4c0,0.5,0.4,1.5,0.8,1.7      C59.1,27.4,59,26.5,59,26.1z M57.3,18.6c0.5,0.4,1.7-0.3,1.4-1.1c-0.5-0.6-1.7-0.6-1.8,0.3C56.9,18,57.1,18.4,57.3,18.6z       M56.5,20.1c0.5-0.2,1-1.2,0.4-1.6c-0.2-0.1-0.9-0.2-1-0.1c-0.1,0-0.4,0.3-0.4,0.4C55.2,19.4,55.9,20.1,56.5,20.1z M56.7,24.8      c0-0.3-0.3-0.8-0.5-0.9c-0.1,0-0.2,0-0.3,0c-0.4,0.1-0.7,0.5-0.6,0.9C55.4,25.5,56.7,25.6,56.7,24.8z M56.1,23.3      c0.4-0.8-0.4-2-1.2-1.3C54.2,22.9,55.3,24,56.1,23.3z M55.7,21.7c0.8,0,0.9-1.8-0.3-1.6C54.3,20.3,54.7,21.8,55.7,21.7z       M53.1,24.2c0.1-0.3,0-0.9-0.2-1.2c-0.1-0.2-0.3-0.1-0.5-0.3c-0.3-0.2-0.5-0.5-0.6-0.8c-0.1-0.2,0-0.5-0.1-0.9      c-0.1-0.2-0.3-0.5-0.4-0.7s-0.2-0.6-0.5-0.6c-0.6,0.4-0.1,1.1-0.2,1.6c0,0.4-0.4,0.8-0.6,1c-0.2,0.4-0.2,0.8-0.4,1.2      c-0.1,0.1-0.3,0.3-0.3,0.5c-0.1,0-0.1,0.1-0.3,0.1c0,0-0.1-0.1-0.2-0.2c0.5-0.2,0.6-0.9,0.6-1.4c-0.1,0-0.2-0.1-0.3,0      c0,0.3,0.2,0.9-0.2,1.1c-0.3-0.2,0.2-0.8-0.2-1c0,0.6-0.2,1.8-0.7,2.3c0,0.3,0.3,0.6,0.5,0.5c0.3-0.5,0.6-1,1.2-1.2      c0.3-0.6,0.9-1,1.6-1C52.2,23.2,52.5,24,53.1,24.2z M51.8,24c0.2,0.2,0.5,0.3,0.8,0.2C52.5,23.9,51.7,23.4,51.8,24z M51.2,19.3      c0.1-0.5-0.1-1.3-0.7-1.1C50.7,18.5,50.8,19.1,51.2,19.3z M50.4,28c0.2-0.8,0.6-2.2,0.1-2.9c-0.2,0.4-0.4,0.9-0.8,1.1      c-0.1-0.6-0.1-0.9,0-1.5c-0.1,0-0.1,0-0.1,0c-0.4,0.4-0.8,0.9-1,1.5c-0.4-0.2-0.6-0.7-0.9-0.9c-0.3,0.5-0.1,1.1-0.3,1.5      c-0.4-0.1-0.6-0.4-1-0.5c0,0.4,0.4,0.8,0.5,1.3c0.1,0.4,0,0.9,0.3,1.2c0.9,0,2.1-0.2,2.8,0C50.3,28.6,50.3,28.4,50.4,28z       M49.7,21.8c0.8-0.3,0.8-1,0.5-1.9C50,19.4,50,19,49.7,18.8c-0.4,0.5-0.4,1.1-0.7,1.7c-0.1-0.4-0.3-0.8-0.4-1.3      c-0.5,0.2-0.5,0.8-0.8,1.2c-0.3-0.2-0.6-0.4-1-0.5c0,0.5,0.4,0.8,0.5,1.2c0.1,0.3,0,0.7,0.4,0.9C48.4,21.9,49.2,21.8,49.7,21.8z       M47.9,23.3c0.2,0,0.3-0.4,0.2-0.6H48C47.9,22.9,47.9,23.1,47.9,23.3z M47.8,23.8c0.2,0,0.3-0.4,0.1-0.5      C47.8,23.5,47.7,23.7,47.8,23.8z"
             class="st0" /><path
             id="path180"
             d="M82,23.1c0.2,0.3-0.3,0.5-0.5,0.7c-0.1-0.1-0.3-0.2-0.3-0.3c0.1-0.1,0-0.3,0.2-0.3c0.1,0,0.1,0.2,0.2,0.2      C81.8,23.3,81.7,23,82,23.1z"
             class="st0" /><path
             id="path182"
             d="M81.9,21.3c0.1,0,0.1,0.1,0.2,0.1c0,0.3-0.3,0.5-0.6,0.5c-0.5-0.1-0.2-1.1,0-0.3      C81.7,21.6,81.7,21.3,81.9,21.3z"
             class="st0" /><path
             id="path184"
             d="M81.4,25c0.1,0.6-0.9,0.8-0.7,0.1c0.2,0,0.2,0,0.3,0.1C81.1,25.1,81.2,24.9,81.4,25z"
             class="st0" /><path
             id="path186"
             d="M81.1,19.5c0.2,0,0.2,0.1,0.3,0.2c0,0.2-0.2,0.2-0.2,0.4c-0.4,0.3-1.2-0.4-0.5-0.5c0.1,0,0,0.2,0.1,0.2      C81,19.8,80.9,19.5,81.1,19.5z"
             class="st0" /><path
             id="path188"
             d="M79.7,18.4c0,0.1,0,0.2,0,0.3c-0.4,0.2-0.8-0.1-0.8-0.6c0.3-0.4,0.3,0,0.4,0.3      C79.4,18.3,79.6,18.3,79.7,18.4z"
             class="st0" /><path
             id="path190"
             d="M77.7,17.4c0.1,0,0.1,0.1,0.2,0.1c-0.1,0.3-0.3,0.5-0.6,0.4c-0.1-0.1-0.3-0.5,0-0.5c0.1,0,0.1,0.1,0.1,0.2      C77.6,17.6,77.5,17.4,77.7,17.4z"
             class="st0" /><path
             id="path192"
             d="M75.8,17.4c0.2,0.5-0.8,0.6-0.7,0c0.1-0.1,0.3,0,0.3,0.1C75.5,17.4,75.6,17.3,75.8,17.4z"
             class="st0" /><path
             id="path194"
             d="M73.9,33c0.5-0.1,0.9-0.5,1.3-0.2c-0.1,0.1-0.3,0.3-0.2,0.6C74.7,33.3,74.2,33.5,73.9,33z"
             class="st0" /><path
             id="path196"
             d="M74.4,34.8c0.4,0.4,0.9,1.3,0.4,1.8c-0.4-0.2-0.8-0.3-1-0.6c-0.1,0.1,0.1,0.4,0,0.6      c-0.6,0.2-0.8-0.4-1.1-0.8c-0.3,0-0.3-0.2-0.2-0.4c0.4,0.1,0.5,0.5,0.8,0.7c0.2-0.3-0.1-0.6,0-1c0.4,0.1,0.8,0.3,0.8,0.8      c0.7,0.2,0.3-0.6,0-0.8C74.2,35,74.2,34.8,74.4,34.8z"
             class="st0" /><path
             id="path198"
             d="M74.4,30.2c0.1,0.5-0.5,0.8-1,0.8c-0.1,0-0.8-0.1-1-0.2c-0.8-0.5,0.2-1.9,0.9-1      C73.8,29.8,74.2,29.9,74.4,30.2z"
             class="st0" /><path
             id="path200"
             d="M73.6,18c0-0.1,0.3-0.3,0.4-0.1c0,0.5-0.6,0.5-0.8,0.3C73.1,17.9,73.4,17.9,73.6,18z"
             class="st0" /><path
             id="path202"
             d="M72,18.7c0.1,0.4-0.6,0.5-0.8,0.3C71.3,18.7,71.8,18.7,72,18.7z"
             class="st0" /><path
             id="path204"
             d="M70.6,32.8c0.4-0.2,0.7-0.5,1.3-0.4c-0.1,0.2-0.2,0.3-0.2,0.6C71.2,33.1,70.8,33.1,70.6,32.8z"
             class="st0" /><path
             id="path206"
             d="M69.2,29.5c0.5-0.1,1,0.4,0.8,1c-0.3,0.3-1.2,0.3-1.9,0.3c-0.4,0-1,0-1.3-0.1c-0.5-0.4,0.1-1.2,0.6-1.2      c0.3,0,0.3,0.3,0.6,0.5c0-0.3,0.2-0.6,0.5-0.5c0,0.2,0.2,0.3,0.3,0.5C69.1,29.9,69,29.6,69.2,29.5z"
             class="st0" /><path
             id="path208"
             d="M69.5,18.4c0,0.1,0,0.4-0.3,0.4c0-0.2-0.1-0.3,0-0.5C69.4,18.4,69.5,18.4,69.5,18.4z"
             class="st0" /><path
             id="path210"
             d="M68.5,32.9c0,0.1,0.3,0,0.2,0.2c-0.4,0.4-1-0.2-1.3,0c0.2-0.5,0.7-0.5,1.3-0.5      C68.7,32.7,68.5,32.7,68.5,32.9z"
             class="st0" /><path
             id="path212"
             d="M67.2,36.2c-0.5,0.4-0.9-0.3-1.4-0.4c0,0.3,0.2,0.3,0.1,0.5c-0.8,0.3-1.4-0.7-1.4-1.3      c0.5-0.1,0.4,0.6,0.8,0.8c0.1-0.1,0.1-0.3,0.2-0.4c0.5-0.2,0.8,0.2,1.2,0.3c0.1-0.3-0.4-0.6-0.1-1      C66.9,35.1,67.1,35.7,67.2,36.2z"
             class="st0" /><path
             id="path214"
             d="M65,18.1c0.2,0.3,0.5-0.1,0.7,0.1c0,0.4-0.9,0.7-0.8,0C64.9,18.2,65,18.2,65,18.1z"
             class="st0" /><path
             id="path216"
             d="M65.3,33.1c-0.3,0.3-0.8-0.2-1.3-0.3c0-0.1,0-0.2,0-0.3c0.4-0.1,0.8-0.3,1.1-0.2      C65,32.7,65.2,32.9,65.3,33.1z"
             class="st0" /><path
             id="path218"
             d="M64.5,29.7c0.5,0.4,0.1,1.1-0.4,1.3c-0.4,0-0.6,0-1.1,0c-0.7-0.2-0.5-1.4,0.4-1      C63.6,29.7,64,29.6,64.5,29.7z"
             class="st0" /><path
             id="path220"
             d="M63.8,17.4c0.1,0.1,0.1,0.3,0,0.4c-0.3,0-0.3,0.1-0.6,0.1c-0.1-0.2-0.1-0.3,0-0.5      C63.4,17.4,63.6,17.5,63.8,17.4z"
             class="st0" /><path
             id="path222"
             d="M62.1,32.9c0,0.1,0.3,0,0.2,0.2c-0.5,0.1-1.3,0-1.6-0.4C61.1,32.5,62.2,32.1,62.1,32.9z"
             class="st0" /><path
             id="path224"
             d="M62.2,17c0,0.7-1,0.6-0.8-0.1c0.3-0.1,0.2,0.1,0.3,0.3c0.1,0,0.2-0.2,0.3-0.3C62.1,16.9,62.1,17,62.2,17z"
             class="st0" /><path
             id="path226"
             d="M60.2,17.2c0.1,0.3-0.4,0.6-0.7,0.4c0-0.2,0-0.3,0-0.5C59.9,17.3,59.9,17.2,60.2,17.2z"
             class="st0" /><path
             id="path228"
             d="M59.6,36.2c-0.5,0.2-0.6-0.6-1.1-0.6c-0.3,0.1-0.2,0.5-0.4,0.7c-0.5-0.1-0.7-0.5-0.8-1      c0.3-0.3,0.5,0.3,0.5,0.5c0.2-0.3,0.5-0.9,1-0.5c0.2,0.1,0.2-0.1,0.3-0.1C59.2,35.5,59.5,35.9,59.6,36.2z"
             class="st0" /><path
             id="path230"
             d="M57.9,17.9c0.3,0,0.3-0.3,0.6-0.2c0,0.5-0.3,0.7-0.9,0.6c0-0.2-0.1-0.2-0.1-0.3      C57.6,17.8,57.7,17.8,57.9,17.9z"
             class="st0" /><path
             id="path232"
             d="M56.4,19.3c0.2-0.1,0.4-0.3,0.5,0c-0.1,0.2-0.2,0.4-0.5,0.4c-0.1-0.1-0.3-0.3-0.2-0.5      C56.3,19.1,56.3,19.2,56.4,19.3z"
             class="st0" /><path
             id="path234"
             d="M56.3,24.6c0,0.1,0,0.2,0,0.3c-0.2,0.1-0.8,0.3-0.8-0.1C55.9,24.7,56,24.8,56.3,24.6z"
             class="st0" /><path
             id="path236"
             d="M55.7,20.8c0.6,0.3-0.3,0.8-0.5,0.3c0-0.2,0-0.2,0-0.3C55.5,20.8,55.6,21,55.7,20.8z"
             class="st0" /><path
             id="path238"
             d="M55.1,23.2c-0.4-0.4,0.5-0.6,0.8-0.5C55.8,23.3,55.4,23.1,55.1,23.2z"
             class="st0" /><path
             id="path240"
             d="M10.2,94.1c-0.5,0-1-0.1-1.3,0.1c0,0-0.4,0-0.2,0.1c1.3,0,2.9,0.3,4.3,0.2c1-0.1,2.2,0,2.8-0.1      c0.6-0.1,1.1-0.2,1.6-0.2s1,0.1,1.5,0c0.2,0,0.5-0.1,0.6-0.1c0.6,0,1.1,0.1,1.8,0c2-0.2,3.3-0.6,4.4-1.6      c0.5-0.5,0.9-1.4,1.3-2.2c0.1-0.3,0.3-0.8,0.4-1.1c0.4-1.7,0.6-3.5,0.7-5.2c0.3-0.7,0.3-2,0.5-3c0.1-1.1,0.4-2.3,0.6-3.1      c0.1-0.5,0.3-0.9,0.4-1.2c0.2-0.5,0.2-1.1,0.3-1.6c-0.3,0.4-0.5,1-0.7,1.6s-0.3,1.3-0.5,1.9c-0.1,0.6-0.4,1.1-0.5,1.7      c-0.1,0.7-0.2,1.3-0.3,2c-0.1,1-0.2,1.9-0.3,3c0,0.2-0.1,0.4-0.2,0.6c0,0.2,0,0.5-0.3,0.6c-0.1-2,0.5-3.9,0.7-6      c0-0.5,0.1-1,0.2-1.6c0.1-0.8,0.6-1.6,0.5-2.3c0-0.2-0.2-0.3-0.2-0.5c0-0.3,0.1-0.7,0.1-1s0.1-0.7-0.1-0.8      c-0.3,0.2-0.2,0.6-0.3,1c-0.1,1.3-0.7,2.8-0.6,4.3c-0.2,0.2-0.1,0.4-0.2,0.7c0,0.1-0.1,0.3-0.2,0.4c-0.1,0.5-0.2,1.2-0.3,1.8      c0,0.5,0,0.9,0,1.4c0,0.1-0.1,0.2-0.1,0.3c0,0.1,0,0.3,0,0.4c0,0.2-0.1,0.4-0.2,0.5c-0.1,0.6-0.1,1.3-0.2,1.8c0,0.3,0,0.6,0,0.9      c-0.1,0.4-0.5,0.9-0.3,1.4c-0.3,0.9-0.7,1.7-1.3,2.4c-1.3,1.3-3.4,1.9-5.4,1.9c-0.8,0-1.7,0.2-2.5,0.3c-1.8,0.1-3.5,0.1-4.9,0.3      C11.3,93.9,10.7,94.1,10.2,94.1z M8.6,95.7c0.7,0.1,1.7-0.1,2.5-0.1c0.9,0.2,2,0.1,3.2,0c0.4,0,0.8-0.1,1.2-0.1      c0.3,0,0.5,0.1,0.7,0.1s0.3-0.1,0.5-0.1c0.6-0.1,1.1,0,1.7,0c0.2,0,0.1,0.2,0.3,0.2c0.4-0.2,1,0.3,1.6,0c0.6,0.3,1.6-0.1,2.2,0      c0.1-0.1,0.2-0.2,0.3-0.3c0.7,0.2,1.3,0,2.1,0.2c0.8-0.6,1.7,0.7,2.6,0.1C28,95.8,28.6,96,29,96c0.5-0.1,1,0.1,1.6,0.2      c0.9-0.8,2.2,0.4,3.3,0c1.1,0.4,2.3,0.4,3.4,0.2c0.1,0,0.1-0.3,0.3-0.3c0.3,0.2,1.2,0.5,1.7,0.4c0.1,0,0.3-0.2,0.4-0.2      c0.2,0,0.5,0.1,0.7,0.2c0.5,0,1.1-0.2,1.3,0.3c0.4-0.3,1.1-0.3,1.6,0c0.1,0,0.1-0.2,0.3-0.2c0.6,0,1.1,0,1.5,0.2      c0.4,0.1,0.9,0.5,1.4,0.2c-0.2-0.2-0.5-0.2-0.4-0.5c0.2-0.6,1.7,0.3,2.2,0.1c0.4,0.2,0.9,0.2,1.4,0.4c0.4-0.3,0.8,0.1,1.1-0.2      c-0.3-0.4-1.1-0.4-1.5-0.8c0.9,0,1.6,0.7,2.6,0.6c0.2,0,0.4-0.2,0.6-0.3c0.2,0,0.5,0.1,0.8,0.2s0.6,0.2,0.9,0.2      c0.5,0,0.9-0.2,1.4-0.3c0.5-0.1,1,0.2,1.4,0c0.4,0.2,1,0.3,1.4,0.1c0.4,0.1,0.9,0.1,1.2,0c0.1,0,0.2-0.2,0.3-0.2      c0.4,0,0.8,0.2,1.2,0.2c0.3,0,0.6-0.3,0.8-0.3c0.6,0,1.2,0.4,1.9,0.4c0.2,0,0-0.3,0.3-0.3c1.4,0.4,2.6,0.8,3.9,1.3      c0.3-0.3,0.6,0,0.9,0c0.7,0.1,1.3-0.1,1.9-0.1c0.3,0,0.5,0.1,0.8,0c0.7-0.1,1.3-0.3,2-0.4c0,0.1-0.2,0.2-0.1,0.3      c0.8,0,1.9-0.3,2.7-0.6c0.7,0.4,1.6-0.3,2.2-0.3c-0.4,0.3-0.8,0.6-1.1,1c0.7,0.3,1.4-0.5,2.3-0.5c0,0.2-0.3,0.1-0.2,0.3      c0.5-0.1,1-0.3,1.6-0.5c0.5-0.1,1.1-0.3,1.5-0.5c0.5,0.5,1,0,1.5,0c0.3,0,0.6,0.2,1,0c0.4,0.5,1.1,0,1.7,0.2      c0.3,0.5,0.7,0.1,1,0.1c0.5,0,0.8,0.3,1.3,0.4c0.2,0,0.5-0.1,0.7-0.1c0.7,0,1.3,0.2,1.8-0.2c0.5,0.1,0.9,0.2,1.3,0      c0.2,0.2,0.4,0.2,0.8,0.2c0.6-0.4,1.9-0.5,2.7-0.3c0.3-0.3,0.9-0.1,1.3-0.3c0.2,0.1,0.2,0.3,0.5,0.4c0.2-0.1,0.4-0.2,0.6-0.3      c0.2,0.1,0.3,0.2,0.5,0.4c0.6,0.1,1-0.2,1.5-0.3c0.2,0.1,0.4,0.2,0.6,0.1c0.2,0.2,0.5,0.5,0.9,0.5c0.2,0,0.4-0.2,0.5-0.3      c0.4-0.1,1.1-0.1,1.7-0.3c0.3-0.1,0.5-0.3,0.8-0.3c0.4,0,0.7,0.2,1,0c0.1,0.1,0,0.1,0,0.2c0.2,0,0.3-0.2,0.4,0      c-0.1,0-0.3,0.3-0.3,0.5c0.8,0.1,1.7-0.2,2.4-0.5c0.5,0.2,1.2-0.2,1.7-0.1c0.2-0.2,0.7-0.2,0.8,0.1c0,0.2-0.2,0.2-0.2,0.4      c0.7,0.2,1.1-0.4,1.9-0.3c-0.1,0.1-0.4,0-0.4,0.3c0.3,0.3,0.5-0.1,0.8-0.1c0.2-0.1,0.4,0,0.6,0c0.6-0.1,1.2-0.4,1.6-0.6      c0.5,0,0.8,0.4,1.1,0.4c0.2,0,0.5-0.2,0.8-0.2c0.1,0,0.2,0.1,0.4,0.1c0.1,0,0.3-0.1,0.4-0.1s0.2,0.2,0.3,0.2      c0.4,0,0.9-0.2,1.3-0.2c0.2,0,0.4,0.1,0.5,0.1c1,0,1.9-0.5,2.9-0.1c1.5-0.3,3.5,0.1,5.2-0.4c0.3-0.9-0.9-0.3-1.3-0.3      c-0.6,0-1.1-0.1-1.5-0.2c-0.1,0-0.2,0.1-0.3,0.1c-0.5-0.1-1.1,0-1.6-0.1c-0.4,0-0.8,0-1.2,0c-1.5,0-3,0-4.5-0.1      c-0.1,0-0.3,0-0.4,0c-1.1,0-2.2-0.1-3.2-0.4c-0.1,0.1-0.2,0.1-0.4,0.1c-0.6-0.3-1.3-0.1-1.9-0.2c-0.3-0.1-0.6-0.3-0.9-0.2      c-0.5-0.3-1-0.2-1.6-0.3c-0.4,0-0.8-0.2-1.3-0.3c-0.1,0-0.3,0.1-0.4,0c-0.1,0-0.2-0.1-0.3-0.1c-0.1,0-0.3,0-0.4,0      c-0.6,0-1.2-0.2-1.7-0.2c-0.3,0-0.6,0.3-0.9,0.3s-0.4-0.1-0.7-0.1c-0.1,0-0.2,0.1-0.3,0.1c-1.6,0.2-2.9,0-4.4,0.1      c-0.3,0.3-0.9,0.1-1.2,0c-0.5-0.1-1.6,0-2.1,0c-1.4,0.3-2.8-0.1-4.3,0.2c-0.4,0.1-0.8,0.3-1.2,0.3c-0.3,0-0.6-0.3-0.9-0.3      s-0.5,0.3-0.7,0.3c-0.1-0.1,0-0.3-0.2-0.3c-0.3,0.1-0.4,0.3-0.8,0.3c-0.1-0.1-0.1-0.2-0.2-0.4c-0.1,0-0.2,0.2-0.3,0.1      c0-0.1,0-0.3,0.1-0.5c-0.2-0.1-0.3,0.3-0.5,0.2c-0.2-0.5,0.4-0.9,0.5-1.5c0.4-0.4,1.1-0.3,1.8-0.5c0.2-0.1,0.4-0.3,0.6-0.3      s0.5-0.1,0.7-0.2c0.7-0.1,1.3,0,1.8,0.1c0.6,0,1.3,0,1.9-0.1c0.5,0,1-0.2,1.6-0.1c0.4,0,0.7,0,1.1,0c0.3,0,0.6,0,0.9,0      c0.7,0,1.5-0.2,2.2-0.2c0.8,0,1.5-0.2,1.1-1H101c-0.7,0-1.5,0.2-2.2,0.2c-0.2,0-0.3-0.1-0.5-0.1c-0.7,0-1.8,0.2-2.6,0.2      c-0.3,0-0.5,0-0.7,0c-0.8,0-1.6,0.2-2.4,0.2c-0.1,0-0.2,0-0.3,0c-0.6,0-1.2,0.2-1.8,0.2c-0.5,0-1-0.1-1.4,0      c-0.4,0-0.7,0-1.1,0.1c-0.3,0-0.5,0.2-0.8,0.2c-0.2,0-0.3-0.1-0.5-0.1c-0.3,0-0.6,0.3-0.9,0.1c-0.1-0.1,0.1-0.3-0.1-0.3      c-0.4,0-0.7,0.4-1,0.3c-0.2-0.1,0.1-0.3,0.1-0.5c-0.3,0-0.5,0.4-0.8,0.2c0-0.5,0.5-0.5,0.6-0.9c-0.2-0.4-0.6-0.1-0.9,0      s-0.8,0-1.1,0.3c-0.4,0-0.5,0.2-0.8,0c-0.3,0.3-0.7,0.6-1.3,0.7c-0.1,0-0.1,0.2-0.2,0.3c-0.7,0.4-1.3,1-2.3,1      c-0.4,0.3-0.7,0.6-1.4,0.6c-0.6,0.4-1.5,0.8-2.3,0.9c-0.2,0.1-0.3,0.3-0.5,0.3c-0.3,0.1-0.8,0-1.2,0.1c-0.2,0-0.4,0.2-0.5,0.2      s-0.3-0.1-0.4,0c-0.2,0-0.3,0.1-0.4,0.2c-0.4,0.1-0.8,0.2-1.3,0.2c0.2-0.2,0.4-0.4,0.6-0.6c1.1-0.4,1.9-1.1,2.9-1.6      c1.3-0.8,2.5-2,3.7-2.8c0.4-0.3,0.8-0.3,1.2-0.2c1.9,0.2,4.8-0.3,6.7,0.1c0.5-0.5,1.3-0.9,2.3-0.7c0.6-0.3,1.5-0.1,2.3-0.2      c1-0.1,2.2-0.3,3.2-0.4c1.6-0.1,3.3-0.3,4.4-0.7c0.4-0.4,0.5-0.7,0.6-1.2c0.1-0.4,0.2-0.8,0.3-1.4c0-1.5-0.2-3.1-0.4-4.3      c-0.1-0.5-0.2-1-0.2-1.4s-0.1-0.8-0.2-1.1c-0.1-0.9-0.1-1.4-0.2-2.2c-0.1-1-0.2-2.1-0.5-2.9c0-0.2-0.2-0.3-0.3-0.5      c-0.3-0.5-0.5-1.1-0.7-1.7c-0.4-1-0.5-2-0.7-3c-0.1-0.5-0.3-0.9-0.3-1.3c0-0.3,0.1-0.5,0.1-0.9c0-0.3-0.1-0.6,0-0.9      c0-0.5,0.2-0.9,0.3-1.3c0.1-1,0.1-1.6,0.5-2.3c0.1-0.1,0.2-0.2,0.3-0.4c0.2-0.3,0.3-0.7,0.4-1.1c0.1-0.2,0.3-0.5,0.3-0.7      c0.1-0.3,0-0.8-0.1-1.3c-0.1-1.2-0.4-2.2-0.4-3.3c0-1.4-0.1-2.9-0.3-4.1c-0.1-0.3-0.2-0.9-0.4-1.1c-0.3-0.2-1-0.2-1.3-0.2      c-0.8,0-1.8,0.4-2.7,0.5c-0.1,0.1-0.3,0.3-0.4,0.4c-0.1,0-0.1-0.1-0.3-0.1c-0.1,0.2-0.3,0.2-0.3,0.4c-0.2,1.6-0.2,3.7-0.3,5.8      c-0.1,2.6-0.4,5.4-0.8,7.7c0,0.1,0,0.2,0,0.3c0,0.3-0.2,0.4-0.1,0.7c-0.1,0.1-0.1,0.2-0.2,0.3c0.1,0.5,0,0.9-0.1,1.5      c-0.1,0.5-0.3,0.9-0.3,1.4c-0.1,0.5-0.1,0.9-0.2,1.4c-0.3,2-1.2,4-1.8,5.9c-0.3,0.8-0.7,1.6-1.1,2.3c0,0.1-0.1,0.2-0.1,0.4      c-0.5,0.6-0.8,1.3-1.2,2c-0.3,0.5-0.6,1.2-1.1,1.5c-0.2,0.9-1,1.2-1.3,2c-1.2,1.1-2.2,2.4-3.5,3.4c-0.9,1.3-2.4,2.2-3.4,3.4      c-1.4,1.1-2.8,2.3-4.5,3.1c-0.6,0.4-1.5,1.2-2.3,1.3c-0.7,0-1-0.8-1.8-0.8c-1-0.7-1.9-1.4-2.8-2.2c-0.5-0.4-1-0.8-1.5-1.2      c-0.9-0.8-1.7-1.6-2.5-2.4c-0.2-0.2-0.4-0.4-0.6-0.6c-0.1-0.1-0.2-0.3-0.3-0.5c-0.6-0.5-1.2-0.9-1.6-1.7c-0.6-0.5-1.3-1.3-1.7-2      c-0.1-0.2-0.2-0.4-0.4-0.6c-0.1-0.2-0.4-0.4-0.5-0.6c-0.1-0.1-0.1-0.3-0.2-0.4c-0.9-1.2-1.9-2.4-2.6-3.8      c-0.2-0.4-0.5-0.8-0.7-1.2c-0.3-0.6-0.6-1.4-0.9-2.1c-0.2-0.4-0.4-0.8-0.6-1.2c-0.2-0.4-0.3-0.9-0.5-1.3      c-0.6-1.5-1.4-3.2-1.5-4.7c0-0.1-0.1-0.2-0.2-0.3c0-0.7-0.3-1.3-0.4-2.1c-0.2-1.3-0.2-2.7-0.3-4c0-0.7-0.2-1.3-0.1-1.9      c0.1-0.6,0-1.4,0-2c-0.1-2.5,0.3-4.8,0.3-7c0.1-0.3,0.1-0.5,0-0.7c-0.4,0-0.6,0.1-0.9,0c-0.5-0.1-0.7-0.6-1.1-0.8      c-0.7-0.4-2.2-0.1-3.4-0.3c0,0,0,0.1-0.1,0.1c0.1,0.6,0.1,1.3,0,2s-0.4,1.4-0.4,2.1c-0.1,1.4-0.2,2.7-0.5,3.9      c-0.1,0.4-0.3,0.7-0.3,0.9c0,0.3,0.1,0.9,0.3,1.2c0.2,0.7,0.7,1.2,0.9,1.9c0.1,0.4,0.2,0.7,0.3,0.9c0.1,0.5,0.1,1,0.1,1.5      c0.1,0.6,0.3,1.2,0.2,1.9c-0.1,1.1-0.3,2.1-0.5,3.2c-0.2,0.8-0.3,1.6-0.6,2.2c-0.3,0.7-0.9,1-1.2,1.7v0.1c0,0-0.1,0.1-0.1,0.2      c-0.2,0.6-0.1,1-0.1,1.6c0,0,0,0.2-0.1,0.2c-0.3,4.2-0.6,8.1-1,12c0.3,1.3,2,1.1,3.2,1.3c1.5,0.2,3.5,0.5,5.2,0.7      c0.9,0.1,1.7-0.2,2.5,0c0.4,0.1,0.7,0.3,1.1,0.4c0.3,0.1,0.6,0.1,0.8,0.2c0.3,0.1,0.5,0.5,0.8,0.5c1.1,0.1,2.5,0.1,3.7,0.1      c0.4,0,0.8-0.1,1.1-0.1s0.6,0.2,0.9,0.2c0.5,0,1.4,0.1,1.9,0.3c1.5,1.6,3.2,2.9,5.1,4.1c0,0.3,0.5,0.4,0.5,0.6      c-1.6-0.3-2.5-0.9-3.9-1.2c-0.3-0.5-0.7-0.5-1.2-0.7c-0.6-0.2-1.1-0.3-1.6-0.5s-1-0.5-1.6-0.5c-0.4-0.5-1.4-0.5-2.1-0.8      c-0.1-0.2-0.2-0.5-0.4-0.6c-0.6,0.2-1.1-0.5-1.5-0.3c0,0.1,0.5,0.2,0.4,0.5c-0.2,0-0.3-0.2-0.6-0.1c0,0.2,0,0.2,0,0.4      c-0.3,0.1-0.4,0.1-0.7,0c0,0.1,0.1,0.3,0,0.3c-0.2,0-0.3-0.1-0.6,0c-0.2-0.3-0.6-0.3-1-0.4c-0.5,0-1.1,0.1-1.6,0      c-0.3,0-0.5-0.2-0.8-0.2c-1.4-0.2-2.8-0.2-4.3-0.3c-1.9-0.2-3.3-0.1-5-0.2c-1.3-0.1-2.7-0.2-4-0.3c0.3,0.8,1,0.7,1.8,0.9      c0.4,0.1,0.9,0.2,1.3,0.3c1.2,0.1,2.1,0.2,3.2,0.1c1.4-0.1,2.7,0.4,3.6,0.4c0.4,0,0.8-0.2,1.1-0.2s0.9,0.3,1.2,0.4      c0.7,0.3,1.5,1,1.9,1.5c0.2,0.2,0.3,0.5,0.3,0.8c-0.2,0-0.3-0.4-0.5-0.3c-0.2,0.3,0.2,0.3,0.2,0.5c-0.3,0-0.5,0-0.8-0.1      c0,0.2,0.2,0.2,0,0.3c-0.8-0.6-2.1-0.2-3-0.4c-0.2,0-0.4-0.1-0.6-0.2c-0.9-0.1-1.9,0.1-2.8-0.1c-1.1-0.2-2.4,0-3.2-0.2      c-0.5-0.1-1.1-0.1-1.7-0.2c-0.5,0-0.8-0.2-1.3-0.1c-0.4,0-0.8,0.2-1.1,0.2c-1,0.1-2.1-0.4-3.1-0.1c-0.3-0.3-0.7-0.2-1.1-0.2      c-0.4,0.1-0.8,0-1.3,0.1c-0.2,0-0.3,0.1-0.5,0.1c-0.3,0.1-0.7,0-1,0c-0.8,0.1-1.6,0-2.3,0.1c-0.1,0-0.3,0.1-0.4,0.1      c-0.2,0-0.3,0-0.5,0c-0.8,0.2-1.6,0.5-2.3,0.6c-2.5,0.3-5.5,0.1-8.8,0.2c-0.8,0-1.6,0.1-2.4,0.1c-1.6-0.1-2.7-0.4-3.9-0.3      c0.3,0.4,0.8,0.6,1.2,0.9C8.4,95.5,8.7,95.7,8.6,95.7z M7.5,93.4C8.8,93,10.7,93,11.9,93c0.2-0.1,0.5-0.2,0.7-0.2      c2.6-0.2,5.2,0,7.5-0.7c0.8-0.2,1.5-0.4,2.1-0.7c0.3-0.4,0.7-0.5,1.1-0.8c0.9-0.9,1-2.4,1.3-3.6c-0.1-2.1,0.3-4.8,0.4-7.6      c0-1.1,0-2.4,0.1-3.2c0.1-0.8,0.3-1.9,0.3-2.5c-0.1-1.2-0.4-2.4-0.4-3.5c0-1.6-0.1-3.2,0.1-4.6c0.2-1.6,0.4-3,0.8-4.5      c0.2-0.7,0.4-1.4,0.7-2.1c0.3-0.6,0.6-1.3,0.8-2c0.1-0.5,0.2-1,0.3-1.5c0.1-0.5,0.2-1,0.4-1.4c0.2-0.5,0.6-0.9,0.8-1.4      c0.1-0.2,0.1-0.5,0.2-0.8c0.1-0.2,0.3-0.5,0.3-0.7c0.3-0.8,0.4-1.8,0.7-2.7c0.3-0.8,1-1.6,1.1-2.4c0.2-0.9,0-1.9-0.1-2.6      c-0.2-1.5-0.1-3.1,0.3-4.4c0-0.7,0.2-1.2,0.3-1.9c0.2-1.4,0-2.7-0.2-4.1c0-0.4-0.2-0.8-0.2-1.2c0-0.3,0.1-0.6,0-0.9      c0-0.3-0.2-0.7-0.3-1.1c-0.1-0.5-0.1-1.1-0.2-1.6c-0.2-0.9,0-1.9-0.1-2.6c-0.5-0.8-0.7-1.5-0.8-2.4c0-0.2-0.1-0.5,0-0.8      c0-0.5,0.5-1.8,0.8-1.9c0.3,0,0.6,0.3,0.8,0.5c0.5,0.5,1.1,1,1.4,1.6c0.2,0.4,0.2,1.2,0.5,1.3c0.4,0.1,1.1-0.9,1.3-1.1      c0.5-0.8,0.6-2.1,1.3-2.6c0.4,0,0.4,0.4,0.5,0.7c0.2,0.5,0.5,1.1,0.4,1.9c-0.5,0.6-0.5,1.7-0.9,2.4c-0.3,0-0.8-0.2-1,0      c0.2,0.3,0.7,0.1,1,0.3c0.4,0.1,0.7,0.3,1.1,0.3c0,0.3,0.3,0.2,0.5,0.3c0.3,0.2,0.4,0.7,0.7,0.9c-0.6,0.5-0.1,0.9,0.3,1.3      c0.4,0.4,1.2,0.8,1.4,1.3s-0.2,1.1-0.5,1.6c-0.5,0.1-0.8,0.5-1.4,0.3c-0.3,0.3-0.8,0.3-1.1,0.5c-0.1,0.9,0.5,1.5,0.7,2.2      c0.1,0.3,0.1,0.6,0.2,0.9c0.2,0.4,0.7,0.8,1.1,1.2c0.3,0.4,0.8,0.9,0.9,1.3c0.1,0.3-0.1,0.8,0.3,0.9c-0.1-0.8,0.5-1.1,0.7-1.8      c0.5-0.4,0.8-1,1.5-1.2c0.4-0.4,0.9-0.6,1.5-0.9c0.4-0.2,0.8-0.4,1.3-0.6c1-0.4,2.3-1,3.4-1.4c0.5-0.2,1.1-0.5,1.7-0.7      c0.6-0.1,1.4-0.5,2-0.4c0.3,0,0.6,0.4,0.6,0.6c0,0.4-0.5,0.6-0.8,0.9c-0.4,0.3-0.7,0.5-1,0.7c-0.8,0.5-1.6,0.8-2.2,1.3      c-0.6,0.4-1.4,0.8-2.1,1.3c-0.6,0.5-1.4,0.9-2,1.5c-0.3,0.3-0.7,0.7-0.8,1c-0.3,0.8,0.2,2.1,0.5,2.7c0.1,0.3,0.3,0.7,0.4,0.8      c0.1,0,0.8-0.2,1.1-0.3c0.4-0.1,0.7-0.3,1.1-0.5c0-0.7,0.4-1.1,0.9-1.4c-0.2-0.5,0.3-0.6,0.6-0.8c0.2-0.2,0.3-0.5,0.5-0.5      s0.4,0.2,0.5,0.2c0.2,0,0.4-0.3,0.6-0.3c0.3,0,0.5,0.3,0.7,0.5c0.4-0.3,0.9,0.1,0.8,0.5c0.3,0,0.4-0.2,0.5,0      c0.2,0.2,0.1,0.5,0.1,0.8C55.4,41,59,41,62.1,41c2.4,0,5.4,0.1,7.5,0.1c2.3,0,4.4,0,7.3,0.1c2.3,0,5,0.2,7.3,0.1      c0.3-0.3,0.2-0.9,0.6-1.1c0.2,0,0.3,0.1,0.5,0c0.3-0.1,0.4-0.4,0.7-0.4c0.5,0,0.6,0.4,1,0.5c0.2,0,0.4-0.2,0.6-0.2      c0.4,0,1.1,0.4,1.2,0.5s0.1,0.3,0.2,0.4c0.2,0.2,0.4,0.3,0.5,0.4c0.1,0.2,0,0.6,0.3,0.9c0.1,0.2,0.6,0.3,0.9,0.4      c0.3,0.2,0.6,0.3,0.9,0.3c0.4-0.3,0.4-0.9,0.6-1.5c0.1-0.5,0.4-1.1,0.3-1.6c-0.2-0.7-0.8-0.9-1.1-1.5c-1.9-1.3-3.6-2.7-6-3.5      c-0.4-0.4-1-0.6-1.5-0.9c-0.8-0.7-0.4-1.6,0.7-1.7c0.2,0.2,0.5,0.1,0.7,0.1c0.8,0.2,1.6,0.7,2.4,1c0.4,0.1,0.8,0.2,1.1,0.3      c0.3,0.1,0.7,0.3,1.1,0.5c1,0.4,1.9,0.9,2.8,1.4c0.3,0.2,0.7,0.3,1,0.5c1.4,0.8,2.5,2.4,2.3,4.3c0.4-0.2,0.3-0.5,0.3-1.1      c1.2-1.5,2.6-2.8,3.3-4.7c0.2-0.5,0.3-1.1,0.2-1.7C98.8,33,98,32,97,32.3c-0.6-0.3-0.7-1-0.7-1.6c0.6-0.3,1.5-1,2-1.5      c0.2-0.2,0.3-0.4,0.3-0.7c0-0.3-0.3-0.4-0.3-0.7c0.4-0.7,1.5-0.7,2.1-1.2c-0.7-1.6-1.3-4.6,0.3-5.6c0.3,0.3,0.6,0.7,0.7,1.2      c0.3,0.8,0.5,2.2,1.2,2.6c0.8,0.6,1-0.3,1.3-1c0.5-1,1.1-2.1,2.2-2.3c0.3,0.4,0.3,1,0.3,1.5s0.1,1.1,0,1.6s-0.3,1-0.4,1.5      c-0.2,1.2-0.1,2.5-0.3,3.8c0,0.3-0.2,0.6-0.2,0.9c-0.1,1.1-0.2,1.8-0.4,2.7c-0.2,0.8-0.5,1.5-0.5,2.2s0.1,1.1,0.3,1.8      c0.1,0.3,0.1,0.6,0.2,1c0.3,1.8,0.5,3.7,0.4,5.6c-0.1,0.8-0.4,1.7-0.4,2.4c0,0.9,0.4,1.5,0.7,2.2c0.3,0.6,0.4,1.3,0.6,2.1      c0.3,1,0.7,2.1,0.9,3c0.2,0.9,0.7,1.6,0.9,2.5c0.3,1.1,0.5,2.3,0.9,3.2s1,1.6,1.3,2.4c0.1,0.5,0.3,1.1,0.4,1.6      c0.1,0.7,0.3,1.3,0.3,2c0.1,1.5-0.2,3.1-0.3,4.6s0,2.2,0,3.3c0,1.3,0.2,2.6,0,4.1c-0.1,1,0,2.2,0,3.4c0,1.4,0,2.8,0.2,3.8      c-0.2,2.4,0.3,4.9,1.3,6.3c0.8,0.7,1.4,1,2.5,1.3c0.4,0.1,0.8,0.3,1.2,0.4c0.5,0.1,0.9,0.1,1.4,0.2c0.3,0,0.6,0.1,0.9,0.2      c1,0.1,2.1,0.1,3.2,0.2c1,0,2.1,0,3,0.1c0.3,0,0.5,0.1,0.8,0.2c0.3,0,0.6,0,0.9,0c1,0.2,2,0.2,2.4,1.1c0,0.2-0.1,0.3-0.1,0.6      c0.2,0.2,0.5,0.2,0.6,0.5l0,0l0,0c0,0.3-0.1,0.4-0.2,0.6c-0.5,0.2-1,0.5-1.5,0.6c-1.4,0.3-3.3,0.3-4.9,0.3c-0.5,0-1,0-1.5,0.1      c-2,0.2-4.4,0.4-6,0.5c-1.9,0.1-3.6,0.4-5.4,0.6c-1.3,0.1-2.6,0.3-4.1,0.2c-1.1,0-2.2,0.2-3.3,0.1c-0.4,0-0.8,0-1.1,0      s-0.7,0.1-1.1,0.1c-0.3,0-0.5-0.1-0.8-0.1s-0.6,0.1-1,0.1c-0.3,0-0.5,0-0.8,0c-0.6,0-1.2,0.2-1.8,0.2c-0.6,0-1.2,0-1.9,0      c-2,0.3-3.8,0.3-5.6,0.5l0,0l0,0c-1.3,0-2.8-0.1-4.3,0c0,0,0,0-0.1,0h-0.1c-2.5,0-4.4-0.2-6.5-0.3c-2.2-0.1-4.4-0.4-6.7-0.6      c-1.1-0.1-2.3-0.1-3.3,0C66,98.7,65,98.9,64,99c-1,0.1-2,0-3.1,0c-1,0-2.1,0.1-3.1,0.1s-2,0-3.1,0.1c-1.1,0-2.5,0.1-3.7,0      c-3.5-0.2-6.5-0.4-10-0.4c-0.3,0-0.5,0-0.8-0.1c-0.3,0-0.5,0-0.8,0c-0.5,0-1.1-0.1-1.7-0.1c-1.2,0-2.4-0.2-3.6-0.3      c-1.1-0.1-2.2-0.4-3.4-0.5c-1-0.1-2.4,0-3.6-0.2c-0.6-0.1-1.2-0.3-1.8-0.5c-0.6-0.2-1.3-0.5-1.9-0.6s-1.4,0-2.2-0.1      c-0.7,0-1.3-0.2-2-0.2c-0.6,0-1.2,0-1.9,0c-1.4-0.1-2.7,0-3.9-0.2c-2.2-0.2-3.9-0.1-5.9-0.5C7.6,96.1,7.2,96,6.9,96      c-0.4-0.1-0.6-0.3-1-0.6c0-0.1,0-0.2,0-0.3c0.3-0.4,1.2-0.5,0.8-1.3C7,93.7,7.2,93.5,7.5,93.4z M44.2,43.6      c-0.1-0.7-0.8-1.6-0.9-2.7c0-0.4,0.1-0.7,0.1-1.1c0-1,0.4-1.6,0.9-2.4c0.2-0.1,0.5-0.3,0.4-0.5c-0.4,0.1-0.8,0.3-1,0.6      c-0.3,0.3-0.7,1.2-0.8,1.6c0,0,0,0.2,0,0.3c-0.2,1.2,0,2.1,0.4,2.9C43.6,42.8,43.9,43.4,44.2,43.6z M127.1,95.6      c0.4,0,1.1,0,1.1-0.5c-2.6-0.3-4.4-0.5-6.8-0.4c-1.2-0.3-2.3-0.2-3.4-0.3c-0.3,0-0.7-0.2-1-0.2c-0.1,0-0.3,0-0.4,0      c-1.1-0.1-2.2-0.4-3.2-0.7c-0.2,0-0.7-0.4-0.8-0.5c-0.1-0.1-0.1-0.2-0.2-0.3c0,0-0.2,0-0.3-0.1c-0.3-0.3-0.4-0.6-0.7-0.9      s-0.5-0.5-0.7-0.8c-0.1-0.3-0.3-0.5-0.4-0.8c-0.3-0.6-0.3-1.3-0.4-2.1c-0.2-1.3-0.3-2.3-0.4-3.6c-0.1-1.4-0.1-2.7-0.3-4      c0-0.5-0.2-1.1-0.3-1.7c0-0.6,0-0.7-0.5-1c-0.6,0.6-0.1,1.1,0.1,1.9c0,0.1,0,0.3,0,0.5c0,0.3,0.2,0.6,0.3,0.9      c0.1,0.8,0,1.4,0,1.7c0,0.2,0.1,0.3,0.1,0.5c0,0.5-0.1,1.1,0,1.6c0,0.3,0.2,0.5,0.2,0.8c0,0.1-0.1,0.2-0.1,0.3      c0,0.8,0.2,1.7,0.3,2.4c0,0.6,0.4,1.2,0.3,1.8c-0.2-0.2-0.2-0.1-0.4,0c-0.3-0.6-0.2-1.2-0.2-1.8c-0.1-1.2-0.3-2.3-0.4-3.4      c-0.1-0.8,0.1-1.8,0-2.6c-0.2-1.7-0.8-3.3-1.1-5c-0.1-0.4-0.5-0.9-0.5-1.2c-0.3-0.3-0.3-0.8-0.7-1.1c-0.2,0.1-0.4,0.3-0.5,0.5      c0.4,0.4,0.7,0.8,0.9,1.3c0.6,1.5,0.8,3.6,0.9,5c0,1.1,0.2,2.1,0.3,3.3c0,1.1,0.1,2.1,0.2,3c0.1,0.6,0.3,1.3,0.4,1.9      c0,0.3,0,0.5,0,0.7c0.1,1,0.9,1.3,1.3,2.2c0.2,0,0.3,0.1,0.4,0.2c0.2,0.2,0.3,0.5,0.5,0.6c0.1,0.1,0.3,0.1,0.5,0.2      c0.5,0.2,0.8,0.7,1.5,0.6c1.7,1,4.3,1.4,6.4,0.9c0.5,0.3,0.9,0.1,1.4,0.2c2,0.2,3.8,0.1,5.5,0.2      C126.3,95.7,126.6,95.6,127.1,95.6z M109.5,93.3c0-0.4-0.3-0.5-0.5-0.8s-0.3-0.6-0.5-0.8c-0.5-0.4-1.6,0-2.4-0.1      c-0.3,0-0.6-0.2-0.8-0.1c-0.3,0.4,0.1,1,0.3,1.4c0.3,0.1,0.7,0.2,1.1,0.2C107.6,93.2,108.6,93.3,109.5,93.3z M108,90.7      c0.1-0.5-0.1-1.1-0.2-1.7c-0.2-1.1-0.3-2.4-0.5-3.8c-0.2-1.3-0.2-2.4-0.3-3.8c0-0.4-0.2-0.7-0.2-1c0-0.1,0.1-0.3,0.1-0.4      c0-0.2-0.1-0.5-0.1-0.7c-0.1-1.4-0.4-2.6-1.1-3.6c0,0,0,0-0.1,0c-0.4,0.4-1.3,0.5-1.5,1.1c-0.1,0.3-0.2,0.8-0.2,1.2      c0,0.5,0.1,1,0.1,1.5c0,0.2,0,0.5,0,0.8c0,0.4,0.2,0.9,0.2,1.3c0,0.8,0,1.5,0.1,2.3c0,0.7,0.2,1.4,0.3,2.2      c0.2,1.5,0.2,3.1,0.5,4.5C106.1,90.5,107.2,90.7,108,90.7z M106.1,23.8c0-0.4-0.2-0.8-0.2-1.2c-0.1-0.1-0.2-0.2-0.3-0.3      c-0.8,0.5-1.2,1.2-1.3,2.3c-0.2,0.3-0.5,0.6-0.9,0.7c0,0.2,0,0.2,0,0.4c0.4,0,0.7,0.2,1,0.2c0.1-0.3-0.1-0.5,0-0.9      c0.3-0.1,0.3-0.4,0.6-0.5c-0.1,0.3,0.3,0.1,0.4,0.1c0.3,0.3,0,0.5,0.1,1C105.7,25.1,106.1,24.5,106.1,23.8z M105.3,28.4      c0.2-0.6,0.1-0.9,0.2-1.7c-0.3,0-0.7,0.3-0.7,0.6c0,0.1,0.2,0.3,0.2,0.4C105.1,27.9,105.1,28.4,105.3,28.4z M105.1,93.8      c0.1-0.8-0.3-1.4-0.4-2.2c-0.1-0.5-0.1-1.1-0.2-1.7c-0.3-1.8-0.4-3.4-0.5-5c0-0.5-0.2-1.1-0.3-1.7c0-0.7-0.2-1.3-0.3-1.9      c0-0.2,0-0.3,0-0.5c0-0.3-0.2-0.8-0.2-1.1c-0.1-0.4,0-0.8-0.1-1.2c-0.1-0.4-0.4-0.6-0.5-0.9c-0.1-0.6,0.5-1.3,0.6-1.8      c0.2-0.3,0.9-0.8,0.8-1.2c0-0.2-0.5-0.3-0.6-0.5c0-0.1-0.1-0.2-0.1-0.3c-0.1-0.5-0.1-1.2-0.6-1.4c-0.5,0.1-1-0.1-1.2,0.3      c0,0.6,0.9,0.9,0.5,1.6c-0.5-0.1-0.5-0.6-1-0.6c0.3,0.8,1,1.4,0.7,2.4c-0.1,0-0.3-0.1-0.5-0.1c0-0.4-0.3-0.5-0.5-0.7      c0-0.4-0.3-0.5-0.2-0.9c-0.2-0.5-0.6-0.8-0.8-1.3c0-0.1,0-0.3,0-0.4c-0.1-0.4-0.3-0.8-0.5-1.2c-0.3-1-0.5-2.2-0.5-3.1      c0-0.4,0-0.9,0.3-1.2c0.2,0,0.3,0.5,0.5,0.4c0.3-0.6,0.3-1.5,0.3-2c0.1-0.2,0.3-0.5,0.2-0.8c0.6-1.4,1.7-2.3,2.6-3.4h-0.1      c0,0-0.1,0-0.1,0.1c-0.6,0.2-1,0.6-1.4,1c-0.3,0.3-0.7,0.5-0.9,0.8c-0.2,0.3-0.4,0.8-0.6,1.1c-0.4,0.8-0.8,1.4-1,2.2      c0,0.5-0.2,0.9-0.3,1.3c-0.2,1.6,0.1,2.9,0.4,4.2c0.1,0.4,0.2,0.6,0.2,0.8c0,0.2,0,0.3,0,0.4c0,0.3,0.3,0.5,0.3,0.8      c0,0.2,0,0.4,0,0.6c0,0.1,0.2,0.3,0.2,0.4c0,0.2,0,0.4,0.1,0.6c0,0.2,0.2,0.4,0.2,0.6c0,0.4,0,0.8,0.1,1.2      c0.1,0.5,0.3,1,0.4,1.5c0.1,0.6,0.3,1.3,0.2,1.9c0.1,0.3,0.1,0.5,0.2,0.7c0,0.2-0.1,0.2-0.1,0.3c0,1,0.3,1.6,0.4,2.3      c0,0.2,0,0.5,0,0.7c0,0.5,0.1,1,0.1,1.3c0,0.1,0,0.3,0,0.4c0,1.6,0.4,3.7,0.4,5.4c-0.2,0.2-0.5,0.4-0.8,0.5      c-0.5,0.1-1.1,0-1.6,0.1c-0.3,0-0.6,0.2-0.9,0.3c-1.1,0.2-2.2-0.1-3.1,0.3c-1-0.4-1.8,0.3-3,0.1c-0.2,0.2-0.6,0.2-0.6,0.5      s0.6,0.3,0.7,0.7c0,0.2-0.3,0.1-0.3,0.3c0.1,0.3,0.5,0.2,0.7,0.1c0.3,0,0.7,0,1-0.1c0.3,0,0.7,0,0.9,0c0.3-0.1,0.4-0.5,0.7-0.5      c0.3,0.1,0.5-0.1,0.9-0.1c0.1,0,0.3,0.1,0.4,0.1c0.2,0,0.4-0.1,0.6-0.1c1.1,0,2.2-0.1,3.4-0.1c0.8,0,1.6,0,2.3-0.2      c0.3-0.7,0.2-1.4,0.2-2.2c0-0.5,0-1.1,0-1.6c0-0.7,0.2-1.5,0.1-2.3c0-0.6-0.3-1.1-0.2-1.5c0,0.3,0.2,0.5,0.3,0.8      c0.1,0.3,0,0.7,0,1s0.2,0.6,0.2,1c0.1,0.9,0,2.3,0.2,3.1c0.1,0.4,0.3,0.7,0.2,1c-0.1,0.5-0.6,0.8-0.8,1.2      c0.2,0.2,0.8,0.3,1.2,0.2c0.5,0,0.6-0.3,0.7-0.7C104.9,93.7,105,93.9,105.1,93.8z M104.6,48.1c0.1-0.9,0.3-1.7,0.1-2.4      c-0.7,0.5-0.5,1.5-0.7,2.2c-0.5,0.1-1.3,0.4-1.7,0.5c-0.9,0.1-2-0.1-2.9,0c-0.5,0-1,0.4-1.4,0c1.3-0.4,3-0.3,3.9-1.1      c-0.1-0.8,0.3-1.1,0.5-1.6c0.3-1.3-0.6-1.4-0.8-2.2c-0.1-0.4,0-0.9-0.3-1.2h-0.1c-0.2,0.5,0,1.4-0.1,2.2c0,0.3-0.1,0.6-0.2,0.9      c0,0.3,0.1,0.6,0,0.9c-0.1,0.4-0.7,0.6-1.1,0.8c-0.4,0-0.7,0.2-1.1,0.3s-0.9,0-1.3,0.2c-0.8,0.2-1.4,0.4-2,0.5      c-0.3,0-0.5,0-0.8,0c-0.6,0-1.1,0.2-1.6,0.1c-0.7-0.1-0.9-0.8-1.7-0.7c0.1,0.4,0.6,0.4,0.8,0.7c-0.2,0.1-0.2,0.1-0.3,0.3      c-0.6,0-0.7-0.3-1.3-0.3c0.1,0.5,0.7,0.5,1.3,0.5c0,0.2,0.2,0.3,0.2,0.4c-0.7,0-1,0.5-1.3,1c0.5,0.3,0.8-0.2,1.3-0.3      c0.1,0.1,0.3,0.1,0.5,0.1c0.1-0.1,0.2-0.1,0.3-0.2c1.1-0.2,2.3,0.1,3.4,0.1c0.5,0,1-0.1,1.4-0.1c0.8,0,1.6,0.1,2.4-0.1      c0.7,0,1.6,0.2,2.1,0.1c0.1,0,0.2-0.1,0.3-0.1c0.5-0.1,1.1,0.1,1.5-0.1C104.3,49.2,104.5,48.6,104.6,48.1z M103.4,28.5      c0.1-0.4-0.4-0.3-0.6-0.5c-0.1-0.1,0-0.1-0.1-0.2c-0.3-0.1-0.5-0.1-0.7,0.1c0,0.5-0.6,0.5-0.6,0.8c0,0.1,0.3,0.1,0.3,0.3      c-0.3,0.5-1.4,0.6-1.9,0.9c-0.2,0.1-0.3,0.4-0.5,0.2c0-0.6,0.6-0.6,0.7-1.1c-0.8,0.1-1.2,0.9-1.9,0.8c-0.2,0.3-0.5,0.3-0.8,0.5      c0.2,0.7,1.2,0,1.4,0.6c-0.2,0.2-0.3,0.4-0.5,0.5c-0.2-0.2-0.9-0.4-0.9,0.1c0.5,0.3,1,0.1,1.5,0.3c0.3,0.7,1.1,0.3,1.8,0.1      c0-0.3-0.1-0.5-0.2-0.8c-0.2-0.1-0.3-0.1-0.3-0.3c-0.3-0.8,0.7-1.1,1.2-1.3c0.5-0.2,1.1-0.1,1.5-0.3c0-0.2,0.2-0.4,0.1-0.6      c-0.2-0.1-0.5,0.1-0.5-0.3c0.1-0.1,0.3-0.3,0.5-0.3s0,0.2,0.1,0.2C103.1,28.6,103.3,28.6,103.4,28.5z M103.2,27.5      c0.3,0,0.3-0.3,0-0.3C103.2,27.3,103.1,27.5,103.2,27.5z M102,30c-0.1,0.2,0.3,0.2,0.2,0C102.1,29.9,102.1,29.9,102,30z       M101.8,58.7c0.2-0.6,0.8-2.2,0.3-2.7c-0.4,0.2-0.7,0.6-1.1,0.9c-0.1-0.1-0.2,0-0.4-0.1c0-0.2,0.1-0.2,0.1-0.4      c-0.2,0-0.4,0.3-0.6,0c0.1-0.7,0.1-1.1,0.3-1.8c-0.1-0.2-0.3,0-0.3-0.1c0.4-0.3,0.5-1,0.5-1.5c0.1-0.5,0.4-0.8,0.2-1.1      c-0.4-0.2-0.7,0.1-1-0.2c0-0.3-0.1-0.5-0.1-0.8c-0.1,0-0.3,0-0.4-0.2c0-0.4-0.3-0.3-0.3-0.6c-0.7,0-1.7,0.2-2.7,0.1      c0,1,0.1,2,0.2,2.9c0.2,1.5,0.1,2.9,0.4,4.1c0.4,1.5,0.9,2.7,1.2,4.1c-0.4-0.1-0.4-0.6-0.8-0.8c-0.2,0.1-0.4,0.2-0.6,0.3      c-0.1,0.5-0.5,0.9-0.5,1.3c-0.3,0.3-0.4,0.8-0.5,1.2c-0.4,1.8-0.5,4-0.3,5.4c0.2,0.9,0.5,1.7,0.8,2.5c0.1,0.4,0.3,0.9,0.5,1.3      s0.5,0.8,0.6,1.2c0,0.1,0,0.3,0,0.4c0,0.3,0.1,0.5,0.2,0.8c0,0.3,0.1,0.7,0.1,1.1c0,0.5,0,1.1,0.1,1.5c0,0.1,0.1,0.3,0.1,0.4      c0,0.5,0,0.9,0,1.3c0,0.2,0.1,0.3,0.2,0.5c0.1,0.4,0,0.8,0,1.2c0.1,1.1,0.5,2.2,0.4,3.4c0.3,0.6,0,1.2,0.1,1.9      c0.1,0.7,0.3,1.2,0.2,1.7c-0.2,0.8-0.9,1.1-1.5,1.2c-0.8,0.3-1.8,0.4-2.8,0.3c-0.2,0.2-0.5,0.1-0.7,0.1c-0.5,0-1.1,0.3-1.7,0.3      c-0.5,0.1-1,0-1.6,0.1c-0.1,0-0.3,0.1-0.4,0.2c-0.2,0.1-0.5-0.1-0.7-0.1c-0.4,0-0.7,0.1-1.1,0.1c0.1,0.4-0.1,0.9,0.2,1.2      c1.4-0.1,3.2-0.3,4.8-0.2c0.3-0.3,1.3,0.1,1.5-0.7c1.4-0.4,2.9-0.1,4.3-0.5c0.1,0,0.1,0.1,0.2,0.1c0-0.4,0.3-0.8,0.4-1.2      c0.2-0.9,0-2.2-0.1-2.9c0-0.7-0.3-1.4-0.3-2.1c-0.1-1,0.1-1.9-0.3-2.7c0.3-1.9-0.5-3.7-0.4-5.4c0.3,0.4,0.2,1.3,0.7,1.5      c0.2-0.9-0.3-1.8-0.6-2.8c-0.2-0.8-0.3-1.4-0.5-2.2c-0.2-0.6-0.3-1.3-0.5-1.9c-0.3-1.5,0.1-2.7,0.3-4.3c0.2-0.3,0.3-0.6,0.5-1      c0.2-0.3,0.4-0.6,0.5-1c0.1-0.2,0-0.3,0.1-0.5c0.5-1.4,1.5-2.4,2.4-3.4C101.1,59.6,101.6,59.2,101.8,58.7z M102.1,25.3      c0.2-0.7-0.7-1.4-0.8-2.2c0-0.1,0-0.3,0-0.5c-0.1-0.3-0.5-1-0.6-1.2c-0.3,0.5,0.2,1.1,0.5,1.6C101.3,23.9,101.2,25.1,102.1,25.3      C102,25.3,102,25.2,102.1,25.3z M101.3,32.8c0.3-0.3,0.8-0.4,0.7-1c-0.3-0.2-0.7-0.7-1-0.3c-0.1,0.3,0.2,0.5,0.1,0.6      c-0.2,0.3-0.6,0.4-0.9,0.6c-0.2,1.9-0.6,3.4-1.6,4.6c-0.4,0.5-0.7,1.1-1,1.4c-0.4,0.5-1.1,0.8-1.3,1.5c-0.3,0.1-0.4,0.3-0.6,0.5      c0.1,0.6-0.5,1.2-0.6,2c0,0.3,0.1,0.6,0.1,1c0.1,0.6,0,1.4,0,2c0,0.1,0.1,0.2,0.1,0.3c0.1,0.5,0,1.1,0.3,1.4      c1.1-0.1,2.3-0.2,2.8-0.8c0-0.2,0-0.2,0-0.3c0.3-0.6,0.3-1.3,0.6-1.9c0.1,0.1,0,0.4,0.1,0.5c0.3-0.1,0.5-0.1,0.8-0.1      c0.3-0.3,0.1-0.8,0.2-1.2c0-0.1,0.2-0.3,0.3-0.4c0.1-0.4,0-0.9,0-1.3c0-0.2,0.2-0.3,0.2-0.5c0-0.3-0.2-0.5,0-0.8      c-0.3-0.6,0.3-1.1,0.3-1.8c0-0.2-0.2-0.5-0.1-0.7c0-0.2,0.1-0.5,0.2-0.8s0.3-0.6,0.3-0.8s-0.3-0.3-0.4-0.5      c-0.2-0.7,0.8-1,0.8-1.6c-0.5-0.1-0.5,0.7-1.1,0.6c-0.1-0.1-0.2-0.1-0.2-0.2C100.8,34.2,101.8,33.7,101.3,32.8z M101,26.3      c0.2,0,0.2-0.1,0.3-0.2c-0.1-0.6-0.3-1.1-0.8-1.2C100.5,25.4,100.6,26,101,26.3z M100.8,27c0.1,0,0.3,0,0.3-0.1      s-0.1-0.1-0.3-0.1C100.8,26.9,100.8,27,100.8,27z M99.2,90.6c0.1,0.2,0.8,0.2,0.8,0C99.8,90.4,99.2,90.4,99.2,90.6z M99.7,27.5      c-0.5-0.3-0.7,0.3-0.5,0.8h0.1C99.5,28.2,99.6,27.9,99.7,27.5z M95.1,47.3c0.1-0.4,0-0.4,0-0.8c-0.7-0.2-1-0.6-1.8-0.7      c-0.3,0.4-0.5,0.9-0.8,1.4C93.2,47.7,94.3,47.7,95.1,47.3z M94.9,45.7c0-0.7-0.1-1.3-0.1-2.1c-0.5,0.4-0.7,1.2-1.1,1.7      C94.2,45.4,94.6,45.6,94.9,45.7z M93.4,39.5c0.1,0.4,0,1.1-0.2,1.5c0,0.4,0,0.7-0.2,0.9c0.1,0.1-0.2,0.7-0.1,0.8      c0.6-0.9,1-2.1,1-3.4c-0.6-0.9-1.1-1.7-2.2-2.3C92.2,37.9,93.2,38.5,93.4,39.5z M91.3,44.1c0.2-0.1,0.3-0.4,0.2-0.7      c-0.5-0.2-0.7-0.4-1.3-0.5C90.1,43,90,43.3,90,43.5C90.2,43.9,90.8,43.9,91.3,44.1z M90.5,46.2c0.2-0.5,0.6-1.1,0.5-1.5      c-0.1-0.3-0.7-0.6-1.1-0.4c0.1,0.8-0.5,2.5,0.3,2.6C90.5,46.7,90.4,46.5,90.5,46.2z M89.6,49.7c0.8,0.2,1.4-0.8,0.5-0.7      c-0.1,0.3-0.3,0.4-0.5,0.5C89.6,49.5,89.6,49.6,89.6,49.7z M88.9,48.3c0.4,0.2,1.4,0.5,1.5,0c-0.5-0.1-0.8-0.1-1.4-0.2      C89,48.2,88.8,48.2,88.9,48.3z M90,50.5c-0.3-0.2-1.1,0-1,0.5c0.1,0,0.1,0.1,0.3,0.1C89.5,51,89.7,50.7,90,50.5z M89.1,54.3      c0-0.9,0.3-1.6,0-2.4c-0.3-0.1-0.3-0.1-0.5,0c-0.2-0.2-0.2-0.4-0.4-0.5c0-0.5-0.1-1.1,0.1-1.6c-0.4-0.1-0.6-0.3-0.6-0.7      c0.3-0.3,0.4-0.8,0.2-1.3c0.2-0.3,0.7-0.3,1.2-0.3c0.2-0.4,0.1-0.8,0.1-1.3c0-0.6,0.2-1.4,0-1.9c-0.1-0.2-0.4-0.3-0.5-0.5      c-0.1-0.1-0.1-0.3-0.3-0.5c-0.2-0.3-0.6-0.4-0.8-0.6c-0.7,0.5-1.4-0.3-1.9-0.1l-0.2,0.1c-0.1,0.1,0,0.3-0.2,0.4      c-0.3,0-0.3-0.2-0.5-0.3c-0.5-0.2-1.4-0.1-1.9-0.1c-1.1,0-2.2,0-3,0c-3,0-7.5-0.1-11.4-0.3c-3.2-0.1-6.3,0-9.4,0      c-2.2,0-4.9-0.1-7.1,0c-0.2-0.5-0.7-0.1-1,0c-0.5-0.2-1.9-0.3-2.4,0c-0.4,0.2-0.2,1.1-0.3,1.7c0,0.2-0.1,0.3-0.1,0.5      c-0.1,0.7-0.1,1.4-0.1,2.5c0.3,0.3,0.6,0.4,0.9,0.7c0.2,0.4,0.3,0.7,0.2,1.1c0,0.4-0.3,0.7-0.3,1c0,0.2,0.3,0.4,0.3,0.6      c0,0.3-0.3,0.5-0.3,0.8c-0.2,0.2-0.5,0.2-0.7,0.3c0,0,0,0.1,0,0.2s-0.1,0-0.2,0c-0.1,0.1-0.2,0.8-0.2,1.1      c-0.1,0.8,0,1.7-0.1,2.6c-0.3,2.2-0.3,4.6-0.2,6.8c0.3,4.3,0.9,8.1,2.6,11.5c0.5,0.3,1-0.2,1.4-0.5c0.5-0.3,1.3-0.7,2-0.8      c0.6-0.1,1.6,0,1.8-0.3c0.1-0.1,0.1-0.5,0.2-0.7c0.1-0.6,0.3-1.2,0.5-1.8c0.1-0.3,0.2-0.7,0.3-1c0.1-0.2,0.2-0.3,0.3-0.5      c0.1-0.4,0.2-0.8,0.4-1.3c0.6-1.4,1.1-2.8,1.7-4.2c0.6-1.2,0.9-2.6,1.3-3.8c0.6-1.6,1.1-2.9,1.6-4.6c0.3-1.1,0.9-2.2,0.8-3.2      c0-0.5-0.3-1.1-0.7-1.1c-0.2,0-0.4,0.2-0.6,0.3c-0.8,0.2-1.8-0.3-2.8-0.2c-0.4,0.2-1.3,0.4-1.7,0.3c0.1-0.8,0.9-0.8,1.4-1.2      c0.1-0.5,0.6-0.7,0.9-0.9c0.5-0.4,0.7-1,1.2-1.4c0.4-0.3,1-0.6,1.6-0.7c0.4,0,1.1,0.1,1.5,0.3s0.7,0.7,0.8,1      c1.4,3.6-0.7,7.6-1.5,11c-0.1,0.1-0.1,0.3-0.2,0.3c0,0.3-0.1,0.5-0.2,0.6c-0.3,0.9-0.4,1.9-0.8,2.8c-0.3,1-0.7,2.4-0.9,3.3      c-0.3,1.1-0.4,2.3-0.5,3.2c0,0.5-0.2,1-0.1,1.3c0.1,0.5,0.5,1.1,1,1.1c0.6,0.1,1.1-0.5,1.7-0.6c1.4-1.3,2.8-2.6,3.9-4.3      c0.5-0.5,1-1,1.6-1.5c0.7-0.5,1.5-1,2.4-1.4c0.2-0.1,0.5-0.1,0.7-0.2c0.5-0.3,0.8-0.7,1.3-1c0.4,0.2,0.4,0.9,0.8,1      c0.7,0.2,1.2-1.1,1.5-1.3c0.5,0.2,0.7,0.8,1.1,1.2c0.4-0.1,0.5-0.4,0.8-0.6c0.3,0.4,0.6,0.8,0.8,1.4c0,0.3-0.1,0.6,0.3,0.8      c0.4,0,0.4-0.4,0.8-0.5c0.2,0.6,0.6,1.2,0.3,1.8c0.3,0,0.6,0.3,1,0.3s0.5-0.5,0.9-0.6c0.4,0.2,0.4,0.9,0.8,1.1      c0.2-0.1,0.3-0.3,0.5-0.4c0.5,0.2,0.5,0.9,0.8,1.3c0.3,0.1,0.3-0.3,0.6-0.3c0.1,0.9,1.1,0.5,1.6,0.5c0.5,1.1-0.1,2.3-1,2.9      c0.1,0.5-0.2,0.8-0.2,1.3c-0.1,0.2-0.5,0.5-0.5,0.7c0.6,0.3,1.6,0.4,2.4,0.7c0.2,0.1,0.8,0.7,1.1,0.6c0.3-0.1,0.3-0.6,0.5-1.1      c0.1-0.5,0.3-0.8,0.4-1.1c0.1-0.6,0.1-1.3,0.3-1.9c0.2-1.2,0.5-2.4,0.7-3.5c0.1-0.6,0.1-1.2,0.1-1.8c0-0.8,0.3-1.5,0.4-2.4      c0.1-0.7,0-1.5,0-2.2c0.1-1.5,0.2-3.1,0.3-4.5C89.2,55.1,89.1,54.7,89.1,54.3z M88.4,42.3c0.1-0.1,0.2-0.2,0.2-0.4      C88,41.3,87.6,42.2,88.4,42.3z M82.1,73.3c0.7-0.2,2.1,0.5,2.9,0.3c-0.6-0.5-1.3-0.3-1.9-0.8c-0.5-0.1-1.1,0.2-1.6,0.3      c-0.4,0.1-0.9,0.1-1.3,0.2c-0.3,0-0.5,0.3-0.8,0.3c-0.1,0-0.2-0.1-0.3,0c-0.8,0.1-1.5,0.4-2.2,0.5c-1,0.1-2.2-0.2-2.5,0.2      c2.1,0.6,4.3,0,6.2-0.5c0.3-0.1,0.6-0.1,0.8-0.2C81.6,73.5,81.9,73.3,82.1,73.3z M83.7,80.5c0.3-0.4,0.9-1.3,0.7-1.7      c-0.1-0.3-0.8-0.5-1.2-0.6c-0.5-0.2-1.1-0.3-1.5-0.4c-1.6-0.4-2.2-0.6-3.8-0.4c-0.6,0.1-1.2,0.3-1.8,0.5c-0.3,0.1-0.6,0-1,0      c-0.5,0-1.1,0.2-1.4,0.1c-0.5,0-1-0.2-1.3-0.3c-0.5-0.1-1-0.3-1.6-0.4c-1.3-0.2-2.6-0.3-3.7-0.2c-2.4,0.2-4.6,1.1-7,0.6      c-0.5-0.1-0.9,0-1.3-0.2c-1.3-0.3-2.6-0.8-4.1-0.6c-0.5,0.2-2.3,0.1-2.5,0.8c-0.1,0.3,0.4,1,0.6,1.4c0.2,0.3,0.6,0.6,0.8,0.9      c0.3,0.4,0.4,1,0.8,1.2c0.7-0.3,1.3-0.6,2.1-0.6c1.5,0.1,3,0.9,4.5,1.1c1.3,0.1,2.5-0.4,3.3-0.6c2.1-0.5,4.3-0.6,6.8,0      c1.1,0.3,1.8,0.5,2.7,0.5c0.3,0,0.7,0,1.2-0.1c0.6-0.1,1.3-0.4,1.9-0.5c1-0.2,3.1-0.3,4.1,0.1c0.4,0.1,1.1,0.9,1.6,0.8      c0.2-0.1,0.4-0.5,0.5-0.7C83.4,81,83.6,80.7,83.7,80.5z M83.5,69c0.2-0.3,0.3-0.5,0.5-0.8c-0.3-0.2-0.8,0.4-0.8,0.7      C83.4,68.9,83.3,69,83.5,69z M83.4,69.6c0,0-0.1-0.1-0.2-0.1c-0.3,0.4-0.4,0.8-0.7,1.3C83,70.7,83.2,70.2,83.4,69.6z M81.9,69.4      c0.2,0,1-0.9,0.9-1.2c0-0.1-0.2-0.2-0.3-0.2C82.3,68.4,81.8,68.9,81.9,69.4z M81.7,67.5c-0.9-0.3-0.3,1.1-0.5,1.5      C81.7,68.8,81.5,68.1,81.7,67.5z M79.8,71.3c0.3-0.5,0.7-1,0.5-1.5c-0.2,0-0.2,0.2-0.3,0.1C79.9,70.5,79.8,70.8,79.8,71.3z       M79.4,67.8c0.5,0.2,0.7-0.8,0.4-1C79.2,66.7,79.6,67.5,79.4,67.8z M79.4,69.6c-0.2-0.4-0.6-0.1-0.6,0.3c-0.2,0-0.2-0.1-0.3,0      c-0.2,0.8,0.8,0.8,0.6,0C79.1,69.7,79.4,69.8,79.4,69.6z M79.2,73.3c0.7-1.1-1.4-1.7-1.8-0.8c0.1,0.2,0.6,0.1,0.8,0.1      c0.2,0.2,0,0.5,0.1,0.7C78.4,73.5,78.9,73.4,79.2,73.3z M78.5,68.1c0.4-0.3,0.7-1.1,0-1.2C78.5,67.3,78.3,67.8,78.5,68.1z       M78.7,71.1c-0.1-0.3-0.5-0.3-0.8-0.4c-0.3,0-0.6,0-0.8,0.1c0-0.1-0.1-0.1-0.3-0.1c-0.5,0.4-1.2,0.1-1.6,0      c-1-0.1-1.3,0.6-2.1,0.8c-0.3,0.1-0.8,0.2-1.2,0.1c-0.2,0-0.4-0.3-0.7-0.1c0-0.2-0.5-0.1-0.5,0.2c0.6,0.4,1.6,0.5,2.4,0.1      c0.4,0.3,0.8,0.4,1.3,0.4c0-0.3-0.4-0.4-0.2-0.7c0.5,0.3,1.1,0.5,1.6,0.4c-0.1-0.4-0.6-0.3-0.6-0.7      C76.3,71.5,77.8,71.7,78.7,71.1z M77,68.3c0.7,0.4,0.7-1.4,0.1-1C77.1,67.6,77.1,68.1,77,68.3z M75.8,66.9      c0.9,0.1,0.8-1.1,0.1-1.1C75.8,66.1,75.7,66.5,75.8,66.9z M76.1,63.8c-0.4-0.4-1.3,0.5-0.9,1.1C75.8,64.8,76,64.2,76.1,63.8z       M75.9,68.2c0.3-0.3-0.1-1.1-0.5-0.9C75.6,67.5,75.4,68.1,75.9,68.2z M74.7,63.5c0.3-0.2,0.2-0.7,0.2-1      C74.4,62.4,74.2,63.3,74.7,63.5z M74.7,65.6c0.2,0,0.3-0.1,0.4-0.1c0-0.7-0.4-0.9-0.2-1.6c-0.9,0-1.5,0.8-2.3,0.9      c-0.3,0-0.7,0-1.1,0C71,65.1,70.4,65,70,65.3c-1.2,0.7-2,1.7-3.1,2.6c-0.8,0.8-1.9,1.5-2.7,2.4c0.5,0.1,0.8,0,1.1-0.2      c0.2-0.4,0.4-0.9,0.8-1.1c0.2-0.1,0.5-0.1,0.7-0.3c0-0.1,0-0.3,0-0.4c0.4,0,0.6-0.1,0.8-0.4c-0.1,0-0.1-0.1-0.1-0.3      c0.1-0.1,0.3,0,0.5,0c0.2-0.1,0.2-0.4,0.4-0.5c0.2,0.1,0.3,0.4,0.5,0.3c0.4-0.1,0.1-0.6,0-0.9c0.4,0.1,0.7-0.3,1-0.3      c0.2,0,0.2,0.2,0.4,0.3c0-0.1,0.1-0.1,0.2-0.2c0-0.3-0.2-0.5-0.3-0.7c0.3-0.1,0.4-0.3,0.7-0.2c0,0,0,0.1,0.1,0.2      c0.1,0,0.3,0,0.3,0c0.3,0.2,0.3,0.5,0.5,0.5s0.3-0.3,0.3-0.6c-0.1-0.1-0.2-0.1-0.3-0.3c0.6-0.2,1.2-0.2,1.4,0.4      c0.2,0,0.3-0.1,0.4-0.2c0-0.3-0.3-0.3-0.3-0.6c0.2-0.1,0.4,0,0.6,0c0.3-0.1,0.2-0.5,0.6-0.5l0,0c0,0.2-0.2,0.3-0.3,0.5      C74.6,65,74.5,65.4,74.7,65.6z M74.3,67.2c1,0.2,0.4-1.7-0.3-1C74.4,66.4,74.2,66.7,74.3,67.2z M74.2,68.7      c0.5-0.2,0-1.2-0.5-1.1C74,67.9,74,68.3,74.2,68.7z M72.8,67.7c0.7,0.2,0.8-1.3,0-1.2C72.8,66.8,72.8,67.3,72.8,67.7z       M72.7,68.6c0.3-0.3-0.1-0.9-0.4-0.5C72.4,68.4,72.5,68.6,72.7,68.6z M72.5,63.2C72.4,63.2,72.4,63.2,72.5,63.2      c-0.2,0.3-0.5,0.6-0.3,0.9C72.5,63.9,72.4,63.6,72.5,63.2z M70.2,73.4c0.3,0.2,1.1,0.3,1.6,0.3c-0.2-0.2-0.5-0.3-0.7-0.4      c-0.4-0.2-0.8-0.3-1.2-0.3c-1.5-0.7-2.9-0.3-4.7,0c-0.5,0.1-1.1,0.3-1.6,0.4c-0.3,0-0.5,0-0.7,0c-1.3,0-2.3-0.1-3.5-0.3      c-0.4,0-0.8-0.3-1.2-0.3c-0.6-0.1-1.2-0.1-1.7-0.1c-0.4,0-0.8,0.2-1.1,0.4c1,0.1,1.9,0.2,2.8,0.4c1.2,0.3,2.4,0.8,3.8,0.8      C64.9,74.1,67.4,72.8,70.2,73.4z M71.5,68.1c0.8-0.1,0.3-1.5-0.3-1.3v0.1C71.6,67.3,71.3,67.6,71.5,68.1z M70.6,64.6      c0.3-0.1,0.7-0.7,0.5-1.1H71C70.9,64,70.5,64.2,70.6,64.6z M69.9,68.5c0.6,0,0.5-0.6,0.3-0.9C69.7,67.5,69.8,68.3,69.9,68.5z       M70,64.6c0.3-0.6-0.4-0.4-0.5-0.1C69.5,64.8,69.8,64.8,70,64.6z M69.8,69.6c0.5-0.1,0.3-0.9-0.2-0.7      C69.6,69.2,69.7,69.4,69.8,69.6z M68.7,68.5c-0.3,0.3,0.2,0.8,0.4,0.4C69,68.7,69,68.4,68.7,68.5z M68.6,70.5      c0.4-0.4,0.1-0.8,0-1.3C68.5,69,68.3,69,68,68.9c0,0.2,0,0.7,0.2,0.8c0.2,0-0.1-0.3,0.1-0.3C68.5,69.7,68.4,70.2,68.6,70.5z       M68.5,65.4c-0.1-0.2,0-0.4-0.2-0.5c-0.2,0.1-0.5,0.5-0.2,0.8C68.3,65.6,68.4,65.5,68.5,65.4z M66.9,66.3      c0.6,0.2,0.5-0.5,0.3-0.8c-0.1,0,0,0.2,0,0.3c-0.2,0-0.3,0.1-0.3,0.3C66.9,66.2,66.9,66.2,66.9,66.3z M66.6,67.5      c-0.1-0.1,0.1-0.2,0.1-0.3c-0.1,0-0.1-0.3-0.3-0.3c-0.1,0.1-0.1,0.5-0.3,0.6c0.1,0.1,0.1,0.3,0.3,0.3      C66.4,67.6,66.5,67.5,66.6,67.5z M65.3,68.2c0,0.3,0.5,0.4,0.5,0c-0.1,0-0.1-0.1-0.2-0.2C65.6,68.1,65.4,68.1,65.3,68.2z       M61,48.1c0.1-0.2,0.3-0.3,0.3-0.5c0-0.7-1.1-0.7-1.1,0c0,0.2,0.1,0.2,0.3,0.5C60.7,48,60.8,48.1,61,48.1z M58.2,49.6      c0.3,0,0.4-0.5,0.3-0.8C58.1,49,58,49.1,58,49.5C58.1,49.5,58.2,49.5,58.2,49.6z M54.9,72.8c0.1-0.1,0.3,0,0.3-0.2      c-1.1-0.1-1.9,0.2-2.9,0.6c0.5,0.2,1.2,0,1.7-0.3C54.3,73,54.7,72.8,54.9,72.8z M50.1,41.7c0-0.2,0.2-0.3,0.1-0.6      c-0.1,0-0.1-0.1-0.2-0.1c-0.4,0.4-0.8-0.2-1,0.4C49.5,41.4,49.6,41.7,50.1,41.7z M48.5,48.8c0.1,0,0.1-0.1,0.2-0.1      c-0.1-0.3-0.2-0.4-0.5-0.5C48.1,48.4,48.2,48.7,48.5,48.8z M48.2,90.3c0-0.2,0-0.3,0-0.5c-0.5-0.6-1.2-0.6-1.9-0.6      c-0.4,0-0.9-0.1-1.3-0.2c-1.7-0.3-3.5-0.4-5-0.7c-0.5-0.1-0.9-0.3-1.3-0.4c-0.6-0.4-0.8-0.9-0.7-1.8s0.2-1.8,0.3-2.3      c0-0.3,0-0.6,0-0.9c0.1-1,0.3-2,0.4-2.9c0-0.3,0.1-0.6,0.1-0.8c0-0.4-0.1-0.7,0-1c0.1-1.3,0.3-2.4,0.3-3.8      C39,74.2,39,74.1,39,74c0.1-0.7,0.3-1.1,0.5-1.7c0.8-1.8,1.5-3.5,1.6-5.6c0-0.8,0-1.4,0-2s-0.1-1-0.2-1.5c0-0.2,0.1-0.4,0-0.5      c0-0.2-0.2-0.3-0.2-0.5c-0.2-0.7-0.2-1.3-0.7-1.7c0.1-0.2,0.1-0.4-0.2-0.5c-0.2,0.3,0,0.8-0.6,0.9c-0.1-0.5,0-1.1,0-1.6      c0.2-1.8,0.5-3.3,0.8-5.1c0.1-0.6,0.1-1.2,0.2-1.8c0.1-1,0.6-2.5-0.1-3.1c-1.1-0.4-0.7,0.7-0.9,1.2c-0.1,0.3-0.3,0.2-0.4,0.4      c-0.1,0.5,0,1.2,0,1.8c0,0.4-0.3,0.6-0.4,0.8c-0.2,0.6-0.4,1.2-0.8,1.6c-0.2,0-0.5,0.1-0.7,0.2c0,0.4,0.1,0.7,0,1.1      c-0.3-0.2-0.3-0.4-0.5-0.5c-0.4-0.1-0.5,0.8-0.7,1.3c0.1,0.1,0.2,0.3,0.2,0.5c0.2,0.2,0.5,0.3,0.7,0.5c0.5,0.6,0.3,1.5-0.3,1.9      c-0.2-0.1-0.4-0.3-0.6-0.3c-0.4-0.1-0.8-0.1-1.2-0.3c-0.2-0.1-0.3-0.3-0.5-0.3c-0.3-0.1-0.6-0.1-0.8-0.3c-0.3,0.2-0.8-0.1-1,0.3      c1,0.7,2.4,0.5,3.2,1.1c0.5,0.4,0.9,1,1.3,1.6c0.6,1,1.2,2.2,1.4,3.4c-0.1,0.4,0,0.7,0,1.1c0,0.5,0,0.9,0,1.3      c-0.1,2.5-0.7,4.9-1.1,7.2c-0.1,0.6-0.1,1.2-0.2,1.6c0,0.3-0.2,0.7-0.3,1.1c-0.1,0.8-0.1,1.8-0.1,2.7c0,0.5,0,0.7,0.2,1.1      c-0.2,0.5,0,1,0,1.6c0,0.3-0.1,0.6-0.2,0.9c-0.2,1.7-0.1,3.5-0.1,5c0.6,0.3,1.4,0.1,2.1,0.1c0.8,0,1.6,0.1,2.2,0.2      c0,0,0.4-0.1,0.3,0.2c-0.1,0.2-0.6,0-0.5,0.3c-0.7-0.1-2.3-0.4-2.9,0.1c0.2,0.2,0.4,0,0.6,0c1.4,0,2.6,0.4,4.1,0.3      c0.4,0,0.7-0.1,1.1-0.1c1,0.1,1.9,0.3,2.9,0.4C47.2,90.4,47.8,90.6,48.2,90.3z M48,48.2c0-0.1,0-0.2,0-0.3c-0.2-0.2-1-0.4-1,0      c-0.2-0.3-0.8,0.2-1.1-0.1c0.1-0.1,0.3,0,0.3-0.3c-0.1-0.2-0.5-0.1-0.7-0.3c0.1-0.2,0.4,0,0.5-0.2c0.2,0,0,0,0-0.2      c0.1-0.1,0.3-0.1,0.3-0.3c-0.3-0.1-0.7-0.2-0.8,0.2c-0.7,0-1.3,1.1-2,0.4c-0.3-0.1-0.7,0.2-1.1,0.1c-0.3,0-0.6-0.4-0.8-0.1      c-0.2-0.1-0.3-0.2-0.5-0.3c-0.2,0.2-0.4,0-0.6-0.1c-0.3-0.1-0.7-0.1-1-0.2c-0.1,0-0.1-0.1-0.3-0.1s-0.3,0.1-0.5,0      c-0.3,0-0.4-0.3-0.8-0.4c-0.4-0.1-1,0-1.3-0.1c-0.1,0-0.1-0.2-0.1-0.2c-0.1-0.1-0.4,0-0.5-0.2c0-0.5-0.1-1.4,0.3-2.1      c0.2,0.3-0.1,0.7,0,1c0.2,0.8,1.4,1.1,2.2,1.2c0.3-0.7,0.2-1.2,0.3-1.8c0.4,0.4,0.3,1.3,1.2,1.3c0.3,0.5,0.6,1,1.1,1.2      c0.3-0.3,0.1-0.8,0.2-1.2c0.1-1.1,0.3-2.2-0.1-3c0.2-1.1-0.7-2-0.5-3.2c-0.3-0.1-0.5-0.3-0.6-0.3c-0.1-0.5-0.4-0.7-0.6-1      c-0.8-0.7-1.4-1.6-1.9-2.5c0,0-0.1-0.1-0.1-0.2c-0.2-0.5-0.2-1.1-0.4-1.6c0-0.2-0.2-0.5-0.4-0.6c-0.4,0.4-0.1,1.1,0,1.5      c0,0.2,0,0.3,0,0.5c0,0.6,0.3,1.1,0.3,1.7c0,0.3-0.2,0.3-0.3,0.5c-0.1,0.5,0.4,1.1,0.4,1.5c0,0.2-0.2,0.4-0.2,0.5      c0,0.3,0.3,0.5,0,0.7c-0.5-0.3-0.3-0.9-0.5-1.4c-0.5,0-0.5-0.5-0.8-0.7c-0.2,0.2-0.1,0.5-0.1,0.8c0.1,0.8,0.5,1.4,0.9,1.9      c0,0.1-0.1,0.2-0.2,0.4c0.3,0.5,0.7,1.2,0.7,2c-0.3-0.1-0.2-0.5-0.4-0.7c-0.1,0-0.2,0-0.3,0c-0.1,0.7-0.2,1.5-0.6,2      c-0.3,0.4-1.1,0.1-1.5,0.5c0,1.1,0.6,2.3,1.9,2.5c0.3,0,0.6,0,0.9,0.1c1.1,0.1,1.9,0.2,3.1,0.4c0.1,0,0.9,0.2,1,0.3      c0,0.2-0.6,0.3-0.7,0.3c-0.9,0.1-1.5-0.5-2.4-0.5c-0.4,0-0.7,0.1-1,0.1c-0.7-0.1-1.2,0-1.6,0.3c-0.2-0.1-0.5,0-0.9-0.1      c-0.4-0.2-0.5-0.9-1.1-0.7c-0.2,0.3,0,0.8-0.1,1.2c0.2,0.3,0.8-0.1,1,0l0,0c0,0,0,0-0.1,0s0,0,0,0l0,0c0,0,0,0,0.1,0      c0.5-0.1,1,0,1.4,0c1.1,0.2,2.3-0.2,3.4-0.1c0.5,0,1,0.2,1.5,0.3c0.6,0,1.3-0.1,1.9-0.1c1.4,0,2.2,0.4,3.4,0.3      c0.1,0,0.1,0.1,0.3,0.2c0.4-0.1,0.8,0,1,0.2c0.5,0,0.6,0.4,1,0.5c0-0.5-0.5-0.6-0.5-1.1c0.2,0,0.3,0,0.3-0.1s-0.2-0.1-0.2-0.2      C47.6,48,47.6,48.2,48,48.2z M46.3,43.5c0.5-0.3,1.4-0.5,1-1.3c-0.6,0.2-1.3,0.6-2,0.9c0,0.3,0,0.7,0.4,0.8      C45.8,43.9,46,43.7,46.3,43.5z M46.7,45.9c0.6,0,0.6-1.4,0.3-1.9c-0.4,0-0.8,0.3-1.1,0.5C45.9,45,46.3,45.9,46.7,45.9z       M46.4,92.8c-0.2-0.1-0.4,0-0.5,0.2c0,0.1,0.1,0.1,0.1,0.2C46.3,93.2,46.4,93.1,46.4,92.8z M45,94c0.5,0.1,1.5,0.4,1.7-0.2      c-1.1,0-1.9-0.2-2.6-0.1C44.1,94,44.6,93.9,45,94z M44.5,93.3c0.1-0.7-0.5-1.2-1.1-1.1C43,92,42.4,92,41.9,92      c-1.5-0.1-2.6-0.1-3.8-0.3c-1.1-0.1-2.3-0.4-3.3-0.9c-0.3,0.2-0.3,0.5-0.6,0.5c-0.9,0-0.3-1.9,0.1-2.2c0.2,0,0.1,0.4,0.3,0.3      c0.1-0.4,0.3-0.7,0.6-0.9c-0.4-0.6-0.2-1.2-0.1-2.1c0.2-2.2,0.5-4.5,0.9-7.1c0.1-1,0.4-2.2,0.5-3.2c0.1-0.5,0.1-1.1,0.1-1.6      c0.1-0.5,0.3-1,0.4-1.5c0.1-0.3,0-0.5,0.1-0.7c0.1-0.3,0.2-0.5,0.3-0.8c0.1-0.5,0.2-1,0.3-1.5c0.1-0.4,0.3-0.8,0.3-1.2      c0-0.9,0-1.8-0.1-2.6c0-0.3,0-0.7-0.1-1c-0.1-0.4-0.5-0.9-0.7-1.4c-0.3-0.9-0.8-2.2-1.5-2.8c-0.2-0.2-1-0.5-1.1-0.3      c0,0,0,0,0,0.1c0.8,0.8,1.9,1.7,2.4,3.1c0,0.1,0.1,0.3,0.1,0.3c0.1,1,0.2,2.2,0.1,3.2c0,0-0.2,0.4-0.2,0.5      c-0.1,0.5-0.2,0.7-0.3,1c-0.1,0.4-0.2,0.7-0.3,1.1c0.5,0,0.4-0.6,0.7-0.8c0,0.2,0.2,0.2,0.3,0.4c-0.2,0.8-0.3,1.5-0.5,2.4      c-0.1,0.4-0.2,1-0.4,1.4c-0.2,0.5-0.5,0.9-0.5,1.4c0,0.3,0.1,0.5,0.1,0.7c0,0.6-0.3,1.5-0.5,2s-0.7,1.1-0.8,1.6      c-0.1,0.4,0,0.7-0.2,1.1s-0.5,0.7-0.7,1.1c-0.3,0.7-0.2,1.8-0.3,2.7c0,0.1-0.1,0.3-0.1,0.5c0,0.3,0.1,0.5,0,0.8      c0,0.4-0.1,0.8-0.2,1.2C33,86.6,33,87,33,87.3c-0.1,1.3-0.4,2.5-0.3,3.7c0.1,0.7,1.1,1.4,0,1.7c-0.8-0.8,0-2.9-0.4-4.1      c-0.3,0.5-0.3,1-0.4,1.5s0,1.1-0.4,1.4c-0.2-0.4,0.1-0.8,0.1-1.1c0.1-0.5,0.1-1.1,0.1-1.6c0.1-0.5,0.1-1.1,0.1-1.6      c0.1-0.7,0.5-1.3,0.3-2c-0.5,0.3-0.4,1-0.5,1.5c-0.2,1.3-0.4,2.5-0.5,3.5c0,0.6-0.6,1.5-0.5,2.1c0.1,0.4,0.5,0.7,0.7,1      c1.1-0.5,2.4,0.3,3.8-0.1c0-0.3-0.3-0.2-0.3-0.4c0.7-0.2,1.3-0.1,2.1-0.1c0.8,0.1,1.8,0,2.7,0.1c0.3,0,0.5,0.2,0.8,0.2      c0.2,0,0.4-0.1,0.5-0.1s0.2,0.1,0.3,0.1c0.4,0,0.8-0.1,1.1,0C43,93.2,43.8,93.4,44.5,93.3z M43.9,46.5c0-0.3-0.5-0.8-0.7-0.6      c-0.3,0.2-1.1,0.4-1.1,0.7C42.7,46.8,43.5,46.8,43.9,46.5z M42.9,45.4c0.1-0.8-0.7-1.4-0.9-2.1c0,1-0.1,1.7-0.2,2.4      C42.2,45.7,42.6,45.5,42.9,45.4z M39.4,31.2c0.1-0.1,0.2-0.1,0.3-0.3c0-0.3-0.5-0.3-0.7-0.2C38.9,31.1,39.2,31.1,39.4,31.2z       M38.8,29.9c0.1-0.1,0.4,0,0.5-0.2c-0.1-0.8-0.7-0.9-1.1-1.4h-0.1c-0.3,0.6,0.5,0.8,0.6,1.3c-0.1,0-0.3,0.1-0.4,0.1      c-0.4-0.3-0.8-0.9-1.2-1c0,0.3,0,0.5,0,0.8c0.1,0.3,0.4,0.5,0.5,0.7c0,0.1,0,0.2,0,0.3c0.1,0.3,0.5,0.5,0.7,0.6      c0.2-0.1,0.1-0.5,0.2-0.6c0.3,0,0.5-0.1,0.6-0.3C38.9,30.1,38.8,30.1,38.8,29.9z M37.9,27c-0.1-0.2,0.1-0.2,0.1-0.3      c-0.3,0-0.6-0.8-0.8-0.2C37.4,26.7,37.5,27,37.9,27z M36.9,30.9c-0.8,0.2,0.8,1.5,1.2,0.6C37.9,31.5,37.3,30.8,36.9,30.9z       M37.1,28.5C37,28.5,37.1,28.5,37.1,28.5c-0.1-0.1-0.2-0.2-0.2,0c0,0,0,0,0,0.1C37,28.5,37,28.6,37.1,28.5z M36.4,21.5      c-0.1,0-0.1-0.2-0.2-0.2c-0.3,0.3-0.5,1-0.5,1.5c-0.4,0.5-1.2,1.6-0.4,2c0.3-0.2,0.2-0.7,0.1-1.1c0.2-0.3,0.4-0.4,0.5-0.8      C36.4,22.7,36.4,22,36.4,21.5z M35.7,28.3c0.1,0,0.1-0.1,0.1-0.2c-0.3-0.7-1.7-0.8-2.1-0.1c0.2,0.2,0.3,0.5,0.5,0.6      c0.5,0,1,0.1,1.3,0c-0.4-0.3-1-0.3-1.5-0.6c0.3-0.2,0.7-0.3,1.1-0.2c0.1,0.2,0.1,0.5,0.3,0.5c0.1-0.1-0.2-0.2,0-0.3      C35.5,28,35.5,28.3,35.7,28.3z M34.5,31.7c0.1-0.1,0.5,0.1,0.6,0c-0.2-0.2-1-0.6-1.1-0.1c0,0.2,0.1,0.6,0.5,0.7      C34.6,32.1,34.6,31.8,34.5,31.7z M34.6,76.4c0-0.3-0.5-0.5-0.4-0.9c-0.5-0.4-1.4-0.3-1.8,0c0.3,0.8,0.8,1.5,0.6,2.4      c-0.1,0.5-0.3,0.8-0.3,1.2c0,0.3,0.1,0.6,0,0.9c0,0.4-0.3,0.8-0.1,1.3c0.3,0,0.3-0.5,0.3-0.6c0.2-1,0.4-1.8,0.5-2.9      C33.8,77.7,34.6,76.8,34.6,76.4z M33.7,79.1c0.5,0.1,0.5-0.7,0.1-0.7C33.6,78.6,33.7,78.8,33.7,79.1z M33.1,29.3      c-0.2,0.6,0.5,1.2,0.8,1.1c-0.2-0.4-0.4-0.7-0.5-1.1C33.3,29.3,33.2,29.3,33.1,29.3z M34.1,32.4c-0.1-0.6-0.2-1.1-0.4-1.5      c-0.1,0-0.1,0-0.2,0c0,0.1,0,0.1,0,0.1C33.5,31.6,33.6,32.4,34.1,32.4z M33,25.1c0.2-0.5-0.1-1.1-0.4-1.8      c-0.2-0.4-0.4-0.9-0.5-1.2c-0.3-0.5-0.9-1.1-1.1-0.3c-0.2,0.8-0.4,2.1,0.3,2.4c0.1-0.5,0.1-1,0.5-1.3c0.4,0.2,0.6,0.7,0.4,1.2      C32.5,24.3,32.6,24.9,33,25.1z M33.2,74.1c-0.2-0.3-0.7,0-1.1-0.1c-0.1,0-0.1-0.3-0.2-0.4c-0.3-0.4-1.2-0.5-1.5-0.1      c0.2,0.4,0.5,0.4,0.8,0.7c0.3,0.3,0.4,0.9,1,1C32.6,74.8,33,74.6,33.2,74.1z M32.2,47c0.4-0.2,0.1-1-0.1-1.4H32      C31.8,46.1,32.1,46.7,32.2,47z M31.6,84c0.3-2.3,1-4.3,0.5-6.6c-0.1-0.5-0.4-0.9-0.3-1.3c-0.3-0.9-1.2-0.6-1.6,0      c-0.5,1.7-1.1,3.6-1.2,5.2c-0.2,3.2-0.7,6.1-1.3,8.9c1.1,0.1,2-0.1,3-0.2c0.3-0.4,0.2-0.9,0.3-1.4C31.3,86.7,31.4,85.5,31.6,84z       M32.3,26.9c-0.1-0.3-0.4-0.6-0.6-0.6c-0.2,0.6-0.3,1.2,0,1.6C31.9,27.6,31.9,27.1,32.3,26.9z M28.9,92.5c0.9-0.1,1.8,0,1.6-1.3      c-0.7-0.3-1.7,0.1-2.7,0c-0.2,0.3-0.6,0.2-0.8,0.4c-0.2,0.1-0.2,0.3-0.3,0.5c-0.1,0.2-0.5,0.3-0.4,0.6      C27.2,92.7,28.5,92.3,28.9,92.5z M30.2,72.4c0.1-0.1,0-0.2,0-0.3c-0.3-0.1-0.7-0.2-1,0C29.5,72.2,29.7,72.5,30.2,72.4z"
             class="st0" /></g></g></g><polygon
       id="polygon247"
       points="79.9,94.7 83.8,94.9 83.3,95.6 79.4,95.5  "
       class="st1" /><polygon
       id="polygon249"
       points="79.1,96 83,96.1 82.6,96.6 78.5,96.8  "
       class="st1" /></g></svg>