<?xml version="1.0" encoding="UTF-8" standalone="no"?>
<svg
   xmlns:dc="http://purl.org/dc/elements/1.1/"
   xmlns:cc="http://creativecommons.org/ns#"
   xmlns:rdf="http://www.w3.org/1999/02/22-rdf-syntax-ns#"
   xmlns:svg="http://www.w3.org/2000/svg"
   xmlns="http://www.w3.org/2000/svg"
   xml:space="preserve"
   style="enable-background:new 0 0 300 60;"
   viewBox="0 0 300 60"
   y="0px"
   x="0px"
   id="Layer_1"
   version="1.1"><metadata
     id="metadata224"><rdf:RDF><cc:Work
         rdf:about=""><dc:format>image/svg+xml</dc:format><dc:type
           rdf:resource="http://purl.org/dc/dcmitype/StillImage" /></cc:Work></rdf:RDF></metadata><defs
     id="defs222" /><style
     id="style2"
     type="text/css">
	.st0{fill:#231F20;}
</style><g
     id="g217"><g
       id="g120"><path
         id="path4"
         d="M84.5,16.9v-1l3.6,0v3.2c-0.6,0.4-1.1,0.8-1.7,1c-0.6,0.2-1.2,0.3-1.8,0.3c-0.8,0-1.6-0.2-2.3-0.5    c-0.7-0.4-1.2-0.9-1.6-1.6c-0.4-0.7-0.5-1.4-0.5-2.3c0-0.8,0.2-1.6,0.5-2.3c0.3-0.7,0.9-1.3,1.5-1.6c0.7-0.4,1.4-0.5,2.3-0.5    c0.6,0,1.2,0.1,1.7,0.3c0.5,0.2,0.9,0.5,1.2,0.8c0.3,0.4,0.5,0.8,0.6,1.4l-1,0.3c-0.1-0.4-0.3-0.8-0.5-1c-0.2-0.2-0.5-0.4-0.8-0.6    c-0.4-0.2-0.7-0.2-1.2-0.2c-0.5,0-1,0.1-1.3,0.2c-0.4,0.2-0.7,0.4-0.9,0.6c-0.2,0.3-0.4,0.5-0.5,0.8c-0.2,0.5-0.3,1.1-0.3,1.7    c0,0.8,0.1,1.4,0.4,1.9c0.3,0.5,0.6,0.9,1.1,1.1s1,0.4,1.6,0.4c0.5,0,1-0.1,1.4-0.3c0.5-0.2,0.8-0.4,1.1-0.6v-1.6H84.5z"
         class="st0" /><path
         id="path6"
         d="M89.2,17.2c0-1.2,0.3-2,1-2.6c0.5-0.5,1.2-0.7,2-0.7c0.9,0,1.6,0.3,2.1,0.8c0.5,0.6,0.8,1.3,0.8,2.3    c0,0.8-0.1,1.4-0.4,1.9c-0.2,0.5-0.6,0.8-1,1.1c-0.5,0.3-1,0.4-1.5,0.4c-0.9,0-1.6-0.3-2.1-0.8C89.5,19,89.2,18.2,89.2,17.2z     M90.3,17.2c0,0.8,0.2,1.4,0.5,1.8s0.8,0.6,1.3,0.6c0.5,0,1-0.2,1.3-0.6s0.5-1,0.5-1.8c0-0.8-0.2-1.4-0.5-1.7    c-0.3-0.4-0.8-0.6-1.3-0.6c-0.5,0-1,0.2-1.3,0.6C90.5,15.8,90.3,16.4,90.3,17.2z"
         class="st0" /><path
         id="path8"
         d="M98,20.3l-2.4-6.2h1.1l1.3,3.7c0.1,0.4,0.3,0.8,0.4,1.3c0.1-0.3,0.2-0.7,0.4-1.2l1.4-3.8h1.1L99,20.3H98z"
         class="st0" /><path
         id="path10"
         d="M106.5,18.3l1.1,0.1c-0.2,0.6-0.5,1.1-1,1.5s-1.1,0.5-1.8,0.5c-0.9,0-1.6-0.3-2.2-0.8    c-0.5-0.6-0.8-1.3-0.8-2.4c0-1,0.3-1.9,0.8-2.4s1.2-0.9,2.1-0.9c0.8,0,1.5,0.3,2,0.8c0.5,0.6,0.8,1.4,0.8,2.4c0,0.1,0,0.2,0,0.3    H103c0,0.7,0.2,1.2,0.6,1.6s0.8,0.5,1.3,0.5c0.4,0,0.7-0.1,1-0.3C106.2,19,106.4,18.7,106.5,18.3z M103.1,16.6h3.5    c0-0.5-0.2-0.9-0.4-1.2c-0.3-0.4-0.8-0.6-1.3-0.6c-0.5,0-0.9,0.2-1.2,0.5C103.3,15.6,103.1,16,103.1,16.6z"
         class="st0" /><path
         id="path12"
         d="M108.9,20.3v-6.2h0.9V15c0.2-0.4,0.5-0.7,0.7-0.9c0.2-0.1,0.4-0.2,0.7-0.2c0.4,0,0.7,0.1,1.1,0.3l-0.4,1    c-0.3-0.2-0.5-0.2-0.8-0.2c-0.2,0-0.4,0.1-0.6,0.2c-0.2,0.1-0.3,0.3-0.4,0.6c-0.1,0.4-0.2,0.8-0.2,1.2v3.3H108.9z"
         class="st0" /><path
         id="path14"
         d="M112.9,20.3v-6.2h0.9v0.9c0.5-0.7,1.1-1,2-1c0.4,0,0.7,0.1,1,0.2c0.3,0.1,0.5,0.3,0.7,0.5    c0.2,0.2,0.3,0.5,0.3,0.8c0,0.2,0.1,0.5,0.1,1v3.8h-1.1v-3.8c0-0.4,0-0.8-0.1-1c-0.1-0.2-0.2-0.4-0.4-0.5    c-0.2-0.1-0.5-0.2-0.7-0.2c-0.4,0-0.8,0.1-1.2,0.4c-0.3,0.3-0.5,0.8-0.5,1.6v3.4H112.9z"
         class="st0" /><path
         id="path16"
         d="M119.6,20.3v-6.2h0.9v0.9c0.2-0.3,0.5-0.5,0.8-0.7c0.3-0.2,0.7-0.3,1.1-0.3c0.5,0,0.8,0.1,1.1,0.3    c0.3,0.2,0.5,0.5,0.6,0.8c0.5-0.7,1.1-1.1,1.9-1.1c0.6,0,1.1,0.2,1.4,0.5c0.3,0.3,0.5,0.9,0.5,1.6v4.3h-1v-3.9    c0-0.4,0-0.7-0.1-0.9c-0.1-0.2-0.2-0.3-0.4-0.4c-0.2-0.1-0.4-0.2-0.6-0.2c-0.4,0-0.8,0.1-1.1,0.4c-0.3,0.3-0.4,0.8-0.4,1.4v3.6    h-1.1v-4c0-0.5-0.1-0.8-0.3-1.1c-0.2-0.2-0.5-0.4-0.8-0.4c-0.3,0-0.6,0.1-0.8,0.2c-0.3,0.2-0.4,0.4-0.5,0.7    c-0.1,0.3-0.2,0.7-0.2,1.3v3.2H119.6z"
         class="st0" /><path
         id="path18"
         d="M133.9,18.3l1.1,0.1c-0.2,0.6-0.5,1.1-1,1.5s-1.1,0.5-1.8,0.5c-0.9,0-1.6-0.3-2.2-0.8    c-0.5-0.6-0.8-1.3-0.8-2.4c0-1,0.3-1.9,0.8-2.4s1.2-0.9,2.1-0.9c0.8,0,1.5,0.3,2,0.8c0.5,0.6,0.8,1.4,0.8,2.4c0,0.1,0,0.2,0,0.3    h-4.6c0,0.7,0.2,1.2,0.6,1.6s0.8,0.5,1.3,0.5c0.4,0,0.7-0.1,1-0.3C133.5,19,133.7,18.7,133.9,18.3z M130.4,16.6h3.5    c0-0.5-0.2-0.9-0.4-1.2c-0.3-0.4-0.8-0.6-1.3-0.6c-0.5,0-0.9,0.2-1.2,0.5C130.6,15.6,130.4,16,130.4,16.6z"
         class="st0" /><path
         id="path20"
         d="M136.3,20.3v-6.2h0.9v0.9c0.5-0.7,1.1-1,2-1c0.4,0,0.7,0.1,1,0.2c0.3,0.1,0.5,0.3,0.7,0.5    c0.2,0.2,0.3,0.5,0.3,0.8c0,0.2,0.1,0.5,0.1,1v3.8h-1.1v-3.8c0-0.4,0-0.8-0.1-1c-0.1-0.2-0.2-0.4-0.4-0.5    c-0.2-0.1-0.5-0.2-0.7-0.2c-0.4,0-0.8,0.1-1.2,0.4c-0.3,0.3-0.5,0.8-0.5,1.6v3.4H136.3z"
         class="st0" /><path
         id="path22"
         d="M145.2,19.3l0.2,0.9c-0.3,0.1-0.6,0.1-0.8,0.1c-0.4,0-0.7-0.1-0.9-0.2c-0.2-0.1-0.4-0.3-0.4-0.5    c-0.1-0.2-0.1-0.6-0.1-1.2v-3.6h-0.8v-0.8h0.8v-1.5l1-0.6v2.2h1.1v0.8h-1.1v3.6c0,0.3,0,0.5,0.1,0.6s0.1,0.2,0.2,0.2    c0.1,0.1,0.2,0.1,0.4,0.1C144.9,19.4,145,19.4,145.2,19.3z"
         class="st0" /><path
         id="path24"
         d="M149.2,17.2c0-1.2,0.3-2,1-2.6c0.5-0.5,1.2-0.7,2-0.7c0.9,0,1.6,0.3,2.1,0.8c0.5,0.6,0.8,1.3,0.8,2.3    c0,0.8-0.1,1.4-0.4,1.9s-0.6,0.8-1,1.1c-0.5,0.3-1,0.4-1.5,0.4c-0.9,0-1.6-0.3-2.1-0.8C149.5,19,149.2,18.2,149.2,17.2z     M150.3,17.2c0,0.8,0.2,1.4,0.5,1.8c0.3,0.4,0.8,0.6,1.3,0.6c0.5,0,1-0.2,1.3-0.6s0.5-1,0.5-1.8c0-0.8-0.2-1.4-0.5-1.7    c-0.3-0.4-0.8-0.6-1.3-0.6c-0.5,0-1,0.2-1.3,0.6C150.5,15.8,150.3,16.4,150.3,17.2z"
         class="st0" /><path
         id="path26"
         d="M156.5,20.3v-5.4h-0.9v-0.8h0.9v-0.7c0-0.4,0-0.7,0.1-0.9c0.1-0.3,0.3-0.5,0.5-0.7c0.3-0.2,0.6-0.3,1.1-0.3    c0.3,0,0.6,0,1,0.1l-0.2,0.9c-0.2,0-0.4-0.1-0.6-0.1c-0.3,0-0.5,0.1-0.7,0.2c-0.1,0.1-0.2,0.4-0.2,0.8v0.6h1.2v0.8h-1.2v5.4H156.5    z"
         class="st0" /><path
         id="path28"
         d="M164.2,20.3l-2-8.6h1.8l1.3,5.9l1.6-5.9h2.1l1.5,6l1.3-6h1.7l-2.1,8.6h-1.8l-1.7-6.4l-1.7,6.4H164.2z"
         class="st0" /><path
         id="path30"
         d="M177.7,18.3l1.6,0.3c-0.2,0.6-0.5,1.1-1,1.4s-1,0.5-1.7,0.5c-1.1,0-1.9-0.4-2.4-1.1c-0.4-0.6-0.6-1.3-0.6-2.1    c0-1,0.3-1.8,0.8-2.4c0.5-0.6,1.2-0.9,2-0.9c0.9,0,1.7,0.3,2.2,0.9c0.5,0.6,0.8,1.5,0.8,2.8h-4.1c0,0.5,0.1,0.9,0.4,1.1    c0.3,0.3,0.6,0.4,0.9,0.4c0.3,0,0.5-0.1,0.6-0.2S177.6,18.6,177.7,18.3z M177.8,16.6c0-0.5-0.1-0.8-0.4-1.1    c-0.2-0.2-0.5-0.4-0.9-0.4c-0.4,0-0.7,0.1-0.9,0.4s-0.3,0.6-0.3,1.1H177.8z"
         class="st0" /><path
         id="path32"
         d="M180.2,18.5l1.7-0.3c0.1,0.3,0.2,0.6,0.4,0.7s0.5,0.2,0.9,0.2c0.4,0,0.7-0.1,1-0.2c0.1-0.1,0.2-0.3,0.2-0.4    c0-0.1,0-0.2-0.1-0.3c-0.1-0.1-0.3-0.2-0.5-0.2c-1.3-0.3-2.2-0.6-2.5-0.8c-0.5-0.3-0.7-0.8-0.7-1.4c0-0.5,0.2-1,0.6-1.4    c0.4-0.4,1.1-0.6,2-0.6c0.9,0,1.5,0.1,1.9,0.4c0.4,0.3,0.7,0.7,0.9,1.2l-1.6,0.3c-0.1-0.2-0.2-0.4-0.4-0.6    c-0.2-0.1-0.4-0.2-0.8-0.2c-0.4,0-0.7,0.1-0.9,0.2c-0.1,0.1-0.2,0.2-0.2,0.3c0,0.1,0.1,0.2,0.2,0.3c0.1,0.1,0.7,0.3,1.5,0.5    c0.9,0.2,1.5,0.4,1.8,0.7c0.3,0.3,0.5,0.7,0.5,1.2c0,0.6-0.2,1.1-0.7,1.5c-0.5,0.4-1.2,0.6-2.1,0.6c-0.8,0-1.5-0.2-2-0.5    C180.6,19.5,180.3,19.1,180.2,18.5z"
         class="st0" /><path
         id="path34"
         d="M190.3,14.1v1.3h-1.1v2.5c0,0.5,0,0.8,0,0.9c0,0.1,0.1,0.2,0.1,0.2s0.2,0.1,0.3,0.1c0.2,0,0.4-0.1,0.7-0.2    l0.1,1.3c-0.4,0.2-0.8,0.2-1.3,0.2c-0.3,0-0.6,0-0.8-0.1s-0.4-0.2-0.5-0.4c-0.1-0.2-0.2-0.4-0.2-0.6c0-0.2-0.1-0.6-0.1-1.2v-2.7    h-0.8v-1.3h0.8v-1.2l1.7-1v2.2H190.3z"
         class="st0" /><path
         id="path36"
         d="M195,18.3l1.6,0.3c-0.2,0.6-0.5,1.1-1,1.4s-1,0.5-1.7,0.5c-1.1,0-1.9-0.4-2.4-1.1c-0.4-0.6-0.6-1.3-0.6-2.1    c0-1,0.3-1.8,0.8-2.4c0.5-0.6,1.2-0.9,2-0.9c0.9,0,1.7,0.3,2.2,0.9c0.5,0.6,0.8,1.5,0.8,2.8h-4.1c0,0.5,0.1,0.9,0.4,1.1    c0.3,0.3,0.6,0.4,0.9,0.4c0.3,0,0.5-0.1,0.6-0.2S194.9,18.6,195,18.3z M195.1,16.6c0-0.5-0.1-0.8-0.4-1.1    c-0.2-0.2-0.5-0.4-0.9-0.4c-0.4,0-0.7,0.1-0.9,0.4s-0.3,0.6-0.3,1.1H195.1z"
         class="st0" /><path
         id="path38"
         d="M199.7,20.3H198v-6.2h1.5v0.9c0.3-0.4,0.5-0.7,0.7-0.8c0.2-0.1,0.4-0.2,0.7-0.2c0.4,0,0.7,0.1,1.1,0.3    l-0.5,1.4c-0.3-0.2-0.5-0.3-0.8-0.3c-0.2,0-0.4,0.1-0.6,0.2c-0.2,0.1-0.3,0.4-0.4,0.7c-0.1,0.3-0.1,1-0.1,2.1V20.3z"
         class="st0" /><path
         id="path40"
         d="M208.4,20.3h-1.6v-3.2c0-0.7,0-1.1-0.1-1.3c-0.1-0.2-0.2-0.4-0.3-0.5c-0.2-0.1-0.3-0.2-0.6-0.2    c-0.3,0-0.5,0.1-0.8,0.2c-0.2,0.2-0.4,0.4-0.5,0.6s-0.1,0.7-0.1,1.4v2.8h-1.6v-6.2h1.5V15c0.5-0.7,1.2-1.1,2-1.1    c0.4,0,0.7,0.1,1,0.2c0.3,0.1,0.5,0.3,0.7,0.5c0.2,0.2,0.3,0.4,0.3,0.7c0.1,0.3,0.1,0.6,0.1,1.1V20.3z"
         class="st0" /><path
         id="path42"
         d="M220.7,20.3h-1.9l-0.7-1.9h-3.4l-0.7,1.9h-1.8l3.3-8.6h1.8L220.7,20.3z M217.5,16.9l-1.2-3.2l-1.2,3.2H217.5z    "
         class="st0" /><path
         id="path44"
         d="M225.7,20.3v-0.9c-0.2,0.3-0.5,0.6-0.9,0.8c-0.4,0.2-0.8,0.3-1.2,0.3c-0.4,0-0.8-0.1-1.1-0.3    c-0.3-0.2-0.6-0.4-0.7-0.8s-0.2-0.8-0.2-1.4v-3.9h1.6v2.9c0,0.9,0,1.4,0.1,1.6c0.1,0.2,0.2,0.4,0.3,0.5c0.2,0.1,0.4,0.2,0.6,0.2    c0.3,0,0.5-0.1,0.8-0.2c0.2-0.2,0.4-0.3,0.5-0.6c0.1-0.2,0.1-0.8,0.1-1.7v-2.6h1.6v6.2H225.7z"
         class="st0" /><path
         id="path46"
         d="M228.3,18.5l1.7-0.3c0.1,0.3,0.2,0.6,0.4,0.7s0.5,0.2,0.9,0.2c0.4,0,0.7-0.1,1-0.2c0.1-0.1,0.2-0.3,0.2-0.4    c0-0.1,0-0.2-0.1-0.3c-0.1-0.1-0.3-0.2-0.5-0.2c-1.3-0.3-2.2-0.6-2.5-0.8c-0.5-0.3-0.7-0.8-0.7-1.4c0-0.5,0.2-1,0.6-1.4    c0.4-0.4,1.1-0.6,2-0.6c0.9,0,1.5,0.1,1.9,0.4c0.4,0.3,0.7,0.7,0.9,1.2l-1.6,0.3c-0.1-0.2-0.2-0.4-0.4-0.6    c-0.2-0.1-0.4-0.2-0.8-0.2c-0.4,0-0.7,0.1-0.9,0.2c-0.1,0.1-0.2,0.2-0.2,0.3c0,0.1,0.1,0.2,0.2,0.3c0.1,0.1,0.7,0.3,1.5,0.5    c0.9,0.2,1.5,0.4,1.8,0.7c0.3,0.3,0.5,0.7,0.5,1.2c0,0.6-0.2,1.1-0.7,1.5c-0.5,0.4-1.2,0.6-2.1,0.6c-0.8,0-1.5-0.2-2-0.5    C228.8,19.5,228.5,19.1,228.3,18.5z"
         class="st0" /><path
         id="path48"
         d="M238.4,14.1v1.3h-1.1v2.5c0,0.5,0,0.8,0,0.9c0,0.1,0.1,0.2,0.1,0.2s0.2,0.1,0.3,0.1c0.2,0,0.4-0.1,0.7-0.2    l0.1,1.3c-0.4,0.2-0.8,0.2-1.3,0.2c-0.3,0-0.6,0-0.8-0.1s-0.4-0.2-0.5-0.4c-0.1-0.2-0.2-0.4-0.2-0.6c0-0.2-0.1-0.6-0.1-1.2v-2.7    h-0.8v-1.3h0.8v-1.2l1.7-1v2.2H238.4z"
         class="st0" /><path
         id="path50"
         d="M241.2,20.3h-1.6v-6.2h1.5v0.9c0.3-0.4,0.5-0.7,0.7-0.8c0.2-0.1,0.4-0.2,0.7-0.2c0.4,0,0.7,0.1,1.1,0.3    l-0.5,1.4c-0.3-0.2-0.5-0.3-0.8-0.3c-0.2,0-0.4,0.1-0.6,0.2c-0.2,0.1-0.3,0.4-0.4,0.7c-0.1,0.3-0.1,1-0.1,2.1V20.3z"
         class="st0" /><path
         id="path52"
         d="M245.5,15.9l-1.5-0.3c0.2-0.6,0.5-1,0.9-1.3c0.4-0.3,1-0.4,1.8-0.4c0.7,0,1.3,0.1,1.6,0.3    c0.4,0.2,0.6,0.4,0.8,0.7c0.1,0.3,0.2,0.8,0.2,1.5l0,1.9c0,0.5,0,0.9,0.1,1.2s0.2,0.5,0.3,0.8H248c0-0.1-0.1-0.3-0.2-0.5    c0-0.1,0-0.2-0.1-0.2c-0.3,0.3-0.6,0.5-0.9,0.6c-0.3,0.1-0.7,0.2-1,0.2c-0.6,0-1.1-0.2-1.5-0.5c-0.4-0.3-0.6-0.8-0.6-1.3    c0-0.4,0.1-0.7,0.3-0.9c0.2-0.3,0.4-0.5,0.7-0.6c0.3-0.1,0.7-0.3,1.3-0.4c0.8-0.1,1.3-0.3,1.6-0.4V16c0-0.3-0.1-0.5-0.2-0.7    c-0.2-0.1-0.5-0.2-0.9-0.2c-0.3,0-0.5,0.1-0.7,0.2C245.7,15.5,245.6,15.7,245.5,15.9z M247.7,17.3c-0.2,0.1-0.5,0.2-1,0.3    c-0.5,0.1-0.8,0.2-0.9,0.3c-0.2,0.2-0.3,0.3-0.3,0.6c0,0.2,0.1,0.4,0.3,0.6s0.4,0.3,0.7,0.3c0.3,0,0.6-0.1,0.8-0.3    c0.2-0.1,0.3-0.3,0.4-0.5c0-0.1,0.1-0.4,0.1-0.8V17.3z"
         class="st0" /><path
         id="path54"
         d="M250.9,20.3v-8.6h1.6v8.6H250.9z"
         class="st0" /><path
         id="path56"
         d="M254.2,13.2v-1.5h1.6v1.5H254.2z M254.2,20.3v-6.2h1.6v6.2H254.2z"
         class="st0" /><path
         id="path58"
         d="M258.8,15.9l-1.5-0.3c0.2-0.6,0.5-1,0.9-1.3c0.4-0.3,1-0.4,1.8-0.4c0.7,0,1.3,0.1,1.6,0.3    c0.4,0.2,0.6,0.4,0.8,0.7c0.1,0.3,0.2,0.8,0.2,1.5l0,1.9c0,0.5,0,0.9,0.1,1.2s0.2,0.5,0.3,0.8h-1.6c0-0.1-0.1-0.3-0.2-0.5    c0-0.1,0-0.2-0.1-0.2c-0.3,0.3-0.6,0.5-0.9,0.6c-0.3,0.1-0.7,0.2-1,0.2c-0.6,0-1.1-0.2-1.5-0.5c-0.4-0.3-0.6-0.8-0.6-1.3    c0-0.4,0.1-0.7,0.3-0.9c0.2-0.3,0.4-0.5,0.7-0.6c0.3-0.1,0.7-0.3,1.3-0.4c0.8-0.1,1.3-0.3,1.6-0.4V16c0-0.3-0.1-0.5-0.2-0.7    c-0.2-0.1-0.5-0.2-0.9-0.2c-0.3,0-0.5,0.1-0.7,0.2C259,15.5,258.9,15.7,258.8,15.9z M261,17.3c-0.2,0.1-0.5,0.2-1,0.3    c-0.5,0.1-0.8,0.2-0.9,0.3c-0.2,0.2-0.3,0.3-0.3,0.6c0,0.2,0.1,0.4,0.3,0.6s0.4,0.3,0.7,0.3c0.3,0,0.6-0.1,0.8-0.3    c0.2-0.1,0.3-0.3,0.4-0.5c0-0.1,0.1-0.4,0.1-0.8V17.3z"
         class="st0" /><path
         id="path60"
         d="M85.9,31.8l1.7,0.5c-0.3,0.9-0.7,1.6-1.3,2.1c-0.6,0.5-1.4,0.7-2.3,0.7c-1.1,0-2.1-0.4-2.8-1.2    c-0.7-0.8-1.1-1.8-1.1-3.2c0-1.4,0.4-2.5,1.1-3.3c0.7-0.8,1.7-1.2,2.9-1.2c1,0,1.9,0.3,2.6,0.9c0.4,0.4,0.7,0.9,0.9,1.6l-1.7,0.4    c-0.1-0.4-0.3-0.8-0.6-1.1s-0.7-0.4-1.2-0.4c-0.6,0-1.2,0.2-1.5,0.7s-0.6,1.2-0.6,2.2c0,1.1,0.2,1.9,0.6,2.3    c0.4,0.5,0.9,0.7,1.5,0.7c0.5,0,0.9-0.1,1.2-0.4S85.7,32.4,85.9,31.8z"
         class="st0" /><path
         id="path62"
         d="M88.7,31.7c0-0.5,0.1-1.1,0.4-1.6s0.7-0.9,1.1-1.2s1-0.4,1.7-0.4c0.9,0,1.7,0.3,2.3,0.9    c0.6,0.6,0.9,1.4,0.9,2.3c0,0.9-0.3,1.7-0.9,2.3c-0.6,0.6-1.4,0.9-2.3,0.9c-0.6,0-1.1-0.1-1.6-0.4s-0.9-0.6-1.2-1.1    C88.8,33,88.7,32.4,88.7,31.7z M90.3,31.8c0,0.6,0.1,1.1,0.4,1.4s0.7,0.5,1.1,0.5s0.8-0.2,1.1-0.5c0.3-0.3,0.4-0.8,0.4-1.4    c0-0.6-0.1-1.1-0.4-1.4c-0.3-0.3-0.7-0.5-1.1-0.5s-0.8,0.2-1.1,0.5C90.5,30.7,90.3,31.2,90.3,31.8z"
         class="st0" /><path
         id="path64"
         d="M102,34.9h-1.6v-3.2c0-0.7,0-1.1-0.1-1.3c-0.1-0.2-0.2-0.4-0.3-0.5c-0.2-0.1-0.3-0.2-0.6-0.2    c-0.3,0-0.5,0.1-0.8,0.2c-0.2,0.2-0.4,0.4-0.5,0.6S98,31.4,98,32.1v2.8h-1.6v-6.2h1.5v0.9c0.5-0.7,1.2-1.1,2-1.1    c0.4,0,0.7,0.1,1,0.2c0.3,0.1,0.5,0.3,0.7,0.5c0.2,0.2,0.3,0.4,0.3,0.7c0.1,0.3,0.1,0.6,0.1,1.1V34.9z"
         class="st0" /><path
         id="path66"
         d="M103.1,33.1l1.7-0.3c0.1,0.3,0.2,0.6,0.4,0.7c0.2,0.2,0.5,0.2,0.9,0.2c0.4,0,0.7-0.1,1-0.2    c0.1-0.1,0.2-0.3,0.2-0.4c0-0.1,0-0.2-0.1-0.3c-0.1-0.1-0.3-0.2-0.6-0.2c-1.3-0.3-2.2-0.6-2.5-0.8c-0.5-0.3-0.7-0.8-0.7-1.4    c0-0.5,0.2-1,0.6-1.4s1.1-0.6,2-0.6c0.9,0,1.5,0.1,1.9,0.4s0.7,0.7,0.9,1.2l-1.6,0.3c-0.1-0.2-0.2-0.4-0.4-0.6    c-0.2-0.1-0.4-0.2-0.8-0.2c-0.4,0-0.7,0.1-0.9,0.2c-0.1,0.1-0.2,0.2-0.2,0.3c0,0.1,0.1,0.2,0.2,0.3c0.1,0.1,0.7,0.3,1.5,0.5    c0.9,0.2,1.5,0.4,1.8,0.7c0.3,0.3,0.5,0.7,0.5,1.2c0,0.6-0.2,1.1-0.7,1.5c-0.5,0.4-1.2,0.6-2.1,0.6c-0.8,0-1.5-0.2-2-0.5    C103.6,34.2,103.3,33.7,103.1,33.1z"
         class="st0" /><path
         id="path68"
         d="M113.9,32.9l1.6,0.3c-0.2,0.6-0.5,1.1-1,1.4c-0.5,0.3-1,0.5-1.7,0.5c-1.1,0-1.9-0.4-2.4-1.1    c-0.4-0.6-0.6-1.3-0.6-2.1c0-1,0.3-1.8,0.8-2.4c0.5-0.6,1.2-0.9,2-0.9c0.9,0,1.7,0.3,2.2,0.9c0.5,0.6,0.8,1.5,0.8,2.8h-4.1    c0,0.5,0.1,0.9,0.4,1.1c0.3,0.3,0.6,0.4,0.9,0.4c0.3,0,0.5-0.1,0.6-0.2C113.7,33.5,113.9,33.2,113.9,32.9z M114,31.3    c0-0.5-0.1-0.8-0.4-1.1c-0.2-0.2-0.5-0.4-0.9-0.4c-0.4,0-0.7,0.1-0.9,0.4c-0.2,0.3-0.3,0.6-0.3,1.1H114z"
         class="st0" /><path
         id="path70"
         d="M118.6,34.9h-1.6v-6.2h1.5v0.9c0.3-0.4,0.5-0.7,0.7-0.8c0.2-0.1,0.4-0.2,0.7-0.2c0.4,0,0.7,0.1,1.1,0.3    l-0.5,1.4c-0.3-0.2-0.5-0.3-0.8-0.3c-0.2,0-0.4,0.1-0.6,0.2s-0.3,0.4-0.4,0.7s-0.1,1-0.1,2.1V34.9z"
         class="st0" /><path
         id="path72"
         d="M123.4,34.9l-2.5-6.2h1.7l1.2,3.2l0.3,1.1c0.1-0.3,0.1-0.4,0.2-0.5c0.1-0.2,0.1-0.4,0.2-0.5l1.2-3.2h1.7    l-2.5,6.2H123.4z"
         class="st0" /><path
         id="path74"
         d="M129.6,30.6l-1.5-0.3c0.2-0.6,0.5-1,0.9-1.3s1-0.4,1.8-0.4c0.7,0,1.3,0.1,1.6,0.3c0.4,0.2,0.6,0.4,0.8,0.7    c0.1,0.3,0.2,0.8,0.2,1.5l0,1.9c0,0.5,0,0.9,0.1,1.2s0.2,0.5,0.3,0.8h-1.6c0-0.1-0.1-0.3-0.2-0.5c0-0.1,0-0.2-0.1-0.2    c-0.3,0.3-0.6,0.5-0.9,0.6c-0.3,0.1-0.7,0.2-1,0.2c-0.6,0-1.1-0.2-1.5-0.5c-0.4-0.3-0.6-0.8-0.6-1.3c0-0.4,0.1-0.7,0.3-0.9    c0.2-0.3,0.4-0.5,0.7-0.6c0.3-0.1,0.7-0.3,1.3-0.4c0.8-0.1,1.3-0.3,1.6-0.4v-0.2c0-0.3-0.1-0.5-0.2-0.7c-0.2-0.1-0.5-0.2-0.9-0.2    c-0.3,0-0.5,0.1-0.7,0.2C129.8,30.1,129.7,30.3,129.6,30.6z M131.8,31.9c-0.2,0.1-0.5,0.2-1,0.3c-0.5,0.1-0.8,0.2-0.9,0.3    c-0.2,0.2-0.3,0.3-0.3,0.6c0,0.2,0.1,0.4,0.3,0.6c0.2,0.2,0.4,0.3,0.7,0.3c0.3,0,0.6-0.1,0.8-0.3c0.2-0.1,0.3-0.3,0.4-0.5    c0-0.1,0.1-0.4,0.1-0.8V31.9z"
         class="st0" /><path
         id="path76"
         d="M137.9,28.7V30h-1.1v2.5c0,0.5,0,0.8,0,0.9c0,0.1,0.1,0.2,0.1,0.2c0.1,0.1,0.2,0.1,0.3,0.1    c0.2,0,0.4-0.1,0.7-0.2l0.1,1.3c-0.4,0.2-0.8,0.2-1.3,0.2c-0.3,0-0.6,0-0.8-0.1c-0.2-0.1-0.4-0.2-0.5-0.4s-0.2-0.4-0.2-0.6    c0-0.2-0.1-0.6-0.1-1.2V30h-0.8v-1.3h0.8v-1.2l1.7-1v2.2H137.9z"
         class="st0" /><path
         id="path78"
         d="M139,27.8v-1.5h1.6v1.5H139z M139,34.9v-6.2h1.6v6.2H139z"
         class="st0" /><path
         id="path80"
         d="M141.9,31.7c0-0.5,0.1-1.1,0.4-1.6s0.7-0.9,1.1-1.2s1-0.4,1.7-0.4c0.9,0,1.7,0.3,2.3,0.9    c0.6,0.6,0.9,1.4,0.9,2.3c0,0.9-0.3,1.7-0.9,2.3c-0.6,0.6-1.4,0.9-2.3,0.9c-0.6,0-1.1-0.1-1.6-0.4s-0.9-0.6-1.2-1.1    C142.1,33,141.9,32.4,141.9,31.7z M143.6,31.8c0,0.6,0.1,1.1,0.4,1.4s0.7,0.5,1.1,0.5s0.8-0.2,1.1-0.5c0.3-0.3,0.4-0.8,0.4-1.4    c0-0.6-0.1-1.1-0.4-1.4c-0.3-0.3-0.7-0.5-1.1-0.5s-0.8,0.2-1.1,0.5C143.8,30.7,143.6,31.2,143.6,31.8z"
         class="st0" /><path
         id="path82"
         d="M155.3,34.9h-1.6v-3.2c0-0.7,0-1.1-0.1-1.3c-0.1-0.2-0.2-0.4-0.3-0.5c-0.2-0.1-0.3-0.2-0.6-0.2    c-0.3,0-0.5,0.1-0.8,0.2c-0.2,0.2-0.4,0.4-0.5,0.6s-0.1,0.7-0.1,1.4v2.8h-1.6v-6.2h1.5v0.9c0.5-0.7,1.2-1.1,2-1.1    c0.4,0,0.7,0.1,1,0.2c0.3,0.1,0.5,0.3,0.7,0.5c0.2,0.2,0.3,0.4,0.3,0.7c0.1,0.3,0.1,0.6,0.1,1.1V34.9z"
         class="st0" /><path
         id="path84"
         d="M161.5,30.6l-1.5-0.3c0.2-0.6,0.5-1,0.9-1.3c0.4-0.3,1-0.4,1.8-0.4c0.7,0,1.3,0.1,1.6,0.3    c0.4,0.2,0.6,0.4,0.8,0.7c0.1,0.3,0.2,0.8,0.2,1.5l0,1.9c0,0.5,0,0.9,0.1,1.2s0.2,0.5,0.3,0.8h-1.6c0-0.1-0.1-0.3-0.2-0.5    c0-0.1,0-0.2-0.1-0.2c-0.3,0.3-0.6,0.5-0.9,0.6c-0.3,0.1-0.7,0.2-1,0.2c-0.6,0-1.1-0.2-1.5-0.5c-0.4-0.3-0.6-0.8-0.6-1.3    c0-0.4,0.1-0.7,0.3-0.9s0.4-0.5,0.7-0.6c0.3-0.1,0.7-0.3,1.3-0.4c0.8-0.1,1.3-0.3,1.6-0.4v-0.2c0-0.3-0.1-0.5-0.2-0.7    c-0.2-0.1-0.5-0.2-0.9-0.2c-0.3,0-0.5,0.1-0.7,0.2C161.8,30.1,161.6,30.3,161.5,30.6z M163.7,31.9c-0.2,0.1-0.5,0.2-1,0.3    c-0.5,0.1-0.8,0.2-0.9,0.3c-0.2,0.2-0.3,0.3-0.3,0.6c0,0.2,0.1,0.4,0.3,0.6s0.4,0.3,0.7,0.3c0.3,0,0.6-0.1,0.8-0.3    c0.2-0.1,0.3-0.3,0.4-0.5c0-0.1,0.1-0.4,0.1-0.8V31.9z"
         class="st0" /><path
         id="path86"
         d="M172.6,34.9H171v-3.2c0-0.7,0-1.1-0.1-1.3c-0.1-0.2-0.2-0.4-0.3-0.5c-0.2-0.1-0.3-0.2-0.6-0.2    c-0.3,0-0.5,0.1-0.8,0.2c-0.2,0.2-0.4,0.4-0.5,0.6s-0.1,0.7-0.1,1.4v2.8H167v-6.2h1.5v0.9c0.5-0.7,1.2-1.1,2-1.1    c0.4,0,0.7,0.1,1,0.2c0.3,0.1,0.5,0.3,0.7,0.5c0.2,0.2,0.3,0.4,0.3,0.7c0.1,0.3,0.1,0.6,0.1,1.1V34.9z"
         class="st0" /><path
         id="path88"
         d="M180,34.9h-1.5V34c-0.3,0.4-0.6,0.6-0.9,0.8c-0.3,0.2-0.7,0.3-1,0.3c-0.7,0-1.3-0.3-1.8-0.9    c-0.5-0.6-0.8-1.4-0.8-2.4c0-1.1,0.2-1.9,0.7-2.4c0.5-0.5,1.1-0.8,1.9-0.8c0.7,0,1.3,0.3,1.8,0.9v-3.1h1.6V34.9z M175.6,31.7    c0,0.7,0.1,1.1,0.3,1.4c0.3,0.4,0.6,0.6,1.1,0.6c0.4,0,0.7-0.2,1-0.5c0.3-0.3,0.4-0.8,0.4-1.4c0-0.7-0.1-1.2-0.4-1.5    c-0.3-0.3-0.6-0.5-1-0.5c-0.4,0-0.7,0.2-1,0.5S175.6,31,175.6,31.7z"
         class="st0" /><path
         id="path90"
         d="M185,34.9v-8.6h2.8c1.1,0,1.7,0,2.1,0.1c0.5,0.1,0.9,0.4,1.2,0.8c0.3,0.4,0.5,1,0.5,1.7c0,0.5-0.1,1-0.3,1.3    c-0.2,0.4-0.4,0.6-0.7,0.8c-0.3,0.2-0.6,0.3-0.9,0.4c-0.4,0.1-1,0.1-1.8,0.1h-1.1v3.2H185z M186.7,27.8v2.4h0.9    c0.7,0,1.1,0,1.4-0.1c0.2-0.1,0.4-0.2,0.5-0.4c0.1-0.2,0.2-0.4,0.2-0.7c0-0.3-0.1-0.6-0.3-0.8c-0.2-0.2-0.4-0.3-0.7-0.4    c-0.2,0-0.6-0.1-1.2-0.1H186.7z"
         class="st0" /><path
         id="path92"
         d="M194.2,30.6l-1.5-0.3c0.2-0.6,0.5-1,0.9-1.3c0.4-0.3,1-0.4,1.8-0.4c0.7,0,1.3,0.1,1.6,0.3    c0.4,0.2,0.6,0.4,0.8,0.7c0.1,0.3,0.2,0.8,0.2,1.5l0,1.9c0,0.5,0,0.9,0.1,1.2s0.2,0.5,0.3,0.8h-1.6c0-0.1-0.1-0.3-0.2-0.5    c0-0.1,0-0.2-0.1-0.2c-0.3,0.3-0.6,0.5-0.9,0.6c-0.3,0.1-0.7,0.2-1,0.2c-0.6,0-1.1-0.2-1.5-0.5c-0.4-0.3-0.6-0.8-0.6-1.3    c0-0.4,0.1-0.7,0.3-0.9s0.4-0.5,0.7-0.6c0.3-0.1,0.7-0.3,1.3-0.4c0.8-0.1,1.3-0.3,1.6-0.4v-0.2c0-0.3-0.1-0.5-0.2-0.7    c-0.2-0.1-0.5-0.2-0.9-0.2c-0.3,0-0.5,0.1-0.7,0.2C194.4,30.1,194.3,30.3,194.2,30.6z M196.4,31.9c-0.2,0.1-0.5,0.2-1,0.3    c-0.5,0.1-0.8,0.2-0.9,0.3c-0.2,0.2-0.3,0.3-0.3,0.6c0,0.2,0.1,0.4,0.3,0.6s0.4,0.3,0.7,0.3c0.3,0,0.6-0.1,0.8-0.3    c0.2-0.1,0.3-0.3,0.4-0.5c0-0.1,0.1-0.4,0.1-0.8V31.9z"
         class="st0" /><path
         id="path94"
         d="M201.2,34.9h-1.6v-6.2h1.5v0.9c0.3-0.4,0.5-0.7,0.7-0.8c0.2-0.1,0.4-0.2,0.7-0.2c0.4,0,0.7,0.1,1.1,0.3    l-0.5,1.4c-0.3-0.2-0.5-0.3-0.8-0.3c-0.2,0-0.4,0.1-0.6,0.2c-0.2,0.1-0.3,0.4-0.4,0.7s-0.1,1-0.1,2.1V34.9z"
         class="st0" /><path
         id="path96"
         d="M204.2,34.9v-8.6h1.6v4.6l1.9-2.2h2l-2.1,2.3l2.3,3.9h-1.8l-1.6-2.8l-0.8,0.8v2H204.2z"
         class="st0" /><path
         id="path98"
         d="M210.4,33.1l1.7-0.3c0.1,0.3,0.2,0.6,0.4,0.7s0.5,0.2,0.9,0.2c0.4,0,0.7-0.1,1-0.2c0.1-0.1,0.2-0.3,0.2-0.4    c0-0.1,0-0.2-0.1-0.3c-0.1-0.1-0.3-0.2-0.5-0.2c-1.3-0.3-2.2-0.6-2.5-0.8c-0.5-0.3-0.7-0.8-0.7-1.4c0-0.5,0.2-1,0.6-1.4    c0.4-0.4,1.1-0.6,2-0.6c0.9,0,1.5,0.1,1.9,0.4c0.4,0.3,0.7,0.7,0.9,1.2l-1.6,0.3c-0.1-0.2-0.2-0.4-0.4-0.6    c-0.2-0.1-0.4-0.2-0.8-0.2c-0.4,0-0.7,0.1-0.9,0.2c-0.1,0.1-0.2,0.2-0.2,0.3c0,0.1,0.1,0.2,0.2,0.3c0.1,0.1,0.7,0.3,1.5,0.5    c0.9,0.2,1.5,0.4,1.8,0.7c0.3,0.3,0.5,0.7,0.5,1.2c0,0.6-0.2,1.1-0.7,1.5c-0.5,0.4-1.2,0.6-2.1,0.6c-0.8,0-1.5-0.2-2-0.5    C210.8,34.2,210.5,33.7,210.4,33.1z"
         class="st0" /><path
         id="path100"
         d="M226.4,31.8l1.7,0.5c-0.3,0.9-0.7,1.6-1.3,2.1c-0.6,0.5-1.4,0.7-2.3,0.7c-1.1,0-2.1-0.4-2.8-1.2    c-0.7-0.8-1.1-1.8-1.1-3.2c0-1.4,0.4-2.5,1.1-3.3c0.7-0.8,1.7-1.2,2.9-1.2c1,0,1.9,0.3,2.6,0.9c0.4,0.4,0.7,0.9,0.9,1.6l-1.7,0.4    c-0.1-0.4-0.3-0.8-0.6-1.1c-0.3-0.3-0.7-0.4-1.2-0.4c-0.6,0-1.2,0.2-1.5,0.7c-0.4,0.5-0.6,1.2-0.6,2.2c0,1.1,0.2,1.9,0.6,2.3    c0.4,0.5,0.9,0.7,1.5,0.7c0.5,0,0.9-0.1,1.2-0.4C226,32.8,226.3,32.4,226.4,31.8z"
         class="st0" /><path
         id="path102"
         d="M229.2,31.7c0-0.5,0.1-1.1,0.4-1.6s0.7-0.9,1.1-1.2c0.5-0.3,1-0.4,1.7-0.4c0.9,0,1.7,0.3,2.3,0.9    c0.6,0.6,0.9,1.4,0.9,2.3c0,0.9-0.3,1.7-0.9,2.3c-0.6,0.6-1.4,0.9-2.3,0.9c-0.6,0-1.1-0.1-1.6-0.4c-0.5-0.3-0.9-0.6-1.2-1.1    C229.3,33,229.2,32.4,229.2,31.7z M230.9,31.8c0,0.6,0.1,1.1,0.4,1.4s0.7,0.5,1.1,0.5c0.4,0,0.8-0.2,1.1-0.5    c0.3-0.3,0.4-0.8,0.4-1.4c0-0.6-0.1-1.1-0.4-1.4c-0.3-0.3-0.7-0.5-1.1-0.5c-0.4,0-0.8,0.2-1.1,0.5C231,30.7,230.9,31.2,230.9,31.8    z"
         class="st0" /><path
         id="path104"
         d="M236.8,28.7h1.5v0.8c0.5-0.7,1.2-1,1.9-1c0.4,0,0.7,0.1,1,0.2c0.3,0.2,0.5,0.4,0.7,0.7    c0.3-0.3,0.6-0.6,0.9-0.7c0.3-0.2,0.7-0.2,1-0.2c0.5,0,0.8,0.1,1.2,0.3c0.3,0.2,0.6,0.5,0.7,0.8c0.1,0.3,0.2,0.7,0.2,1.3v4h-1.6    v-3.6c0-0.6-0.1-1-0.2-1.2c-0.2-0.2-0.4-0.4-0.7-0.4c-0.2,0-0.4,0.1-0.6,0.2c-0.2,0.1-0.3,0.3-0.4,0.6s-0.1,0.7-0.1,1.3v3h-1.6    v-3.4c0-0.6,0-1-0.1-1.2c-0.1-0.2-0.1-0.3-0.3-0.4c-0.1-0.1-0.3-0.1-0.5-0.1c-0.3,0-0.5,0.1-0.7,0.2c-0.2,0.1-0.3,0.3-0.4,0.6    s-0.1,0.7-0.1,1.3v3h-1.6V28.7z"
         class="st0" /><path
         id="path106"
         d="M247.4,28.7h1.5v0.8c0.5-0.7,1.2-1,1.9-1c0.4,0,0.7,0.1,1,0.2c0.3,0.2,0.5,0.4,0.7,0.7    c0.3-0.3,0.6-0.6,0.9-0.7c0.3-0.2,0.7-0.2,1-0.2c0.5,0,0.8,0.1,1.2,0.3c0.3,0.2,0.6,0.5,0.7,0.8c0.1,0.3,0.2,0.7,0.2,1.3v4h-1.6    v-3.6c0-0.6-0.1-1-0.2-1.2c-0.2-0.2-0.4-0.4-0.7-0.4c-0.2,0-0.4,0.1-0.6,0.2c-0.2,0.1-0.3,0.3-0.4,0.6s-0.1,0.7-0.1,1.3v3h-1.6    v-3.4c0-0.6,0-1-0.1-1.2c-0.1-0.2-0.1-0.3-0.3-0.4c-0.1-0.1-0.3-0.1-0.5-0.1c-0.3,0-0.5,0.1-0.7,0.2c-0.2,0.1-0.3,0.3-0.4,0.6    s-0.1,0.7-0.1,1.3v3h-1.6V28.7z"
         class="st0" /><path
         id="path108"
         d="M258.2,27.8v-1.5h1.6v1.5H258.2z M258.2,34.9v-6.2h1.6v6.2H258.2z"
         class="st0" /><path
         id="path110"
         d="M261,33.1l1.7-0.3c0.1,0.3,0.2,0.6,0.4,0.7s0.5,0.2,0.9,0.2c0.4,0,0.7-0.1,1-0.2c0.1-0.1,0.2-0.3,0.2-0.4    c0-0.1,0-0.2-0.1-0.3c-0.1-0.1-0.3-0.2-0.5-0.2c-1.3-0.3-2.2-0.6-2.5-0.8c-0.5-0.3-0.7-0.8-0.7-1.4c0-0.5,0.2-1,0.6-1.4    c0.4-0.4,1.1-0.6,2-0.6c0.9,0,1.5,0.1,1.9,0.4c0.4,0.3,0.7,0.7,0.9,1.2l-1.6,0.3c-0.1-0.2-0.2-0.4-0.4-0.6    c-0.2-0.1-0.4-0.2-0.8-0.2c-0.4,0-0.7,0.1-0.9,0.2c-0.1,0.1-0.2,0.2-0.2,0.3c0,0.1,0.1,0.2,0.2,0.3c0.1,0.1,0.7,0.3,1.5,0.5    c0.9,0.2,1.5,0.4,1.8,0.7c0.3,0.3,0.5,0.7,0.5,1.2c0,0.6-0.2,1.1-0.7,1.5c-0.5,0.4-1.2,0.6-2.1,0.6c-0.8,0-1.5-0.2-2-0.5    C261.5,34.2,261.1,33.7,261,33.1z"
         class="st0" /><path
         id="path112"
         d="M267.6,33.1l1.7-0.3c0.1,0.3,0.2,0.6,0.4,0.7s0.5,0.2,0.9,0.2c0.4,0,0.7-0.1,1-0.2c0.1-0.1,0.2-0.3,0.2-0.4    c0-0.1,0-0.2-0.1-0.3c-0.1-0.1-0.3-0.2-0.5-0.2c-1.3-0.3-2.2-0.6-2.5-0.8c-0.5-0.3-0.7-0.8-0.7-1.4c0-0.5,0.2-1,0.6-1.4    c0.4-0.4,1.1-0.6,2-0.6c0.9,0,1.5,0.1,1.9,0.4c0.4,0.3,0.7,0.7,0.9,1.2l-1.6,0.3c-0.1-0.2-0.2-0.4-0.4-0.6    c-0.2-0.1-0.4-0.2-0.8-0.2c-0.4,0-0.7,0.1-0.9,0.2c-0.1,0.1-0.2,0.2-0.2,0.3c0,0.1,0.1,0.2,0.2,0.3c0.1,0.1,0.7,0.3,1.5,0.5    c0.9,0.2,1.5,0.4,1.8,0.7c0.3,0.3,0.5,0.7,0.5,1.2c0,0.6-0.2,1.1-0.7,1.5c-0.5,0.4-1.2,0.6-2.1,0.6c-0.8,0-1.5-0.2-2-0.5    C268.1,34.2,267.8,33.7,267.6,33.1z"
         class="st0" /><path
         id="path114"
         d="M274.9,27.8v-1.5h1.6v1.5H274.9z M274.9,34.9v-6.2h1.6v6.2H274.9z"
         class="st0" /><path
         id="path116"
         d="M277.8,31.7c0-0.5,0.1-1.1,0.4-1.6s0.7-0.9,1.1-1.2c0.5-0.3,1-0.4,1.7-0.4c0.9,0,1.7,0.3,2.3,0.9    c0.6,0.6,0.9,1.4,0.9,2.3c0,0.9-0.3,1.7-0.9,2.3c-0.6,0.6-1.4,0.9-2.3,0.9c-0.6,0-1.1-0.1-1.6-0.4c-0.5-0.3-0.9-0.6-1.2-1.1    C278,33,277.8,32.4,277.8,31.7z M279.5,31.8c0,0.6,0.1,1.1,0.4,1.4s0.7,0.5,1.1,0.5c0.4,0,0.8-0.2,1.1-0.5    c0.3-0.3,0.4-0.8,0.4-1.4c0-0.6-0.1-1.1-0.4-1.4c-0.3-0.3-0.7-0.5-1.1-0.5c-0.4,0-0.8,0.2-1.1,0.5    C279.7,30.7,279.5,31.2,279.5,31.8z"
         class="st0" /><path
         id="path118"
         d="M291.2,34.9h-1.6v-3.2c0-0.7,0-1.1-0.1-1.3c-0.1-0.2-0.2-0.4-0.3-0.5c-0.2-0.1-0.3-0.2-0.6-0.2    c-0.3,0-0.5,0.1-0.8,0.2c-0.2,0.2-0.4,0.4-0.5,0.6s-0.1,0.7-0.1,1.4v2.8h-1.6v-6.2h1.5v0.9c0.5-0.7,1.2-1.1,2-1.1    c0.4,0,0.7,0.1,1,0.2c0.3,0.1,0.5,0.3,0.7,0.5c0.2,0.2,0.3,0.4,0.3,0.7c0.1,0.3,0.1,0.6,0.1,1.1V34.9z"
         class="st0" /></g><g
       id="g215"><g
         id="g134"><g
           id="g132"><g
             id="XMLID_6_"><g
               id="g122" /><g
               id="g124" /></g><g
             id="XMLID_5_"><g
               id="g127" /><g
               id="g129" /></g></g></g><g
         id="g209"><g
           id="XMLID_4_"><g
             id="g204"><path
               id="path136"
               d="M28.8,24.5c-0.1-0.4-0.4-0.9-0.5-1.5c0-0.2,0-0.4,0.1-0.6c0-0.6,0.2-0.9,0.5-1.4c0.1-0.1,0.3-0.2,0.2-0.3       c-0.2,0-0.4,0.2-0.6,0.4c-0.1,0.2-0.4,0.7-0.5,0.9c0,0,0,0.1,0,0.1c-0.1,0.7,0,1.2,0.2,1.7C28.4,24.1,28.6,24.4,28.8,24.5z        M77.4,54.5C77.4,54.5,77.4,54.5,77.4,54.5C77.3,54.5,77.3,54.5,77.4,54.5c0,0.2-0.1,0.3-0.1,0.4c-0.3,0.1-0.6,0.3-0.9,0.3       c-0.8,0.2-1.9,0.1-2.8,0.2c-0.3,0-0.6,0-0.9,0.1c-1.2,0.1-2.5,0.2-3.5,0.3c-1.1,0.1-2.1,0.3-3.1,0.4c-0.8,0.1-1.5,0.2-2.3,0.1       c-0.6,0-1.3,0.1-1.9,0.1c-0.2,0-0.4,0-0.7,0s-0.4,0.1-0.6,0.1c-0.2,0-0.3-0.1-0.5-0.1c-0.2,0-0.4,0.1-0.5,0.1       c-0.2,0-0.3,0-0.4,0c-0.4,0-0.7,0.1-1,0.1c-0.4,0-0.7,0-1.1,0C56,56.6,55,56.6,54,56.7c0,0,0,0,0,0c0,0,0,0,0,0       c-0.7,0-1.6-0.1-2.4,0c0,0,0,0,0,0c0,0,0,0-0.1,0c-1.4,0-2.5-0.1-3.7-0.2c-1.3,0-2.5-0.2-3.8-0.3c-0.6,0-1.3,0-1.9,0       c-0.6,0-1.2,0.1-1.8,0.2c-0.6,0-1.2,0-1.8,0c-0.6,0-1.2,0-1.8,0c-0.6,0-1.2,0-1.8,0.1c-0.7,0-1.4,0.1-2.1,0       c-2-0.1-3.7-0.2-5.7-0.2c-0.2,0-0.3,0-0.5-0.1c-0.1,0-0.3,0-0.4,0c-0.3,0-0.6-0.1-1-0.1c-0.7,0-1.4-0.1-2-0.2       c-0.6-0.1-1.3-0.3-1.9-0.3c-0.6,0-1.4,0-2.1-0.1c-0.3,0-0.7-0.2-1-0.3C17.8,55.2,17.4,55,17,55c-0.4,0-0.8,0-1.2-0.1       c-0.4,0-0.8-0.1-1.1-0.1s-0.7,0-1.1,0c-0.8-0.1-1.6,0-2.2-0.1c-1.2-0.1-2.2-0.1-3.3-0.3c-0.1,0.1-0.4,0-0.5,0.1       c-0.2-0.1-0.4-0.2-0.5-0.3c0-0.1,0-0.1,0-0.2c0.2-0.2,0.7-0.3,0.5-0.7c0.1-0.1,0.3-0.2,0.4-0.3c0.7-0.2,1.8-0.2,2.5-0.2       c0.1-0.1,0.3-0.1,0.4-0.1c1.5-0.1,3,0,4.3-0.4c0.4-0.1,0.8-0.2,1.2-0.4c0.2-0.2,0.4-0.3,0.6-0.5c0.5-0.5,0.6-1.4,0.7-2.1       c-0.1-1.2,0.2-2.7,0.2-4.3c0-0.6,0-1.4,0.1-1.8c0.1-0.5,0.2-1.1,0.2-1.5c-0.1-0.7-0.2-1.4-0.2-2c0-0.9-0.1-1.8,0.1-2.6       c0.1-0.9,0.2-1.8,0.5-2.6c0.1-0.4,0.2-0.8,0.4-1.2c0.1-0.4,0.3-0.7,0.5-1.2c0.1-0.3,0.1-0.6,0.2-0.9c0.1-0.3,0.1-0.5,0.2-0.8       c0.1-0.3,0.3-0.5,0.5-0.8c0.1-0.1,0.1-0.3,0.1-0.4c0.1-0.1,0.1-0.3,0.2-0.4c0.2-0.5,0.2-1,0.4-1.5c0.2-0.5,0.5-0.9,0.6-1.4       c0.1-0.5,0-1.1,0-1.5c-0.1-0.9-0.1-1.8,0.2-2.5c0-0.4,0.1-0.7,0.1-1.1c0.1-0.8,0-1.6-0.1-2.4c0-0.2-0.1-0.5-0.1-0.7       c0-0.2,0-0.3,0-0.5c0-0.2-0.1-0.4-0.1-0.6c-0.1-0.3-0.1-0.6-0.1-0.9c-0.1-0.5,0-1.1-0.1-1.5c-0.3-0.4-0.4-0.8-0.4-1.3       c0-0.1,0-0.3,0-0.4c0-0.3,0.3-1,0.5-1.1c0.2,0,0.3,0.2,0.5,0.3c0.3,0.3,0.6,0.6,0.8,0.9c0.1,0.2,0.1,0.7,0.3,0.8       c0.2,0.1,0.6-0.5,0.7-0.6c0.3-0.4,0.4-1.2,0.8-1.5c0.2,0,0.2,0.2,0.3,0.4c0.1,0.3,0.3,0.6,0.2,1.1c-0.3,0.4-0.3,1-0.5,1.4       c-0.2,0-0.5-0.1-0.6,0c0.1,0.2,0.4,0.1,0.6,0.2c0.2,0,0.4,0.1,0.6,0.2c0,0.1,0.2,0.1,0.3,0.2c0.2,0.1,0.2,0.4,0.4,0.5       c-0.3,0.3-0.1,0.5,0.2,0.8c0.2,0.2,0.7,0.5,0.8,0.8c0.1,0.3-0.1,0.6-0.3,0.9c-0.3,0.1-0.5,0.3-0.8,0.2       c-0.1,0.2-0.4,0.1-0.6,0.3c-0.1,0.5,0.3,0.9,0.4,1.3c0,0.1,0,0.3,0.1,0.5c0.1,0.2,0.4,0.4,0.6,0.7c0.2,0.2,0.5,0.5,0.5,0.8       c0,0.2-0.1,0.4,0.2,0.5c-0.1-0.4,0.3-0.6,0.4-1c0.3-0.2,0.5-0.6,0.9-0.7c0.2-0.2,0.5-0.4,0.9-0.5c0.2-0.1,0.5-0.2,0.7-0.3       c0.6-0.2,1.3-0.6,1.9-0.8c0.3-0.1,0.6-0.3,1-0.4c0.3-0.1,0.8-0.3,1.1-0.2c0.1,0,0.4,0.2,0.4,0.4c0,0.2-0.3,0.4-0.5,0.5       c-0.2,0.2-0.4,0.3-0.6,0.4c-0.4,0.3-0.9,0.4-1.3,0.7c-0.4,0.2-0.8,0.4-1.2,0.8c-0.4,0.3-0.8,0.5-1.2,0.8       c-0.2,0.1-0.4,0.4-0.5,0.6c-0.2,0.5,0.1,1.2,0.3,1.6c0.1,0.2,0.1,0.4,0.2,0.4c0.1,0,0.4-0.1,0.6-0.2c0.2-0.1,0.4-0.2,0.6-0.3       c0-0.4,0.2-0.6,0.5-0.8c-0.1-0.3,0.2-0.4,0.4-0.5c0.1-0.1,0.2-0.3,0.3-0.3c0.1,0,0.2,0.1,0.3,0.1c0.1,0,0.2-0.2,0.4-0.2       c0.2,0,0.3,0.2,0.4,0.3c0.2-0.2,0.5,0.1,0.4,0.3c0.2,0,0.2-0.1,0.3,0c0.1,0.1,0,0.3,0.1,0.5c1.6,0.1,3.6,0.1,5.4,0.1       c1.3,0,3.1,0.1,4.3,0.1c1.3,0,2.5,0,4.2,0c1.3,0,2.9,0.1,4.2,0.1c0.2-0.2,0.1-0.5,0.4-0.6c0.1,0,0.2,0.1,0.3,0       c0.2,0,0.2-0.2,0.4-0.2c0.3,0,0.4,0.2,0.6,0.3c0.1,0,0.2-0.1,0.4-0.1c0.2,0,0.6,0.2,0.7,0.3c0.1,0.1,0,0.1,0.1,0.2       c0.1,0.1,0.2,0.1,0.3,0.2c0.1,0.1,0,0.4,0.1,0.5c0.1,0.1,0.4,0.2,0.5,0.2c0.2,0.1,0.3,0.2,0.5,0.2c0.2-0.1,0.2-0.5,0.3-0.9       c0.1-0.3,0.2-0.6,0.2-0.9c-0.1-0.4-0.5-0.5-0.6-0.9c-1.1-0.8-2.1-1.6-3.5-2c-0.2-0.2-0.6-0.3-0.9-0.5c-0.5-0.4-0.2-0.9,0.4-1       c0.1,0.1,0.3,0,0.4,0.1c0.5,0.1,0.9,0.4,1.3,0.5c0.2,0.1,0.4,0.1,0.6,0.2c0.2,0.1,0.4,0.2,0.6,0.3c0.6,0.2,1.1,0.5,1.6,0.8       c0.2,0.1,0.4,0.2,0.5,0.3c0.8,0.5,1.4,1.4,1.3,2.5c0.2-0.1,0.2-0.3,0.2-0.6c0.7-0.8,1.5-1.6,1.9-2.7c0.1-0.3,0.2-0.6,0.1-1       c-0.5,0.1-1-0.5-1.5-0.3c-0.3-0.2-0.4-0.6-0.4-0.9c0.3-0.2,0.9-0.5,1.2-0.9c0.1-0.1,0.2-0.2,0.2-0.4c0-0.2-0.2-0.2-0.2-0.4       c0.2-0.4,0.8-0.4,1.2-0.7c-0.4-0.9-0.8-2.6,0.2-3.2c0.2,0.2,0.3,0.4,0.4,0.7c0.1,0.5,0.3,1.3,0.7,1.5c0.5,0.3,0.6-0.2,0.7-0.6       c0.3-0.6,0.6-1.2,1.2-1.3c0.2,0.2,0.2,0.5,0.2,0.8c0,0.3,0,0.6,0,0.9c0,0.3-0.2,0.6-0.2,0.9C64,15.3,64.1,16,64,16.8       c0,0.2-0.1,0.4-0.1,0.5c-0.1,0.6-0.1,1-0.2,1.5c-0.1,0.5-0.3,0.9-0.3,1.3c0,0.4,0.1,0.7,0.2,1c0,0.2,0.1,0.4,0.1,0.5       c0.2,1,0.3,2.1,0.2,3.2c0,0.5-0.2,1-0.2,1.4c0,0.5,0.2,0.9,0.4,1.3c0.1,0.4,0.2,0.8,0.4,1.2c0.2,0.5,0.4,1.2,0.5,1.7       c0.1,0.5,0.4,0.9,0.5,1.4c0.2,0.6,0.3,1.3,0.5,1.8c0.2,0.5,0.6,0.9,0.7,1.4c0.1,0.3,0.2,0.6,0.2,0.9c0.1,0.4,0.2,0.8,0.2,1.2       c0.1,0.9-0.1,1.8-0.1,2.6c0,0.8,0,1.3,0,1.9c0,0.7,0.1,1.5,0,2.3c-0.1,0.6,0,1.3,0,2c0,0.8,0,1.6,0.1,2.2       c-0.1,1.4,0.2,2.8,0.8,3.6c0.4,0.4,0.8,0.5,1.4,0.8c0.2,0.1,0.5,0.2,0.7,0.2c0.3,0.1,0.5,0.1,0.8,0.1c0.2,0,0.3,0.1,0.5,0.1       c0.6,0,1.2,0.1,1.8,0.1c0.6,0,1.2,0,1.7,0.1c0.1,0,0.3,0.1,0.4,0.1c0.2,0,0.3,0,0.5,0c0.5,0.1,1.2,0.1,1.4,0.6       c0,0.1-0.1,0.2-0.1,0.3C77.1,54.3,77.3,54.3,77.4,54.5z M76.7,54.7c0.2-0.5-0.5-0.2-0.8-0.2c-0.4,0-0.6-0.1-0.9-0.1       c-0.1,0-0.1,0.1-0.2,0.1c-0.3,0-0.7,0-0.9,0c-0.2,0-0.4,0-0.7,0c-0.9,0-1.7,0-2.6-0.1c-0.1,0-0.1,0-0.2,0       c-0.6,0-1.2-0.1-1.8-0.2c-0.1,0-0.1,0.1-0.2,0.1c-0.4-0.2-0.7,0-1.1-0.1c-0.2,0-0.3-0.2-0.5-0.1c-0.3-0.2-0.5-0.1-0.9-0.1       c-0.2,0-0.5-0.1-0.7-0.2c-0.1,0-0.2,0-0.2,0c-0.1,0-0.1-0.1-0.1-0.1c-0.1,0-0.2,0-0.2,0c-0.3,0-0.7-0.1-1-0.1       c-0.2,0-0.4,0.2-0.5,0.2c-0.1,0-0.2-0.1-0.4-0.1c-0.1,0-0.1,0.1-0.2,0.1c-0.9,0.1-1.6,0-2.5,0.1c-0.2,0.2-0.5,0-0.7,0       c-0.3,0-0.9,0-1.2,0c-0.8,0.2-1.6-0.1-2.5,0.1c-0.2,0-0.5,0.2-0.7,0.2c-0.2,0-0.4-0.2-0.5-0.2c-0.1,0-0.3,0.2-0.4,0.2       c0-0.1,0-0.2-0.1-0.2c-0.2,0-0.2,0.2-0.4,0.2c-0.1-0.1-0.1-0.1-0.1-0.2c-0.1,0-0.1,0.1-0.2,0.1c0-0.1,0-0.2,0.1-0.3       c-0.1-0.1-0.2,0.2-0.3,0.1c-0.1-0.3,0.2-0.5,0.3-0.8c0.2-0.2,0.7-0.2,1-0.3c0.1,0,0.2-0.1,0.3-0.2c0.1,0,0.3-0.1,0.4-0.1       c0.4-0.1,0.7,0,1,0.1c0.4,0,0.7,0,1.1,0c0.3,0,0.6-0.1,0.9-0.1c0.2,0,0.4,0,0.7,0c0.2,0,0.3,0,0.5,0c0.4,0,0.8-0.1,1.2-0.1       c0.5,0,0.9-0.1,0.6-0.5c0,0,0,0,0,0c-0.4,0-0.9,0.1-1.3,0.1c-0.1,0-0.2-0.1-0.3-0.1c-0.4,0-1,0.1-1.5,0.1c-0.1,0-0.3,0-0.4,0       c-0.4,0-0.9,0.1-1.4,0.1c-0.1,0-0.1,0-0.2,0c-0.3,0-0.7,0.1-1,0.1c-0.3,0-0.5-0.1-0.8,0c-0.2,0-0.4,0-0.6,0       c-0.1,0-0.3,0.1-0.5,0.1c-0.1,0-0.2-0.1-0.3-0.1c-0.1,0-0.3,0.2-0.5,0.1c-0.1-0.1,0.1-0.2-0.1-0.2c-0.2,0-0.4,0.2-0.5,0.2       c-0.1-0.1,0.1-0.2,0.1-0.3c-0.2,0-0.3,0.2-0.4,0.1c0-0.3,0.3-0.3,0.4-0.5c-0.1-0.2-0.3-0.1-0.5,0c-0.2,0-0.5,0-0.6,0.2       c-0.2,0-0.3,0.1-0.5,0c-0.2,0.2-0.4,0.4-0.7,0.4c-0.1,0-0.1,0.1-0.1,0.2c-0.4,0.2-0.8,0.6-1.3,0.6c-0.2,0.2-0.4,0.4-0.8,0.4       c-0.3,0.3-0.9,0.4-1.3,0.5c-0.1,0.1-0.2,0.2-0.3,0.2c-0.2,0.1-0.5,0-0.7,0.1c-0.1,0-0.2,0.1-0.3,0.1c-0.1,0-0.2,0-0.2,0       c-0.1,0-0.2,0.1-0.2,0.1c-0.2,0-0.5,0.1-0.7,0.1c0.1-0.1,0.2-0.2,0.4-0.3c0.6-0.2,1.1-0.6,1.6-0.9c0.8-0.5,1.4-1.1,2.1-1.6       c0.2-0.1,0.4-0.1,0.7-0.1c1.1,0.1,2.8-0.2,3.8,0c0.3-0.3,0.8-0.5,1.3-0.4c0.4-0.2,0.9-0.1,1.3-0.1c0.6,0,1.2-0.2,1.8-0.2       c0.9-0.1,1.9-0.1,2.5-0.4c0.2-0.2,0.3-0.4,0.4-0.7c0.1-0.2,0.1-0.5,0.1-0.8c0-0.9-0.1-1.8-0.2-2.5c0-0.3-0.1-0.6-0.1-0.8       c0-0.2-0.1-0.4-0.1-0.6c-0.1-0.5-0.1-0.8-0.1-1.3c-0.1-0.6-0.1-1.2-0.3-1.7c0-0.1-0.1-0.2-0.2-0.3c-0.1-0.3-0.3-0.6-0.4-0.9       c-0.2-0.5-0.3-1.2-0.4-1.7c0-0.2-0.1-0.5-0.2-0.7c0-0.1,0-0.3,0.1-0.5c0-0.1,0-0.4,0-0.5c0-0.3,0.1-0.5,0.1-0.7       c0.1-0.5,0.1-0.9,0.3-1.3c0-0.1,0.1-0.1,0.1-0.2c0.1-0.2,0.1-0.4,0.2-0.6c0.1-0.1,0.2-0.2,0.2-0.4c0-0.2,0-0.4,0-0.7       c-0.1-0.7-0.2-1.3-0.2-1.9c0-0.8-0.1-1.6-0.2-2.3c0-0.2-0.1-0.5-0.2-0.6c-0.2-0.1-0.6-0.1-0.8-0.1c-0.5,0-1,0.2-1.5,0.3       c-0.1,0.1-0.1,0.1-0.2,0.2c-0.1,0-0.1-0.1-0.2-0.1c-0.1,0.1-0.2,0.1-0.2,0.2C55,29.9,55,31,55,32.3c-0.1,1.5-0.2,3.1-0.4,4.4       c0,0.1,0,0.1,0,0.2c0,0.2-0.1,0.2-0.1,0.4c0,0-0.1,0.1-0.1,0.2c0.1,0.3,0,0.5-0.1,0.8c0,0.3-0.1,0.5-0.2,0.8       c-0.1,0.3-0.1,0.5-0.1,0.8c-0.2,1.2-0.7,2.3-1,3.3c-0.2,0.5-0.4,0.9-0.6,1.3c0,0.1,0,0.1-0.1,0.2c-0.3,0.4-0.4,0.8-0.7,1.2       c-0.2,0.3-0.4,0.7-0.6,0.9c-0.1,0.5-0.6,0.7-0.7,1.1c-0.7,0.6-1.3,1.4-2,2c-0.5,0.8-1.3,1.3-2,1.9c-0.8,0.6-1.6,1.3-2.6,1.8       c-0.4,0.2-0.9,0.7-1.3,0.7c-0.4,0-0.6-0.4-1-0.5c-0.6-0.4-1.1-0.8-1.6-1.2c-0.3-0.2-0.6-0.5-0.8-0.7c-0.5-0.4-1-0.9-1.4-1.3       c-0.1-0.1-0.2-0.2-0.4-0.3c-0.1-0.1-0.1-0.2-0.2-0.3c-0.3-0.3-0.7-0.5-0.9-1c-0.4-0.3-0.7-0.7-1-1.1c-0.1-0.1-0.1-0.3-0.2-0.4       c-0.1-0.1-0.2-0.2-0.3-0.3c-0.1-0.1-0.1-0.2-0.1-0.2c-0.5-0.7-1.1-1.4-1.5-2.2c-0.1-0.2-0.3-0.5-0.4-0.7       c-0.2-0.3-0.3-0.8-0.5-1.2c-0.1-0.2-0.2-0.4-0.3-0.7c-0.1-0.2-0.1-0.5-0.3-0.8c-0.4-0.8-0.8-1.8-0.9-2.7c0-0.1-0.1-0.1-0.1-0.2       c0-0.4-0.2-0.8-0.2-1.2c-0.1-0.7-0.1-1.5-0.1-2.3c0-0.4-0.1-0.7-0.1-1.1c0-0.4,0-0.8,0-1.2c-0.1-1.5,0.2-2.7,0.1-4       c0.1-0.1,0.1-0.3,0-0.4c-0.2,0-0.4,0-0.5,0c-0.3-0.1-0.4-0.4-0.6-0.5c-0.4-0.2-1.2-0.1-1.9-0.2c0,0,0,0.1-0.1,0.1       c0.1,0.4,0.1,0.7,0,1.2c-0.1,0.4-0.2,0.8-0.2,1.2c-0.1,0.8-0.1,1.5-0.3,2.2c0,0.2-0.1,0.4-0.1,0.5c0,0.2,0.1,0.5,0.1,0.7       c0.1,0.4,0.4,0.7,0.5,1.1c0.1,0.2,0.1,0.4,0.1,0.5c0.1,0.3,0,0.6,0.1,0.9c0,0.3,0.2,0.7,0.1,1.1c-0.1,0.6-0.2,1.2-0.3,1.8       c-0.1,0.5-0.2,0.9-0.4,1.3c-0.2,0.4-0.5,0.6-0.7,1c0,0,0,0,0,0.1c0,0-0.1,0.1-0.1,0.1c-0.1,0.4-0.1,0.6-0.1,0.9       c0,0,0,0.1-0.1,0.1c-0.1,2.4-0.4,4.6-0.6,6.8c0.1,0.7,1.1,0.7,1.8,0.7c0.8,0.1,2,0.3,3,0.4c0.5,0,1-0.1,1.4,0       c0.2,0,0.4,0.2,0.6,0.2c0.2,0.1,0.3,0,0.5,0.1c0.2,0.1,0.3,0.3,0.5,0.3c0.7,0.1,1.4,0.1,2.1,0.1c0.2,0,0.4-0.1,0.7-0.1       c0.2,0,0.3,0.1,0.5,0.1c0.3,0,0.8,0,1.1,0.2c0.8,0.9,1.8,1.7,2.9,2.3c0,0.2,0.3,0.2,0.3,0.3c-0.9-0.1-1.4-0.5-2.2-0.7       c-0.2-0.3-0.4-0.3-0.7-0.4c-0.3-0.1-0.6-0.2-0.9-0.3c-0.3-0.1-0.6-0.3-0.9-0.3c-0.2-0.3-0.8-0.3-1.2-0.5       c-0.1-0.1-0.1-0.3-0.2-0.3c-0.3,0.1-0.6-0.3-0.8-0.2c0,0.1,0.3,0.1,0.2,0.3c-0.1,0-0.2-0.1-0.3-0.1c0,0.1,0,0.1,0,0.2       c-0.2,0.1-0.2,0-0.4,0c0,0.1,0.1,0.1,0,0.2c-0.1,0-0.2-0.1-0.3,0c-0.1-0.2-0.3-0.2-0.5-0.2c-0.3,0-0.6,0.1-0.9,0       c-0.2,0-0.3-0.1-0.5-0.1c-0.8-0.1-1.6-0.1-2.4-0.2c-1.1-0.1-1.9-0.1-2.9-0.1c-0.8,0-1.5-0.1-2.3-0.2c0.2,0.4,0.5,0.4,1,0.5       c0.2,0.1,0.5,0.1,0.8,0.2c0.7,0,1.2,0.1,1.8,0.1c0.8-0.1,1.5,0.2,2.1,0.2c0.2,0,0.4-0.1,0.7-0.1c0.2,0,0.5,0.2,0.7,0.2       c0.4,0.2,0.9,0.6,1.1,0.8c0.1,0.1,0.2,0.3,0.2,0.4c-0.1,0-0.2-0.2-0.3-0.1c-0.1,0.1,0.1,0.1,0.1,0.3c-0.2,0-0.3,0-0.5-0.1       c0,0.1,0.1,0.1,0,0.2c-0.4-0.4-1.2-0.1-1.7-0.2c-0.1,0-0.2-0.1-0.3-0.1c-0.5,0-1.1,0-1.6,0c-0.6-0.1-1.3,0-1.9-0.1       c-0.3-0.1-0.7-0.1-1-0.1c-0.3,0-0.5-0.1-0.7-0.1c-0.2,0-0.4,0.1-0.6,0.1c-0.5,0-1.2-0.2-1.8,0c-0.2-0.2-0.4-0.1-0.6-0.1       c-0.2,0-0.5,0-0.7,0c-0.1,0-0.2,0.1-0.3,0.1c-0.2,0-0.4,0-0.6,0c-0.4,0-0.9,0-1.3,0c-0.1,0-0.1,0.1-0.2,0.1c-0.1,0-0.2,0-0.3,0       c-0.4,0.1-0.9,0.3-1.3,0.3c-1.5,0.2-3.1,0.1-5,0.1c-0.5,0-0.9,0.1-1.3,0.1c-0.9,0-1.6-0.2-2.2-0.1c0.2,0.3,0.5,0.3,0.7,0.5       c0.1-0.1,0.2,0.1,0.2,0.1c0.4,0.1,1-0.1,1.4-0.1c0.5,0.1,1.2,0.1,1.8,0c0.2,0,0.5,0,0.7,0c0.1,0,0.3,0.1,0.4,0.1       c0.1,0,0.2-0.1,0.3-0.1c0.3,0,0.6,0,1,0c0.1,0,0,0.1,0.1,0.1c0.2-0.1,0.5,0.1,0.9,0c0.3,0.2,0.9-0.1,1.2,0       c0.1,0,0.1-0.1,0.2-0.1c0.4,0.1,0.8,0,1.2,0.1c0.5-0.3,1,0.4,1.5,0.1c0.3,0.1,0.6,0.2,0.9,0.2c0.3-0.1,0.6,0.1,0.9,0.1       c0.5-0.4,1.2,0.2,1.9,0c0.7,0.2,1.3,0.2,1.9,0.1c0.1,0,0.1-0.1,0.2-0.1c0.2,0.1,0.7,0.3,1,0.2c0.1,0,0.2-0.1,0.2-0.1       c0.1,0,0.3,0.1,0.4,0.1c0.3,0,0.6-0.1,0.8,0.1c0.2-0.2,0.6-0.2,0.9,0c0.1,0,0-0.1,0.1-0.1c0.3,0,0.6,0,0.9,0.1       c0.2,0.1,0.5,0.3,0.8,0.1c-0.1-0.1-0.3-0.1-0.2-0.3c0.1-0.4,1,0.2,1.2,0.1c0.2,0.1,0.5,0.1,0.8,0.2c0.2-0.2,0.5,0.1,0.7-0.1       c-0.2-0.2-0.6-0.2-0.8-0.4c0.5,0,0.9,0.4,1.5,0.4c0.1,0,0.2-0.1,0.4-0.1c0.1,0,0.3,0.1,0.5,0.1c0.2,0,0.3,0.1,0.5,0.1       c0.3,0,0.5-0.1,0.8-0.1c0.3-0.1,0.6,0.1,0.8,0c0.2,0.1,0.6,0.2,0.8,0.1c0.2,0.1,0.5,0.1,0.7,0c0.1,0,0.1-0.1,0.2-0.1       c0.2,0,0.4,0.1,0.7,0.1c0.2,0,0.3-0.2,0.5-0.2c0.4,0,0.7,0.2,1.1,0.2c0.1,0,0-0.2,0.1-0.2c0.8,0.3,1.5,0.5,2.2,0.7       c0.2-0.1,0.4,0,0.5,0c0.4,0.1,0.7,0,1.1-0.1c0.2,0,0.3,0,0.4,0c0.4-0.1,0.7-0.2,1.2-0.2c0,0-0.1,0.1,0,0.2       c0.4,0,1.1-0.2,1.6-0.3c0.4,0.2,0.9-0.2,1.3-0.2c-0.2,0.2-0.5,0.3-0.6,0.6c0.4,0.1,0.8-0.3,1.3-0.3c0,0.1-0.2,0-0.1,0.2       c0.3-0.1,0.6-0.2,0.9-0.3c0.3-0.1,0.6-0.2,0.8-0.3c0.3,0.2,0.6,0,0.9,0c0.2,0,0.4,0.1,0.5,0c0.2,0.3,0.6,0,1,0.1       c0.1,0.3,0.4,0.1,0.6,0.1c0.3,0,0.5,0.2,0.7,0.2c0.1,0,0.3-0.1,0.4-0.1c0.4,0,0.7,0.1,1-0.1c0.3,0,0.5,0.1,0.7,0       c0.1,0.1,0.2,0.1,0.4,0.1c0.4-0.2,1.1-0.3,1.5-0.2c0.2-0.2,0.5-0.1,0.7-0.2c0.1,0.1,0.1,0.2,0.3,0.2c0.1-0.1,0.2-0.1,0.3-0.2       c0.1,0,0.2,0.1,0.3,0.2c0.4,0.1,0.5-0.1,0.8-0.2c0.1,0.1,0.2,0.1,0.4,0.1c0.1,0.1,0.3,0.3,0.5,0.3c0.1,0,0.2-0.1,0.3-0.1       c0.2-0.1,0.7-0.1,1-0.2c0.2-0.1,0.3-0.2,0.5-0.2c0.2,0,0.4,0.1,0.6,0c0,0.1,0,0.1,0,0.1c0.1,0,0.2-0.1,0.2,0       c0,0-0.2,0.2-0.1,0.3c0.4,0.1,1-0.1,1.4-0.3c0.3,0.1,0.7-0.1,1,0c0.1-0.1,0.4-0.1,0.4,0c0,0.1-0.1,0.1-0.1,0.2       c0.4,0.1,0.6-0.2,1.1-0.2c-0.1,0.1-0.2,0-0.2,0.1c0.1,0.2,0.3,0,0.5-0.1c0.1,0,0.2,0,0.4,0c0.3-0.1,0.7-0.2,0.9-0.3       c0.3,0,0.5,0.2,0.6,0.2c0.1,0,0.3-0.1,0.4-0.1c0,0,0.1,0.1,0.2,0.1c0.1,0,0.2-0.1,0.2-0.1c0.1,0,0.1,0.1,0.2,0.1       c0.2,0,0.5-0.1,0.7-0.1c0.1,0,0.2,0,0.3,0c0.5,0,1.1-0.3,1.6,0C74.6,54.8,75.7,55,76.7,54.7z M76.2,54.3c0.2,0,0.6,0,0.7-0.3       c-1.5-0.1-2.5-0.3-3.9-0.2c-0.7-0.2-1.3-0.1-1.9-0.2c-0.2,0-0.4-0.1-0.6-0.1c-0.1,0-0.1,0-0.2,0c-0.6-0.1-1.2-0.2-1.9-0.4       c-0.1,0-0.4-0.2-0.5-0.3c0,0-0.1-0.1-0.1-0.2c0,0-0.1,0-0.1,0c-0.2-0.2-0.2-0.4-0.4-0.5c-0.1-0.2-0.3-0.3-0.4-0.5       c-0.1-0.1-0.2-0.3-0.2-0.4c-0.1-0.4-0.1-0.7-0.2-1.2c-0.1-0.7-0.2-1.3-0.2-2.1c0-0.8-0.1-1.5-0.1-2.3c0-0.3-0.1-0.6-0.1-1       c0-0.3,0-0.4-0.3-0.6c-0.3,0.3,0,0.7,0.1,1.1c0,0.1,0,0.2,0,0.3c0,0.2,0.1,0.3,0.1,0.5c0.1,0.5,0,0.8,0,1       c0,0.1,0.1,0.2,0.1,0.3c0,0.3,0,0.6,0,0.9c0,0.1,0.1,0.3,0.1,0.5c0,0.1-0.1,0.1-0.1,0.2c0,0.5,0.1,1,0.1,1.4       c0,0.4,0.2,0.7,0.1,1c-0.1-0.1-0.1-0.1-0.2,0c-0.2-0.3-0.1-0.7-0.1-1c-0.1-0.7-0.2-1.3-0.2-1.9c0-0.5,0.1-1,0-1.5       c-0.1-1-0.4-1.9-0.6-2.9c-0.1-0.2-0.3-0.5-0.3-0.7c-0.1-0.2-0.2-0.5-0.4-0.6c-0.1,0.1-0.2,0.2-0.3,0.3c0.2,0.2,0.4,0.5,0.5,0.8       c0.3,0.8,0.5,2.1,0.5,2.8c0,0.6,0.1,1.2,0.1,1.9c0,0.6,0,1.2,0.1,1.7c0.1,0.4,0.2,0.7,0.2,1.1c0,0.1,0,0.3,0,0.4       c0.1,0.6,0.5,0.8,0.7,1.2c0.1,0,0.2,0.1,0.2,0.1c0.1,0.1,0.2,0.3,0.3,0.4c0.1,0,0.2,0,0.3,0.1c0.3,0.1,0.5,0.4,0.8,0.3       c1,0.6,2.4,0.8,3.6,0.5c0.3,0.1,0.5,0.1,0.8,0.1c1.2,0.1,2.2,0.1,3.2,0.1C75.7,54.3,75.9,54.3,76.2,54.3z M66.1,52.9       c0-0.2-0.2-0.3-0.3-0.4c-0.1-0.1-0.1-0.4-0.3-0.5c-0.3-0.2-0.9,0-1.4-0.1c-0.2,0-0.3-0.1-0.4-0.1c-0.2,0.2,0.1,0.5,0.1,0.8       c0.2,0.1,0.4,0.1,0.6,0.1C65,52.9,65.6,52.9,66.1,52.9z M65.3,51.5c0-0.3-0.1-0.7-0.1-1c-0.1-0.6-0.2-1.4-0.3-2.2       c-0.1-0.7-0.1-1.4-0.2-2.2c0-0.2-0.1-0.4-0.1-0.6c0-0.1,0-0.2,0-0.3c0-0.1-0.1-0.2-0.1-0.4c-0.1-0.8-0.2-1.5-0.6-2       c0,0,0,0-0.1,0c-0.2,0.2-0.7,0.3-0.9,0.6c-0.1,0.2-0.1,0.5-0.1,0.7c0,0.3,0.1,0.6,0.1,0.9c0,0.1,0,0.3,0,0.4       c0,0.2,0.1,0.5,0.1,0.8c0,0.4,0,0.9,0,1.3c0,0.4,0.1,0.8,0.2,1.2c0.1,0.8,0.1,1.8,0.3,2.6C64.2,51.4,64.8,51.5,65.3,51.5z        M64.2,13.2c0-0.2-0.1-0.5-0.1-0.7c-0.1-0.1-0.1-0.1-0.2-0.2c-0.4,0.3-0.7,0.7-0.7,1.3c-0.1,0.2-0.3,0.3-0.5,0.4       c0,0.1,0,0.1,0,0.2c0.2,0,0.4,0.1,0.6,0.1c0.1-0.2-0.1-0.3,0-0.5c0.1-0.1,0.2-0.2,0.3-0.3c0,0.2,0.1,0.1,0.2,0.1       c0.2,0.2,0,0.3,0.1,0.5C64,14,64.2,13.6,64.2,13.2z M63.7,15.8c0.1-0.3,0-0.5,0.1-0.9c-0.2,0-0.4,0.1-0.4,0.3       c0,0.1,0.1,0.1,0.1,0.2C63.6,15.6,63.6,15.8,63.7,15.8z M63.6,53.2c0-0.4-0.2-0.8-0.2-1.3c0-0.3,0-0.6-0.1-1       C63.1,50,63,49,63,48.1c0-0.3-0.1-0.6-0.1-1c0-0.4-0.1-0.7-0.1-1.1c0-0.1,0-0.2,0-0.3c0-0.2-0.1-0.4-0.1-0.6       c0-0.2,0-0.5-0.1-0.7c0-0.2-0.2-0.4-0.3-0.5c-0.1-0.3,0.3-0.7,0.3-1c0.1-0.1,0.5-0.4,0.5-0.7c0-0.1-0.3-0.2-0.4-0.3       c0,0-0.1-0.1-0.1-0.2c-0.1-0.3-0.1-0.7-0.3-0.8c-0.3,0-0.6-0.1-0.7,0.2c0,0.4,0.5,0.5,0.3,0.9c-0.3-0.1-0.3-0.3-0.6-0.4       c0.2,0.4,0.6,0.8,0.4,1.4c-0.1,0-0.2-0.1-0.3-0.1c0-0.2-0.2-0.3-0.3-0.4c0-0.2-0.2-0.3-0.1-0.5c-0.1-0.3-0.4-0.5-0.5-0.7       c0-0.1,0-0.2,0-0.2c-0.1-0.2-0.2-0.5-0.3-0.7c-0.1-0.6-0.3-1.2-0.3-1.8c0-0.2,0-0.5,0.1-0.7c0.1,0,0.1,0.3,0.3,0.2       c0.1-0.3,0.2-0.8,0.2-1.2c0.1-0.1,0.2-0.3,0.1-0.4c0.3-0.8,1-1.3,1.5-1.9c0,0,0,0-0.1,0c0,0,0,0,0,0c-0.4,0.1-0.6,0.3-0.8,0.6       c-0.2,0.2-0.4,0.3-0.5,0.5c-0.1,0.2-0.2,0.4-0.4,0.6c-0.2,0.4-0.4,0.8-0.6,1.3c0,0.3-0.1,0.5-0.2,0.7c-0.1,1,0.1,1.6,0.2,2.4       c0,0.2,0.1,0.3,0.1,0.4c0,0.1,0,0.2,0,0.2c0,0.1,0.1,0.3,0.2,0.4c0,0.1,0,0.2,0,0.4c0,0.1,0.1,0.2,0.1,0.2c0,0.1,0,0.2,0.1,0.4       c0,0.1,0.1,0.2,0.1,0.3c0,0.2,0,0.5,0,0.7c0.1,0.3,0.2,0.6,0.2,0.9c0.1,0.4,0.1,0.7,0.1,1.1c0,0.1,0.1,0.3,0.1,0.4       c0,0.1-0.1,0.1,0,0.2c0,0.6,0.2,0.9,0.2,1.3c0,0.1,0,0.3,0,0.4c0,0.3,0.1,0.6,0.1,0.8c0,0.1,0,0.2,0,0.2c0,0.9,0.2,2.1,0.2,3.1       c-0.1,0.1-0.3,0.2-0.4,0.3c-0.3,0.1-0.6,0-0.9,0.1c-0.2,0-0.4,0.1-0.5,0.1c-0.6,0.1-1.3-0.1-1.8,0.2c-0.6-0.2-1,0.1-1.7,0       c-0.1,0.1-0.4,0.1-0.4,0.3c0,0.2,0.4,0.2,0.4,0.4c0,0.1-0.1,0.1-0.1,0.2c0.1,0.2,0.3,0.1,0.4,0.1c0.2,0,0.4,0,0.6,0       c0.2,0,0.4,0,0.5,0c0.2,0,0.2-0.3,0.4-0.3c0.1,0.1,0.3-0.1,0.5-0.1c0.1,0,0.1,0.1,0.2,0.1c0.1,0,0.2,0,0.3,0       c0.6,0,1.3,0,1.9-0.1c0.5,0,0.9,0,1.3-0.1c0.2-0.4,0.1-0.8,0.1-1.3c0-0.3,0-0.6,0-0.9c0-0.4,0.1-0.9,0.1-1.3       c0-0.3-0.2-0.6-0.1-0.8c0,0.2,0.1,0.3,0.1,0.5c0,0.2,0,0.4,0,0.6c0,0.2,0.1,0.4,0.1,0.6c0.1,0.5,0,1.3,0.1,1.8       c0,0.2,0.1,0.4,0.1,0.5c-0.1,0.3-0.3,0.4-0.5,0.7c0.1,0.1,0.5,0.1,0.7,0.1c0.3,0,0.3-0.2,0.4-0.4       C63.5,53.2,63.5,53.3,63.6,53.2z M63.3,27.1c0.1-0.5,0.2-1,0.1-1.4C63,26,63.1,26.6,63,27c-0.3,0.1-0.7,0.2-1,0.3       c-0.5,0.1-1.1-0.1-1.6,0c-0.3,0-0.5,0.2-0.8,0c0.7-0.2,1.7-0.2,2.2-0.6c-0.1-0.5,0.2-0.6,0.3-0.9c0.2-0.7-0.4-0.8-0.5-1.3       c-0.1-0.2,0-0.5-0.2-0.7c0,0,0,0-0.1,0c-0.1,0.3,0,0.8-0.1,1.2c0,0.2-0.1,0.3-0.1,0.5c0,0.2,0,0.4,0,0.5       c-0.1,0.2-0.4,0.3-0.6,0.5c-0.2,0-0.4,0.1-0.6,0.2c-0.2,0.1-0.5,0-0.8,0.1c-0.4,0.1-0.8,0.2-1.2,0.3c-0.1,0-0.3,0-0.4,0       c-0.3,0-0.6,0.1-0.9,0c-0.4,0-0.5-0.4-1-0.4c0.1,0.2,0.3,0.2,0.4,0.4c-0.1,0-0.1,0-0.1,0.2c-0.3,0-0.4-0.1-0.8-0.1       c0.1,0.3,0.4,0.3,0.8,0.3c0,0.1,0.1,0.1,0.1,0.2c-0.4,0-0.6,0.3-0.7,0.5c0.3,0.1,0.5-0.1,0.7-0.2c0.1,0,0.2,0,0.3,0.1       c0,0,0.1-0.1,0.2-0.1c0.6-0.1,1.3,0,2,0.1c0.3,0,0.5-0.1,0.8-0.1c0.5,0,0.9,0.1,1.3-0.1c0.4,0,0.9,0.1,1.2,0.1       c0.1,0,0.1-0.1,0.2-0.1c0.3,0,0.6,0.1,0.8-0.1C63.2,27.7,63.3,27.4,63.3,27.1z M62.7,15.9c0.1-0.2-0.2-0.2-0.4-0.3       c0,0,0-0.1-0.1-0.1c-0.1-0.1-0.3,0-0.4,0.1c0,0.3-0.4,0.3-0.3,0.4c0,0,0.2,0.1,0.2,0.1c-0.2,0.3-0.8,0.3-1.1,0.5       c-0.1,0.1-0.1,0.2-0.3,0.1c0-0.3,0.3-0.4,0.4-0.6c-0.4,0-0.7,0.5-1.1,0.5c-0.1,0.2-0.3,0.2-0.4,0.3c0.1,0.4,0.7,0,0.8,0.4       c-0.1,0.1-0.2,0.2-0.3,0.3c-0.1-0.1-0.5-0.2-0.5,0.1c0.3,0.2,0.6,0.1,0.8,0.2c0.2,0.4,0.7,0.2,1,0.1c0-0.2-0.1-0.3-0.1-0.5       c-0.1-0.1-0.1-0.1-0.2-0.1c-0.1-0.4,0.4-0.6,0.7-0.7c0.3-0.1,0.6-0.1,0.9-0.1c0-0.1,0.1-0.2,0-0.3C62.2,16.1,62,16.2,62,16       c0.1-0.1,0.2-0.2,0.3-0.1c0.1,0,0,0.1,0.1,0.1C62.5,16,62.6,16,62.7,15.9z M62.5,15.4c0.2,0,0.2-0.2,0-0.2       C62.5,15.2,62.5,15.3,62.5,15.4z M61.8,16.8c0,0.1,0.2,0.1,0.1,0C61.9,16.7,61.9,16.7,61.8,16.8z M61.7,33.2       c0.1-0.3,0.5-1.3,0.2-1.5c-0.2,0.1-0.4,0.3-0.6,0.5c-0.1-0.1-0.1,0-0.2-0.1c0-0.1,0-0.1,0.1-0.2c-0.1,0-0.2,0.1-0.3,0       c0.1-0.4,0.1-0.6,0.2-1c0-0.1-0.1,0-0.2-0.1c0.2-0.2,0.3-0.6,0.3-0.9c0-0.2,0.2-0.5,0.1-0.6c-0.2-0.1-0.4,0.1-0.5-0.1       c0-0.2-0.1-0.3-0.1-0.5c-0.1,0-0.2,0-0.2-0.1c0-0.2-0.1-0.2-0.2-0.3c-0.4,0-1,0.1-1.6,0.1c0,0.6,0.1,1.1,0.1,1.7       c0.1,0.8,0,1.6,0.2,2.4c0.2,0.8,0.5,1.5,0.7,2.4c-0.2-0.1-0.2-0.4-0.4-0.5c-0.1,0.1-0.2,0.1-0.4,0.2c-0.1,0.3-0.3,0.5-0.3,0.7       c-0.2,0.2-0.2,0.5-0.3,0.7c-0.2,1-0.3,2.3-0.2,3.1c0.1,0.5,0.3,1,0.5,1.4c0.1,0.3,0.2,0.5,0.3,0.7c0.1,0.2,0.3,0.5,0.3,0.7       c0,0.1,0,0.2,0,0.2c0,0.2,0.1,0.3,0.1,0.5c0,0.2,0.1,0.4,0.1,0.6c0,0.3,0,0.6,0,0.9c0,0.1,0.1,0.2,0.1,0.2c0,0.3,0,0.5,0,0.8       c0,0.1,0.1,0.2,0.1,0.3c0,0.2,0,0.4,0,0.7c0.1,0.6,0.3,1.3,0.2,1.9c0.2,0.3,0,0.7,0.1,1.1c0.1,0.4,0.2,0.7,0.1,1       c-0.1,0.4-0.5,0.6-0.8,0.7c-0.5,0.1-1,0.2-1.6,0.2c-0.1,0.1-0.3,0.1-0.4,0.1c-0.3,0-0.6,0.2-1,0.2c-0.3,0-0.5,0-0.9,0.1       c-0.1,0-0.1,0.1-0.2,0.1c-0.1,0-0.3-0.1-0.4-0.1c-0.2,0-0.4,0.1-0.6,0.1c0.1,0.2-0.1,0.5,0.1,0.7c0.8-0.1,1.8-0.2,2.7-0.1       c0.2-0.2,0.8,0,0.8-0.4c0.8-0.2,1.7,0,2.5-0.3c0.1,0,0.1,0.1,0.1,0.1c0-0.2,0.2-0.4,0.2-0.7c0.1-0.5,0-1.2-0.1-1.7       c0-0.4-0.2-0.8-0.2-1.2c0-0.6,0.1-1.1-0.1-1.5c0.1-1.1-0.3-2.1-0.2-3.1c0.2,0.2,0.1,0.7,0.4,0.8c0.1-0.5-0.2-1-0.3-1.6       c-0.1-0.5-0.2-0.8-0.3-1.3c-0.1-0.4-0.2-0.7-0.3-1.1c-0.2-0.9,0-1.6,0.2-2.5c0.1-0.2,0.2-0.4,0.3-0.6c0.1-0.2,0.2-0.4,0.3-0.5       c0-0.1,0-0.2,0.1-0.3c0.3-0.8,0.9-1.4,1.4-1.9C61.3,33.7,61.6,33.5,61.7,33.2z M61.9,14.1c0.1-0.4-0.4-0.8-0.5-1.2       c0-0.1,0-0.2,0-0.3c0-0.2-0.3-0.6-0.4-0.7c-0.2,0.3,0.1,0.7,0.3,0.9C61.4,13.3,61.4,14,61.9,14.1C61.8,14.1,61.9,14,61.9,14.1z        M61.5,18.4c0.1-0.2,0.4-0.2,0.4-0.5c-0.2-0.1-0.4-0.4-0.6-0.2c-0.1,0.2,0.1,0.3,0.1,0.3c-0.1,0.2-0.3,0.2-0.5,0.3       c-0.1,1.1-0.4,1.9-0.9,2.6c-0.2,0.3-0.4,0.6-0.6,0.8c-0.2,0.3-0.6,0.5-0.7,0.8c-0.2,0-0.2,0.2-0.4,0.3c0,0.3-0.3,0.7-0.4,1.2       c0,0.2,0.1,0.4,0.1,0.6c0,0.4,0,0.8,0,1.1c0,0,0.1,0.1,0.1,0.1c0.1,0.3,0,0.6,0.1,0.8c0.6-0.1,1.3-0.1,1.6-0.5       c0-0.1,0-0.1,0-0.2c0.2-0.4,0.2-0.8,0.3-1.1c0.1,0.1,0,0.2,0.1,0.3c0.2,0,0.3,0,0.5-0.1c0.1-0.2,0.1-0.4,0.1-0.7       c0-0.1,0.1-0.1,0.1-0.2c0.1-0.2,0-0.5,0-0.7c0-0.1,0.1-0.2,0.1-0.3c0-0.1-0.1-0.3,0-0.4c-0.2-0.3,0.2-0.7,0.2-1       c0-0.1-0.1-0.3-0.1-0.4c0-0.1,0.1-0.3,0.1-0.4c0-0.2,0.2-0.3,0.2-0.4c0-0.1-0.2-0.2-0.2-0.3c-0.1-0.4,0.5-0.6,0.4-0.9       c-0.3-0.1-0.3,0.4-0.6,0.4c0,0-0.1-0.1-0.1-0.1C61.1,19.2,61.7,18.9,61.5,18.4z M61.2,14.6c0.1,0,0.1-0.1,0.2-0.1       c-0.1-0.3-0.2-0.6-0.5-0.7C61,14.2,61,14.5,61.2,14.6z M61.1,15.1c0.1,0,0.2,0,0.1-0.1c0-0.1-0.1-0.1-0.1,0       C61.1,15,61.1,15,61.1,15.1z M60.7,51.4c-0.1-0.1-0.5-0.1-0.5,0C60.3,51.5,60.7,51.5,60.7,51.4z M60.5,15.4       c-0.3-0.2-0.4,0.2-0.3,0.4c0,0,0.1,0,0.1,0C60.4,15.7,60.5,15.5,60.5,15.4z M57.9,26.7c0.1-0.2,0-0.2,0-0.5       c-0.4-0.1-0.6-0.3-1-0.4c-0.2,0.2-0.3,0.5-0.4,0.8C56.8,26.9,57.4,26.9,57.9,26.7z M57.8,25.7c0-0.4-0.1-0.7-0.1-1.2       c-0.3,0.2-0.4,0.7-0.6,1C57.4,25.6,57.6,25.7,57.8,25.7z M56.9,22.2c0.1,0.2,0,0.6-0.1,0.8c0,0.2,0,0.4-0.1,0.5       c0.1,0.1-0.1,0.4-0.1,0.4c0.3-0.5,0.6-1.2,0.6-1.9c-0.4-0.5-0.6-1-1.2-1.3C56.2,21.3,56.8,21.7,56.9,22.2z M55.7,24.8       c0.1-0.1,0.1-0.2,0.1-0.4c-0.3-0.1-0.4-0.2-0.8-0.2c-0.1,0.1-0.1,0.2-0.1,0.3C55.1,24.7,55.4,24.7,55.7,24.8z M55.3,26       c0.1-0.3,0.4-0.6,0.3-0.8c0-0.2-0.4-0.4-0.6-0.2c0.1,0.5-0.3,1.5,0.2,1.5C55.3,26.3,55.2,26.2,55.3,26z M54.7,28       c0.5,0.1,0.8-0.4,0.3-0.4c-0.1,0.2-0.1,0.2-0.3,0.3C54.7,27.9,54.7,28,54.7,28z M54.3,27.2c0.2,0.1,0.8,0.3,0.9,0       c-0.3-0.1-0.5-0.1-0.8-0.1C54.4,27.2,54.3,27.2,54.3,27.2z M55,28.5c-0.2-0.1-0.6,0-0.6,0.3c0,0,0.1,0.1,0.1,0       C54.7,28.8,54.8,28.6,55,28.5z M54.5,30.6c0-0.5,0.2-0.9,0-1.4c-0.1-0.1-0.2-0.1-0.3,0c-0.1-0.1-0.1-0.2-0.2-0.3       c0-0.3,0-0.6,0.1-0.9c-0.2,0-0.3-0.2-0.4-0.4c0.2-0.2,0.2-0.4,0.1-0.8c0.1-0.2,0.4-0.2,0.7-0.2c0.1-0.2,0.1-0.5,0.1-0.8       c0-0.4,0.1-0.8,0-1.1c-0.1-0.1-0.2-0.2-0.3-0.3c-0.1-0.1-0.1-0.2-0.1-0.3c-0.1-0.2-0.3-0.2-0.5-0.4c-0.4,0.3-0.8-0.2-1.1-0.1       c0,0-0.1,0.1-0.1,0.1c0,0.1,0,0.2-0.1,0.2c-0.1,0-0.2-0.1-0.3-0.2c-0.3-0.1-0.8-0.1-1.1-0.1c-0.6,0-1.3,0-1.7,0       c-1.7,0-4.3-0.1-6.5-0.1c-1.8-0.1-3.6,0-5.4,0c-1.3,0-2.8-0.1-4.1,0c-0.1-0.3-0.4-0.1-0.6,0c-0.3-0.1-1.1-0.2-1.3,0       c-0.2,0.1-0.1,0.7-0.1,1c0,0.1-0.1,0.2-0.1,0.3c-0.1,0.4,0,0.8-0.1,1.5c0.1,0.2,0.4,0.2,0.5,0.4c0.1,0.2,0.1,0.4,0.1,0.6       c0,0.2-0.2,0.4-0.2,0.5c0,0.1,0.2,0.2,0.2,0.4s-0.2,0.3-0.2,0.5c-0.1,0.1-0.3,0.1-0.4,0.2c0,0,0,0.1,0,0.1c0,0-0.1,0-0.1,0       c-0.1,0.1-0.1,0.5-0.1,0.6c-0.1,0.4,0,1-0.1,1.5c-0.1,1.2-0.2,2.6-0.1,3.9c0.2,2.5,0.5,4.6,1.5,6.6c0.3,0.2,0.5-0.1,0.8-0.3       c0.3-0.2,0.7-0.4,1.1-0.5c0.3-0.1,0.9,0,1-0.2c0.1-0.1,0.1-0.3,0.1-0.4c0.1-0.3,0.2-0.7,0.3-1c0.1-0.2,0.1-0.4,0.2-0.6       c0-0.1,0.1-0.2,0.2-0.3c0.1-0.2,0.1-0.5,0.2-0.7c0.3-0.8,0.6-1.6,1-2.4c0.3-0.7,0.5-1.5,0.8-2.2c0.3-0.9,0.6-1.6,0.9-2.6       c0.2-0.6,0.5-1.3,0.5-1.8c0-0.3-0.2-0.6-0.4-0.6c-0.1,0-0.2,0.1-0.4,0.1c-0.5,0.1-1-0.1-1.6-0.1c-0.2,0.1-0.7,0.2-1,0.2       c0.1-0.4,0.5-0.4,0.8-0.7c0.1-0.3,0.3-0.4,0.5-0.5c0.3-0.2,0.4-0.6,0.7-0.8c0.2-0.2,0.6-0.4,0.9-0.4c0.2,0,0.6,0.1,0.9,0.2       c0.2,0.1,0.4,0.4,0.5,0.6c0.8,2.1-0.4,4.3-0.8,6.3c-0.1,0-0.1,0.2-0.1,0.2c0,0.2-0.1,0.3-0.1,0.4c-0.2,0.5-0.2,1.1-0.4,1.6       c-0.2,0.6-0.4,1.4-0.5,1.9c-0.2,0.7-0.2,1.3-0.3,1.9c0,0.3-0.1,0.6-0.1,0.8c0.1,0.3,0.3,0.6,0.5,0.6c0.4,0.1,0.6-0.3,1-0.4       c0.8-0.8,1.6-1.5,2.2-2.4c0.3-0.3,0.6-0.6,0.9-0.8c0.4-0.3,0.9-0.6,1.4-0.8c0.1-0.1,0.3-0.1,0.4-0.1c0.3-0.1,0.5-0.4,0.7-0.6       c0.2,0.1,0.2,0.5,0.5,0.5c0.4,0.1,0.7-0.6,0.9-0.7c0.3,0.1,0.4,0.5,0.6,0.7c0.2-0.1,0.3-0.3,0.5-0.3c0.1,0.2,0.4,0.5,0.4,0.8       c0,0.2,0,0.4,0.1,0.4c0.2,0,0.2-0.2,0.4-0.3c0.1,0.3,0.3,0.7,0.2,1c0.2,0,0.4,0.2,0.5,0.1c0.2,0,0.3-0.3,0.5-0.3       c0.2,0.1,0.2,0.5,0.5,0.6c0.1-0.1,0.1-0.2,0.3-0.2c0.3,0.1,0.3,0.5,0.5,0.8c0.2,0.1,0.2-0.2,0.3-0.2c0.1,0.5,0.7,0.3,0.9,0.3       c0.3,0.6-0.1,1.3-0.6,1.6c0,0.3-0.1,0.5-0.1,0.7C51.2,40.9,51,41,51,41.1c0.3,0.2,0.9,0.2,1.3,0.4c0.1,0.1,0.4,0.4,0.6,0.3       c0.2,0,0.2-0.3,0.3-0.6c0.1-0.3,0.2-0.4,0.2-0.6c0.1-0.3,0.1-0.7,0.1-1.1c0.1-0.7,0.3-1.4,0.4-2c0.1-0.4,0.1-0.7,0.1-1       c0-0.4,0.2-0.9,0.2-1.3c0.1-0.4,0-0.8,0-1.3c0.1-0.9,0.1-1.8,0.2-2.6C54.5,31.1,54.4,30.9,54.5,30.6z M54.1,23.8       c0-0.1,0.1-0.1,0.1-0.2C53.8,23.2,53.6,23.7,54.1,23.8z M50.5,41.5c0.4-0.1,1.2,0.3,1.7,0.2c-0.3-0.3-0.7-0.1-1.1-0.4       c-0.3,0-0.6,0.1-0.9,0.2c-0.2,0.1-0.5,0-0.8,0.1c-0.2,0-0.3,0.1-0.5,0.2c0,0-0.1-0.1-0.2,0c-0.4,0.1-0.9,0.3-1.3,0.3       c-0.6,0-1.2-0.1-1.4,0.1c1.2,0.3,2.5,0,3.6-0.3c0.2-0.1,0.3-0.1,0.5-0.1C50.2,41.6,50.3,41.6,50.5,41.5z M51.4,45.6       c0.1-0.2,0.5-0.7,0.4-1c-0.1-0.1-0.5-0.3-0.7-0.4c-0.3-0.1-0.6-0.2-0.9-0.2c-0.9-0.2-1.3-0.3-2.2-0.2c-0.4,0.1-0.7,0.2-1,0.3       c-0.2,0-0.3,0-0.6,0c-0.3,0-0.6,0.1-0.8,0.1c-0.3,0-0.5-0.1-0.8-0.1c-0.3-0.1-0.6-0.2-0.9-0.2c-0.7-0.1-1.5-0.2-2.1-0.1       c-1.4,0.1-2.6,0.6-4,0.4c-0.3-0.1-0.5,0-0.7-0.1c-0.8-0.2-1.5-0.4-2.3-0.3c-0.3,0.1-1.3,0.1-1.4,0.5c0,0.1,0.2,0.6,0.4,0.8       c0.1,0.2,0.3,0.3,0.4,0.5c0.1,0.3,0.2,0.6,0.5,0.7c0.4-0.2,0.8-0.4,1.2-0.4c0.8,0,1.7,0.5,2.6,0.6c0.8,0.1,1.4-0.2,1.9-0.3       c1.2-0.3,2.4-0.3,3.9,0c0.7,0.1,1,0.3,1.6,0.3c0.2,0,0.4,0,0.7,0c0.4-0.1,0.8-0.2,1.1-0.3c0.6-0.1,1.8-0.2,2.4,0.1       c0.2,0.1,0.6,0.5,0.9,0.4c0.1,0,0.2-0.3,0.3-0.4C51.2,45.9,51.3,45.8,51.4,45.6z M51.2,39.1c0.1-0.2,0.2-0.3,0.3-0.4       c-0.1-0.1-0.5,0.2-0.5,0.4C51.2,39,51.2,39.1,51.2,39.1z M51.2,39.4C51.2,39.4,51.2,39.4,51.2,39.4c-0.3,0.2-0.3,0.4-0.5,0.7       C51,40,51.1,39.7,51.2,39.4z M50.3,39.3c0.1,0,0.6-0.5,0.5-0.7c0-0.1-0.1-0.1-0.2-0.1C50.6,38.7,50.3,39,50.3,39.3z M50.2,38.2       c-0.5-0.2-0.2,0.6-0.3,0.9C50.2,38.9,50.1,38.5,50.2,38.2z M49.2,40.4c0.2-0.2,0.4-0.5,0.3-0.9c-0.1,0-0.1,0.1-0.2,0.1       C49.2,39.9,49.2,40.1,49.2,40.4z M48.9,38.4c0.3,0.1,0.4-0.4,0.2-0.6C48.8,37.7,49,38.2,48.9,38.4z M48.9,39.4       c-0.1-0.2-0.4-0.1-0.4,0.2c-0.1,0-0.1-0.1-0.2,0c-0.1,0.4,0.5,0.4,0.3,0C48.8,39.5,48.9,39.5,48.9,39.4z M48.8,41.5       c0.4-0.6-0.8-1-1-0.4c0.1,0.1,0.3,0,0.4,0.1c0.1,0.1,0,0.3,0.1,0.4C48.3,41.6,48.7,41.6,48.8,41.5z M48.4,38.5       c0.2-0.1,0.4-0.6,0-0.7C48.4,38.1,48.3,38.3,48.4,38.5z M48.5,40.3c-0.1-0.2-0.3-0.2-0.5-0.2c-0.2,0-0.3,0-0.5,0       c0,0-0.1,0-0.1,0c-0.3,0.2-0.7,0-0.9,0c-0.5-0.1-0.8,0.3-1.2,0.5c-0.2,0-0.5,0.1-0.7,0.1c-0.1,0-0.2-0.1-0.4-0.1       c0-0.1-0.3,0-0.3,0.1c0.4,0.2,0.9,0.3,1.3,0.1c0.2,0.2,0.4,0.2,0.8,0.2c0-0.2-0.2-0.2-0.1-0.4c0.3,0.2,0.6,0.3,0.9,0.2       c-0.1-0.2-0.3-0.2-0.4-0.4C47.1,40.5,48,40.6,48.5,40.3z M47.6,38.7c0.4,0.2,0.4-0.8,0.1-0.6C47.6,38.3,47.6,38.5,47.6,38.7z        M46.9,37.8c0.5,0.1,0.5-0.6,0.1-0.6C46.9,37.4,46.8,37.6,46.9,37.8z M47,36.1c-0.2-0.2-0.8,0.3-0.5,0.6       C46.8,36.7,47,36.3,47,36.1z M46.9,38.6c0.2-0.2-0.1-0.6-0.3-0.5C46.7,38.2,46.7,38.6,46.9,38.6z M46.2,35.9       c0.2-0.1,0.1-0.4,0.1-0.6C46.1,35.3,46,35.8,46.2,35.9z M46.2,37.1c0.1,0,0.1,0,0.2,0c0-0.4-0.2-0.5-0.1-0.9       c-0.5,0-0.8,0.4-1.3,0.5c-0.2,0-0.4,0-0.6,0c-0.3,0.2-0.6,0.1-0.8,0.3c-0.7,0.4-1.2,0.9-1.8,1.5c-0.5,0.4-1.1,0.8-1.5,1.4       c0.3,0.1,0.5,0,0.7-0.1c0.1-0.2,0.2-0.5,0.4-0.6c0.1-0.1,0.3,0,0.4-0.2c0-0.1,0-0.2,0-0.2c0.2,0,0.4-0.1,0.4-0.2       c0,0-0.1-0.1-0.1-0.1c0.1-0.1,0.2,0,0.3,0c0.1-0.1,0.1-0.3,0.2-0.3c0.1,0.1,0.2,0.2,0.3,0.2c0.2,0,0-0.3,0-0.5       c0.2,0.1,0.4-0.2,0.6-0.1c0.1,0,0.1,0.1,0.2,0.2c0,0,0.1-0.1,0.1-0.1c0-0.2-0.1-0.3-0.2-0.4c0.2-0.1,0.2-0.2,0.4-0.1       c0,0,0,0.1,0.1,0.1c0.1,0,0.2,0,0.2,0c0.1,0.1,0.1,0.2,0.3,0.2c0.1,0,0.2-0.1,0.2-0.3c0-0.1-0.1-0.1-0.1-0.2       c0.4-0.1,0.7-0.1,0.8,0.2c0.1,0,0.2-0.1,0.2-0.1c0-0.2-0.2-0.1-0.1-0.3c0.1,0,0.2,0,0.3,0c0.2,0,0.1-0.3,0.3-0.3c0,0,0,0,0,0       c0,0.1-0.1,0.1-0.1,0.3C46.2,36.8,46.1,37,46.2,37.1z M46,38c0.6,0.1,0.2-1-0.1-0.6C46,37.6,46,37.8,46,38z M46,38.9       c0.3-0.1,0-0.7-0.3-0.6C45.9,38.4,45.9,38.7,46,38.9z M45.2,38.3c0.4,0.1,0.4-0.8,0-0.7C45.1,37.8,45.1,38.1,45.2,38.3z        M45.1,38.9c0.2-0.2-0.1-0.5-0.2-0.3C44.9,38.7,45,38.8,45.1,38.9z M45,35.7C44.9,35.7,44.9,35.7,45,35.7       c-0.1,0.1-0.3,0.3-0.2,0.5C45,36.2,44.9,36,45,35.7z M43.7,41.6c0.2,0.1,0.6,0.2,0.9,0.2c-0.1-0.1-0.3-0.2-0.4-0.2       c-0.2-0.1-0.5-0.2-0.7-0.2c-0.8-0.4-1.7-0.2-2.7,0c-0.3,0-0.6,0.2-0.9,0.2c-0.1,0-0.3,0-0.4,0c-0.7,0-1.3-0.1-2-0.2       c-0.2,0-0.4-0.1-0.7-0.2c-0.3-0.1-0.7-0.1-1-0.1c-0.2,0-0.4,0.1-0.6,0.2c0.5,0.1,1.1,0.1,1.6,0.2c0.7,0.2,1.4,0.5,2.2,0.4       C40.6,42,42.1,41.2,43.7,41.6z M44.4,38.6c0.4,0,0.2-0.9-0.2-0.7c0,0,0,0,0,0.1C44.4,38.1,44.3,38.3,44.4,38.6z M43.9,36.5       c0.2-0.1,0.4-0.4,0.3-0.6c0,0,0,0-0.1,0C44.1,36.2,43.8,36.3,43.9,36.5z M43.5,38.8c0.4,0,0.3-0.3,0.2-0.5       C43.4,38.2,43.4,38.6,43.5,38.8z M43.5,36.6c0.1-0.4-0.2-0.2-0.3,0C43.3,36.7,43.5,36.7,43.5,36.6z M43.4,39.4       c0.3-0.1,0.2-0.5-0.1-0.4C43.3,39.2,43.4,39.3,43.4,39.4z M42.8,38.8c-0.1,0.2,0.1,0.5,0.2,0.2C43,38.9,43,38.7,42.8,38.8z        M42.7,39.9c0.2-0.2,0-0.5,0-0.8c-0.1-0.1-0.2-0.1-0.3-0.1c0,0.1,0,0.4,0.1,0.4c0.1,0,0-0.1,0.1-0.1       C42.7,39.4,42.6,39.8,42.7,39.9z M42.7,37c-0.1-0.1,0-0.2-0.1-0.3c-0.1,0.1-0.3,0.3-0.1,0.4C42.6,37.1,42.6,37.1,42.7,37z        M41.8,37.5c0.4,0.1,0.3-0.3,0.2-0.4c-0.1,0,0,0.1,0,0.2c-0.1,0-0.1,0.1-0.2,0.2C41.8,37.5,41.8,37.5,41.8,37.5z M41.6,38.2       c-0.1-0.1,0-0.1,0-0.2c-0.1,0,0-0.2-0.2-0.1c0,0.1-0.1,0.3-0.2,0.3c0.1,0,0,0.2,0.1,0.1C41.5,38.3,41.6,38.2,41.6,38.2z        M40.9,38.6c0,0.2,0.3,0.2,0.3,0c0,0-0.1-0.1-0.1-0.1C41,38.6,40.9,38.5,40.9,38.6z M38.4,27.1c0.1-0.1,0.2-0.2,0.2-0.3       c0-0.4-0.6-0.4-0.6,0c0,0.1,0.1,0.1,0.1,0.3C38.2,27.1,38.3,27.1,38.4,27.1z M36.8,28c0.2,0,0.2-0.3,0.1-0.4       C36.8,27.6,36.7,27.7,36.8,28C36.8,27.9,36.8,28,36.8,28z M34.9,41.2c0.1-0.1,0.2,0,0.1-0.1c-0.6-0.1-1.1,0.1-1.6,0.3       c0.3,0.1,0.7,0,1-0.1C34.6,41.3,34.8,41.2,34.9,41.2z M32.2,23.5c0-0.1,0.1-0.2,0.1-0.4c-0.1,0-0.1-0.1-0.1-0.1       c-0.2,0.2-0.5-0.1-0.5,0.2C31.8,23.3,31.9,23.5,32.2,23.5z M31.3,27.5c0.1,0,0.1-0.1,0.1-0.1c0-0.2-0.1-0.2-0.3-0.3       C31,27.3,31.1,27.5,31.3,27.5z M31.1,51.2c0-0.1,0-0.2,0-0.3c-0.3-0.3-0.7-0.3-1.1-0.4c-0.2,0-0.5-0.1-0.7-0.1       c-1-0.2-2-0.2-2.9-0.4c-0.3,0-0.5-0.1-0.8-0.2c-0.3-0.2-0.4-0.5-0.4-1c0.1-0.5,0.1-1,0.2-1.3c0-0.2,0-0.3,0-0.5       c0.1-0.6,0.2-1.2,0.2-1.7c0-0.2,0.1-0.3,0.1-0.5c0-0.2-0.1-0.4,0-0.6c0.1-0.7,0.2-1.4,0.2-2.1c0-0.1,0.1-0.1,0.1-0.2       c0.1-0.4,0.1-0.6,0.3-1c0.4-1,0.9-2,0.9-3.2c0-0.5,0-0.8,0-1.1c0-0.3-0.1-0.6-0.1-0.9c0-0.1,0.1-0.2,0-0.3       c0-0.1-0.1-0.2-0.1-0.3c-0.1-0.4-0.1-0.7-0.4-1c0.1-0.1,0-0.2-0.1-0.3c-0.1,0.2,0,0.5-0.3,0.5c0-0.3,0-0.6,0-0.9       c0.1-1,0.3-1.9,0.4-2.9c0.1-0.3,0.1-0.7,0.1-1c0.1-0.6,0.4-1.4-0.1-1.8c-0.6-0.2-0.4,0.4-0.5,0.7c-0.1,0.2-0.2,0.1-0.2,0.2       c-0.1,0.3,0,0.7,0,1c0,0.2-0.2,0.3-0.2,0.5c-0.1,0.4-0.2,0.7-0.5,0.9c-0.1,0-0.3,0-0.4,0.1c0,0.2,0.1,0.4,0,0.6       c-0.2-0.1-0.2-0.2-0.3-0.3c-0.2,0-0.3,0.4-0.4,0.7c0.1,0.1,0.1,0.2,0.1,0.3c0.1,0.1,0.3,0.2,0.4,0.3c0.3,0.4,0.2,0.8-0.2,1.1       c-0.1-0.1-0.2-0.2-0.3-0.2c-0.2-0.1-0.5-0.1-0.7-0.2c-0.1,0-0.2-0.1-0.3-0.2c-0.2-0.1-0.3-0.1-0.5-0.1       c-0.2,0.1-0.5-0.1-0.5,0.1c0.6,0.4,1.4,0.3,1.8,0.6c0.3,0.2,0.5,0.6,0.7,0.9c0.4,0.5,0.7,1.2,0.8,2c-0.1,0.2,0,0.4,0,0.6       c0,0.2,0,0.5,0,0.7c-0.1,1.4-0.4,2.8-0.7,4.1c-0.1,0.3-0.1,0.7-0.1,0.9c0,0.2-0.1,0.4-0.1,0.6c-0.1,0.5-0.1,1-0.1,1.5       c0,0.3,0,0.4,0.1,0.6c-0.1,0.3,0,0.6,0,0.9c0,0.2-0.1,0.3-0.1,0.5c-0.1,1-0.1,2-0.1,2.9c0.4,0.2,0.8,0.1,1.2,0.1       c0.5,0,0.9,0,1.2,0.1c0,0,0.2-0.1,0.2,0.1c-0.1,0.1-0.4,0-0.3,0.1c-0.4,0-1.3-0.2-1.7,0.1c0.1,0.1,0.2,0,0.3,0       c0.8,0,1.5,0.2,2.3,0.2c0.2,0,0.4-0.1,0.6,0c0.6,0,1.1,0.2,1.6,0.2C30.5,51.3,30.9,51.4,31.1,51.2z M31,27.2c0-0.1,0-0.1,0-0.2       c-0.1-0.1-0.6-0.2-0.5,0c-0.1-0.2-0.5,0.1-0.6-0.1c0-0.1,0.2,0,0.2-0.1c-0.1-0.1-0.3-0.1-0.4-0.2c0-0.1,0.2,0,0.3-0.1       c0.1-0.1-0.1-0.1-0.1-0.1c0.1-0.1,0.2-0.1,0.2-0.2c-0.2,0-0.4-0.1-0.5,0.1c-0.4,0-0.7,0.6-1.1,0.2c-0.2-0.1-0.4,0.1-0.6,0.1       c-0.2,0-0.3-0.2-0.5-0.1c-0.1,0-0.2-0.1-0.3-0.2c-0.1,0.1-0.2,0-0.3-0.1c-0.2,0-0.4-0.1-0.5-0.1c-0.1,0-0.1-0.1-0.1-0.1       c-0.1,0-0.2,0-0.3,0c-0.1,0-0.2-0.2-0.4-0.2c-0.2-0.1-0.6,0-0.8-0.1c0,0-0.1-0.1-0.1-0.1c-0.1,0-0.2,0-0.3-0.1       c0-0.3-0.1-0.8,0.1-1.2c0.1,0.2,0,0.4,0,0.6c0.1,0.5,0.8,0.7,1.3,0.7c0.2-0.4,0.1-0.7,0.1-1c0.2,0.2,0.2,0.8,0.7,0.7       c0.1,0.3,0.3,0.6,0.7,0.7c0.1-0.2,0.1-0.5,0.1-0.7c0.1-0.6,0.2-1.2,0-1.7c0.1-0.6-0.4-1.2-0.3-1.8c-0.2-0.1-0.3-0.2-0.4-0.1       c0-0.3-0.2-0.4-0.4-0.5c-0.4-0.4-0.8-0.9-1.1-1.5c0,0,0-0.1,0-0.1c-0.1-0.3-0.1-0.6-0.2-0.9c0-0.1-0.1-0.3-0.2-0.4       c-0.2,0.2-0.1,0.6,0,0.9c0,0.1,0,0.2,0,0.3c0,0.3,0.2,0.6,0.2,1c0,0.1-0.1,0.2-0.1,0.3c0,0.3,0.2,0.6,0.2,0.8       c0,0.1-0.1,0.2-0.1,0.3c0,0.1,0.1,0.3,0,0.4c-0.3-0.2-0.1-0.5-0.3-0.8c-0.3,0-0.3-0.3-0.5-0.4c-0.1,0.1-0.1,0.3-0.1,0.4       c0.1,0.4,0.3,0.8,0.5,1.1c0,0.1-0.1,0.1-0.1,0.2c0.2,0.3,0.4,0.7,0.4,1.1c-0.2,0-0.1-0.3-0.2-0.4c-0.1,0-0.1,0-0.2,0       c-0.1,0.4-0.1,0.9-0.4,1.1c-0.2,0.2-0.6,0-0.8,0.3c0,0.6,0.4,1.3,1.1,1.4c0.2,0,0.3,0,0.5,0.1c0.6,0.1,1.1,0.1,1.8,0.2       c0,0,0.5,0.1,0.5,0.2c0,0.1-0.3,0.2-0.4,0.2c-0.5,0.1-0.9-0.3-1.4-0.3c-0.2,0-0.4,0.1-0.6,0.1c-0.4,0-0.7,0-0.9,0.1       c-0.1-0.1-0.3,0-0.5-0.1c-0.2-0.1-0.3-0.5-0.6-0.4c-0.1,0.2,0,0.5-0.1,0.7c0.1,0.2,0.5-0.1,0.6,0c0,0,0,0,0,0c0,0,0,0,0,0       c0,0,0,0,0,0c0,0,0,0,0,0c0,0,0,0,0,0c0.3-0.1,0.6,0,0.8,0c0.7,0.1,1.3-0.1,1.9-0.1c0.3,0,0.5,0.1,0.8,0.2       c0.4,0,0.7-0.1,1.1-0.1c0.8,0,1.3,0.2,1.9,0.2c0.1,0,0.1,0.1,0.1,0.1c0.2-0.1,0.4,0,0.6,0.1c0.3,0,0.3,0.2,0.5,0.2       c0-0.3-0.3-0.3-0.3-0.6c0.1,0,0.2,0,0.2-0.1c0-0.1-0.1,0-0.1-0.1C30.7,27.1,30.8,27.2,31,27.2z M30,24.5       c0.3-0.2,0.8-0.3,0.6-0.8c-0.4,0.1-0.8,0.4-1.2,0.5c0,0.2,0,0.4,0.2,0.4C29.7,24.7,29.9,24.6,30,24.5z M30.3,25.9       c0.3,0,0.3-0.8,0.2-1.1c-0.2,0-0.5,0.2-0.6,0.3C29.8,25.3,30,25.9,30.3,25.9z M30.1,52.7c-0.1-0.1-0.2,0-0.3,0.1       c0,0.1,0,0.1,0,0.1C30,52.9,30.1,52.8,30.1,52.7z M29.2,53.3c0.3,0,0.9,0.2,1-0.1c-0.6,0-1.1-0.1-1.5-0.1       C28.7,53.4,29,53.3,29.2,53.3z M29,53c0.1-0.4-0.3-0.7-0.6-0.7c-0.2-0.1-0.5-0.1-0.8-0.1c-0.8-0.1-1.5-0.1-2.2-0.2       c-0.7-0.1-1.3-0.2-1.9-0.5c-0.1,0.1-0.1,0.3-0.4,0.3c-0.5,0-0.2-1.1,0.1-1.2c0.1,0,0.1,0.2,0.2,0.2c0.1-0.2,0.2-0.4,0.4-0.5       c-0.2-0.4-0.1-0.7-0.1-1.2c0.1-1.2,0.3-2.6,0.5-4.1c0.1-0.6,0.2-1.2,0.3-1.8c0.1-0.3,0-0.6,0.1-0.9c0-0.3,0.1-0.6,0.2-0.9       c0-0.1,0-0.3,0.1-0.4c0-0.2,0.1-0.3,0.2-0.4c0.1-0.3,0.1-0.6,0.2-0.8c0.1-0.2,0.1-0.5,0.1-0.7c0-0.5,0-1-0.1-1.5       c0-0.2,0-0.4-0.1-0.5c-0.1-0.2-0.3-0.5-0.4-0.8c-0.2-0.5-0.4-1.3-0.9-1.6c-0.1-0.1-0.6-0.3-0.6-0.2c0,0,0,0,0,0.1       c0.5,0.4,1.1,1,1.3,1.7c0,0,0,0.1,0.1,0.2c0.1,0.6,0.1,1.2,0.1,1.8c0,0-0.1,0.2-0.1,0.3c-0.1,0.3-0.1,0.4-0.2,0.6       c-0.1,0.2-0.1,0.4-0.2,0.6c0.3,0,0.2-0.4,0.4-0.5c0,0.1,0.1,0.1,0.1,0.2c-0.1,0.5-0.2,0.9-0.3,1.4c-0.1,0.2-0.1,0.5-0.2,0.8       c-0.1,0.3-0.3,0.5-0.3,0.8c0,0.2,0.1,0.3,0.1,0.4c0,0.4-0.1,0.8-0.3,1.1c-0.1,0.3-0.4,0.7-0.5,0.9c-0.1,0.2,0,0.4-0.1,0.6       c-0.1,0.2-0.3,0.4-0.4,0.6c-0.2,0.4-0.1,1-0.2,1.5c0,0.1-0.1,0.2-0.1,0.3c0,0.2,0,0.3,0,0.5c0,0.2-0.1,0.4-0.1,0.7       c0,0.2,0,0.4-0.1,0.6c-0.1,0.8-0.2,1.4-0.2,2.1c0.1,0.4,0.6,0.8,0,1c-0.4-0.5,0-1.7-0.2-2.3c-0.1,0.3-0.2,0.6-0.2,0.9       c0,0.3,0,0.6-0.2,0.8c-0.1-0.2,0-0.4,0.1-0.6c0.1-0.3,0-0.6,0.1-0.9c0-0.3,0.1-0.6,0.1-0.9c0-0.4,0.3-0.7,0.1-1.1       c-0.3,0.2-0.2,0.5-0.3,0.8c-0.1,0.7-0.2,1.5-0.3,2c0,0.3-0.3,0.9-0.3,1.2c0,0.3,0.3,0.4,0.4,0.6c0.6-0.3,1.3,0.1,2.1,0       c0-0.2-0.2-0.1-0.2-0.2c0.4-0.1,0.8-0.1,1.2,0c0.5,0,1,0,1.6,0c0.2,0,0.3,0.1,0.4,0.1c0.1,0,0.2,0,0.3,0c0,0,0.1,0,0.1,0       c0.2,0,0.4,0,0.6,0C28.1,52.9,28.6,53,29,53z M28.6,26.2c0-0.2-0.3-0.4-0.4-0.4c-0.2,0.1-0.6,0.2-0.6,0.4       C27.9,26.3,28.4,26.4,28.6,26.2z M28.1,25.5c0.1-0.5-0.4-0.8-0.5-1.2c0,0.5-0.1,1-0.1,1.4C27.7,25.8,27.9,25.6,28.1,25.5z        M26.1,17.5c0-0.1,0.1-0.1,0.1-0.1c0-0.2-0.3-0.2-0.4-0.1C25.8,17.4,25.9,17.4,26.1,17.5z M25.7,16.7c0.1-0.1,0.2,0,0.3-0.1       c-0.1-0.4-0.4-0.5-0.6-0.8c0,0,0,0-0.1,0c-0.2,0.4,0.3,0.5,0.3,0.7c-0.1,0-0.1,0.1-0.2,0.1c-0.2-0.2-0.4-0.5-0.7-0.6       c0,0.2,0,0.3,0,0.5c0,0.2,0.2,0.3,0.3,0.4c0,0.1,0,0.1,0,0.2c0.1,0.2,0.3,0.3,0.4,0.3c0.1-0.1,0.1-0.3,0.1-0.4       c0.2,0,0.3,0,0.3-0.2C25.8,16.8,25.7,16.8,25.7,16.7z M25.2,15.1c0-0.1,0-0.1,0.1-0.2c-0.2,0-0.4-0.5-0.5-0.1       C24.9,14.9,25,15.1,25.2,15.1z M24.6,17.3c-0.5,0.1,0.5,0.9,0.7,0.4C25.2,17.6,24.9,17.2,24.6,17.3z M24.7,15.9       C24.7,15.9,24.7,15.9,24.7,15.9c0-0.1-0.1-0.1-0.1,0C24.6,15.9,24.6,15.9,24.7,15.9C24.7,15.9,24.7,16,24.7,15.9z M24.3,11.9       c0,0,0-0.1-0.1-0.1c-0.2,0.2-0.3,0.6-0.3,0.8c-0.2,0.3-0.7,0.9-0.2,1.2c0.2-0.1,0.1-0.4,0.1-0.6c0.1-0.1,0.2-0.2,0.3-0.5       C24.4,12.6,24.3,12.2,24.3,11.9z M23.9,15.8C24,15.8,24,15.7,23.9,15.8c-0.1-0.5-0.9-0.5-1.1-0.2c0.1,0.1,0.2,0.3,0.3,0.4       c0.3,0,0.6,0.1,0.7,0c-0.2-0.1-0.6-0.2-0.8-0.3c0.1-0.1,0.4-0.2,0.6-0.1c0,0.1,0,0.3,0.2,0.3c0.1-0.1-0.1-0.1,0-0.2       C23.9,15.6,23.8,15.8,23.9,15.8z M23.3,17.7c0.1,0,0.3,0.1,0.4,0c-0.1-0.1-0.5-0.3-0.6,0c0,0.1,0.1,0.4,0.3,0.4       C23.3,18,23.3,17.8,23.3,17.7z M23.3,43.3c0-0.2-0.3-0.3-0.2-0.5c-0.3-0.3-0.8-0.2-1,0c0.2,0.4,0.4,0.8,0.3,1.3       c-0.1,0.3-0.2,0.5-0.2,0.7c0,0.2,0,0.4,0,0.5c0,0.2-0.2,0.5-0.1,0.7c0.2,0,0.2-0.3,0.2-0.4c0.1-0.5,0.2-1,0.3-1.6       C22.8,44,23.3,43.5,23.3,43.3z M22.8,44.8c0.3,0,0.3-0.4,0.1-0.4C22.8,44.5,22.8,44.7,22.8,44.8z M22.5,16.4       c-0.1,0.3,0.3,0.7,0.5,0.6c-0.1-0.2-0.2-0.4-0.3-0.6C22.6,16.4,22.5,16.4,22.5,16.4z M23,18.2c0-0.3-0.1-0.6-0.2-0.8       c0,0-0.1,0-0.1,0c0,0,0,0,0,0.1C22.7,17.7,22.7,18.1,23,18.2z M22.4,14c0.1-0.3-0.1-0.7-0.2-1c-0.1-0.2-0.2-0.5-0.3-0.7       c-0.2-0.3-0.5-0.6-0.7-0.1c-0.1,0.5-0.2,1.2,0.2,1.4c0-0.3,0-0.5,0.3-0.8c0.2,0.1,0.4,0.4,0.2,0.7C22.1,13.5,22.2,13.8,22.4,14       z M22.5,42c-0.1-0.2-0.4,0-0.6,0c-0.1-0.1-0.1-0.2-0.1-0.3c-0.2-0.2-0.7-0.3-0.8-0.1c0.1,0.2,0.3,0.2,0.5,0.4       c0.2,0.2,0.2,0.5,0.5,0.6C22.2,42.4,22.4,42.3,22.5,42z M22,26.5c0.2-0.1,0.1-0.5-0.1-0.8c0,0,0,0-0.1,0       C21.7,26,21.9,26.3,22,26.5z M21.6,47.6c0.2-1.3,0.5-2.4,0.3-3.8c0-0.3-0.2-0.5-0.2-0.8c-0.2-0.5-0.7-0.4-0.9,0       c-0.3,1-0.6,2.1-0.7,3c-0.1,1.8-0.4,3.5-0.7,5.1c0.6,0.1,1.2-0.1,1.7-0.1c0.2-0.2,0.1-0.5,0.2-0.8       C21.4,49.2,21.5,48.5,21.6,47.6z M22,15c-0.1-0.2-0.2-0.3-0.4-0.3c-0.1,0.3-0.2,0.7,0,0.9C21.8,15.4,21.8,15.1,22,15z        M20.1,52.5c0.5-0.1,1,0,0.9-0.7c-0.4-0.2-1,0.1-1.6,0c-0.1,0.1-0.3,0.1-0.5,0.2c-0.1,0.1-0.1,0.2-0.2,0.3       c-0.1,0.1-0.3,0.2-0.2,0.3C19.1,52.6,19.8,52.4,20.1,52.5z M20.8,41c0-0.1,0-0.1,0-0.2c-0.2-0.1-0.4-0.1-0.5,0       C20.4,40.9,20.5,41.1,20.8,41z M20.4,43.5c0.1-0.3,0.1-0.6,0.2-0.9c-0.2,0.2-0.3,0.6-0.4,0.9c-0.1,0.3-0.2,0.7-0.3,1.1       c-0.1,0.3-0.2,0.6-0.3,1c-0.1,0.4-0.1,0.7-0.1,1.1c-0.1,0.6-0.1,1.1-0.2,1.7c0,0.1-0.1,0.2-0.1,0.4c0,0.1,0,0.3-0.2,0.3       c-0.1-1.1,0.3-2.2,0.4-3.4c0-0.3,0-0.6,0.1-0.9c0.1-0.5,0.3-0.9,0.3-1.3c0-0.1-0.1-0.2-0.1-0.3c0-0.2,0-0.4,0.1-0.5       c0-0.2,0.1-0.4-0.1-0.5c-0.2,0.1-0.1,0.4-0.1,0.6c-0.1,0.7-0.4,1.6-0.4,2.5c-0.1,0.1-0.1,0.2-0.1,0.4c0,0.1-0.1,0.1-0.1,0.2       c-0.1,0.3-0.1,0.7-0.1,1c0,0.3,0,0.5,0,0.8c0,0.1-0.1,0.1-0.1,0.2c0,0.1,0,0.1,0,0.2c0,0.1-0.1,0.2-0.1,0.3       c0,0.3-0.1,0.7-0.1,1c0,0.2,0,0.4,0,0.5c-0.1,0.2-0.3,0.5-0.2,0.8c-0.2,0.5-0.4,1-0.7,1.4c-0.7,0.7-2,1-3.1,1.1       c-0.5,0-1,0.1-1.4,0.1c-1,0.1-2,0.1-2.8,0.2c-0.3-0.1-0.6,0-0.9,0c-0.3,0-0.5-0.1-0.8,0.1c0,0-0.2,0-0.1,0       c0.8,0,1.6,0.2,2.5,0.1c0.6,0,1.2,0,1.6,0c0.3-0.1,0.6-0.1,0.9-0.1c0.3,0,0.6,0.1,0.9,0c0.1,0,0.3-0.1,0.4-0.1c0.4,0,0.6,0,1,0       c1.2-0.1,1.9-0.3,2.5-0.9c0.3-0.3,0.5-0.8,0.7-1.2c0.1-0.2,0.2-0.4,0.2-0.7c0.2-1,0.3-2,0.4-3c0.2-0.4,0.2-1.1,0.3-1.7       c0.1-0.6,0.2-1.3,0.3-1.8C20.2,43.9,20.4,43.7,20.4,43.5z"
               class="st0" /><path
               id="path138"
               d="M62.9,50.1c0.1,0.9,0.6,1.8,0.3,2.5c-0.2,0-0.1-0.2-0.2-0.2c0-1.2-0.2-2.3-0.4-3.4       c-0.2-0.3-0.2-0.8-0.2-1.2c-0.1-1-0.2-2.1-0.7-2.8c-0.1-0.1-0.3-0.3-0.3-0.5c0-0.1-0.1-0.1-0.1-0.1c0-0.1,0.1-0.2,0.1-0.3       c0-0.3-0.2-0.7-0.2-1c0.1,0.1,0.2,0.2,0.4,0.3c0.1,0,0.1-0.1,0.2-0.2c0.3,0.2,0.5,0.6,0.5,1c0,0.3,0.1,0.5,0.2,0.8       c0,0.1,0,0.2,0,0.4c0,0.2,0.1,0.5,0.1,0.8c0,0.1,0.1,0.2,0.1,0.3c0.1,0.9,0.3,1.7,0.3,2.5C62.9,49.4,62.9,49.8,62.9,50.1z"
               class="st0" /><path
               id="path140"
               d="M60.2,51.4c0-0.1,0.4-0.1,0.5,0C60.7,51.5,60.3,51.5,60.2,51.4z"
               class="st0" /><path
               id="path142"
               d="M56.2,14.5c0,0.1-0.2,0.2-0.3,0.3c-0.1,0.2-0.1,0.5-0.1,0.8c-0.1,0.5-0.4,0.8-0.8,1       c0.1,0.2-0.1,0.3-0.1,0.4c0,0.4,0.2,0.7,0.2,1c-0.3-0.3-0.4-0.7-0.4-1.1c-0.2,0-0.1,0.5-0.1,0.7c-0.2,0.3,0.3,0.4,0.1,0.7       c-0.1,0-0.1-0.1-0.2-0.1c-0.1-0.5-0.3-0.9-0.2-1.4c-0.1,0.2-0.1,0.5-0.1,0.7c0,0.4,0.3,0.7,0.3,1c-0.3,0.1-0.2-0.2-0.2-0.3       c0-0.2-0.2-0.4-0.2-0.7c0-0.4,0.1-0.7,0.1-1c-0.3,0.2-0.1,0.4-0.2,0.7c0.1,0.1,0.1,0.3,0,0.4c-0.1,0-0.1-0.1-0.2-0.2       c0-0.3,0.1-0.6,0.1-1c-0.5,0-0.3,0.7-0.3,1.1c-0.3-0.1-0.2-0.8-0.1-1.1c-0.4-0.2-0.4-0.4-0.5-0.8c0-0.2-0.1-0.4-0.1-0.6       c0-0.3,0-0.6-0.1-0.8c-0.1-0.2-0.7-0.3-0.9,0c0,0.2-0.1,0.4-0.1,0.6c-0.3,0.3-0.7,0.6-1,0.9c-0.1,0.4-0.4,0.5-0.6,0.8       c-0.2,0.2-0.3,0.5-0.4,0.7c-0.1,0.1-0.2,0.2-0.3,0.4C49.1,17.9,49,18,49,18.2c-0.1,0.3-0.4,0.4-0.5,0.7       c0.3,0.1,0.6,0.2,0.9,0.3c0.2,0.4,0.4,0.8,0.3,1.3c-0.1,0.2-0.3,0.3-0.4,0.5c-0.2,0.1-0.8,0.1-1,0c-0.3,0.1-0.6,0.2-0.9,0.1       c-0.3,0.2-0.7,0.2-1.1,0c-0.2,0.1-0.5,0.1-0.7,0.1c-0.1,0-0.2-0.1-0.2-0.1c-0.1,0-0.2,0.1-0.3,0.1c-0.2,0-0.4,0-0.6,0       c-0.2-0.1-0.3-0.2-0.5-0.2c-0.2,0-0.3,0.1-0.4,0.1c-0.2,0-0.3-0.1-0.5-0.1c-0.2-0.1-0.2,0.1-0.4,0.1c-0.3,0.1-0.6,0-0.9-0.1       c-0.4,0.1-0.8,0.3-1.1-0.1c-0.3,0.2-0.9,0.2-1.2-0.1c-0.4,0.2-0.8,0.3-1.1,0c-0.4,0.2-1,0.3-1.5,0.2c-0.7-0.3-1.2-1.2-0.7-1.9       c0.2-0.2,0.5-0.3,0.8-0.4c0-0.2-0.2-0.2-0.3-0.4C36.2,18,36,17.4,35.7,17c-0.3-0.4-0.6-0.8-0.8-1.2c-0.1-0.2-0.1-0.3-0.2-0.4       c-0.2-0.3-0.6-0.4-0.7-0.7c-0.1-0.2,0-0.3,0-0.5c0-0.2-0.3-0.4-0.5-0.5c-0.4-0.1-0.5,0.1-0.6,0.4c0.2,0.7-0.1,1.3-0.2,1.9       c-0.1,0.3-0.2,0.5-0.5,0.5c0,0.5-0.2,0.9-0.4,1.4c-0.1,0-0.1,0-0.2,0c0.1-0.2,0.3-0.4,0.4-0.7c0.1-0.2,0.1-0.5-0.1-0.6       c-0.2,0.1-0.1,0.2-0.1,0.3c0,0.4-0.3,0.8-0.4,1.2c-0.1,0.1-0.3,0.4-0.4,0.2c0.1-0.2,0.3-0.4,0.5-0.7c0-0.1-0.1-0.1,0-0.1       c0.2-0.2,0.2-0.5,0.1-0.8c-0.1,0.5-0.2,1.3-0.6,1.4c0.2-0.4,0.6-0.7,0.4-1.3c-0.2,0.2-0.1,0.8-0.5,0.9       c-0.1-0.3,0.4-0.5,0.1-0.9c-0.1,0.3-0.2,0.7-0.5,0.7c0-0.2,0.1-0.2,0.2-0.3c0.1-0.3,0.2-0.7-0.2-0.8c-0.4-0.4-0.2-1.2-0.6-1.7       c-0.1-0.1-0.2-0.2-0.3-0.4c0.3-0.2,0.6,0.2,0.8,0.2c0.3-0.1,0.1-0.6,0.2-0.8c0.2,0,0.1,0.1,0.2,0.1c0.4-0.1,0.5-0.8,0.4-1.1       c-0.1,0.2,0,0.6-0.3,0.8c-0.1,0-0.1-0.1-0.1-0.1c-0.1,0-0.2,0.2-0.3,0.1c0-0.1,0-0.1,0-0.2c0-0.1,0.1-0.1,0.2-0.1       c0-0.1,0.1-0.3,0.1-0.5c-0.1-0.1-0.2-0.2-0.3-0.3c-0.3-0.5-0.3-1.5-0.9-1.7c0.5-0.2,0.7,0.4,1.2,0.4c0.2-0.4,0.3-0.8,0.6-1.2       c0.4,0,0.7-0.1,1.1,0c0.4,0.1,0.4,0.7,0.7,1c-0.1,0.1,0,0.1,0,0.2c0.2,0.2,0.1,0.6,0.3,0.7c0.2-0.1,0.1-0.3,0-0.5       c0-0.3,0.1-0.6,0-0.7c-0.1-0.2-0.3-0.2-0.4-0.4C33,9.7,33,9.5,32.9,9.2c-0.5-0.8-1-1.5-1.7-2.1c0-0.1,0-0.2,0-0.3       c0.2-0.2,0.4-0.2,0.7-0.2c0.9,0.1,1.2,0.9,1.3,1.8c0,0.2,0,0.3,0,0.5c0.1,0.2,0.3,0.3,0.5,0.4c0.2-0.1,0.2-0.3,0.2-0.5       c-0.1-0.3-0.4-0.4-0.4-0.8c0-0.2,0.1-0.4,0.1-0.6c0-0.5-0.3-1.1-0.6-1.4c-0.2-0.2-0.6-0.3-0.5-0.6c0.1-0.3,0.5-0.2,0.7-0.1       c0.5,0.2,0.8,0.8,0.9,1.2c0,0.3-0.1,0.6,0,0.8c0,0.2,0.4,0.7,0.5,0.3c-0.4-0.4,0.1-1,0-1.5c0-0.2-0.1-0.4-0.1-0.6       c-0.1-0.4-0.6-0.6-0.5-1.1c0.3-0.1,0.5,0.1,0.6,0.2c0.2,0.2,0.4,0.4,0.4,0.8c0.1,0.6-0.2,1.1-0.1,1.5C35.1,7,35,6.7,35.1,6.5       c0.1-0.3,0.2-0.6,0.2-0.9c0-0.7-0.6-0.9-0.5-1.4c0.5-0.2,0.8,0.3,0.9,0.7c0.1,0.6-0.3,1.1,0.1,1.5C36,6.2,36,6,36.1,5.8       c0.2-0.6-0.3-1.2,0.1-1.8c0.4,0,0.5,0.3,0.5,0.6c0.1,0.5-0.3,0.8-0.1,1.2c0.2,0.1,0.3-0.2,0.4-0.3c0.1-0.3,0.2-0.6,0.1-0.9       c0-0.3-0.2-0.6,0.2-0.6c0,0,0,0,0,0c0.7,0.4-0.1,1,0.1,1.6c0.1,0,0.2-0.1,0.3-0.1c0.3-0.3,0.2-1.2,0.9-1.2       c0.1,0.1,0.2,0.3,0.1,0.5c-0.3,0.1-0.6,0.5-0.3,0.8c0.2,0,0.4,0,0.6,0.1c0,0.2,0,0.2,0,0.5c-0.6,0-1.2,0-1.8,0.1       C36.6,6.4,36,6.7,35.6,7c-0.3,0.3-0.6,0.7-0.9,1.1c-0.6,0.9-0.8,2.2-0.7,3.3c0,0.3,0.1,0.6,0.1,1c0.2,0.5,0.3,1,0.5,1.5       c0.1,0.4,0.3,0.7,0.5,1.1c0.2,0.3,0.3,0.7,0.5,1c0.2,0.4,0.5,0.7,0.8,1.1c0.2,0.4,0.5,0.7,0.8,1c0.1,0,0.2-0.2,0.2-0.2       c0.1-0.7-0.4-1.5-0.6-2c-0.3-0.5-0.5-1.1-0.9-1.5c-0.3,0.1-0.6,0.1-0.8,0C35.1,14.2,35,14.1,35,14c-0.1-0.2,0.1-0.5,0-0.7       c-0.1-0.2-0.3-0.3-0.4-0.5c0-0.3,0.1-0.5,0.2-0.7c0-0.2-0.1-0.2-0.2-0.3c-0.1-0.4,0.2-0.6,0.4-0.9c-0.1-0.5,0.4-0.9,0.8-1.1       C36,9.4,36.2,9,36.6,9c0.1,0,0.2,0.1,0.3,0.1c0.2-0.1,0.2-0.2,0.3-0.4c0.2,0,0.3-0.1,0.5-0.1c0.1,0,0.2,0.1,0.4,0.1       c0.2,0,0.4-0.2,0.6-0.2c0.4,0,0.6,0.2,0.8,0.4c0.3-0.1,0.9-0.1,1,0.3c0.5-0.1,0.8,0.2,1,0.6c0.3-0.4,0.6-0.9,0.7-1.3       c-0.3-0.2-0.5,0.2-0.8,0.2c-0.1-0.4,0-1.1,0-1.4c0.4,0,0.5,0.2,0.9,0.3c0-0.4-0.4-0.7-0.5-1c0.8,0,1.4-0.1,2,0.1       c-0.1,0.3-0.4,0.5-0.5,0.8c0.3,0,0.5-0.2,0.9-0.3c0.1,0.2,0,0.6-0.1,0.8c0,0.2,0.1,0.5-0.1,0.7c-0.4,0-0.6-0.4-0.9-0.2       c0,0.5,0.2,0.7,0.5,1c0,0.3,0.1,0.4,0.2,0.4c0.1,0,0.2-0.1,0.2-0.2c0.2-0.2,0.5-0.2,0.7-0.2C45,9.5,45,9.3,45.1,9.2       C45.3,9,45.7,9,46,9.1c0.2-0.2,0.5-0.4,0.9-0.3C47,8.8,47.1,9,47.2,9c0.5-0.3,1-0.2,1.2,0.2c0.2,0,0.3,0.1,0.6,0.1       c0.2,0.1,0.5,0.3,0.6,0.5c0,0,0,0.2,0,0.2c0.1,0.1,0.4,0.1,0.5,0.2c0.2,0.1,0.3,0.2,0.4,0.4c0,0.2-0.1,0.5,0,0.7       c0.1,0.2,0.4,0.3,0.3,0.8c0,0.1-0.2,0.2-0.2,0.3c0,0.1,0.1,0.2,0.2,0.3c0.1,0.4-0.1,0.7-0.3,0.9c0.1,0.6-0.2,1-0.7,1       c-0.1,0-0.2-0.1-0.3,0c-0.3,0-0.3,0.4-0.3,0.7c-0.1,0.1-0.1,0.2-0.3,0.2c-0.4,0.7-1,1.6-1.1,2.5c0,0.2,0,0.5,0.2,0.6       c0.4-0.2,0.5-0.7,0.8-1c0.3-0.7,0.8-1.1,1.1-1.8c0.4-0.4,0.6-0.9,0.8-1.5c0.5-0.9,0.7-2,0.7-3.1c0-0.3-0.1-0.6-0.1-0.8       c0-0.2,0-0.4,0-0.5c-0.1-0.2-0.2-0.5-0.2-0.7c-0.3-0.8-0.6-1.4-1.2-1.9c-0.4-0.2-0.7-0.3-1.2-0.5c-0.2-0.1-0.4-0.2-0.7-0.2       c-0.4-0.2-1.1-0.2-1.5-0.3c0-0.1-0.1-0.2,0-0.4c0.2-0.1,0.5,0,0.6-0.2c0.1-0.4-0.3-0.6-0.3-0.9c0-0.3,0.3-0.4,0.5-0.2       C47.4,4.7,47,6,47.9,5.8c0.3-0.2-0.1-0.5-0.2-0.8c-0.1-0.3,0.1-0.4,0.2-0.7c0.3-0.1,0.3,0.1,0.4,0.2c0,0.3-0.1,0.5,0,0.8       c0.1,0.3,0.2,0.7,0.4,0.8c0.2,0,0.2-0.2,0.3-0.3c-0.1-0.5-0.5-1.1-0.1-1.6c0.3-0.1,0.4,0.1,0.5,0.2c-0.2,0.7-0.4,1.4,0,2       c0.1,0.1,0.2,0.2,0.4,0.1c0-0.3-0.1-0.7-0.1-1c0-0.1,0.1-0.5,0.2-0.6c0.1-0.1,0.5-0.3,0.7-0.3c0.2,0.1,0.2,0.4,0.1,0.6       c-0.1,0.1-0.2,0.2-0.3,0.4C50.2,5.7,50,6,50,6.1c0,0.2,0.2,0.4,0.3,0.6c0.1,0.3-0.1,0.7,0.4,0.7c0.2-0.5-0.2-0.9-0.1-1.5       c0-0.1,0.2-0.4,0.3-0.6c0.1-0.1,0.4-0.3,0.5-0.3c0.3,0,0.4,0.2,0.3,0.4c-0.1,0.2-0.4,0.5-0.5,0.8c0,0,0,0.1-0.1,0.1       c0,0.1-0.1,0.1-0.1,0.1c-0.1,0.3,0.1,0.7,0,1C51.2,7.8,51,8,51,8.2c0.1,0.4,0.5,0.1,0.5-0.1c0-0.6,0.1-1,0.3-1.7       C52,6.4,52,6.1,52.1,6c0,0,0.1,0,0.2-0.1c0.1,0,0.1-0.1,0.1-0.1c0,0,0.1,0,0.2-0.1c0.1,0,0.1-0.1,0.1-0.1       c0.1,0,0.2-0.1,0.3-0.1c0.3-0.1,0.5-0.2,0.6,0.1c-0.4,0.7-1.4,1.1-1.4,1.9C52,7.9,52.1,8.2,52,8.5c-0.1,0.3-0.4,0.4-0.5,0.7       c0,0.1,0,0.4,0.1,0.6c0.5,0,0.5-0.5,0.6-0.9c0.2-0.8,0.6-1.1,1.2-1.5c0.4-0.1,1-0.4,1.3,0c-0.1,0.2-0.3,0.1-0.5,0.2       c-0.4,0.1-0.5,0.5-0.8,0.8c-0.2,0.2-0.5,0.3-0.6,0.4c-0.2,0.4-0.2,0.9-0.4,1.3c-0.1,0.2-0.5,0.3-0.5,0.6c-0.1,0.4,0,0.7,0,1.1       c0.3-0.1,0.2-0.4,0.4-0.5c0-0.3,0.2-0.4,0.3-0.7c0.1-0.2,0.1-0.4,0.3-0.4c0.1-0.1,0.4-0.2,0.4-0.2c0.1,0,0.3,0,0.4,0       c0.3,0.1,0.5,0.1,0.7,0.3c0.2,0.2,0.2,0.7,0.5,0.9c0.3,0,0.4-0.3,0.7-0.3c0.1,0.3-0.2,0.5-0.3,0.9c-0.2,0.5,0,1-0.5,1       c-0.1,0.4,0.4,0.4,0.2,0.7c-0.3-0.1-0.3-0.6-0.5-0.7c-0.2,0.3,0.2,0.5,0.2,0.7c-0.4,0.1-0.3-0.5-0.5-0.8       c-0.2,0.1,0,0.5,0.1,0.7c0.1,0.1,0.3,0.3,0.2,0.4c-0.2,0.2-0.3,0-0.3-0.2c-0.1,0-0.2,0-0.3,0c-0.1-0.3-0.2-0.7-0.2-1       c-0.5,0.1,0.1,0.4-0.1,0.8c-0.2,0-0.2-0.5-0.2-0.7c-0.1-0.2-0.3-0.2-0.4-0.5c-0.1-0.3,0.1-0.6-0.1-0.9       c-0.3,0.1-0.4,0.4-0.5,0.5c0,0.4-0.2,0.5-0.2,0.7c-0.3,0.1-0.5,0.3-0.5,0.7c0.3-0.1,0.4-0.3,0.7-0.3c0.4-0.1,0.9,0.4,1.1,0.6       c0.2,0.2,0.3,0.3,0.4,0.5c0.1,0.1,0.1,0.3,0.3,0.3c0.2,0,0.3-0.2,0.5-0.1c0.2,0.1,0.2,0.4,0.5,0.4       C55.5,14.7,55.8,14.3,56.2,14.5z M55.4,15.8c0-0.4,0.2-0.7,0.2-1c-0.2,0.1-0.3,0.3-0.5,0.4c-0.1,0.1-0.1,0.3-0.3,0.2       c0-0.2,0.2-0.7-0.1-0.8c-0.3,0.1-0.3,0.8-0.7,0.5c0-0.2-0.2-0.8-0.5-0.9c0,0.2,0.1,0.5,0,0.8c-0.1-0.1-0.2-0.2-0.4-0.3       c-0.2,0.3,0.2,0.6,0.2,1c0,0.2-0.1,0.3-0.1,0.5c0.1,0.5,0.8,0.1,1.3,0.1c0.1,0,0.1,0.1,0.2,0.1C55,16.3,55.3,16,55.4,15.8z        M55.1,11.8c0.1-0.2,0.2-0.4,0.1-0.5c-0.2,0.1-0.4,0.2-0.5,0.5c-0.2-0.3-0.1-0.8-0.4-1c-0.2,0.2-0.2,0.5-0.3,0.7       c-0.2-0.2-0.2-0.5-0.5-0.5c-0.1,0.2-0.2,0.7-0.2,1c0,0.3,0,0.6,0.3,0.6c0.1,0,0.3,0,0.4,0c0.2,0,0.4,0.1,0.6,0.1       C54.9,12.5,54.9,12.2,55.1,11.8z M54,13.5c0-0.2,0-0.6-0.1-0.8C53.8,13,53.8,13.3,54,13.5z M53.3,10.4       C53.2,10.4,53.2,10.4,53.3,10.4c-0.2,0.3-0.7,0.4-0.5,0.7C53,11,53.2,10.7,53.3,10.4z M52.3,13.9c0-0.6-0.6-0.2-0.6,0.1       c0,0,0.1,0,0,0C51.9,14.1,52.1,14,52.3,13.9z M49.9,13.4c0.6,0.2,1-0.8,0.4-0.9c-0.2,0-0.4,0.1-0.6,0.3       C49.7,13,49.7,13.2,49.9,13.4z M50.2,12.3c0.4,0,0.6-1,0-0.9c-0.2,0-0.4,0.2-0.4,0.3C49.6,12.1,49.9,12.3,50.2,12.3z        M49.5,11.3c0.6,0.2,1-0.5,0.7-0.9c-0.3-0.3-1-0.1-0.9,0.5C49.3,11.1,49.3,11.3,49.5,11.3z M49.7,14.3c0.8,0.2,0.5-1.3-0.2-0.6       C49.5,13.9,49.5,14.3,49.7,14.3z M49.3,13.7c0.6-1.2,0.1-2.5-0.8-3.1c-0.4-0.3-0.9-0.4-1.5-0.4c-0.9,0.1-1.7,0.5-2.5,0.7       c-0.1,0.2-0.4,0.5-0.4,0.7c0.3-0.1,0.7-0.1,1-0.3c0.2-0.1,0.4-0.2,0.5-0.3c0.2-0.1,0.4-0.1,0.7-0.1c0.2-0.1,0.3-0.1,0.4-0.2       c0.6-0.1,1,0.1,1.3,0.3c0.2,0.1,0.4,0.2,0.5,0.3c0.3,0.6,0.5,1.3,0.3,2.1C48.9,13.6,49.1,13.6,49.3,13.7z M48.7,10.6       c0.7,0.1,0.8-0.8,0.4-1c-0.2-0.1-0.6,0-0.7,0.3C48.3,10.2,48.5,10.4,48.7,10.6z M49.3,14c-0.1-0.1-0.5-0.3-0.7-0.2       c0.1,0.5-0.1,0.7,0.1,0.9C49.1,14.7,49.1,14.2,49.3,14z M48.7,15.2c0.1-0.1,0.1-0.1,0.2-0.1c0-0.2-0.1-0.2-0.3-0.2       C48.4,15.1,48.6,15.2,48.7,15.2z M48.4,15.5c0.1-0.1,0.2-0.1,0.2-0.2c0-0.1-0.1-0.1-0.2-0.1c-0.5,0.3-0.5,1-1.1,1.1       c-0.7,0.2-1-0.5-1.3-0.9c-0.3,0-0.6,0-0.8-0.1c-0.1,0.1-0.2,0.2-0.3,0.3c-0.4,0.3-0.9,0.4-1.4,0.1c-0.2-0.1-0.3-0.5-0.6-0.5       c-0.1,0-0.1,0-0.2,0c-0.1,0-0.2-0.1-0.3-0.1c-0.2,0-0.2,0.2-0.3,0.3c-0.4,0.4-1,0.5-1.6,0.2c-0.1-0.1-0.3-0.2-0.4-0.3       c-0.3-0.1-0.5,0-0.8,0.1c-0.2,0.3-0.5,0.6-0.8,0.7c-0.4,0-0.5-0.3-0.8-0.3c-0.2-0.2-0.1-0.4-0.4-0.4c-0.3,0,0,0.6,0.1,0.8       c0.2,0.2,0.6,0.3,1.1,0.4c0.1,0,0.2,0,0.2-0.1c0.5,0.1,0.6-0.5,0.9-0.6c0.1,0.3,0.4,0.2,0.5-0.1c0.3,0,0.5,0.2,0.7,0.3       c0.7,0.1,1.2-0.1,1.6-0.5c0.1,0.1,0.1,0.1,0.2,0.1c0.1,0,0.1-0.2,0.2-0.2c0.3,0.4,0.8,0.7,1.4,0.6c0.4-0.1,0.7-0.3,1-0.5       c0.1,0.1,0.2,0.2,0.3,0.3c0.2,0,0.1-0.2,0.3-0.2c0.2,0.2,0.2,0.4,0.4,0.7c0.3,0.1,0.5,0.4,0.9,0.4c0.1,0,0.1-0.1,0.2-0.1       c0.4,0.1,0.6-0.3,0.7-0.6c0.1-0.1,0.2-0.1,0.2-0.2C48.3,15.9,48.3,15.7,48.4,15.5z M48.4,12.2c0.1-0.1-0.1-0.3,0-0.5       c-0.2-0.2-0.5-0.4-0.8-0.6c-0.1,0-0.1,0-0.1,0c-0.2-0.1-0.5-0.1-0.8-0.1c-0.4,0.1-0.9,0.4-1.4,0.5c-0.2,0.1-0.5,0.1-0.7,0.2       c-0.2,0.1-0.5,0.1-0.6,0.3c0.4,0,0.9-0.1,1.4,0c0.3,0,0.6,0.2,0.9,0.2c0.1,0,0.2-0.1,0.3-0.1C47.1,11.9,47.9,11.6,48.4,12.2z        M47.6,15.5c0.4-0.1,1-0.4,0.8-0.8c-0.1-0.2-0.6-0.7-0.8-0.5C47.6,14.5,47.5,15.1,47.6,15.5z M48.1,20.7c0,0,0.1-0.1,0.1-0.1       c-0.2-0.5-0.4-1.1-0.9-1.3c0,0,0,0-0.1,0c-0.1,0.2,0.1,0.4,0.2,0.7C47.7,20.4,47.8,20.7,48.1,20.7z M47.8,10.1       c0.5,0,0.7-0.7,0.3-1C47.2,8.9,47.1,10.1,47.8,10.1z M47.6,17.2c-0.3,0.1-0.8,0-1.2-0.2c-0.2-0.3-0.5-0.5-0.6-0.8       c-0.2,0.1-0.4,0-0.6-0.1c-0.4,0.1-0.7,0.4-1.1,0.4c-0.5,0-0.9-0.3-1.3-0.5c0-0.1-0.1,0.1-0.2,0.1c-0.1,0-0.2-0.1-0.3-0.1       c-0.4,0.2-0.8,0.5-1.3,0.5c-0.3,0-0.6-0.3-0.8-0.3c-0.2,0-0.2,0.2-0.3,0.2c-0.2,0.1-0.3,0-0.5-0.1c-0.3,0.6-1.1,0.9-1.8,0.7       c0,0.3,0.1,0.5,0.2,0.7c0.6-0.1,1,0,1.6,0.1c0.3-0.2,0.5,0,0.7,0.1c0.2,0,0.5-0.2,0.6,0c0.3-0.1,0.4-0.1,0.6,0       c0.4-0.1,1,0.1,1.6-0.2c0.2,0.2,0.6,0.1,0.8,0c0.5,0.2,1,0,1.6,0c0.1,0,0.1,0.1,0.2,0.1c0.2,0,0.4-0.1,0.6-0.1       c0.1,0,0.1,0.1,0.2,0.1C47,17.7,47.6,18,47.6,17.2z M47.6,18.8c0.1-0.8-0.5-0.9-1-0.8c-0.1,0-0.1-0.1-0.2-0.1       c-0.2,0-0.3,0.2-0.5,0.2c-0.1,0-0.2-0.2-0.4-0.2c-0.1,0-0.4,0.1-0.5,0c-0.1,0-0.2-0.1-0.2-0.1c-0.1,0-0.2,0.1-0.3,0.1       c-0.2,0-0.3-0.1-0.4-0.1S43.6,18,43.4,18c-0.2,0-0.2-0.1-0.4-0.1c-0.1,0-0.1,0.1-0.2,0.1c-0.1,0-0.2-0.1-0.3-0.1       c-0.2,0-0.4,0.1-0.6,0.2c-0.3-0.1-0.4,0.1-0.7,0.1c-0.1,0-0.1-0.1-0.1-0.1c-0.2,0.1-0.3,0.1-0.5,0.1c-0.2-0.2-0.4-0.1-0.6,0       c-0.2,0-0.4-0.1-0.7,0c-0.3-0.2-0.7,0.1-1-0.1C38.1,18,38,18,37.8,18c-0.1,0.1-0.1,0.2-0.3,0.3c-0.1,0.1,0,0.3,0,0.4       c0.2-0.1,0.4,0.1,0.7,0c0.2,0.1,0.3,0.2,0.5,0.2c0.2,0,0.3-0.1,0.5-0.2c0.3-0.1,0.4,0.1,0.7,0.1c0.3,0,0.7-0.1,1.1-0.1       c0.2,0,0.4,0.1,0.6,0.1c0.3,0,0.4-0.1,0.6-0.1c0.2,0,0.5,0.1,0.7,0.1c0.2,0,0.4-0.1,0.7-0.1c0.2,0,0.3,0.1,0.4,0.1       c0.3,0,0.6-0.1,1-0.1c0.3,0.2,0.5,0,0.8,0c0.2,0,0.5,0.1,0.7,0.1c0.1,0,0.3-0.1,0.5-0.1C47.1,18.8,47.3,18.7,47.6,18.8z        M46.3,9.3c-0.3,0.7,1,1,0.8,0C47,8.9,46.4,9,46.3,9.3z M46.7,15.6c0.7,0.1,0.7-1.3,0.1-1.4c-0.3-0.1-0.4,0.2-0.7,0.3       c-0.1-0.2,0.1-0.4,0.1-0.6c0.1-0.4-0.1-0.8-0.3-1c-0.4-0.1-0.6,0.4-0.7,0.7c0,0.3,0.2,0.6-0.1,0.8C45,14,44.1,13.9,44,14.5       c-0.1,0.4,0.1,0.7,0.4,0.9c0.2-0.2,0.2-0.5,0.5-0.5C45.4,15.1,46.9,14.6,46.7,15.6z M46,20.6c0.3,0.2,0.8,0.3,1.2,0.1       c0-0.3-0.4-0.7-0.5-1c-0.1-0.3-0.3-0.5-0.6-0.5c-0.5,0.3-1.2-0.2-1.6-0.1c0.1,0.5,0.6,0.8,0.5,1.3c0.2,0.3,0.6,0.4,1.1,0.3       C45.9,20.7,45.9,20.6,46,20.6z M45.4,10.3c0.5,0.1,0.9-0.5,0.5-0.9C45.2,9,44.9,10.2,45.4,10.3z M45.3,15.2       c0.3,0.1,0.8,0.2,0.9-0.1c-0.3-0.2-0.5-0.1-0.9-0.1C45.2,15.1,45.2,15.2,45.3,15.2z M44.6,10.7c0.4-0.1,0.4-0.9-0.1-0.9       C44,9.9,44,10.9,44.6,10.7z M44.1,10.7c-0.1,0-0.3,0-0.4,0c-0.3,0.4-0.3,0.8-0.5,1.3c-0.2,0.5-0.3,1-0.3,1.6       c0.1,0,0.2,0.1,0.3,0c0.1-0.6,0.3-1.1,0.4-1.7C43.9,11.6,44.1,11.1,44.1,10.7z M43.8,8.3C44,8,44,7.8,43.9,7.6       c-0.2,0-0.5,0.1-0.6,0.2c0,0.1-0.1,0.2-0.1,0.3C43.4,8.2,43.5,8.3,43.8,8.3z M43.8,15.3c0.1-0.4,0.2-0.7,0-1       c-0.3,0-0.4,0.2-0.6,0.2c-0.1,0.2-0.1,0.4,0,0.6C43.3,15,43.5,15.3,43.8,15.3z M43.6,10.6c-0.4-0.1-0.5,0.3-0.6,0.5       c0.1,0.1,0.1,0.2,0.2,0.3C43.4,11.1,43.5,10.9,43.6,10.6z M43.4,10.1c0.1-0.1,0.1-0.3,0.1-0.4c-0.2-0.2-0.5,0-0.6-0.2       c-0.1-0.1,0.1-0.3-0.1-0.4c-0.4-0.1-0.2,0.4-0.4,0.5c-0.2,0.1-0.4,0-0.5,0.1c-0.1,0.1-0.1,0.3,0,0.4       C42.4,10.1,42.8,10,43.4,10.1z M43,7.4c0.1-0.2,0.3-0.2,0.3-0.5c0-0.3-0.7-0.3-1-0.2c0,0.3,0.1,0.4,0.2,0.6       C42.7,7.4,42.8,7.4,43,7.4z M43.1,10.4c0.1,0,0.2-0.2,0.1-0.2c0,0-0.1,0-0.1,0C43.1,10.2,43.1,10.3,43.1,10.4z M43.3,9.4       C43.3,9.2,43,9.2,43,9.4C43.1,9.4,43.2,9.5,43.3,9.4z M42.4,8.8c0.2,0.2,0.8,0.1,0.5-0.4c-0.1-0.1-0.3,0-0.4,0       C42.5,8.6,42.4,8.7,42.4,8.8z M43,15.1c0.1-0.2-0.1-0.4-0.2-0.5c0.2-0.1,0.3-0.5,0.5-0.8c-0.2-0.1-0.6-0.1-0.9-0.1       c-0.1,0-0.2,0-0.3,0.1c0.1,0.3,0.4,0.5,0.4,0.8c-0.1,0.1-0.1,0.3-0.1,0.4C42.5,15.2,42.8,15.2,43,15.1z M42.8,10.6       c0.1-0.1,0.2-0.3,0.1-0.5c-0.2,0-0.2,0-0.4,0c0,0.2-0.1,0.3,0,0.4C42.7,10.6,42.7,10.6,42.8,10.6z M43,10.7c-0.2,0-0.3,0-0.4,0       c0,0.1,0.1,0.2,0.2,0.3C42.8,10.9,43,10.9,43,10.7z M42.9,12.2c0.1-0.1,0-0.2,0.1-0.4c-0.2-0.1-0.4-0.1-0.5-0.1       c-0.1,0.1-0.1,0.3,0,0.4C42.6,12,42.7,12.1,42.9,12.2z M42.9,13.5c0.1-0.2,0-0.4-0.2-0.5c-0.5-0.1-0.6,0.3-0.4,0.6       C42.5,13.5,42.8,13.5,42.9,13.5z M42.7,8.3c0.4,0,0.5-0.8,0-0.7C42.3,7.7,42.4,8.3,42.7,8.3z M42.8,11.6       c0.2-0.3-0.5-0.5-0.4-0.1C42.5,11.6,42.7,11.5,42.8,11.6z M42.4,12.7c0.3,0.1,0.5,0,0.5-0.3c-0.2-0.1-0.4-0.2-0.6,0       C42.3,12.5,42.3,12.6,42.4,12.7z M42.5,20.7c0.2-0.2-0.1-0.5-0.2-0.6c-0.4-0.7-0.5-1.3-1.4-0.8c-0.3-0.2-0.7-0.3-0.9,0       c0.2,0.6,0.4,1.6,1.3,1.5c0.1,0,0.3-0.1,0.4-0.1C41.9,20.7,42.2,20.8,42.5,20.7z M42.4,10.5c0-0.1,0-0.2,0-0.3       c-0.1,0-0.1,0-0.2,0C42.1,10.3,42.2,10.5,42.4,10.5z M42.4,9.2c-0.2-0.1-0.4,0.1-0.2,0.2C42.3,9.5,42.4,9.4,42.4,9.2z        M42.3,15.1c0-0.1,0-0.3,0.1-0.4c-0.2-0.1-0.3-0.3-0.6-0.4c-0.1,0.3-0.2,0.7-0.1,0.9C41.9,15.2,42.1,15.1,42.3,15.1z        M42.2,11.3c0-0.2,0.2-0.2,0.2-0.3c-0.2-0.2-0.3-0.5-0.6-0.5C42,10.8,42,11.1,42.2,11.3z M41.7,8.2c0.4,0.2,0.7-0.2,0.4-0.5       C41.8,7.4,41.5,7.8,41.7,8.2z M42.2,13.5c0-1.1,0-2.3-0.5-3c-0.1,0-0.3,0-0.3,0.1c0,0.5,0.3,0.9,0.3,1.3       c0.3,0.4,0.1,1.2,0.2,1.6C41.9,13.6,42,13.5,42.2,13.5z M39.9,12c0.7-0.1,1.1,0,1.6,0c-0.1-0.2-0.4-0.3-0.7-0.4       c-0.2-0.1-0.4-0.2-0.6-0.3c-0.2-0.1-0.4-0.2-0.6-0.2c-0.1,0-0.2-0.1-0.3-0.2c-0.3-0.1-0.6-0.1-0.9-0.1c-0.5,0-1.7,0.4-1.6,1.1       c0.5-0.2,1-0.3,1.5-0.1c0.1,0.1,0.2,0.1,0.3,0.1c0.2,0.1,0.5,0.3,0.6,0.3C39.5,12.2,39.7,12.1,39.9,12z M40.5,11.2       c0.2,0.1,0.5,0.3,0.8,0.3c0-0.3-0.1-0.4-0.2-0.6c-0.2-0.2-0.5-0.4-0.9-0.5c-0.8-0.6-1.7-0.6-2.7-0.3c-0.3,0.1-0.5,0.3-0.8,0.4       c-0.2,0.2-0.3,0.4-0.5,0.5c-0.6,0.9-0.4,2.1,0.1,3c0.2-0.1,0.4-0.1,0.5-0.2c-0.1-0.5-0.3-0.8-0.3-1.2c0-0.3,0-0.7,0.1-0.9       c0.2-0.5,0.7-0.8,1.3-1c0.8-0.2,1.5,0.1,2.2,0.3C40.3,11.1,40.4,11.2,40.5,11.2z M41.1,15.4c0.2-0.3,0.3-0.7,0.3-1       c-0.2-0.2-0.4-0.5-0.9-0.4c-0.1,0.1-0.3,0.3-0.4,0.4c0-0.3,0-0.5-0.1-0.8c-0.2-0.3-0.4-0.8-0.7-0.6c-0.2,0.1-0.3,0.8-0.2,1       c0,0.2,0.2,0.4,0.1,0.5c-0.2-0.3-0.7-0.3-0.9-0.1c-0.3,0.3,0,0.9,0.3,1.1c0.1-0.2,0.1-0.5,0.4-0.5c0.1,0.1,0.2,0.1,0.4,0.2       c0.2-0.2,0.4-0.1,0.5-0.1c0.2-0.1,0.3-0.4,0.6-0.3c0.1,0,0.1,0.1,0.2,0.1C40.8,15,40.9,15.2,41.1,15.4z M40.8,10.4       c0.6,0.1,0.6-0.9,0-0.8C40.3,9.7,40.4,10.3,40.8,10.4z M40.2,9.8c0.3-0.4-0.4-0.9-0.7-0.4C39.4,9.9,40,10.1,40.2,9.8z        M39.3,15.3c0.1,0.3,1,0.2,0.9-0.1C39.9,15.2,39.6,15.1,39.3,15.3z M39.3,9.5c0.2-0.5-0.6-0.9-0.9-0.4c-0.1,0.2,0,0.2,0.1,0.5       C38.7,9.8,39.2,9.8,39.3,9.5z M39.3,20.5c0.1-0.1,0-0.1,0.1-0.2c-0.2-0.4-0.4-0.9-0.7-1.2c-0.3,0.3,0.1,0.5,0.2,0.9       c0.1,0.1,0.3,0.2,0.2,0.4C39.1,20.4,39.1,20.5,39.3,20.5z M38,9.8c0.5-0.7-0.6-1.2-0.8-0.6c-0.1,0.1,0,0.4,0,0.4       C37.3,9.8,37.8,9.9,38,9.8z M38.1,15.6c0.1-0.4-0.1-0.8-0.3-1.1c-0.1-0.1-0.4,0.5-0.5,0.6C37.2,15.3,37.8,15.5,38.1,15.6z        M38,20.7c0-0.2-0.1-0.2-0.1-0.4c-0.2-0.4-0.3-1-0.7-1.2c-0.2-0.1-0.2,0.1-0.4,0.1c-0.1,0-0.2,0-0.3,0.1       c-0.5,0.3-0.3,1.2,0.3,1.4c0.1,0,0.1-0.2,0.2-0.2C37.2,20.8,37.7,20.8,38,20.7z M36.9,15.5c0.3,0.1,0.4-0.1,0.3-0.4       c-0.1-0.1-0.2,0.1-0.4,0.1C36.9,15.4,36.9,15.4,36.9,15.5z M37.2,14.6c0-0.2,0.1-0.5-0.1-0.6c-0.3,0-0.6,0.2-0.8,0.2       c0,0.3,0.2,0.9,0.4,1C37.3,15.3,37.3,14.8,37.2,14.6z M36.3,10.2c0.3,0.2,1-0.2,0.8-0.7c-0.3-0.3-1-0.3-1,0.2       C36.1,9.9,36.2,10.2,36.3,10.2z M35.9,11.1c0.3-0.1,0.6-0.7,0.2-0.9c-0.1-0.1-0.5-0.1-0.6-0.1c0,0-0.2,0.2-0.2,0.2       C35.1,10.7,35.5,11.1,35.9,11.1z M36,13.8c0-0.2-0.2-0.5-0.3-0.5c0,0-0.1,0-0.2,0c-0.2,0.1-0.4,0.3-0.4,0.5       C35.2,14.2,35.9,14.3,36,13.8z M35.6,13c0.2-0.5-0.2-1.1-0.7-0.7C34.5,12.7,35.2,13.3,35.6,13z M35.4,12c0.5,0,0.5-1-0.1-0.9       C34.6,11.2,34.8,12.1,35.4,12z M33.9,13.5c0.1-0.2,0-0.5-0.1-0.7c-0.1-0.1-0.2-0.1-0.3-0.1c-0.2-0.1-0.3-0.3-0.4-0.4       c0-0.1,0-0.3-0.1-0.5c-0.1-0.1-0.2-0.3-0.2-0.4s-0.1-0.3-0.3-0.4c-0.3,0.2-0.1,0.6-0.1,0.9c0,0.2-0.2,0.4-0.3,0.6       c-0.1,0.2-0.1,0.5-0.2,0.7c-0.1,0.1-0.2,0.2-0.2,0.3c-0.1,0-0.1,0.1-0.1,0c0,0-0.1-0.1-0.1-0.1c0.3-0.1,0.4-0.5,0.3-0.8       c-0.1,0-0.1-0.1-0.2,0c0,0.2,0.1,0.5-0.1,0.6c-0.2-0.1,0.1-0.5-0.1-0.6c0,0.4-0.1,1-0.4,1.3c0,0.2,0.1,0.3,0.3,0.3       c0.2-0.3,0.4-0.5,0.7-0.7c0.2-0.3,0.5-0.6,0.9-0.5C33.4,12.9,33.5,13.3,33.9,13.5z M33.1,13.4c0.1,0.1,0.3,0.2,0.4,0.1       C33.6,13.3,33.1,13,33.1,13.4z M32.8,10.6c0-0.3-0.1-0.7-0.4-0.7C32.5,10.2,32.6,10.5,32.8,10.6z M32.4,15.7       c0.1-0.4,0.4-1.3,0.1-1.6c-0.1,0.3-0.2,0.5-0.5,0.6c-0.1-0.4-0.1-0.5,0-0.9c0,0-0.1,0-0.1,0c-0.2,0.2-0.4,0.5-0.5,0.8       c-0.2-0.1-0.3-0.4-0.5-0.5c-0.2,0.3-0.1,0.7-0.2,0.9c-0.2,0-0.3-0.2-0.6-0.3c0,0.2,0.2,0.4,0.3,0.7c0.1,0.2,0,0.5,0.2,0.7       c0.5,0,1.2-0.1,1.6,0C32.3,16,32.3,15.9,32.4,15.7z M31.9,12.1c0.4-0.2,0.4-0.5,0.3-1.1c-0.1-0.3-0.1-0.5-0.2-0.7       c-0.2,0.3-0.2,0.7-0.4,1c-0.1-0.2-0.2-0.5-0.2-0.7c-0.3,0.1-0.3,0.5-0.5,0.7c-0.2-0.1-0.3-0.2-0.6-0.3c0,0.3,0.2,0.4,0.3,0.7       c0.1,0.2,0,0.4,0.2,0.5C31.2,12.1,31.6,12.1,31.9,12.1z M30.9,12.9c0.1,0,0.1-0.2,0.1-0.3c0,0-0.1,0-0.1,0       C30.9,12.7,30.9,12.8,30.9,12.9z M30.8,13.2c0.1,0,0.1-0.2,0.1-0.3C30.9,13.1,30.8,13.1,30.8,13.2z"
               class="st0" /><path
               id="path144"
               d="M50.4,12.8c0.1,0.2-0.2,0.3-0.3,0.4c-0.1-0.1-0.2-0.1-0.2-0.2c0-0.1,0-0.2,0.1-0.2c0.1,0,0.1,0.1,0.1,0.1       C50.3,13,50.3,12.8,50.4,12.8z"
               class="st0" /><path
               id="path146"
               d="M50.3,11.8c0.1,0,0.1,0,0.1,0.1c0,0.2-0.2,0.3-0.3,0.3c-0.3-0.1-0.1-0.6,0-0.2       C50.3,12,50.2,11.8,50.3,11.8z"
               class="st0" /><path
               id="path148"
               d="M50.1,13.9c0.1,0.3-0.5,0.5-0.4,0.1c0.1,0,0.1,0,0.2,0.1C49.9,14,50,13.9,50.1,13.9z"
               class="st0" /><path
               id="path150"
               d="M49.9,10.8c0.1,0,0.1,0.1,0.1,0.1c0,0.1-0.1,0.1-0.1,0.2c-0.2,0.2-0.7-0.2-0.3-0.3c0,0,0,0.1,0.1,0.1       C49.8,10.9,49.8,10.8,49.9,10.8z"
               class="st0" /><path
               id="path152"
               d="M49.1,10.1c0,0.1,0,0.1,0,0.2c-0.2,0.1-0.5-0.1-0.5-0.3c0.2-0.2,0.2,0,0.2,0.2       C48.9,10.1,49,10.1,49.1,10.1z"
               class="st0" /><path
               id="path154"
               d="M47.9,9.6c0.1,0,0.1,0,0.1,0.1c0,0.2-0.2,0.3-0.4,0.2c-0.1-0.1-0.1-0.3,0-0.3c0.1,0,0.1,0,0.1,0.1       C47.9,9.7,47.8,9.6,47.9,9.6z"
               class="st0" /><path
               id="path156"
               d="M46.9,9.5c0.1,0.3-0.4,0.3-0.4,0c0.1-0.1,0.2,0,0.2,0.1C46.7,9.6,46.7,9.5,46.9,9.5z"
               class="st0" /><path
               id="path158"
               d="M45.8,18.5c0.3-0.1,0.5-0.3,0.8-0.1c-0.1,0.1-0.2,0.2-0.1,0.3C46.2,18.7,46,18.8,45.8,18.5z"
               class="st0" /><path
               id="path160"
               d="M46,19.5c0.2,0.2,0.5,0.7,0.2,1c-0.2-0.1-0.4-0.2-0.6-0.4c0,0.1,0.1,0.2,0,0.3c-0.3,0.1-0.5-0.2-0.6-0.5       c-0.1,0-0.2-0.1-0.1-0.2c0.2,0,0.3,0.3,0.5,0.4c0.1-0.2-0.1-0.4,0-0.5c0.2,0.1,0.4,0.2,0.5,0.5c0.4,0.1,0.2-0.4,0-0.5       C46,19.6,46,19.5,46,19.5z"
               class="st0" /><path
               id="path162"
               d="M46.1,16.9c0.1,0.3-0.3,0.4-0.5,0.4c-0.1,0-0.5-0.1-0.5-0.1c-0.5-0.3,0.1-1.1,0.5-0.6       C45.7,16.6,45.9,16.7,46.1,16.9z"
               class="st0" /><path
               id="path164"
               d="M45.6,9.9c0-0.1,0.2-0.1,0.2-0.1c0,0.3-0.4,0.3-0.5,0.1C45.3,9.8,45.5,9.9,45.6,9.9z"
               class="st0" /><path
               id="path166"
               d="M44.7,10.3c0,0.2-0.3,0.3-0.4,0.2C44.3,10.3,44.6,10.3,44.7,10.3z"
               class="st0" /><path
               id="path168"
               d="M43.9,18.4c0.2-0.1,0.4-0.3,0.7-0.2c0,0.1-0.1,0.2-0.1,0.4C44.3,18.6,44,18.6,43.9,18.4z"
               class="st0" /><path
               id="path170"
               d="M43.1,16.5c0.3,0,0.6,0.2,0.5,0.6c-0.2,0.2-0.7,0.2-1.1,0.2c-0.2,0-0.6,0-0.7-0.1c-0.3-0.2,0-0.7,0.4-0.7       c0.2,0,0.2,0.2,0.4,0.3c0-0.2,0.1-0.3,0.3-0.3c0,0.1,0.1,0.2,0.2,0.3C43.1,16.7,43,16.5,43.1,16.5z"
               class="st0" /><path
               id="path172"
               d="M43.3,10.2c0,0.1,0,0.2-0.1,0.2c0-0.1-0.1-0.2,0-0.3C43.2,10.1,43.3,10.2,43.3,10.2z"
               class="st0" /><path
               id="path174"
               d="M42.7,18.4c0,0.1,0.2,0,0.1,0.1c-0.2,0.2-0.6-0.1-0.8,0c0.1-0.3,0.4-0.3,0.7-0.3       C42.8,18.3,42.7,18.3,42.7,18.4z"
               class="st0" /><path
               id="path176"
               d="M41.9,20.3c-0.3,0.2-0.5-0.1-0.8-0.2c0,0.1,0.1,0.1,0.1,0.3c-0.5,0.2-0.8-0.4-0.8-0.7       c0.3-0.1,0.2,0.4,0.4,0.5c0.1-0.1,0.1-0.1,0.1-0.2c0.3-0.1,0.5,0.1,0.7,0.2c0.1-0.2-0.2-0.4-0.1-0.5       C41.8,19.7,41.9,20,41.9,20.3z"
               class="st0" /><path
               id="path178"
               d="M40.7,10c0.1,0.1,0.3-0.1,0.4,0.1C41,10.2,40.6,10.4,40.7,10C40.6,10,40.7,10,40.7,10z"
               class="st0" /><path
               id="path180"
               d="M40.9,18.6c-0.2,0.2-0.4-0.1-0.7-0.1c0,0,0-0.1,0-0.1c0.2,0,0.5-0.1,0.6-0.1       C40.7,18.3,40.8,18.4,40.9,18.6z"
               class="st0" /><path
               id="path182"
               d="M40.4,16.6c0.3,0.2,0.1,0.7-0.2,0.8c-0.2,0-0.4,0-0.6,0c-0.4-0.1-0.3-0.8,0.2-0.5       C39.9,16.6,40.1,16.6,40.4,16.6z"
               class="st0" /><path
               id="path184"
               d="M40,9.5c0.1,0,0.1,0.2,0,0.2c-0.2,0-0.2,0.1-0.3,0.1c-0.1-0.1-0.1-0.2,0-0.3C39.8,9.6,39.9,9.6,40,9.5z"
               class="st0" /><path
               id="path186"
               d="M39,18.4c0,0.1,0.1,0,0.1,0.1c-0.3,0.1-0.7,0-0.9-0.2C38.5,18.2,39.1,18,39,18.4z"
               class="st0" /><path
               id="path188"
               d="M39.1,9.3c0,0.4-0.6,0.3-0.5,0c0.1-0.1,0.1,0.1,0.2,0.1c0.1,0,0.1-0.1,0.2-0.1C39,9.3,39,9.3,39.1,9.3z"
               class="st0" /><path
               id="path190"
               d="M37.9,9.4c0.1,0.2-0.2,0.3-0.4,0.2c0-0.1,0-0.2,0-0.3C37.8,9.5,37.8,9.5,37.9,9.4z"
               class="st0" /><path
               id="path192"
               d="M37.6,20.3c-0.3,0.1-0.3-0.3-0.7-0.4c-0.1,0.1-0.1,0.3-0.2,0.4c-0.3,0-0.4-0.3-0.5-0.6       c0.2-0.1,0.3,0.2,0.3,0.3c0.1-0.2,0.3-0.5,0.5-0.3c0.1,0,0.1-0.1,0.2-0.1C37.4,19.9,37.6,20.1,37.6,20.3z"
               class="st0" /><path
               id="path194"
               d="M36.6,9.8c0.1,0,0.2-0.2,0.3-0.1c0,0.3-0.2,0.4-0.5,0.3c0-0.1-0.1-0.1-0.1-0.2C36.5,9.8,36.5,9.8,36.6,9.8       z"
               class="st0" /><path
               id="path196"
               d="M35.8,10.6c0.1-0.1,0.2-0.1,0.3,0c-0.1,0.1-0.1,0.2-0.3,0.2c-0.1-0.1-0.2-0.2-0.1-0.3       C35.7,10.6,35.7,10.6,35.8,10.6z"
               class="st0" /><path
               id="path198"
               d="M35.7,13.7c0,0,0,0.1,0,0.2c-0.1,0.1-0.4,0.2-0.4-0.1C35.5,13.7,35.5,13.8,35.7,13.7z"
               class="st0" /><path
               id="path200"
               d="M35.4,11.5c0.3,0.2-0.2,0.4-0.3,0.2c0-0.1,0-0.1,0-0.2C35.3,11.5,35.3,11.6,35.4,11.5z"
               class="st0" /><path
               id="path202"
               d="M35,12.9c-0.2-0.2,0.3-0.4,0.4-0.3C35.4,12.9,35.2,12.8,35,12.9z"
               class="st0" /></g><g
             id="g206" /></g></g><polygon
         id="polygon211"
         points="49.2,53.8 51.4,53.8 51.2,54.3 48.9,54.2   "
         class="st0" /><polygon
         id="polygon213"
         points="48.8,54.5 51,54.5 50.8,54.9 48.4,54.9   "
         class="st0" /></g></g></svg>