<?xml version="1.0" encoding="utf-8"?>
<!-- Generator: Adobe Illustrator 21.0.0, SVG Export Plug-In . SVG Version: 6.00 Build 0)  -->
<svg version="1.1"
	 id="Layer_1" xmlns:cc="http://creativecommons.org/ns#" xmlns:dc="http://purl.org/dc/elements/1.1/" xmlns:rdf="http://www.w3.org/1999/02/22-rdf-syntax-ns#" xmlns:svg="http://www.w3.org/2000/svg"
	 xmlns="http://www.w3.org/2000/svg" xmlns:xlink="http://www.w3.org/1999/xlink" x="0px" y="0px" viewBox="0 0 390 73"
	 style="enable-background:new 0 0 390 73;" xml:space="preserve">
<style type="text/css">
	.st0{fill:#FFFFFF;}
</style>
<g id="g217">
	<g id="g120">
		<path id="path4" class="st0" d="M105.9,18.6v-1.4h5v4.3c-0.8,0.6-1.6,1-2.4,1.4c-0.8,0.3-1.7,0.5-2.5,0.5c-1.1,0-2.1-0.2-3.2-0.8
			c-0.9-0.5-1.7-1.2-2.1-2.1c-0.5-0.9-0.7-1.9-0.7-3.2c0-1.1,0.2-2.1,0.7-3.2c0.5-1,1.1-1.7,2-2.1c0.9-0.5,1.9-0.7,3-0.7
			c0.8,0,1.6,0.1,2.3,0.5c0.7,0.2,1.2,0.7,1.6,1.1c0.3,0.5,0.7,1.1,0.9,1.9l-1.4,0.3c-0.2-0.6-0.3-1-0.7-1.4
			c-0.2-0.3-0.7-0.6-1.1-0.8s-1-0.3-1.6-0.3c-0.7,0-1.4,0.1-1.8,0.3c-0.6,0.2-0.9,0.5-1.2,0.9c-0.3,0.3-0.6,0.8-0.8,1.1
			c-0.3,0.7-0.5,1.5-0.5,2.4c0,1,0.2,1.9,0.6,2.6c0.3,0.7,0.9,1.2,1.6,1.6s1.5,0.6,2.1,0.6s1.4-0.1,1.9-0.3c0.7-0.2,1.1-0.6,1.5-0.8
			v-2.1h-3.3V18.6z"/>
		<path id="path6" class="st0" d="M112.4,18.9c0-1.6,0.5-2.7,1.4-3.5c0.7-0.7,1.6-0.9,2.7-0.9s2.1,0.3,2.8,1.1
			c0.8,0.8,1.1,1.8,1.1,3.2c0,1.1-0.1,1.9-0.5,2.6c-0.3,0.7-0.8,1.1-1.5,1.5c-0.7,0.3-1.4,0.6-2,0.6c-1.2,0-2.1-0.3-2.8-1.1
			C112.8,21.4,112.4,20.4,112.4,18.9z M113.9,18.9c0,1.1,0.2,1.9,0.7,2.5c0.5,0.6,1,0.8,1.8,0.8c0.7,0,1.4-0.2,1.8-0.8
			c0.5-0.6,0.7-1.4,0.7-2.5c0-1-0.2-1.8-0.7-2.4c-0.5-0.6-1-0.8-1.8-0.8c-0.7,0-1.4,0.2-1.8,0.8C114.1,17,113.9,17.8,113.9,18.9z"/>
		<path id="path8" class="st0" d="M124.3,23.2l-3.3-8.4h1.5l1.8,5.1c0.2,0.6,0.3,1.1,0.6,1.7c0.1-0.5,0.3-1,0.6-1.6l1.9-5.2h1.5
			l-3.2,8.4H124.3z"/>
		<path id="path10" class="st0" d="M135.9,20.4l1.5,0.2c-0.2,0.9-0.7,1.6-1.4,2s-1.5,0.7-2.4,0.7c-1.2,0-2.3-0.3-2.9-1.1
			s-1.1-1.8-1.1-3.2c0-1.5,0.3-2.5,1.1-3.3c0.8-0.8,1.7-1.1,2.8-1.1c1.1,0,2,0.3,2.8,1.1c0.7,0.8,1.1,1.8,1.1,3.3c0,0.1,0,0.2,0,0.3
			h-6.3c0,0.9,0.3,1.7,0.8,2.1s1,0.8,1.8,0.8c0.6,0,1-0.1,1.4-0.5C135.4,21.5,135.7,21.1,135.9,20.4z M131.2,18.2h4.7
			c-0.1-0.7-0.2-1.2-0.6-1.6c-0.5-0.6-1-0.8-1.8-0.8c-0.7,0-1.2,0.2-1.7,0.7C131.5,16.8,131.2,17.4,131.2,18.2z"/>
		<path id="path12" class="st0" d="M139.2,23.2v-8.4h1.2V16c0.3-0.6,0.7-1,0.9-1.2c0.2-0.2,0.6-0.3,0.9-0.3c0.5,0,1,0.1,1.5,0.5
			l-0.5,1.4c-0.3-0.2-0.7-0.3-1-0.3c-0.3,0-0.6,0.1-0.8,0.3c-0.2,0.2-0.5,0.5-0.6,0.8c-0.1,0.6-0.2,1-0.2,1.7v4.4h-1.5V23.2z"/>
		<path id="path14" class="st0" d="M144.6,23.2v-8.4h1.2V16c0.7-0.9,1.5-1.4,2.7-1.4c0.6,0,1,0.1,1.4,0.2c0.5,0.2,0.8,0.5,1,0.7
			c0.2,0.3,0.3,0.7,0.5,1c0,0.2,0.1,0.7,0.1,1.4v5.2H150v-5.2c0-0.6,0-1-0.1-1.4c-0.1-0.3-0.3-0.6-0.6-0.7c-0.3-0.2-0.6-0.2-1-0.2
			c-0.6,0-1.1,0.2-1.6,0.6c-0.5,0.3-0.7,1.1-0.7,2.3v4.6h-1.5V23.2z"/>
		<path id="path16" class="st0" d="M153.6,23.2v-8.4h1.2V16c0.2-0.5,0.6-0.8,1-1c0.5-0.2,0.9-0.3,1.5-0.3c0.7,0,1.1,0.1,1.6,0.3
			c0.5,0.2,0.7,0.7,0.9,1.1c0.7-1,1.6-1.5,2.6-1.5c0.8,0,1.5,0.2,1.9,0.7c0.5,0.5,0.7,1.1,0.7,2.1v5.7h-1.5v-5.4c0-0.6,0-1-0.1-1.2
			c-0.1-0.2-0.2-0.5-0.5-0.6c-0.2-0.1-0.6-0.2-0.9-0.2c-0.6,0-1.1,0.2-1.5,0.6c-0.3,0.5-0.6,1-0.6,1.9v5h-1.5v-5.5
			c0-0.7-0.1-1.1-0.3-1.5s-0.6-0.5-1.1-0.5c-0.5,0-0.8,0.1-1.1,0.3c-0.3,0.2-0.6,0.6-0.8,0.9c-0.1,0.5-0.2,1-0.2,1.8v4.4H153.6z"/>
		<path id="path18" class="st0" d="M173,20.4l1.5,0.2c-0.2,0.9-0.7,1.6-1.4,2c-0.7,0.5-1.5,0.7-2.4,0.7c-1.2,0-2.3-0.3-2.9-1.1
			c-0.7-0.8-1.1-1.8-1.1-3.2c0-1.5,0.3-2.5,1.1-3.3c0.8-0.8,1.7-1.1,2.8-1.1s2,0.3,2.8,1.1c0.7,0.8,1.1,1.8,1.1,3.3
			c0,0.1,0,0.2,0,0.3h-6.3c0,0.9,0.3,1.7,0.8,2.1c0.5,0.5,1,0.8,1.8,0.8c0.6,0,1-0.1,1.4-0.5C172.5,21.5,172.7,21.1,173,20.4z
			 M168.2,18.2h4.7c-0.1-0.7-0.2-1.2-0.6-1.6c-0.5-0.6-1-0.8-1.8-0.8c-0.7,0-1.2,0.2-1.7,0.7C168.6,16.8,168.3,17.4,168.2,18.2z"/>
		<path id="path20" class="st0" d="M176.2,23.2v-8.4h1.2V16c0.7-0.9,1.5-1.4,2.7-1.4c0.6,0,1,0.1,1.4,0.2c0.5,0.2,0.8,0.5,1,0.7
			c0.2,0.3,0.3,0.7,0.5,1c0,0.2,0.1,0.7,0.1,1.4v5.2h-1.5v-5.2c0-0.6,0-1-0.1-1.4c-0.1-0.3-0.3-0.6-0.6-0.7c-0.3-0.2-0.6-0.2-1-0.2
			c-0.6,0-1.1,0.2-1.6,0.6c-0.5,0.3-0.7,1.1-0.7,2.3v4.6h-1.5V23.2z"/>
		<path id="path22" class="st0" d="M188.5,21.9l0.2,1.2c-0.5,0.1-0.8,0.1-1.1,0.1c-0.6,0-0.9-0.1-1.2-0.2c-0.3-0.1-0.5-0.3-0.6-0.7
			c-0.1-0.2-0.2-0.8-0.2-1.7v-4.8h-1v-1.1h1v-2.1l1.5-0.9v2.9h1.5v1.1H187v5c0,0.5,0,0.7,0.1,0.8c0,0.1,0.1,0.2,0.2,0.2
			c0.1,0.1,0.2,0.1,0.5,0.1C187.9,22,188.2,22,188.5,21.9z"/>
		<path id="path24" class="st0" d="M193.8,18.9c0-1.6,0.5-2.7,1.4-3.5c0.7-0.7,1.6-0.9,2.7-0.9c1.1,0,2.1,0.3,2.8,1.1
			c0.8,0.8,1.1,1.8,1.1,3.2c0,1.1-0.1,1.9-0.5,2.6c-0.3,0.7-0.8,1.1-1.5,1.5c-0.7,0.3-1.4,0.6-2,0.6c-1.2,0-2.1-0.3-2.8-1.1
			C194.2,21.4,193.8,20.4,193.8,18.9z M195.2,18.9c0,1.1,0.2,1.9,0.7,2.5c0.5,0.6,1,0.8,1.8,0.8c0.7,0,1.4-0.2,1.8-0.8
			c0.5-0.6,0.7-1.4,0.7-2.5c0-1-0.2-1.8-0.7-2.4c-0.5-0.6-1-0.8-1.8-0.8c-0.7,0-1.4,0.2-1.8,0.8C195.6,17,195.2,17.8,195.2,18.9z"/>
		<path id="path26" class="st0" d="M203.8,23.2v-7.3h-1.2v-1.1h1.2v-0.9c0-0.6,0-1,0.1-1.2c0.1-0.3,0.3-0.7,0.7-0.9
			c0.3-0.2,0.8-0.3,1.5-0.3c0.5,0,0.9,0,1.4,0.1l-0.2,1.2c-0.3,0-0.6-0.1-0.8-0.1c-0.5,0-0.8,0.1-0.9,0.2c-0.2,0.2-0.2,0.6-0.2,1
			v0.8h1.7v1.1h-1.7v7.3h-1.5V23.2z"/>
		<path id="path28" class="st0" d="M214.3,23.2l-2.8-11.7h2.4l1.8,8l2.1-8h2.8l2,8.1l1.8-8.1h2.4l-2.8,11.7h-2.5l-2.4-8.7l-2.4,8.7
			H214.3z"/>
		<path id="path30" class="st0" d="M232.5,20.5l2.3,0.3c-0.3,0.8-0.8,1.5-1.4,1.9s-1.4,0.7-2.4,0.7c-1.5,0-2.6-0.5-3.3-1.5
			c-0.6-0.8-0.8-1.7-0.8-2.9c0-1.4,0.3-2.5,1.1-3.3c0.7-0.8,1.7-1.2,2.8-1.2c1.2,0,2.3,0.5,2.9,1.2c0.7,0.8,1.1,2.1,1,3.8h-5.6
			c0,0.7,0.2,1.1,0.6,1.6c0.3,0.3,0.8,0.6,1.2,0.6c0.3,0,0.7-0.1,0.9-0.3C232.2,21.2,232.4,20.9,232.5,20.5z M232.6,18.3
			c0-0.7-0.2-1.1-0.5-1.5c-0.3-0.3-0.7-0.5-1.1-0.5s-0.9,0.2-1.2,0.6c-0.3,0.3-0.5,0.8-0.5,1.5h3.3V18.3z"/>
		<path id="path32" class="st0" d="M235.9,20.7l2.3-0.3c0.1,0.5,0.3,0.8,0.6,1c0.2,0.2,0.7,0.3,1.2,0.3c0.6,0,1-0.1,1.4-0.3
			c0.2-0.1,0.3-0.3,0.3-0.6s0-0.3-0.1-0.5c-0.1-0.1-0.3-0.2-0.8-0.3c-1.8-0.5-2.9-0.8-3.4-1.1c-0.7-0.5-1-1.1-1-1.9
			c0-0.7,0.3-1.4,0.9-1.8c0.6-0.5,1.5-0.8,2.7-0.8c1.1,0,2,0.2,2.6,0.6c0.6,0.3,0.9,0.9,1.1,1.7l-2.1,0.3c-0.1-0.3-0.2-0.6-0.6-0.8
			c-0.2-0.2-0.6-0.2-1.1-0.2s-1,0.1-1.2,0.2c-0.2,0.1-0.2,0.2-0.2,0.5c0,0.1,0.1,0.3,0.2,0.5c0.2,0.1,0.9,0.3,2.1,0.7
			c1.2,0.2,2,0.6,2.5,1c0.5,0.5,0.7,0.9,0.7,1.7s-0.3,1.5-1,2c-0.7,0.6-1.6,0.8-2.9,0.8c-1.1,0-2-0.2-2.7-0.7
			C236.5,22.2,236.1,21.5,235.9,20.7z"/>
		<path id="path34" class="st0" d="M249.6,14.8v1.8H248V20c0,0.7,0,1.1,0,1.2s0.1,0.2,0.2,0.3c0.1,0.1,0.2,0.1,0.3,0.1
			c0.2,0,0.6-0.1,0.9-0.2l0.2,1.7c-0.6,0.2-1.1,0.3-1.8,0.3c-0.5,0-0.8-0.1-1.1-0.2c-0.3-0.1-0.6-0.3-0.7-0.6
			c-0.1-0.2-0.2-0.5-0.3-0.9c0-0.2-0.1-0.8-0.1-1.6v-3.7h-1v-1.8h1V13l2.3-1.4v2.9h1.7V14.8z"/>
		<path id="path36" class="st0" d="M256,20.5l2.3,0.3c-0.3,0.8-0.8,1.5-1.4,1.9s-1.4,0.7-2.4,0.7c-1.5,0-2.6-0.5-3.3-1.5
			c-0.6-0.8-0.8-1.7-0.8-2.9c0-1.4,0.3-2.5,1.1-3.3c0.7-0.8,1.7-1.2,2.8-1.2c1.2,0,2.3,0.5,2.9,1.2s1.1,2.1,1,3.8h-5.6
			c0,0.7,0.2,1.1,0.6,1.6c0.3,0.3,0.8,0.6,1.2,0.6c0.3,0,0.7-0.1,0.9-0.3C255.8,21.2,255.9,20.9,256,20.5z M256.1,18.3
			c0-0.7-0.2-1.1-0.5-1.5c-0.3-0.3-0.7-0.5-1.1-0.5s-0.9,0.2-1.2,0.6c-0.3,0.3-0.5,0.8-0.5,1.5h3.3V18.3z"/>
		<path id="path38" class="st0" d="M262.3,23.2h-2.3v-8.4h2V16c0.3-0.6,0.7-0.9,1-1.1s0.6-0.2,1-0.2c0.6,0,1,0.1,1.5,0.5l-0.7,1.9
			c-0.3-0.2-0.7-0.3-1-0.3c-0.3,0-0.6,0.1-0.8,0.2c-0.2,0.2-0.3,0.5-0.6,0.9c-0.1,0.5-0.2,1.4-0.2,2.8V23.2z"/>
		<path id="path40" class="st0" d="M274.2,23.2H272v-4.3c0-0.9,0-1.5-0.1-1.8c-0.1-0.2-0.2-0.5-0.5-0.7c-0.2-0.1-0.5-0.2-0.8-0.2
			s-0.8,0.1-1,0.3c-0.3,0.2-0.6,0.5-0.7,0.8c-0.1,0.3-0.2,1-0.2,1.9v3.8h-2.3v-8.4h2v1.2c0.8-0.9,1.7-1.5,2.8-1.5
			c0.5,0,0.9,0.1,1.4,0.2c0.5,0.2,0.7,0.5,0.9,0.7s0.3,0.6,0.5,0.9c0.1,0.3,0.1,0.9,0.1,1.5v5.5H274.2z"/>
		<path id="path42" class="st0" d="M290.9,23.2h-2.6l-1-2.7h-4.6l-1,2.7h-2.5l4.5-11.7h2.5L290.9,23.2z M286.6,18.6l-1.6-4.3
			l-1.6,4.3H286.6z"/>
		<path id="path44" class="st0" d="M297.8,23.2V22c-0.3,0.5-0.7,0.8-1.2,1c-0.5,0.2-1,0.3-1.6,0.3s-1.1-0.1-1.6-0.3s-0.8-0.6-1-1
			c-0.2-0.5-0.3-1.1-0.3-1.9v-5.3h2.3v3.8c0,1.2,0,1.9,0.1,2.1c0.1,0.2,0.2,0.5,0.5,0.7c0.2,0.1,0.5,0.2,0.8,0.2
			c0.3,0,0.7-0.1,1-0.3c0.3-0.2,0.6-0.5,0.7-0.8c0.1-0.3,0.1-1,0.1-2.3v-3.6h2.3v8.4h-1.9V23.2z"/>
		<path id="path46" class="st0" d="M301.4,20.7l2.3-0.3c0.1,0.5,0.3,0.8,0.6,1c0.2,0.2,0.7,0.3,1.2,0.3s1-0.1,1.4-0.3
			c0.2-0.1,0.3-0.3,0.3-0.6s0-0.3-0.1-0.5s-0.3-0.2-0.8-0.3c-1.8-0.5-2.9-0.8-3.4-1.1c-0.7-0.5-1-1.1-1-1.9c0-0.7,0.3-1.4,0.9-1.8
			c0.6-0.5,1.5-0.8,2.7-0.8c1.1,0,2,0.2,2.6,0.6c0.6,0.3,0.9,0.9,1.1,1.7L307,17c-0.1-0.3-0.2-0.6-0.6-0.8c-0.2-0.2-0.6-0.2-1.1-0.2
			s-1,0.1-1.2,0.2c-0.2,0.1-0.2,0.2-0.2,0.5c0,0.1,0.1,0.3,0.2,0.5c0.2,0.1,0.9,0.3,2.1,0.7c1.2,0.2,2,0.6,2.5,1
			c0.5,0.5,0.7,0.9,0.7,1.7s-0.3,1.5-1,2c-0.7,0.6-1.6,0.8-2.9,0.8c-1.1,0-2-0.2-2.7-0.7C301.9,22.2,301.5,21.5,301.4,20.7z"/>
		<path id="path48" class="st0" d="M315,14.8v1.8h-1.5V20c0,0.7,0,1.1,0,1.2s0.1,0.2,0.2,0.3c0.1,0.1,0.2,0.1,0.3,0.1
			c0.2,0,0.6-0.1,0.9-0.2l0.2,1.7c-0.6,0.2-1.1,0.3-1.8,0.3c-0.5,0-0.8-0.1-1.1-0.2c-0.3-0.1-0.6-0.3-0.7-0.6
			c-0.1-0.2-0.2-0.5-0.3-0.9c0-0.2-0.1-0.8-0.1-1.6v-3.7h-1v-1.8h1V13l2.3-1.4v2.9h1.6V14.8z"/>
		<path id="path50" class="st0" d="M318.7,23.2h-2.3v-8.4h2V16c0.3-0.6,0.7-0.9,1-1.1s0.6-0.2,1-0.2c0.6,0,1,0.1,1.5,0.5l-0.7,1.9
			c-0.3-0.2-0.7-0.3-1-0.3c-0.3,0-0.6,0.1-0.8,0.2c-0.2,0.2-0.3,0.5-0.6,0.9c-0.1,0.5-0.2,1.4-0.2,2.8L318.7,23.2L318.7,23.2z"/>
		<path id="path52" class="st0" d="M324.5,17.3l-2-0.3c0.2-0.8,0.7-1.5,1.1-1.8c0.6-0.3,1.4-0.6,2.5-0.6c1,0,1.7,0.1,2.3,0.3
			c0.5,0.2,0.8,0.6,1,0.9c0.2,0.3,0.3,1,0.3,2v2.6c0,0.8,0,1.2,0.1,1.7c0.1,0.3,0.2,0.7,0.5,1.1H328c-0.1-0.1-0.1-0.3-0.2-0.7
			c0-0.1-0.1-0.2-0.1-0.2c-0.3,0.3-0.8,0.7-1.2,0.8c-0.5,0.2-0.9,0.2-1.4,0.2c-0.9,0-1.6-0.2-2-0.7c-0.5-0.5-0.8-1-0.8-1.8
			c0-0.5,0.1-0.9,0.3-1.2c0.2-0.3,0.6-0.7,1-0.9s1-0.3,1.8-0.6c1-0.2,1.8-0.3,2.1-0.6v-0.2c0-0.5-0.1-0.8-0.3-0.9
			c-0.2-0.2-0.6-0.2-1.2-0.2c-0.5,0-0.7,0.1-0.9,0.2C324.9,16.7,324.8,16.9,324.5,17.3z M327.6,19.2c-0.3,0.1-0.8,0.2-1.4,0.3
			c-0.7,0.1-1,0.2-1.2,0.3c-0.3,0.2-0.5,0.5-0.5,0.8c0,0.3,0.1,0.6,0.3,0.8c0.2,0.2,0.6,0.3,0.9,0.3c0.5,0,0.8-0.1,1.1-0.5
			c0.2-0.2,0.5-0.5,0.6-0.8c0.1-0.2,0.1-0.6,0.1-1.1L327.6,19.2L327.6,19.2z"/>
		<path id="path54" class="st0" d="M332,23.2V11.5h2.3v11.7H332z"/>
		<path id="path56" class="st0" d="M336.5,13.5v-2h2.3v2H336.5z M336.5,23.2v-8.4h2.3v8.4H336.5z"/>
		<path id="path58" class="st0" d="M342.7,17.3l-2-0.3c0.2-0.8,0.7-1.5,1.1-1.8c0.6-0.3,1.4-0.6,2.5-0.6c1,0,1.7,0.1,2.3,0.3
			c0.5,0.2,0.8,0.6,1,0.9c0.2,0.3,0.3,1,0.3,2v2.6c0,0.8,0,1.2,0.1,1.7c0.1,0.3,0.2,0.7,0.5,1.1h-2.3c-0.1-0.1-0.1-0.3-0.2-0.7
			c0-0.1-0.1-0.2-0.1-0.2c-0.3,0.3-0.8,0.7-1.2,0.8c-0.5,0.2-0.9,0.2-1.4,0.2c-0.9,0-1.6-0.2-2-0.7c-0.5-0.5-0.8-1-0.8-1.8
			c0-0.5,0.1-0.9,0.3-1.2c0.2-0.3,0.6-0.7,1-0.9s1-0.3,1.8-0.6c1-0.2,1.8-0.3,2.1-0.6v-0.2c0-0.5-0.1-0.8-0.3-0.9
			c-0.2-0.2-0.6-0.2-1.2-0.2c-0.5,0-0.7,0.1-0.9,0.2C343,16.7,342.8,16.9,342.7,17.3z M345.7,19.2c-0.3,0.1-0.8,0.2-1.4,0.3
			c-0.7,0.1-1,0.2-1.2,0.3c-0.3,0.2-0.5,0.5-0.5,0.8c0,0.3,0.1,0.6,0.3,0.8c0.2,0.2,0.6,0.3,0.9,0.3c0.5,0,0.8-0.1,1.1-0.5
			c0.2-0.2,0.5-0.5,0.6-0.8c0.1-0.2,0.1-0.6,0.1-1.1L345.7,19.2L345.7,19.2z"/>
		<path id="path60" class="st0" d="M107.8,38.8l2.3,0.7c-0.3,1.2-0.9,2.3-1.8,2.8c-0.8,0.6-1.8,0.9-3.2,0.9c-1.6,0-2.8-0.6-3.8-1.6
			c-1-1-1.5-2.5-1.5-4.4s0.5-3.5,1.5-4.5c1-1.1,2.4-1.6,3.9-1.6c1.5,0,2.6,0.5,3.5,1.2c0.6,0.5,0.9,1.2,1.2,2.1l-2.4,0.6
			c-0.1-0.6-0.5-1.1-0.9-1.5c-0.5-0.3-1-0.6-1.6-0.6c-0.9,0-1.6,0.3-2.1,0.9s-0.8,1.6-0.8,3c0,1.5,0.2,2.5,0.8,3.2s1.2,0.9,2,0.9
			c0.7,0,1.1-0.2,1.6-0.6C107,40.1,107.7,39.7,107.8,38.8z"/>
		<path id="path62" class="st0" d="M111.6,38.8c0-0.8,0.2-1.5,0.6-2.1c0.3-0.7,0.9-1.2,1.6-1.6c0.7-0.3,1.5-0.6,2.3-0.6
			c1.2,0,2.4,0.5,3.2,1.2c0.8,0.8,1.2,1.9,1.2,3.2s-0.5,2.4-1.2,3.2c-0.8,0.8-1.9,1.2-3.2,1.2c-0.8,0-1.5-0.2-2.3-0.6
			c-0.7-0.3-1.2-0.9-1.6-1.6C111.7,40.6,111.6,39.7,111.6,38.8z M113.9,38.9c0,0.8,0.2,1.5,0.6,1.9c0.5,0.5,0.9,0.7,1.5,0.7
			s1.1-0.2,1.5-0.7c0.5-0.5,0.6-1.1,0.6-1.9c0-0.8-0.2-1.5-0.6-1.9c-0.5-0.5-0.9-0.7-1.5-0.7s-1.1,0.2-1.5,0.7
			C114.1,37.4,113.9,38,113.9,38.9z"/>
		<path id="path64" class="st0" d="M129.7,43h-2.3v-4.3c0-0.9,0-1.5-0.1-1.8c-0.1-0.2-0.2-0.5-0.5-0.7c-0.2-0.1-0.5-0.2-0.8-0.2
			s-0.8,0.1-1,0.3c-0.3,0.2-0.6,0.5-0.7,0.8s-0.2,1-0.2,1.9v3.8H122v-8.4h2v1.4c0.8-0.9,1.7-1.5,2.8-1.5c0.5,0,0.9,0.1,1.4,0.2
			c0.5,0.2,0.7,0.5,0.9,0.7c0.2,0.2,0.3,0.6,0.5,0.9s0.1,0.9,0.1,1.5V43H129.7z"/>
		<path id="path66" class="st0" d="M131.2,40.7l2.3-0.3c0.1,0.5,0.3,0.8,0.6,1c0.3,0.2,0.7,0.3,1.2,0.3s1-0.1,1.4-0.3
			c0.2-0.1,0.3-0.3,0.3-0.6c0-0.2,0-0.3-0.1-0.5c-0.1-0.1-0.3-0.2-0.8-0.3c-1.8-0.5-2.9-0.8-3.4-1.1c-0.7-0.5-1-1.1-1-1.9
			c0-0.7,0.3-1.4,0.9-1.8c0.6-0.5,1.5-0.8,2.7-0.8c1.1,0,2,0.2,2.6,0.6s0.9,0.9,1.1,1.7l-2.1,0.3c-0.1-0.3-0.2-0.6-0.6-0.8
			c-0.2-0.2-0.6-0.2-1.1-0.2s-1,0.1-1.2,0.2c-0.2,0.1-0.2,0.2-0.2,0.5c0,0.1,0.1,0.3,0.2,0.5c0.2,0.1,0.9,0.3,2.1,0.7
			c1.2,0.2,2,0.6,2.5,1c0.5,0.5,0.7,0.9,0.7,1.7c0,0.8-0.3,1.5-1,2s-1.6,0.8-2.8,0.8c-1.1,0-2-0.2-2.7-0.7
			C131.9,42.1,131.4,41.5,131.2,40.7z"/>
		<path id="path68" class="st0" d="M146,40.3l2.3,0.3c-0.3,0.8-0.8,1.5-1.4,1.9c-0.6,0.5-1.4,0.7-2.4,0.7c-1.5,0-2.6-0.5-3.3-1.5
			c-0.6-0.8-0.8-1.7-0.8-2.9c0-1.4,0.3-2.5,1.1-3.3c0.7-0.8,1.7-1.2,2.8-1.2c1.2,0,2.3,0.5,2.9,1.2c0.7,0.8,1.1,2.1,1,3.8h-5.6
			c0,0.7,0.2,1.1,0.6,1.6c0.3,0.3,0.8,0.6,1.2,0.6c0.3,0,0.7-0.1,0.9-0.3C145.6,41.1,145.8,40.8,146,40.3z M146.1,38.1
			c0-0.7-0.2-1.1-0.5-1.5c-0.3-0.3-0.7-0.5-1.1-0.5c-0.5,0-0.9,0.2-1.2,0.6s-0.5,0.8-0.5,1.5h3.3V38.1z"/>
		<path id="path70" class="st0" d="M152.3,43H150v-8.4h2v1.2c0.3-0.6,0.7-0.9,1-1.1c0.3-0.2,0.6-0.2,1-0.2c0.6,0,1,0.1,1.5,0.5
			l-0.7,1.9c-0.3-0.2-0.7-0.3-1-0.3s-0.6,0.1-0.8,0.2c-0.2,0.2-0.3,0.5-0.6,0.9c-0.2,0.5-0.2,1.4-0.2,2.8V43z"/>
		<path id="path72" class="st0" d="M158.8,43l-3.4-8.4h2.4l1.6,4.3l0.5,1.5c0.1-0.3,0.2-0.6,0.2-0.7c0.1-0.2,0.1-0.5,0.2-0.7
			l1.6-4.3h2.3l-3.4,8.4h-1.9V43z"/>
		<path id="path74" class="st0" d="M167.2,37.2l-2-0.3c0.2-0.8,0.7-1.5,1.1-1.8c0.6-0.3,1.4-0.6,2.5-0.6c1,0,1.7,0.1,2.3,0.3
			c0.5,0.2,0.8,0.6,1,0.9c0.2,0.3,0.3,1,0.3,2v2.6c0,0.8,0,1.2,0.1,1.7c0.1,0.3,0.2,0.7,0.5,1.1h-2.3c-0.1-0.1-0.1-0.3-0.2-0.7
			c0-0.1-0.1-0.2-0.1-0.2c-0.3,0.3-0.8,0.7-1.2,0.8c-0.5,0.2-0.9,0.2-1.4,0.2c-0.9,0-1.6-0.2-2-0.7s-0.8-1-0.8-1.8
			c0-0.5,0.1-0.9,0.3-1.2s0.6-0.7,1-0.9c0.5-0.2,1-0.3,1.8-0.6c1-0.2,1.8-0.3,2.1-0.6v-0.2c0-0.5-0.1-0.8-0.3-0.9
			c-0.2-0.2-0.6-0.2-1.2-0.2c-0.5,0-0.7,0.1-0.9,0.2C167.4,36.5,167.3,36.8,167.2,37.2z M170.1,39c-0.3,0.1-0.8,0.2-1.4,0.3
			c-0.7,0.1-1,0.2-1.2,0.3c-0.3,0.2-0.5,0.5-0.5,0.8s0.1,0.6,0.3,0.8s0.6,0.3,0.9,0.3c0.5,0,0.8-0.1,1.1-0.5
			c0.2-0.2,0.5-0.5,0.6-0.8c0.1-0.2,0.1-0.6,0.1-1.1L170.1,39L170.1,39z"/>
		<path id="path76" class="st0" d="M178.5,34.6v1.8h-1.6v3.4c0,0.7,0,1.1,0,1.2s0.1,0.2,0.2,0.3c0.1,0.1,0.2,0.1,0.3,0.1
			c0.2,0,0.5-0.1,0.9-0.2l0.2,1.7c-0.6,0.2-1.1,0.3-1.8,0.3c-0.5,0-0.8-0.1-1.1-0.2c-0.3-0.1-0.6-0.3-0.7-0.6
			c-0.1-0.2-0.2-0.5-0.3-0.9c0-0.2-0.1-0.8-0.1-1.6v-3.7h-1v-1.8h1v-1.7l2.3-1.4v2.9h1.7V34.6z"/>
		<path id="path78" class="st0" d="M179.9,33.5v-2h2.3v2H179.9z M179.9,43v-8.4h2.3V43H179.9z"/>
		<path id="path80" class="st0" d="M184,38.8c0-0.8,0.2-1.5,0.6-2.1c0.3-0.7,0.9-1.2,1.6-1.6c0.7-0.3,1.5-0.6,2.3-0.6
			c1.2,0,2.4,0.5,3.2,1.2c0.8,0.8,1.2,1.9,1.2,3.2s-0.5,2.4-1.2,3.2c-0.8,0.8-1.9,1.2-3.2,1.2c-0.8,0-1.5-0.2-2.3-0.6
			c-0.7-0.3-1.2-0.9-1.6-1.6C184.2,40.6,184,39.7,184,38.8z M186.2,38.9c0,0.8,0.2,1.5,0.6,1.9c0.5,0.5,0.9,0.7,1.5,0.7
			s1.1-0.2,1.5-0.7c0.5-0.5,0.6-1.1,0.6-1.9c0-0.8-0.2-1.5-0.6-1.9c-0.5-0.5-0.9-0.7-1.5-0.7s-1.1,0.2-1.5,0.7
			C186.5,37.4,186.2,38,186.2,38.9z"/>
		<path id="path82" class="st0" d="M202.1,43h-2.3v-4.3c0-0.9,0-1.5-0.1-1.8c-0.1-0.2-0.2-0.5-0.5-0.7c-0.2-0.1-0.5-0.2-0.8-0.2
			s-0.8,0.1-1,0.3c-0.3,0.2-0.6,0.5-0.7,0.8c-0.1,0.3-0.2,1-0.2,1.9v3.8h-2.3v-8.4h2v1.4c0.8-0.9,1.7-1.5,2.8-1.5
			c0.5,0,0.9,0.1,1.4,0.2c0.5,0.2,0.7,0.5,0.9,0.7c0.2,0.2,0.3,0.6,0.5,0.9s0.1,0.9,0.1,1.5V43H202.1z"/>
		<path id="path84" class="st0" d="M210.5,37.2l-2-0.3c0.2-0.8,0.7-1.5,1.1-1.8c0.6-0.3,1.4-0.6,2.5-0.6c1,0,1.7,0.1,2.3,0.3
			c0.5,0.2,0.8,0.6,1,0.9s0.3,1,0.3,2v2.6c0,0.8,0,1.2,0.1,1.7c0.1,0.3,0.2,0.7,0.5,1.1H214c-0.1-0.1-0.1-0.3-0.2-0.7
			c0-0.1-0.1-0.2-0.1-0.2c-0.3,0.3-0.8,0.7-1.2,0.8c-0.5,0.2-0.9,0.2-1.4,0.2c-0.9,0-1.6-0.2-2-0.7c-0.5-0.5-0.8-1-0.8-1.8
			c0-0.5,0.1-0.9,0.3-1.2s0.6-0.7,1-0.9s1-0.3,1.8-0.6c1-0.2,1.8-0.3,2.1-0.6v-0.2c0-0.5-0.1-0.8-0.3-0.9c-0.2-0.2-0.6-0.2-1.2-0.2
			c-0.5,0-0.7,0.1-0.9,0.2C210.9,36.5,210.7,36.8,210.5,37.2z M213.6,39c-0.3,0.1-0.8,0.2-1.4,0.3c-0.7,0.1-1,0.2-1.2,0.3
			c-0.3,0.2-0.5,0.5-0.5,0.8s0.1,0.6,0.3,0.8s0.6,0.3,0.9,0.3c0.5,0,0.8-0.1,1.1-0.5c0.2-0.2,0.5-0.5,0.6-0.8
			c0.1-0.2,0.1-0.6,0.1-1.1L213.6,39L213.6,39z"/>
		<path id="path86" class="st0" d="M225.6,43h-2.3v-4.3c0-0.9,0-1.5-0.1-1.8c-0.1-0.2-0.2-0.5-0.5-0.7c-0.2-0.1-0.5-0.2-0.8-0.2
			s-0.8,0.1-1,0.3c-0.3,0.2-0.6,0.5-0.7,0.8s-0.2,1-0.2,1.9v3.8h-2.3v-8.4h2v1.4c0.8-0.9,1.7-1.5,2.8-1.5c0.5,0,0.9,0.1,1.4,0.2
			c0.5,0.2,0.7,0.5,0.9,0.7c0.2,0.2,0.3,0.6,0.5,0.9s0.1,0.9,0.1,1.5V43H225.6z"/>
		<path id="path88" class="st0" d="M235.6,43h-2v-1.2c-0.3,0.5-0.8,0.8-1.2,1.1c-0.5,0.2-0.9,0.3-1.5,0.3c-1,0-1.8-0.3-2.5-1.1
			c-0.7-0.8-1-1.9-1-3.3c0-1.5,0.3-2.5,1-3.3c0.7-0.8,1.6-1.1,2.6-1.1c0.9,0,1.8,0.3,2.5,1.1v-4.2h2.3V43H235.6z M229.7,38.6
			c0,0.9,0.1,1.6,0.3,1.9c0.3,0.6,0.9,0.9,1.5,0.9s0.9-0.2,1.4-0.7c0.3-0.5,0.6-1.1,0.6-1.9c0-1-0.2-1.7-0.6-2.1
			c-0.3-0.5-0.8-0.7-1.4-0.7s-1,0.2-1.4,0.7C229.8,37.2,229.7,37.8,229.7,38.6z"/>
		<path id="path90" class="st0" d="M242.4,43V31.4h3.8c1.5,0,2.4,0.1,2.8,0.2c0.7,0.2,1.2,0.6,1.7,1.1c0.5,0.6,0.7,1.4,0.7,2.3
			c0,0.7-0.1,1.4-0.3,1.8c-0.2,0.5-0.6,0.9-1,1.1c-0.5,0.2-0.8,0.5-1.2,0.6c-0.6,0.1-1.4,0.1-2.5,0.1h-1.6V43
			C244.8,43,242.4,43,242.4,43z M244.8,33.3v3.3h1.2c0.9,0,1.6-0.1,1.9-0.2s0.6-0.3,0.8-0.6s0.2-0.6,0.2-0.9c0-0.5-0.1-0.8-0.3-1
			s-0.6-0.5-0.9-0.6c-0.2,0-0.9-0.1-1.7-0.1h-1.2V33.3z"/>
		<path id="path92" class="st0" d="M254.9,37.2l-2-0.3c0.2-0.8,0.7-1.5,1.1-1.8c0.6-0.3,1.4-0.6,2.5-0.6c1,0,1.7,0.1,2.3,0.3
			c0.5,0.2,0.8,0.6,1,0.9c0.2,0.3,0.3,1,0.3,2v2.6c0,0.8,0,1.2,0.1,1.7c0.1,0.3,0.2,0.7,0.5,1.1h-2.3c-0.1-0.1-0.1-0.3-0.2-0.7
			c0-0.1-0.1-0.2-0.1-0.2c-0.3,0.3-0.8,0.7-1.2,0.8c-0.5,0.2-0.9,0.2-1.4,0.2c-0.9,0-1.6-0.2-2-0.7c-0.5-0.5-0.8-1-0.8-1.8
			c0-0.5,0.1-0.9,0.3-1.2c0.2-0.3,0.6-0.7,1-0.9s1-0.3,1.8-0.6c1-0.2,1.8-0.3,2.1-0.6v-0.2c0-0.5-0.1-0.8-0.3-0.9
			c-0.2-0.2-0.6-0.2-1.2-0.2c-0.5,0-0.7,0.1-0.9,0.2C255.2,36.5,255,36.8,254.9,37.2z M257.9,39c-0.3,0.1-0.8,0.2-1.4,0.3
			c-0.7,0.1-1,0.2-1.2,0.3c-0.3,0.2-0.5,0.5-0.5,0.8s0.1,0.6,0.3,0.8c0.2,0.2,0.6,0.3,0.9,0.3c0.5,0,0.8-0.1,1.1-0.5
			c0.2-0.2,0.5-0.5,0.6-0.8c0.1-0.2,0.1-0.6,0.1-1.1V39L257.9,39z"/>
		<path id="path94" class="st0" d="M264.5,43h-2.3v-8.4h2v1.2c0.3-0.6,0.7-0.9,1-1.1c0.3-0.2,0.6-0.2,1-0.2c0.6,0,1,0.1,1.5,0.5
			l-0.7,1.9c-0.3-0.2-0.7-0.3-1-0.3c-0.3,0-0.6,0.1-0.8,0.2c-0.2,0.2-0.3,0.5-0.6,0.9c-0.2,0.5-0.2,1.4-0.2,2.8V43z"/>
		<path id="path96" class="st0" d="M268.5,43V31.4h2.3v6.2l2.6-2.9h2.7l-2.9,3l3,5.4h-2.4l-2.1-3.8l-1,1.1v2.7h-2.1V43z"/>
		<path id="path98" class="st0" d="M276.8,40.7l2.3-0.3c0.1,0.5,0.3,0.8,0.6,1c0.2,0.2,0.7,0.3,1.2,0.3s1-0.1,1.4-0.3
			c0.2-0.1,0.3-0.3,0.3-0.6c0-0.2,0-0.3-0.1-0.5c-0.1-0.1-0.3-0.2-0.8-0.3c-1.8-0.5-2.9-0.8-3.4-1.1c-0.7-0.5-1-1.1-1-1.9
			c0-0.7,0.3-1.4,0.9-1.8c0.6-0.5,1.5-0.8,2.7-0.8c1.1,0,2,0.2,2.6,0.6s0.9,0.9,1.1,1.7l-2.1,0.3c-0.1-0.3-0.2-0.6-0.6-0.8
			c-0.2-0.2-0.6-0.2-1.1-0.2s-1,0.1-1.2,0.2c-0.2,0.1-0.2,0.2-0.2,0.5c0,0.1,0.1,0.3,0.2,0.5c0.2,0.1,0.9,0.3,2.1,0.7
			c1.2,0.2,2,0.6,2.5,1c0.5,0.5,0.7,0.9,0.7,1.7c0,0.8-0.3,1.5-1,2c-0.7,0.6-1.6,0.8-2.9,0.8c-1.1,0-2-0.2-2.7-0.7
			C277.5,42.1,277.1,41.5,276.8,40.7z"/>
		<path id="path100" class="st0" d="M298.7,38.8l2.3,0.7c-0.3,1.2-0.9,2.3-1.8,2.8c-0.8,0.6-1.8,0.9-3.2,0.9c-1.6,0-2.8-0.6-3.8-1.6
			s-1.5-2.5-1.5-4.4s0.5-3.5,1.5-4.5c1-1.1,2.4-1.6,3.9-1.6c1.5,0,2.6,0.5,3.5,1.2c0.6,0.5,0.9,1.2,1.2,2.1l-2.4,0.6
			c-0.1-0.6-0.5-1.1-0.9-1.5c-0.5-0.3-1-0.6-1.6-0.6c-0.9,0-1.6,0.3-2.1,0.9c-0.6,0.7-0.8,1.6-0.8,3c0,1.5,0.2,2.5,0.8,3.2
			s1.2,0.9,2,0.9c0.7,0,1.1-0.2,1.6-0.6C298.2,40.2,298.6,39.7,298.7,38.8z"/>
		<path id="path102" class="st0" d="M302.5,38.8c0-0.8,0.2-1.5,0.6-2.1c0.3-0.7,0.9-1.2,1.6-1.6c0.7-0.3,1.5-0.6,2.3-0.6
			c1.2,0,2.4,0.5,3.2,1.2c0.8,0.8,1.2,1.9,1.2,3.2s-0.5,2.4-1.2,3.2c-0.8,0.8-1.9,1.2-3.2,1.2c-0.8,0-1.5-0.2-2.3-0.6
			c-0.7-0.3-1.2-0.9-1.6-1.6C302.7,40.6,302.5,39.7,302.5,38.8z M304.7,38.9c0,0.8,0.2,1.5,0.6,1.9c0.5,0.5,0.9,0.7,1.5,0.7
			c0.6,0,1.1-0.2,1.5-0.7c0.5-0.5,0.6-1.1,0.6-1.9c0-0.8-0.2-1.5-0.6-1.9c-0.5-0.5-0.9-0.7-1.5-0.7c-0.6,0-1.1,0.2-1.5,0.7
			S304.7,38,304.7,38.9z"/>
		<path id="path104" class="st0" d="M312.7,34.6h2v1.1c0.8-0.9,1.6-1.4,2.6-1.4c0.6,0,1,0.1,1.5,0.3c0.5,0.2,0.7,0.6,1,1
			c0.3-0.5,0.8-0.8,1.2-1c0.5-0.2,0.9-0.3,1.4-0.3c0.7,0,1.1,0.1,1.6,0.3c0.5,0.2,0.8,0.7,1,1.1c0.1,0.3,0.2,0.9,0.2,1.8V43H323
			v-4.8c0-0.8-0.1-1.4-0.2-1.6c-0.2-0.3-0.6-0.5-0.9-0.5c-0.3,0-0.6,0.1-0.9,0.3c-0.2,0.2-0.5,0.5-0.6,0.8c-0.1,0.3-0.2,0.9-0.2,1.8
			v4.1h-2.3v-4.6c0-0.8,0-1.4-0.1-1.6c-0.1-0.2-0.2-0.5-0.3-0.6c-0.1-0.1-0.3-0.2-0.7-0.2c-0.3,0-0.7,0.1-0.9,0.2
			c-0.2,0.2-0.5,0.5-0.6,0.8s-0.2,0.9-0.2,1.7v4.1h-2.3v-8.3H312.7z"/>
		<path id="path106" class="st0" d="M327.2,34.6h2v1.1c0.8-0.9,1.6-1.4,2.6-1.4c0.6,0,1,0.1,1.5,0.3c0.5,0.2,0.7,0.6,1,1
			c0.3-0.5,0.8-0.8,1.2-1c0.5-0.2,0.9-0.3,1.4-0.3c0.7,0,1.1,0.1,1.6,0.3c0.5,0.2,0.8,0.7,1,1.1c0.1,0.3,0.2,0.9,0.2,1.8V43h-2.3
			v-4.8c0-0.8-0.1-1.4-0.2-1.6c-0.2-0.3-0.6-0.5-0.9-0.5c-0.3,0-0.6,0.1-0.9,0.3c-0.2,0.2-0.5,0.5-0.6,0.8s-0.2,0.9-0.2,1.8v4.1
			h-2.3v-4.6c0-0.8,0-1.4-0.1-1.6c-0.1-0.2-0.2-0.5-0.3-0.6c-0.1-0.1-0.3-0.2-0.7-0.2s-0.7,0.1-0.9,0.2c-0.2,0.2-0.5,0.5-0.6,0.8
			s-0.2,0.9-0.2,1.7v4.1h-2.3v-8.3H327.2z"/>
		<path id="path108" class="st0" d="M341.9,33.5v-2h2.3v2H341.9z M341.9,43v-8.4h2.3V43H341.9z"/>
		<path id="path110" class="st0" d="M345.6,40.7l2.3-0.3c0.1,0.5,0.3,0.8,0.6,1c0.2,0.2,0.7,0.3,1.2,0.3s1-0.1,1.4-0.3
			c0.2-0.1,0.3-0.3,0.3-0.6c0-0.2,0-0.3-0.1-0.5c-0.1-0.1-0.3-0.2-0.8-0.3c-1.8-0.5-2.9-0.8-3.4-1.1c-0.7-0.5-1-1.1-1-1.9
			c0-0.7,0.3-1.4,0.9-1.8c0.6-0.5,1.5-0.8,2.7-0.8c1.1,0,2,0.2,2.6,0.6s0.9,0.9,1.1,1.7l-2.1,0.3c-0.1-0.3-0.2-0.6-0.6-0.8
			c-0.2-0.2-0.6-0.2-1.1-0.2s-1,0.1-1.2,0.2c-0.2,0.1-0.2,0.2-0.2,0.5c0,0.1,0.1,0.3,0.2,0.5c0.2,0.1,0.9,0.3,2.1,0.7
			c1.2,0.2,2,0.6,2.5,1c0.5,0.5,0.7,0.9,0.7,1.7c0,0.8-0.3,1.5-1,2c-0.7,0.6-1.6,0.8-2.9,0.8c-1.1,0-2-0.2-2.7-0.7
			C346.3,42.1,345.8,41.5,345.6,40.7z"/>
		<path id="path112" class="st0" d="M354.7,40.7l2.3-0.3c0.1,0.5,0.3,0.8,0.6,1c0.2,0.2,0.7,0.3,1.2,0.3s1-0.1,1.4-0.3
			c0.2-0.1,0.3-0.3,0.3-0.6c0-0.2,0-0.3-0.1-0.5c-0.1-0.1-0.3-0.2-0.8-0.3c-1.8-0.5-2.9-0.8-3.4-1.1c-0.7-0.5-1-1.1-1-1.9
			c0-0.7,0.3-1.4,0.9-1.8c0.6-0.5,1.5-0.8,2.7-0.8c1.1,0,2,0.2,2.6,0.6c0.6,0.3,0.9,0.9,1.1,1.7l-2.1,0.3c-0.1-0.3-0.2-0.6-0.6-0.8
			c-0.2-0.2-0.6-0.2-1.1-0.2c-0.6,0-1,0.1-1.2,0.2c-0.2,0.1-0.2,0.2-0.2,0.5c0,0.1,0.1,0.3,0.2,0.5c0.2,0.1,0.9,0.3,2.1,0.7
			c1.2,0.2,2,0.6,2.5,1c0.5,0.5,0.7,0.9,0.7,1.7c0,0.8-0.3,1.5-1,2s-1.6,0.8-2.9,0.8c-1.1,0-2-0.2-2.7-0.7
			C355.4,42.1,354.9,41.5,354.7,40.7z"/>
		<path id="path114" class="st0" d="M364.5,33.5v-2h2.3v2H364.5z M364.5,43v-8.4h2.3V43H364.5z"/>
		<path id="path116" class="st0" d="M368.5,38.8c0-0.8,0.2-1.5,0.6-2.1c0.3-0.7,0.9-1.2,1.6-1.6c0.7-0.3,1.5-0.6,2.3-0.6
			c1.2,0,2.4,0.5,3.2,1.2c0.8,0.8,1.2,1.9,1.2,3.2s-0.5,2.4-1.2,3.2c-0.8,0.8-1.9,1.2-3.2,1.2c-0.8,0-1.5-0.2-2.3-0.6
			c-0.7-0.3-1.2-0.9-1.6-1.6C368.7,40.6,368.5,39.7,368.5,38.8z M370.8,38.9c0,0.8,0.2,1.5,0.6,1.9c0.5,0.5,0.9,0.7,1.5,0.7
			s1.1-0.2,1.5-0.7c0.5-0.5,0.6-1.1,0.6-1.9c0-0.8-0.2-1.5-0.6-1.9c-0.5-0.5-0.9-0.7-1.5-0.7s-1.1,0.2-1.5,0.7
			C371,37.4,370.8,38,370.8,38.9z"/>
		<path id="path118" class="st0" d="M386.7,43h-2.3v-4.3c0-0.9,0-1.5-0.1-1.8c-0.1-0.2-0.2-0.5-0.5-0.7c-0.2-0.1-0.5-0.2-0.8-0.2
			c-0.3,0-0.8,0.1-1,0.3c-0.3,0.2-0.6,0.5-0.7,0.8s-0.2,1-0.2,1.9v3.8h-2.3v-8.4h2v1.4c0.8-0.9,1.7-1.5,2.8-1.5
			c0.5,0,0.9,0.1,1.4,0.2c0.5,0.2,0.7,0.5,0.9,0.7c0.2,0.2,0.3,0.6,0.5,0.9c0.1,0.3,0.1,0.9,0.1,1.5V43H386.7z"/>
	</g>
	<g id="g215">
		<g id="g134">
			<g id="g132">
				<g id="XMLID_6_">
					<g id="g122">
					</g>
					<g id="g124">
					</g>
				</g>
				<g id="XMLID_5_">
					<g id="g127">
					</g>
					<g id="g129">
					</g>
				</g>
			</g>
		</g>
		<g id="g209">
			<g id="XMLID_4_">
				<g id="g204">
					<path id="path136" class="st0" d="M30.4,29c-0.1-0.6-0.6-1.2-0.7-2c0-0.3,0-0.6,0.1-0.8c0-0.8,0.3-1.2,0.7-1.9
						c0.1-0.1,0.3-0.2,0.3-0.3c-0.3,0-0.6,0.2-0.8,0.5c-0.2,0.2-0.6,0.9-0.7,1.2c0,0,0,0.1,0,0.2c-0.1,0.9,0,1.7,0.3,2.3
						C29.8,28.4,30.2,28.8,30.4,29z M96.2,69.6L96.2,69.6L96.2,69.6c0,0.2-0.1,0.3-0.1,0.6c-0.3,0.2-0.8,0.3-1.1,0.5
						c-1,0.2-2.6,0.2-3.8,0.2c-0.3,0-0.8,0-1.1,0.1c-1.6,0.1-3.5,0.3-4.7,0.3c-1.5,0.1-2.8,0.3-4.2,0.5c-1,0.1-2,0.2-3.2,0.2
						c-0.8,0-1.7,0.1-2.6,0.1c-0.3,0-0.6,0-0.9,0c-0.3,0-0.6,0.1-0.8,0.1s-0.5-0.1-0.7-0.1s-0.5,0.1-0.8,0.1c-0.2,0-0.5,0-0.6,0
						c-0.5,0-0.9,0.1-1.4,0.1c-0.5,0-1,0-1.5,0c-1.6,0.2-2.9,0.2-4.3,0.3l0,0l0,0c-1,0-2.1-0.1-3.4,0l0,0c0,0,0,0-0.1,0
						c-1.9,0-3.4-0.1-5.1-0.2c-1.7,0-3.4-0.3-5.2-0.5c-0.9,0-1.8,0-2.6,0c-0.9,0-1.6,0.2-2.4,0.2s-1.6,0-2.4,0c-0.8,0-1.7,0-2.4,0
						c-0.8,0-1.6,0-2.4,0.1c-0.9,0-1.9,0.1-2.9,0c-2.7-0.1-5.1-0.3-7.8-0.3c-0.2,0-0.5,0-0.7-0.1c-0.2,0-0.3,0-0.6,0
						c-0.5,0-0.9-0.1-1.4-0.1c-0.9,0-1.8-0.2-2.8-0.2c-0.9-0.1-1.7-0.3-2.6-0.3c-0.8,0-1.9,0-2.8-0.2c-0.5,0-1-0.2-1.5-0.3
						c-0.5-0.2-1-0.3-1.5-0.5c-0.5,0-1.1,0-1.7-0.1c-0.6,0-1-0.1-1.6-0.1c-0.5,0-1,0-1.5,0c-1.1-0.1-2.1,0-3-0.1
						c-1.7-0.2-3-0.1-4.5-0.3c-0.1,0.1-0.6,0-0.7,0.1c-0.3,0-0.6-0.1-0.8-0.3c0-0.1,0-0.1,0-0.2c0.2-0.3,0.9-0.3,0.7-1
						c0.1-0.1,0.3-0.3,0.6-0.3c1-0.3,2.5-0.3,3.4-0.3c0.2-0.1,0.3-0.1,0.6-0.1c2-0.1,4.1,0,5.9-0.6c0.6-0.2,1.1-0.3,1.7-0.6
						c0.2-0.2,0.6-0.3,0.8-0.7c0.7-0.7,0.8-1.9,1-2.8c-0.1-1.7,0.2-3.7,0.3-5.9c0-0.9,0-1.9,0.1-2.5c0.1-0.7,0.2-1.5,0.2-2
						c-0.1-0.9-0.3-1.9-0.3-2.7c0-1.2-0.1-2.5,0.1-3.6c0.1-1.2,0.3-2.4,0.7-3.5c0.1-0.6,0.3-1,0.6-1.6c0.2-0.5,0.5-1,0.7-1.6
						c0.1-0.3,0.1-0.8,0.2-1.1s0.1-0.8,0.3-1c0.2-0.3,0.5-0.7,0.7-1.1c0.1-0.1,0.1-0.3,0.1-0.6c0.1-0.2,0.2-0.3,0.2-0.6
						c0.2-0.7,0.3-1.5,0.6-2.1c0.2-0.7,0.8-1.2,0.8-1.8c0.1-0.7,0-1.5,0-2c-0.1-1.2-0.1-2.4,0.2-3.4c0-0.6,0.1-0.9,0.2-1.5
						c0.1-1,0-2.1-0.1-3.3c0-0.3-0.1-0.7-0.1-1c0-0.2,0-0.5,0-0.7c0-0.3-0.1-0.6-0.2-0.9c-0.1-0.5-0.1-0.8-0.1-1.2
						c-0.1-0.7,0-1.5-0.1-2c-0.3-0.6-0.6-1.1-0.6-1.8c0-0.2,0-0.5,0-0.6c0-0.3,0.3-1.5,0.7-1.5c0.2,0,0.5,0.2,0.7,0.5
						c0.3,0.3,0.9,0.8,1,1.2c0.1,0.3,0.1,0.9,0.3,1c0.3,0.1,0.9-0.7,1-0.9c0.3-0.6,0.5-1.6,1-2c0.3,0,0.3,0.3,0.5,0.6
						c0.1,0.5,0.5,0.8,0.3,1.5c-0.3,0.5-0.3,1.4-0.7,1.9c-0.2,0-0.7-0.2-0.8,0c0.1,0.2,0.6,0.1,0.8,0.2c0.3,0,0.6,0.2,0.9,0.2
						c0,0.2,0.2,0.1,0.3,0.2c0.2,0.1,0.3,0.6,0.6,0.7c-0.5,0.5-0.1,0.8,0.2,1c0.3,0.3,0.9,0.7,1.1,1c0.1,0.5-0.1,0.9-0.5,1.2
						c-0.3,0.1-0.7,0.3-1.1,0.2c-0.2,0.2-0.6,0.2-0.8,0.3c-0.1,0.7,0.3,1.2,0.6,1.7c0,0.2,0,0.5,0.1,0.7c0.1,0.3,0.6,0.6,0.8,0.9
						c0.2,0.3,0.7,0.7,0.7,1c0,0.2-0.1,0.6,0.2,0.7c-0.1-0.6,0.5-0.9,0.6-1.4c0.3-0.3,0.7-0.8,1.1-0.9c0.3-0.3,0.7-0.5,1.1-0.7
						c0.3-0.1,0.7-0.3,1-0.5c0.8-0.3,1.8-0.8,2.6-1.1c0.3-0.1,0.8-0.3,1.4-0.6c0.5-0.1,1.1-0.5,1.6-0.3c0.2,0,0.5,0.3,0.5,0.5
						c0,0.3-0.3,0.5-0.7,0.7c-0.3,0.2-0.6,0.5-0.8,0.6c-0.6,0.3-1.2,0.6-1.7,1c-0.5,0.3-1.1,0.6-1.7,1c-0.5,0.3-1.1,0.7-1.6,1.1
						c-0.2,0.2-0.6,0.6-0.7,0.8c-0.2,0.7,0.1,1.7,0.3,2.1c0.1,0.2,0.2,0.6,0.3,0.6c0.1,0,0.6-0.2,0.9-0.2c0.3-0.1,0.6-0.2,0.8-0.3
						c0-0.6,0.3-0.9,0.7-1c-0.1-0.5,0.2-0.5,0.5-0.7c0.2-0.1,0.2-0.3,0.5-0.3c0.1,0,0.3,0.1,0.5,0.1c0.2,0,0.3-0.2,0.5-0.2
						c0.2,0,0.5,0.2,0.6,0.3c0.3-0.2,0.7,0.1,0.6,0.3c0.2,0,0.3-0.1,0.5,0c0.1,0.1,0,0.5,0.1,0.7c2.1,0.1,5,0.1,7.3,0.1
						c1.8,0,4.2,0.1,5.7,0.1c1.8,0,3.4,0,5.7,0c1.8,0,3.9,0.1,5.7,0.1c0.2-0.2,0.1-0.7,0.5-0.9c0.1,0,0.2,0.1,0.5,0
						c0.2,0,0.3-0.3,0.6-0.3c0.3,0,0.5,0.3,0.8,0.3c0.1,0,0.3-0.1,0.5-0.1c0.3,0,0.8,0.3,0.9,0.5c0.1,0.1,0,0.2,0.1,0.3
						s0.3,0.2,0.3,0.3c0.1,0.2,0,0.5,0.2,0.7c0.1,0.1,0.5,0.2,0.7,0.3c0.2,0.1,0.5,0.2,0.7,0.2c0.3-0.2,0.3-0.7,0.5-1.2
						c0.1-0.3,0.3-0.9,0.2-1.2c-0.1-0.6-0.7-0.7-0.9-1.1c-1.5-1-2.8-2.1-4.7-2.7c-0.3-0.3-0.8-0.5-1.1-0.7c-0.7-0.6-0.3-1.2,0.6-1.4
						c0.1,0.1,0.3,0,0.6,0.1c0.7,0.1,1.2,0.6,1.8,0.8c0.3,0.1,0.6,0.1,0.9,0.2c0.2,0.1,0.6,0.2,0.8,0.3c0.8,0.3,1.5,0.7,2.1,1
						c0.2,0.1,0.6,0.2,0.8,0.5c1,0.7,1.9,1.9,1.8,3.4c0.3-0.1,0.2-0.3,0.2-0.9c0.9-1.1,2-2.1,2.6-3.6c0.1-0.3,0.2-0.9,0.1-1.4
						c-0.7,0.1-1.4-0.7-2.1-0.5c-0.5-0.2-0.6-0.8-0.6-1.2c0.5-0.2,1.2-0.8,1.6-1.2c0.1-0.2,0.2-0.3,0.2-0.6s-0.2-0.3-0.2-0.6
						c0.3-0.6,1.1-0.6,1.7-0.9c-0.6-1.2-1-3.6,0.2-4.4c0.2,0.2,0.5,0.6,0.6,0.9c0.2,0.7,0.5,1.7,0.9,2c0.7,0.5,0.8-0.3,1-0.8
						c0.3-0.8,0.8-1.7,1.7-1.8c0.2,0.3,0.2,0.8,0.2,1.1c0,0.5,0,0.9,0,1.2c0,0.5-0.2,0.8-0.3,1.2c-0.2,0.9-0.1,1.9-0.2,3
						c0,0.2-0.1,0.5-0.1,0.7c-0.1,0.8-0.1,1.4-0.3,2.1c-0.1,0.7-0.3,1.2-0.3,1.7c0,0.6,0.1,0.9,0.2,1.4c0,0.2,0.1,0.5,0.1,0.8
						c0.2,1.4,0.5,2.9,0.3,4.4c0,0.7-0.3,1.4-0.3,1.8c0,0.7,0.3,1.2,0.6,1.7c0.2,0.5,0.3,1,0.5,1.6c0.2,0.8,0.6,1.6,0.7,2.4
						c0.2,0.7,0.6,1.2,0.7,1.9c0.2,0.8,0.3,1.8,0.7,2.5c0.3,0.7,0.8,1.2,1,1.8c0.1,0.5,0.2,0.8,0.3,1.2c0.1,0.6,0.2,1,0.2,1.6
						c0.1,1.2-0.1,2.4-0.2,3.6c0,1.1,0,1.7,0,2.6c0,1,0.1,2,0,3.2c-0.1,0.8,0,1.7,0,2.7c0,1.1,0,2.1,0.1,3c-0.1,1.9,0.2,3.8,1,5
						c0.6,0.6,1,0.8,1.9,1c0.3,0.1,0.7,0.2,0.9,0.3c0.3,0.1,0.7,0.1,1.1,0.1c0.2,0,0.5,0.1,0.7,0.1c0.8,0,1.7,0.1,2.5,0.1
						c0.8,0,1.6,0,2.4,0.1c0.2,0,0.3,0.1,0.6,0.1s0.5,0,0.7,0c0.8,0.1,1.6,0.1,1.9,0.8c0,0.2-0.1,0.2-0.1,0.5
						C95.9,69.4,96.2,69.5,96.2,69.6z M95.4,69.9c0.2-0.7-0.7-0.2-1-0.2c-0.5,0-0.9-0.1-1.1-0.1c-0.1,0-0.1,0.1-0.2,0.1
						c-0.5,0-0.9,0-1.2,0s-0.6,0-0.9,0c-1.1,0-2.4,0-3.5-0.1c-0.1,0-0.2,0-0.3,0c-0.9,0-1.7-0.1-2.5-0.3c-0.1,0-0.2,0.1-0.3,0.1
						c-0.5-0.2-1,0-1.5-0.1c-0.2,0-0.5-0.2-0.7-0.1c-0.3-0.2-0.8-0.2-1.2-0.2c-0.3,0-0.7-0.2-1-0.2c-0.1,0-0.2,0-0.3,0
						c-0.1,0-0.1-0.1-0.2-0.1s-0.2,0-0.3,0c-0.5,0-1-0.1-1.4-0.1c-0.2,0-0.5,0.2-0.7,0.2s-0.3-0.1-0.6-0.1c-0.1,0-0.1,0.1-0.2,0.1
						c-1.2,0.1-2.3,0-3.4,0.1c-0.2,0.2-0.7,0-0.9,0c-0.3,0-1.2,0-1.7,0c-1.1,0.2-2.1-0.1-3.4,0.1c-0.3,0-0.7,0.2-0.9,0.2
						s-0.5-0.2-0.7-0.2s-0.3,0.2-0.6,0.2c0-0.1,0-0.2-0.1-0.2c-0.2,0-0.3,0.2-0.6,0.2c-0.1-0.1-0.1-0.2-0.1-0.3
						c-0.1,0-0.1,0.1-0.2,0.1c0-0.1,0-0.2,0.1-0.5c-0.1-0.1-0.2,0.2-0.3,0.1c-0.1-0.5,0.3-0.7,0.3-1.1c0.3-0.3,0.9-0.2,1.4-0.3
						c0.1,0,0.3-0.2,0.5-0.2c0.1,0,0.3-0.1,0.6-0.1c0.6-0.1,1,0,1.4,0.1c0.5,0,1,0,1.5,0c0.3,0,0.8-0.1,1.2-0.1c0.3,0,0.6,0,0.9,0
						c0.2,0,0.5,0,0.7,0c0.6,0,1.1-0.1,1.7-0.1c0.7,0,1.1-0.1,0.9-0.8l0,0c-0.6,0-1.1,0.1-1.7,0.1c-0.1,0-0.2-0.1-0.3-0.1
						c-0.6,0-1.4,0.1-2,0.2c-0.2,0-0.3,0-0.6,0c-0.6,0-1.2,0.1-1.8,0.1c-0.1,0-0.1,0-0.2,0c-0.5,0-0.9,0.1-1.4,0.2
						c-0.3,0-0.8-0.1-1.1,0c-0.3,0-0.6,0-0.9,0c-0.2,0-0.5,0.1-0.7,0.2c-0.1,0-0.2-0.1-0.3-0.1c-0.2,0-0.5,0.2-0.7,0.1
						c-0.1-0.1,0.1-0.2-0.1-0.2c-0.3,0-0.6,0.3-0.8,0.2c-0.1-0.1,0.1-0.2,0.1-0.5c-0.2,0-0.3,0.3-0.6,0.2c0-0.3,0.5-0.3,0.5-0.7
						c-0.2-0.3-0.5-0.1-0.7,0c-0.2,0-0.7,0-0.8,0.2c-0.3,0-0.3,0.1-0.7,0c-0.2,0.2-0.6,0.5-1,0.6c-0.1,0-0.1,0.1-0.1,0.2
						c-0.6,0.3-1,0.8-1.8,0.8c-0.3,0.2-0.6,0.5-1.1,0.5c-0.5,0.3-1.1,0.6-1.8,0.7c-0.1,0.1-0.2,0.2-0.5,0.2c-0.2,0.1-0.7,0-0.9,0.1
						c-0.2,0-0.3,0.1-0.5,0.1c-0.1,0-0.2,0-0.3,0s-0.2,0.1-0.3,0.1c-0.3,0-0.7,0.1-1,0.1c0.1-0.1,0.3-0.3,0.5-0.5
						c0.8-0.3,1.5-0.8,2.3-1.2c1-0.7,1.9-1.6,2.9-2.1c0.3-0.2,0.6-0.2,0.9-0.1c1.5,0.1,3.7-0.2,5.2,0c0.3-0.5,1-0.7,1.8-0.6
						c0.5-0.2,1.1-0.1,1.8-0.1c0.8,0,1.7-0.2,2.5-0.3c1.2-0.1,2.6-0.2,3.5-0.6c0.3-0.3,0.3-0.6,0.5-0.9c0.1-0.3,0.2-0.7,0.2-1
						c0-1.2-0.1-2.4-0.3-3.4c0-0.3-0.2-0.8-0.1-1.1c0-0.3-0.1-0.6-0.1-0.9c-0.1-0.7-0.1-1.1-0.1-1.7c-0.1-0.8-0.2-1.7-0.5-2.3
						c0-0.1-0.1-0.2-0.2-0.3c-0.2-0.3-0.3-0.9-0.6-1.2c-0.3-0.8-0.5-1.6-0.6-2.4c0-0.3-0.2-0.7-0.2-1c0-0.2,0-0.5,0.1-0.7
						c0-0.2,0-0.5,0-0.7c0-0.3,0.1-0.7,0.2-1c0.1-0.8,0.1-1.2,0.3-1.8c0-0.1,0.1-0.2,0.2-0.2c0.1-0.2,0.2-0.6,0.3-0.9
						c0.1-0.2,0.2-0.3,0.2-0.6s0-0.6,0-1c-0.1-0.9-0.3-1.7-0.3-2.6c0-1-0.1-2.3-0.2-3.2c0-0.3-0.2-0.8-0.3-0.8
						c-0.2-0.1-0.8-0.1-1-0.1c-0.7,0-1.4,0.3-2,0.5c-0.1,0.1-0.2,0.2-0.3,0.3c-0.1,0-0.1-0.1-0.2-0.1c-0.1,0.1-0.2,0.1-0.2,0.3
						c-0.1,1.2-0.1,2.8-0.2,4.5c-0.1,2-0.3,4.2-0.6,6c0,0.1,0,0.2,0,0.2c0,0.2-0.1,0.3-0.1,0.6c0,0-0.1,0.1-0.1,0.2
						c0.1,0.3,0,0.7-0.1,1.1c0,0.3-0.2,0.7-0.2,1.1c-0.1,0.3-0.1,0.7-0.1,1.1c-0.2,1.6-0.9,3.2-1.4,4.5c-0.2,0.7-0.6,1.2-0.9,1.8
						c0,0.1,0,0.1-0.1,0.3c-0.3,0.5-0.6,1-0.9,1.6c-0.2,0.5-0.5,1-0.9,1.2c-0.1,0.7-0.8,0.9-1,1.5c-0.9,0.8-1.7,1.9-2.7,2.7
						c-0.7,1-1.8,1.7-2.7,2.6c-1.1,0.9-2.1,1.8-3.5,2.4c-0.5,0.3-1.1,0.9-1.8,1c-0.6,0-0.8-0.6-1.4-0.7c-0.8-0.6-1.5-1.1-2.1-1.7
						c-0.3-0.3-0.8-0.7-1.1-0.9c-0.7-0.6-1.4-1.2-1.9-1.8c-0.1-0.1-0.3-0.3-0.5-0.5c-0.1-0.1-0.1-0.2-0.2-0.3
						c-0.5-0.5-1-0.7-1.2-1.4c-0.5-0.5-1-1-1.4-1.5c-0.1-0.2-0.1-0.3-0.3-0.5c-0.1-0.2-0.3-0.3-0.3-0.5c-0.1-0.1-0.1-0.2-0.1-0.3
						c-0.7-0.9-1.5-1.9-2-2.9c-0.2-0.3-0.3-0.7-0.6-0.9c-0.2-0.5-0.5-1.1-0.7-1.7c-0.1-0.3-0.3-0.6-0.5-0.9s-0.2-0.7-0.3-1
						c-0.5-1.1-1-2.5-1.1-3.6c0-0.1-0.1-0.1-0.1-0.2c0-0.6-0.2-1-0.3-1.6c-0.1-1-0.1-2-0.2-3.2c0-0.6-0.1-1-0.1-1.5s0-1.1,0-1.6
						c-0.1-2,0.2-3.7,0.2-5.5c0.1-0.2,0.1-0.5,0-0.6c-0.3,0-0.5,0-0.7,0c-0.3-0.1-0.6-0.5-0.9-0.7c-0.6-0.3-1.7-0.1-2.6-0.2
						c0,0,0,0.1-0.1,0.1c0.1,0.5,0.1,1,0,1.6s-0.3,1-0.3,1.7c-0.1,1.1-0.2,2.1-0.3,3c0,0.3-0.2,0.6-0.2,0.7c0,0.2,0.1,0.7,0.2,0.9
						c0.1,0.6,0.6,1,0.7,1.5c0.1,0.3,0.1,0.6,0.2,0.7c0.1,0.3,0,0.8,0.1,1.2c0,0.5,0.2,0.9,0.2,1.5c-0.1,0.9-0.2,1.7-0.3,2.5
						c-0.1,0.7-0.2,1.2-0.5,1.7c-0.2,0.6-0.7,0.8-0.9,1.4c0,0,0,0,0,0.1l-0.1,0.1C27,52.7,27,53,27,53.5c0,0,0,0.1-0.1,0.1
						c-0.2,3.3-0.5,6.3-0.8,9.3c0.2,1,1.6,0.9,2.5,1c1.1,0.1,2.7,0.3,4.1,0.6c0.7,0,1.4-0.2,1.9,0c0.3,0,0.6,0.2,0.8,0.3
						c0.2,0.1,0.5,0,0.7,0.1c0.2,0.1,0.3,0.3,0.7,0.3c0.9,0.1,1.9,0.1,2.8,0.1c0.3,0,0.6-0.1,0.9-0.1c0.2,0,0.5,0.1,0.7,0.1
						c0.5,0,1.1,0,1.5,0.2c1.1,1.2,2.5,2.3,3.9,3.2c0,0.2,0.5,0.3,0.5,0.5c-1.2-0.2-1.9-0.7-3-0.9c-0.2-0.3-0.6-0.3-1-0.6
						c-0.5-0.1-0.8-0.2-1.2-0.3c-0.3-0.1-0.8-0.5-1.2-0.5c-0.3-0.5-1.1-0.5-1.7-0.7c-0.1-0.1-0.1-0.3-0.3-0.5
						c-0.5,0.1-0.9-0.5-1.1-0.2c0,0.1,0.3,0.1,0.3,0.3c-0.1,0-0.2-0.2-0.5-0.1c0,0.1,0,0.1,0,0.3c-0.2,0.1-0.3,0-0.6,0
						c0,0.1,0.1,0.2,0,0.2c-0.1,0-0.2-0.1-0.5,0c-0.1-0.2-0.5-0.2-0.8-0.3c-0.5,0-0.9,0.1-1.2,0c-0.2,0-0.5-0.1-0.7-0.1
						c-1.1-0.1-2.1-0.1-3.4-0.2c-1.5-0.1-2.6-0.1-3.9-0.1c-1,0-2.1-0.1-3.2-0.2c0.2,0.6,0.8,0.6,1.4,0.7c0.3,0.1,0.7,0.2,1,0.2
						c0.9,0,1.6,0.1,2.5,0.1c1.1-0.1,2,0.3,2.8,0.3c0.3,0,0.6-0.1,0.9-0.1c0.2,0,0.7,0.2,0.9,0.3c0.6,0.2,1.1,0.8,1.5,1.1
						c0.1,0.2,0.2,0.5,0.2,0.6c-0.1,0-0.2-0.3-0.5-0.2c-0.1,0.2,0.1,0.2,0.1,0.3c-0.2,0-0.3,0-0.7-0.1c0,0.1,0.1,0.1,0,0.2
						c-0.6-0.5-1.6-0.2-2.4-0.3c-0.1,0-0.3-0.1-0.5-0.1c-0.7,0-1.5,0-2.1,0c-0.8-0.1-1.8,0-2.5-0.2c-0.5-0.1-0.9-0.1-1.4-0.1
						c-0.3,0-0.7-0.1-1-0.1s-0.6,0.1-0.9,0.2c-0.8,0-1.6-0.3-2.4,0C19.8,68,19.5,68,19.2,68c-0.3,0-0.7,0-1,0
						c-0.1,0-0.2,0.1-0.3,0.1c-0.2,0-0.6,0-0.8,0c-0.6,0-1.2,0-1.8,0c-0.1,0-0.2,0.1-0.3,0.1c-0.1,0-0.2,0-0.3,0
						c-0.6,0.2-1.2,0.5-1.8,0.5c-2,0.2-4.3,0.1-6.9,0.1c-0.7,0-1.2,0.1-1.8,0.1c-1.2,0-2.1-0.3-3-0.2C1.3,69,1.8,69.1,2,69.4
						c0.1-0.1,0.3,0.1,0.2,0.1c0.6,0.1,1.4-0.1,1.9-0.1c0.7,0.2,1.6,0.1,2.5,0c0.3,0,0.7,0,0.9,0c0.2,0,0.3,0.1,0.6,0.1
						c0.1,0,0.2-0.1,0.3-0.1c0.5,0,0.8,0,1.4,0c0.1,0,0,0.1,0.2,0.1c0.3-0.1,0.8,0.2,1.2,0c0.5,0.2,1.2-0.1,1.7,0
						c0.1,0,0.1-0.1,0.2-0.2c0.6,0.1,1,0,1.6,0.1c0.7-0.5,1.4,0.6,2,0.1c0.5,0.1,0.8,0.2,1.1,0.2c0.5-0.1,0.8,0.1,1.2,0.1
						c0.7-0.6,1.7,0.3,2.6,0c0.9,0.3,1.8,0.3,2.7,0.2c0.1,0,0.1-0.2,0.2-0.2c0.2,0.1,0.9,0.3,1.4,0.3c0.1,0,0.2-0.1,0.3-0.1
						c0.2,0,0.3,0.1,0.6,0.1c0.3,0,0.8-0.1,1,0.2c0.3-0.2,0.8-0.2,1.2,0c0.1,0,0-0.1,0.2-0.1c0.5,0,0.8,0,1.1,0.1s0.7,0.5,1,0.1
						c-0.1-0.1-0.3-0.1-0.3-0.3c0.1-0.5,1.4,0.2,1.7,0.1c0.3,0.1,0.7,0.2,1.1,0.3c0.3-0.2,0.7,0.1,0.9-0.1c-0.2-0.3-0.8-0.3-1.1-0.6
						c0.7,0,1.2,0.6,2,0.5c0.1,0,0.3-0.2,0.5-0.2c0.2,0,0.5,0.1,0.7,0.1s0.5,0.1,0.7,0.1c0.3,0,0.7-0.1,1.1-0.2c0.5-0.1,0.8,0.1,1,0
						c0.3,0.1,0.8,0.2,1.1,0.1c0.3,0.1,0.7,0.1,1,0c0.1,0,0.1-0.1,0.2-0.1c0.3,0,0.6,0.2,0.9,0.1c0.2,0,0.5-0.2,0.7-0.2
						c0.5,0,0.9,0.3,1.5,0.3c0.1,0,0-0.2,0.2-0.2c1.1,0.3,2,0.7,3,1c0.2-0.2,0.5,0,0.7,0c0.6,0.1,1,0,1.5-0.1c0.2,0,0.3,0,0.6,0
						c0.6-0.1,1-0.2,1.6-0.3c0,0-0.1,0.1,0,0.2c0.6,0,1.5-0.2,2.1-0.5c0.6,0.3,1.2-0.2,1.7-0.2c-0.3,0.2-0.7,0.5-0.9,0.8
						c0.6,0.2,1.1-0.3,1.8-0.5c0,0.1-0.2,0-0.1,0.2c0.5-0.1,0.8-0.2,1.2-0.3c0.5-0.1,0.8-0.2,1.1-0.3c0.3,0.3,0.8,0,1.1,0
						c0.2,0,0.5,0.1,0.8,0c0.3,0.3,0.9,0,1.4,0.1c0.2,0.5,0.6,0.1,0.8,0.1c0.3,0,0.7,0.2,1,0.3c0.1,0,0.3-0.1,0.6-0.1
						c0.6,0,1,0.1,1.4-0.1c0.3,0,0.7,0.1,1,0c0.2,0.1,0.3,0.1,0.6,0.1c0.5-0.3,1.5-0.5,2-0.2c0.2-0.2,0.7-0.1,1-0.2
						c0.1,0.1,0.2,0.2,0.3,0.3c0.1-0.1,0.3-0.1,0.5-0.2c0.1,0,0.2,0.2,0.3,0.3c0.5,0.1,0.8-0.2,1.1-0.2c0.1,0.1,0.3,0.2,0.5,0.1
						c0.2,0.1,0.5,0.3,0.7,0.3c0.1,0,0.3-0.1,0.5-0.2c0.3-0.1,0.9-0.1,1.4-0.2c0.2-0.1,0.5-0.2,0.7-0.2c0.3,0,0.6,0.1,0.8,0
						c0,0.1,0,0.1,0,0.2c0.1,0,0.2-0.1,0.3,0c0,0-0.2,0.2-0.2,0.5c0.6,0.1,1.4-0.1,1.9-0.3c0.5,0.2,1-0.2,1.4,0
						c0.1-0.1,0.6-0.2,0.6,0c0,0.2-0.1,0.2-0.1,0.3c0.6,0.1,0.9-0.3,1.5-0.2c-0.1,0.1-0.3,0-0.3,0.2c0.2,0.2,0.5,0,0.7-0.1
						c0.1,0,0.3,0,0.5,0c0.5-0.1,0.9-0.3,1.2-0.5c0.3,0,0.7,0.3,0.9,0.3c0.2,0,0.5-0.1,0.6-0.1c0,0,0.2,0.1,0.3,0.1
						c0.1,0,0.2-0.1,0.3-0.1c0.1,0,0.1,0.1,0.2,0.1c0.3,0,0.7-0.1,1-0.1c0.1,0,0.3,0,0.5,0c0.8,0,1.5-0.3,2.3,0
						C92.5,70,94.1,70.4,95.4,69.9z M94.6,69.4c0.3,0,0.9,0,0.9-0.5c-2-0.2-3.4-0.3-5.3-0.3c-0.9-0.2-1.8-0.1-2.6-0.2
						c-0.2,0-0.6-0.1-0.8-0.1c-0.1,0-0.2,0-0.3,0c-0.8-0.1-1.7-0.3-2.5-0.5c-0.1,0-0.6-0.3-0.7-0.5c0,0-0.1-0.1-0.1-0.2
						c0,0-0.1,0-0.2,0c-0.2-0.2-0.3-0.5-0.6-0.7c-0.2-0.2-0.5-0.5-0.6-0.7c-0.1-0.2-0.2-0.3-0.3-0.6c-0.2-0.5-0.2-1-0.3-1.7
						c-0.2-1-0.2-1.8-0.3-2.8c0-1.1-0.1-2.1-0.2-3.2c0-0.5-0.1-0.9-0.2-1.4c0-0.5,0-0.6-0.3-0.8c-0.5,0.5,0,0.9,0.1,1.5
						c0,0.1,0,0.2,0,0.5c0,0.2,0.1,0.5,0.2,0.7c0.1,0.7,0,1.1,0,1.4c0,0.1,0.1,0.2,0.1,0.5c0,0.3,0,0.8,0,1.2c0,0.2,0.1,0.5,0.1,0.7
						c0,0.1-0.1,0.1-0.1,0.2c0,0.7,0.2,1.4,0.2,1.9c0,0.5,0.3,0.9,0.2,1.5c-0.1-0.2-0.1-0.1-0.3,0c-0.2-0.5-0.1-0.9-0.2-1.4
						c-0.1-0.9-0.2-1.7-0.3-2.7c0-0.7,0.1-1.4,0-2c-0.1-1.4-0.6-2.6-0.9-3.9c-0.1-0.2-0.3-0.7-0.3-0.9c-0.2-0.2-0.2-0.7-0.6-0.9
						c-0.1,0.1-0.3,0.2-0.3,0.5c0.3,0.3,0.6,0.7,0.7,1c0.5,1.1,0.7,2.8,0.7,3.8c0,0.8,0.1,1.7,0.2,2.6c0,0.9,0,1.6,0.1,2.4
						c0.1,0.5,0.2,1,0.3,1.5c0,0.2,0,0.5,0,0.6c0.1,0.8,0.7,1,1,1.7c0.1,0,0.2,0.1,0.3,0.1c0.1,0.1,0.2,0.3,0.3,0.5
						c0.1,0,0.2,0,0.3,0.1c0.3,0.2,0.7,0.6,1.1,0.5c1.4,0.8,3.4,1.1,5,0.7c0.3,0.2,0.7,0.1,1.1,0.1c1.6,0.1,2.9,0.1,4.3,0.1
						C94,69.5,94.3,69.4,94.6,69.4z M81,67.6c0-0.2-0.2-0.3-0.3-0.6c-0.1-0.2-0.2-0.5-0.3-0.7c-0.5-0.3-1.2,0-1.9-0.1
						c-0.2,0-0.5-0.2-0.6-0.1c-0.2,0.3,0.1,0.8,0.2,1.1c0.2,0.1,0.6,0.1,0.9,0.1C79.6,67.6,80.2,67.6,81,67.6z M79.9,65.5
						c0-0.5-0.1-0.9-0.1-1.4c-0.2-0.8-0.2-1.9-0.3-2.9c-0.1-1-0.1-1.9-0.2-2.9c0-0.2-0.1-0.6-0.1-0.8c0-0.1,0-0.2,0-0.3
						c0-0.1-0.1-0.3-0.1-0.6c-0.1-1-0.3-2-0.9-2.7c0,0,0,0-0.1,0c-0.3,0.3-1,0.5-1.1,0.9c-0.1,0.2-0.1,0.7-0.1,0.9
						c0,0.3,0.1,0.8,0.1,1.2c0,0.1,0,0.3,0,0.6c0,0.3,0.1,0.7,0.1,1c0,0.6,0,1.1,0,1.8c0,0.6,0.2,1.1,0.2,1.7
						c0.1,1.1,0.1,2.4,0.5,3.5C78.3,65.4,79.2,65.5,79.9,65.5z M78.3,13.7c0-0.3-0.1-0.7-0.1-0.9c-0.1-0.1-0.1-0.1-0.2-0.2
						c-0.6,0.3-0.9,0.9-1,1.8c-0.2,0.2-0.5,0.5-0.7,0.6c0,0.1,0,0.1,0,0.3c0.3,0,0.6,0.1,0.8,0.1c0.1-0.2-0.1-0.5,0-0.7
						c0.2-0.1,0.2-0.3,0.5-0.3c0,0.2,0.2,0.1,0.3,0.1c0.2,0.2,0,0.3,0.1,0.8C78.1,14.7,78.3,14.2,78.3,13.7z M77.8,17.1
						c0.1-0.5,0-0.7,0.1-1.2c-0.2,0-0.6,0.2-0.6,0.5c0,0.1,0.1,0.2,0.2,0.3C77.6,16.8,77.5,17.1,77.8,17.1z M77.6,67.9
						c0-0.6-0.2-1.1-0.3-1.7c0-0.5,0-0.9-0.1-1.4c-0.2-1.4-0.3-2.7-0.5-3.9c0-0.5-0.1-0.8-0.2-1.4c0-0.6-0.1-1-0.2-1.5
						c0-0.1,0-0.2,0-0.5c0-0.2-0.1-0.6-0.2-0.8c0-0.3,0-0.7-0.1-0.9c0-0.3-0.3-0.5-0.3-0.8c-0.1-0.5,0.3-1,0.5-1.4
						c0.1-0.2,0.7-0.6,0.7-0.9c0-0.1-0.3-0.2-0.5-0.5c0,0-0.1-0.1-0.1-0.2c-0.1-0.5-0.1-0.9-0.5-1.1c-0.3,0-0.8-0.1-0.9,0.2
						c0,0.5,0.7,0.7,0.5,1.2c-0.3-0.1-0.5-0.5-0.8-0.5c0.2,0.6,0.8,1.1,0.6,1.9c-0.1,0-0.2-0.1-0.3-0.1c0-0.3-0.2-0.3-0.3-0.6
						c0-0.3-0.2-0.3-0.1-0.7c-0.1-0.3-0.5-0.7-0.7-1c0-0.1,0-0.2,0-0.3c-0.1-0.3-0.2-0.7-0.3-1c-0.2-0.8-0.3-1.7-0.3-2.5
						c0-0.3,0-0.7,0.2-0.9c0.1,0,0.2,0.3,0.3,0.3c0.2-0.5,0.2-1.1,0.2-1.6c0.1-0.1,0.2-0.3,0.1-0.6c0.5-1.1,1.4-1.8,2-2.6
						c0,0,0,0-0.1,0l0,0c-0.5,0.2-0.8,0.5-1.1,0.8c-0.2,0.2-0.6,0.5-0.7,0.7c-0.2,0.2-0.3,0.6-0.5,0.9c-0.3,0.6-0.6,1.1-0.8,1.7
						c0,0.5-0.2,0.7-0.2,1c-0.1,1.4,0.1,2.3,0.3,3.3c0,0.3,0.1,0.5,0.1,0.6s0,0.2,0,0.3c0,0.2,0.2,0.3,0.2,0.6c0,0.2,0,0.3,0,0.5
						c0,0.1,0.1,0.2,0.1,0.3s0,0.3,0.1,0.5c0,0.1,0.1,0.3,0.1,0.5c0,0.3,0,0.7,0,0.9c0.1,0.3,0.2,0.8,0.3,1.1c0.1,0.5,0.2,1,0.1,1.5
						c0,0.2,0.1,0.3,0.1,0.6c0,0.1-0.1,0.1,0,0.2c0,0.8,0.2,1.2,0.3,1.8c0,0.2,0,0.3,0,0.6c0,0.3,0.1,0.8,0.1,1c0,0.1,0,0.2,0,0.3
						c0,1.2,0.3,2.8,0.3,4.2c-0.1,0.2-0.3,0.3-0.6,0.3c-0.3,0.1-0.8,0-1.2,0.1c-0.2,0-0.5,0.1-0.7,0.2c-0.9,0.1-1.7-0.1-2.4,0.3
						c-0.8-0.3-1.5,0.2-2.3,0c-0.1,0.1-0.5,0.2-0.5,0.5c0,0.2,0.5,0.2,0.6,0.6c0,0.1-0.2,0.1-0.2,0.2c0.1,0.2,0.3,0.1,0.6,0.1
						s0.6,0,0.8,0s0.6,0,0.7,0c0.2,0,0.3-0.3,0.6-0.3c0.2,0.1,0.5-0.1,0.7-0.1c0.1,0,0.2,0.1,0.3,0.1c0.1,0,0.3,0,0.5,0
						c0.8,0,1.7,0,2.6-0.1c0.7,0,1.2,0,1.8-0.1c0.2-0.6,0.2-1,0.1-1.7c0-0.5,0-0.8,0-1.2c0-0.6,0.1-1.2,0.1-1.8
						c0-0.5-0.2-0.9-0.1-1.1c0,0.2,0.1,0.5,0.2,0.7c0,0.2,0,0.6,0,0.8s0.1,0.5,0.1,0.8c0.1,0.7,0,1.8,0.2,2.5c0,0.3,0.2,0.6,0.1,0.8
						c-0.1,0.3-0.5,0.6-0.7,0.9c0.1,0.1,0.7,0.2,0.9,0.1c0.3,0,0.5-0.2,0.6-0.6C77.4,67.9,77.5,68,77.6,67.9z M77.2,32.4
						c0.1-0.7,0.2-1.4,0.1-1.9c-0.6,0.3-0.3,1.1-0.6,1.7c-0.5,0.1-1,0.3-1.4,0.3c-0.7,0.1-1.6-0.1-2.3,0c-0.5,0-0.8,0.3-1.1,0
						c1-0.3,2.4-0.2,3-0.9c-0.1-0.7,0.2-0.8,0.3-1.2c0.2-1-0.5-1.1-0.7-1.7c-0.1-0.3,0-0.7-0.2-0.9c0,0,0,0-0.1,0
						c-0.1,0.5,0,1-0.1,1.7c0,0.2-0.1,0.5-0.1,0.7c0,0.2,0,0.5,0,0.7c-0.1,0.3-0.6,0.5-0.9,0.7c-0.3,0-0.6,0.1-0.8,0.2
						c-0.3,0.1-0.7,0-1,0.1c-0.6,0.1-1.1,0.3-1.6,0.3c-0.2,0-0.3,0-0.6,0c-0.5,0-0.9,0.1-1.2,0c-0.6,0-0.7-0.6-1.4-0.6
						c0.1,0.3,0.5,0.3,0.6,0.6c-0.1,0-0.2,0-0.2,0.2c-0.5,0-0.6-0.2-1-0.2c0.1,0.3,0.6,0.3,1,0.3c0,0.1,0.1,0.2,0.2,0.3
						c-0.6,0-0.8,0.3-1,0.8c0.5,0.2,0.7-0.1,1-0.2c0.1,0,0.2,0,0.3,0.1c0,0,0.1-0.1,0.2-0.1c0.9-0.1,1.8,0,2.7,0.1
						c0.3,0,0.8-0.1,1.1-0.1c0.7,0,1.2,0.1,1.8-0.1c0.6,0,1.2,0.2,1.7,0.1c0.1,0,0.2-0.1,0.2-0.1c0.5,0,0.8,0.1,1.1-0.1
						C77,33.3,77.1,32.9,77.2,32.4z M76.3,17.3c0.1-0.3-0.3-0.2-0.5-0.3c0,0,0-0.1-0.1-0.1c-0.2-0.1-0.5,0-0.6,0.1
						c0,0.3-0.5,0.3-0.5,0.6c0,0,0.2,0.1,0.2,0.2c-0.2,0.5-1.1,0.5-1.5,0.7c-0.1,0.1-0.2,0.3-0.3,0.1c0-0.5,0.5-0.5,0.6-0.9
						c-0.6,0-0.9,0.7-1.5,0.7c-0.1,0.2-0.5,0.2-0.6,0.5c0.1,0.6,0.9,0,1.1,0.5c-0.1,0.2-0.2,0.3-0.5,0.5c-0.2-0.1-0.7-0.3-0.7,0.1
						c0.5,0.2,0.8,0.1,1.1,0.2c0.2,0.6,0.9,0.2,1.4,0.1c0-0.2-0.1-0.3-0.1-0.7c-0.1-0.1-0.2-0.1-0.2-0.2c-0.2-0.6,0.6-0.8,0.9-1
						c0.3-0.2,0.9-0.1,1.1-0.2c0-0.1,0.1-0.3,0-0.5s-0.3,0.1-0.5-0.2c0.1-0.1,0.2-0.2,0.3-0.2c0.1,0,0,0.1,0.1,0.1
						C76.1,17.4,76.2,17.4,76.3,17.3z M76.1,16.5c0.2,0,0.2-0.2,0-0.2C76.1,16.4,76.1,16.5,76.1,16.5z M75.2,18.4
						c0,0.2,0.2,0.1,0.1,0C75.3,18.4,75.3,18.4,75.2,18.4z M74.9,40.7c0.1-0.5,0.7-1.7,0.2-2c-0.3,0.1-0.6,0.5-0.8,0.7
						c-0.1-0.1-0.2,0-0.3-0.1c0-0.1,0-0.2,0.1-0.3c-0.1,0-0.3,0.2-0.5,0c0.1-0.6,0.1-0.9,0.2-1.5c0-0.1-0.2,0-0.2-0.1
						c0.3-0.2,0.3-0.8,0.5-1.2c0-0.3,0.3-0.7,0.1-0.9c-0.3-0.1-0.6,0.1-0.8-0.1c0-0.2-0.1-0.3-0.1-0.7c-0.1,0-0.2,0-0.3-0.1
						c0-0.3-0.2-0.2-0.2-0.5c-0.6,0-1.4,0.1-2.1,0.1c0,0.8,0.1,1.6,0.1,2.3c0.1,1.1,0,2.3,0.3,3.2c0.3,1.1,0.7,2,0.9,3.3
						c-0.3-0.1-0.3-0.5-0.6-0.7c-0.2,0.1-0.3,0.2-0.5,0.2c-0.1,0.3-0.5,0.7-0.3,1c-0.2,0.2-0.3,0.7-0.3,0.9
						c-0.3,1.4-0.5,3.2-0.2,4.2c0.1,0.7,0.5,1.4,0.7,1.9c0.1,0.3,0.2,0.7,0.3,1c0.1,0.3,0.3,0.7,0.5,0.9c0,0.1,0,0.2,0,0.3
						c0,0.2,0.1,0.5,0.1,0.7c0,0.2,0.1,0.6,0.1,0.8c0,0.3,0,0.8,0,1.2c0,0.1,0.1,0.2,0.1,0.3c0,0.3,0,0.7,0,1c0,0.1,0.1,0.2,0.1,0.3
						c0,0.3,0,0.6,0,0.9c0.1,0.9,0.3,1.7,0.3,2.6c0.2,0.5,0,1,0.1,1.5c0.1,0.6,0.2,0.9,0.1,1.4c-0.1,0.6-0.7,0.8-1.1,0.9
						c-0.7,0.2-1.4,0.3-2.1,0.2c-0.2,0.2-0.3,0.1-0.6,0.1c-0.3,0-0.9,0.2-1.4,0.2c-0.5,0-0.8,0-1.2,0.1c-0.1,0-0.2,0.1-0.3,0.1
						c-0.1,0-0.3-0.1-0.6-0.1c-0.3,0-0.6,0.1-0.8,0.1c0.1,0.3-0.1,0.7,0.1,0.9c1.1-0.1,2.5-0.2,3.7-0.2c0.2-0.2,1,0,1.1-0.6
						c1-0.2,2.3,0,3.4-0.5c0.1,0,0.1,0.1,0.2,0.1c0-0.3,0.2-0.6,0.3-0.9c0.1-0.7,0-1.7-0.1-2.3c0-0.6-0.2-1.1-0.2-1.6
						c0-0.8,0.1-1.5-0.2-2c0.2-1.5-0.5-2.8-0.3-4.2c0.2,0.3,0.1,1,0.6,1.1c0.2-0.7-0.2-1.4-0.5-2.1c-0.1-0.7-0.2-1.1-0.5-1.7
						c-0.1-0.5-0.2-1-0.3-1.5c-0.2-1.2,0-2.1,0.2-3.4c0.1-0.2,0.2-0.5,0.3-0.8c0.1-0.2,0.3-0.5,0.5-0.8c0-0.1,0-0.2,0.1-0.3
						c0.3-1.1,1.1-1.8,1.9-2.6C74.5,41.3,74.8,41.1,74.9,40.7z M75.3,14.8c0.1-0.6-0.6-1-0.7-1.7c0-0.1,0-0.2,0-0.3
						c0-0.2-0.3-0.8-0.5-0.9c-0.2,0.5,0.1,0.9,0.3,1.2C74.6,13.7,74.6,14.6,75.3,14.8C75.2,14.8,75.2,14.7,75.3,14.8z M74.6,20.6
						c0.2-0.2,0.6-0.3,0.6-0.8c-0.2-0.1-0.6-0.6-0.8-0.2c-0.1,0.2,0.1,0.3,0.1,0.5c-0.2,0.2-0.5,0.3-0.7,0.5
						c-0.1,1.5-0.5,2.6-1.2,3.6c-0.3,0.3-0.6,0.8-0.8,1.1c-0.3,0.3-0.8,0.7-1,1.1c-0.2,0-0.3,0.2-0.5,0.3c0,0.5-0.5,0.9-0.5,1.6
						c0,0.2,0.1,0.5,0.1,0.8c0,0.5,0,1.1,0,1.6c0,0,0.1,0.1,0.1,0.2c0.1,0.3,0,0.8,0.2,1.1c0.8-0.1,1.8-0.1,2.3-0.7
						c0-0.1,0-0.1,0-0.2c0.2-0.5,0.2-1,0.5-1.5c0.1,0.1,0,0.3,0.1,0.3c0.2,0,0.3,0,0.7-0.1c0.2-0.2,0.1-0.6,0.1-0.9
						c0-0.1,0.1-0.2,0.2-0.3c0.1-0.3,0-0.7,0-1c0-0.1,0.1-0.2,0.1-0.3c0-0.2-0.1-0.3,0-0.6c-0.2-0.5,0.2-0.9,0.2-1.4
						c0-0.1-0.1-0.3-0.1-0.6c0-0.1,0.1-0.3,0.1-0.6c0-0.2,0.2-0.5,0.2-0.6c0-0.1-0.2-0.2-0.3-0.3c-0.1-0.6,0.7-0.8,0.6-1.2
						c-0.5-0.1-0.3,0.6-0.9,0.5l-0.1-0.1C74.3,21.8,75.1,21.3,74.6,20.6z M74.4,15.6c0.1,0,0.1-0.1,0.2-0.1
						c-0.1-0.5-0.2-0.9-0.7-0.9C74,14.9,74.2,15.3,74.4,15.6z M74.3,16.1c0.1,0,0.2,0,0.2-0.1c0-0.1-0.1-0.1-0.2,0
						C74.3,16,74.3,16,74.3,16.1z M73.6,65.4c-0.1-0.1-0.7-0.1-0.7,0C73.1,65.6,73.6,65.6,73.6,65.4z M73.4,16.5
						c-0.5-0.2-0.6,0.2-0.5,0.6H73C73.3,17,73.3,16.8,73.4,16.5z M69.9,31.9c0.1-0.3,0-0.3,0-0.7c-0.6-0.2-0.8-0.5-1.4-0.6
						c-0.2,0.3-0.5,0.7-0.6,1C68.4,32.1,69.2,32.2,69.9,31.9z M69.7,30.5c0-0.6-0.1-1-0.1-1.7c-0.5,0.3-0.6,0.9-0.9,1.4
						C69.1,30.4,69.4,30.5,69.7,30.5z M68.5,25.8c0.1,0.3,0,0.8-0.1,1.1c0,0.3,0,0.6-0.1,0.7c0.1,0.1-0.1,0.6-0.1,0.6
						c0.5-0.7,0.8-1.6,0.8-2.6c-0.5-0.7-0.9-1.4-1.7-1.8C67.5,24.6,68.4,25,68.5,25.8z M66.8,29.3c0.1-0.1,0.2-0.3,0.1-0.6
						c-0.3-0.1-0.6-0.3-1-0.3c-0.1,0.1-0.1,0.3-0.2,0.5C65.9,29.2,66.5,29.2,66.8,29.3z M66.3,31c0.1-0.3,0.5-0.8,0.5-1.1
						c0-0.2-0.6-0.5-0.9-0.3c0.1,0.7-0.3,2,0.2,2C66.3,31.4,66.2,31.2,66.3,31z M65.6,33.7c0.7,0.1,1.1-0.6,0.5-0.6
						c-0.1,0.2-0.2,0.3-0.5,0.3C65.6,33.6,65.6,33.7,65.6,33.7z M65,32.7c0.3,0.1,1.1,0.3,1.1,0c-0.5-0.1-0.7-0.1-1.1-0.1
						C65,32.6,64.9,32.6,65,32.7z M65.8,34.4c-0.2-0.1-0.9,0-0.8,0.5c0,0,0.1,0.1,0.2,0C65.5,34.7,65.6,34.5,65.8,34.4z M65.2,37.3
						c0-0.7,0.2-1.2,0-1.9c-0.2-0.1-0.2-0.1-0.5,0c-0.1-0.1-0.1-0.3-0.3-0.5c0-0.5,0-0.9,0.1-1.2c-0.3,0-0.5-0.2-0.5-0.6
						c0.2-0.2,0.3-0.6,0.1-1c0.2-0.2,0.6-0.2,0.9-0.2c0.2-0.3,0.1-0.7,0.1-1c0-0.5,0.1-1.1,0-1.5c-0.1-0.3-0.3-0.3-0.5-0.6
						c-0.1-0.1-0.1-0.2-0.2-0.3c-0.2-0.2-0.5-0.3-0.7-0.5c-0.6,0.3-1-0.2-1.5-0.1l-0.1,0.1c0,0.1,0,0.2-0.1,0.3
						c-0.2,0-0.2-0.2-0.3-0.2c-0.5-0.2-1.1-0.2-1.5-0.2c-0.8,0-1.7,0-2.4,0c-2.3,0-5.9-0.1-8.9-0.2c-2.5-0.1-4.8,0-7.3,0
						c-1.7,0-3.8-0.1-5.5,0c-0.1-0.5-0.6-0.1-0.8,0c-0.3-0.1-1.5-0.2-1.8,0s-0.1,0.9-0.2,1.4c0,0.1-0.1,0.2-0.1,0.3
						c-0.1,0.6,0,1.1-0.1,2c0.2,0.2,0.5,0.3,0.7,0.6c0.1,0.3,0.2,0.6,0.1,0.9c0,0.2-0.2,0.6-0.2,0.7c0,0.1,0.2,0.3,0.2,0.5
						c0,0.2-0.2,0.3-0.2,0.7c-0.1,0.1-0.5,0.1-0.6,0.2V35h-0.1C33,35.1,33,35.7,33,35.9c-0.1,0.6,0,1.4-0.1,2
						c-0.2,1.7-0.2,3.6-0.1,5.3c0.2,3.4,0.7,6.3,2,8.9c0.3,0.2,0.8-0.1,1.1-0.3c0.5-0.2,1-0.6,1.6-0.7c0.5-0.1,1.2,0,1.4-0.2
						c0.1-0.1,0.1-0.3,0.1-0.6c0.1-0.5,0.2-0.9,0.3-1.5c0.1-0.2,0.1-0.6,0.2-0.8c0-0.1,0.2-0.3,0.2-0.5c0.1-0.3,0.1-0.7,0.3-1
						c0.5-1.1,0.9-2.1,1.4-3.3c0.5-0.9,0.7-2,1-2.9c0.5-1.2,0.8-2.3,1.2-3.5c0.2-0.8,0.7-1.7,0.7-2.5c0-0.3-0.2-0.8-0.6-0.9
						c-0.1,0-0.3,0.1-0.5,0.2c-0.7,0.1-1.4-0.2-2.1-0.1c-0.3,0.1-1,0.3-1.4,0.2c0.1-0.6,0.7-0.6,1-0.9c0.1-0.3,0.5-0.5,0.7-0.7
						c0.3-0.3,0.6-0.8,0.9-1.1c0.3-0.2,0.8-0.5,1.2-0.6c0.3,0,0.9,0.1,1.1,0.2c0.3,0.1,0.6,0.6,0.7,0.8c1.1,2.8-0.6,5.9-1.1,8.6
						c-0.1,0-0.1,0.2-0.1,0.2c0,0.2-0.1,0.3-0.1,0.5c-0.2,0.7-0.3,1.5-0.6,2.3c-0.2,0.8-0.6,1.9-0.7,2.6c-0.2,0.9-0.3,1.8-0.5,2.5
						c0,0.3-0.1,0.8-0.1,1c0.1,0.3,0.5,0.8,0.8,0.9c0.5,0.1,0.9-0.3,1.4-0.5c1.1-1,2.3-2,3-3.3c0.5-0.3,0.8-0.8,1.2-1.1
						c0.6-0.5,1.1-0.8,1.8-1c0.2-0.1,0.3-0.1,0.6-0.2c0.3-0.2,0.7-0.6,1-0.8c0.3,0.1,0.3,0.7,0.7,0.8c0.6,0.1,0.9-0.9,1.2-1
						c0.5,0.1,0.6,0.7,0.8,0.9c0.3-0.1,0.3-0.3,0.7-0.5c0.2,0.3,0.5,0.7,0.6,1.1c0,0.2,0,0.5,0.2,0.6c0.3,0,0.3-0.3,0.6-0.3
						c0.1,0.5,0.5,0.9,0.2,1.5c0.2,0,0.5,0.2,0.8,0.2s0.5-0.3,0.7-0.5c0.3,0.2,0.3,0.7,0.7,0.9c0.1-0.1,0.2-0.3,0.3-0.3
						c0.3,0.2,0.3,0.7,0.7,1c0.2,0.1,0.2-0.2,0.5-0.2c0.1,0.7,0.9,0.3,1.2,0.3c0.3,0.9-0.1,1.8-0.8,2.3c0,0.5-0.1,0.7-0.1,1
						c-0.1,0.2-0.3,0.3-0.3,0.6c0.5,0.2,1.2,0.3,1.8,0.6c0.2,0.1,0.6,0.6,0.9,0.5c0.2,0,0.2-0.5,0.3-0.8s0.2-0.6,0.3-0.8
						c0.1-0.5,0.1-1,0.2-1.5c0.2-0.9,0.5-1.9,0.6-2.7c0.1-0.5,0.1-0.9,0.1-1.4c0-0.6,0.2-1.1,0.3-1.8c0.1-0.6,0-1.1,0-1.7
						c0.1-1.2,0.1-2.4,0.2-3.5C65.3,38,65.2,37.6,65.2,37.3z M64.6,27.9c0-0.1,0.1-0.1,0.1-0.3C64.4,27.3,64,27.8,64.6,27.9z
						 M59.7,52c0.6-0.1,1.7,0.5,2.3,0.2c-0.5-0.3-1-0.2-1.5-0.6c-0.5,0-0.8,0.2-1.2,0.2c-0.3,0.1-0.7,0-1,0.1
						c-0.2,0-0.3,0.2-0.7,0.2c0,0-0.1-0.1-0.2,0c-0.6,0.1-1.2,0.3-1.7,0.5c-0.8,0-1.7-0.2-1.9,0.1c1.6,0.5,3.4,0,4.8-0.3
						c0.2-0.1,0.5-0.1,0.7-0.2C59.4,52.1,59.5,52,59.7,52z M61,57.7c0.2-0.3,0.7-1,0.6-1.4c-0.1-0.2-0.7-0.3-0.9-0.5
						c-0.5-0.2-0.8-0.2-1.1-0.3c-1.2-0.3-1.7-0.5-2.9-0.3c-0.5,0.1-0.9,0.2-1.4,0.3c-0.2,0-0.5,0-0.8,0s-0.8,0.1-1.1,0.1
						s-0.8-0.1-1-0.2c-0.5-0.1-0.8-0.2-1.2-0.3c-1-0.1-2-0.2-2.9-0.1c-1.8,0.2-3.6,0.9-5.4,0.5c-0.5-0.1-0.7,0-1-0.1
						c-1-0.2-2-0.6-3.2-0.5c-0.3,0.1-1.8,0.1-1.9,0.7c0,0.2,0.3,0.8,0.5,1.1c0.1,0.2,0.5,0.5,0.6,0.7c0.2,0.3,0.3,0.8,0.7,0.9
						c0.6-0.2,1-0.5,1.7-0.5c1.1,0,2.4,0.7,3.5,0.8c1,0.1,1.9-0.3,2.6-0.5c1.7-0.5,3.4-0.5,5.3,0c0.9,0.2,1.4,0.5,2.1,0.3
						c0.2,0,0.6,0,0.9,0c0.5-0.1,1-0.3,1.5-0.3c0.8-0.1,2.4-0.2,3.2,0.1c0.3,0.1,0.9,0.7,1.2,0.6c0.1,0,0.3-0.3,0.5-0.6
						C60.8,58,60.9,57.8,61,57.7z M60.8,48.7c0.1-0.2,0.2-0.5,0.5-0.6c-0.2-0.1-0.7,0.3-0.7,0.6C60.8,48.7,60.6,48.7,60.8,48.7z
						 M60.8,49.2c0,0,0-0.1-0.1-0.1c-0.2,0.3-0.3,0.7-0.6,1C60.4,50,60.6,49.6,60.8,49.2z M59.5,49c0.2,0,0.8-0.7,0.7-0.9
						c0-0.1-0.1-0.1-0.2-0.2C59.9,48.2,59.5,48.7,59.5,49z M59.4,47.5c-0.7-0.2-0.2,0.8-0.5,1.1C59.4,48.5,59.3,48,59.4,47.5z
						 M57.9,50.5c0.2-0.3,0.6-0.8,0.5-1.1c-0.1,0-0.1,0.1-0.2,0.1C58.1,49.9,57.9,50.1,57.9,50.5z M57.7,47.8
						c0.3,0.1,0.6-0.6,0.3-0.8C57.5,46.9,57.7,47.5,57.7,47.8z M57.7,49.2c-0.1-0.3-0.5-0.1-0.5,0.2c-0.1,0-0.1-0.1-0.2,0
						c-0.2,0.6,0.7,0.6,0.5,0C57.4,49.2,57.6,49.3,57.7,49.2z M57.5,52c0.6-0.9-1.1-1.4-1.4-0.6c0.1,0.1,0.5,0,0.6,0.1
						c0.1,0.1,0,0.3,0.1,0.6C56.8,52.3,57.3,52.1,57.5,52z M56.9,48c0.3-0.2,0.6-0.8,0-1C56.9,47.4,56.8,47.8,56.9,48z M57.2,50.3
						c-0.1-0.2-0.5-0.2-0.7-0.3c-0.2,0-0.5,0-0.7,0c0,0-0.1,0-0.2,0c-0.5,0.3-0.9,0-1.2,0c-0.8-0.1-1,0.5-1.6,0.7
						c-0.2,0-0.7,0.1-0.9,0.1c-0.1,0-0.3-0.2-0.6-0.1c0-0.1-0.5,0-0.3,0.1c0.5,0.3,1.2,0.3,1.8,0.1c0.3,0.2,0.6,0.2,1,0.3
						c0-0.2-0.3-0.3-0.1-0.6c0.3,0.2,0.9,0.3,1.2,0.3c-0.1-0.3-0.5-0.2-0.5-0.6C55.2,50.7,56.4,50.8,57.2,50.3z M55.8,48.2
						c0.6,0.3,0.6-1.1,0.1-0.8C55.8,47.6,55.8,48,55.8,48.2z M54.8,47.1c0.7,0.1,0.7-0.8,0.1-0.8C54.9,46.4,54.8,46.7,54.8,47.1z
						 M55.1,44.6c-0.3-0.3-1,0.5-0.7,0.8C54.8,45.5,55,45.1,55.1,44.6z M54.9,48.1c0.2-0.2-0.1-0.8-0.5-0.7
						C54.7,47.5,54.6,48,54.9,48.1z M54,44.5c0.2-0.1,0.2-0.6,0.1-0.8C53.8,43.6,53.7,44.3,54,44.5z M54,46.1c0.1,0,0.2,0,0.3,0
						c0-0.6-0.3-0.7-0.1-1.2c-0.7,0-1.1,0.6-1.8,0.7c-0.2,0-0.6,0-0.8,0c-0.3,0.2-0.9,0.1-1.1,0.5c-1,0.5-1.7,1.2-2.5,2
						c-0.7,0.6-1.5,1.1-2,1.9c0.3,0.1,0.7,0,0.9-0.1c0.2-0.3,0.3-0.7,0.6-0.9c0.1-0.1,0.3,0,0.6-0.2c0-0.1,0-0.2,0-0.3
						c0.3,0,0.5-0.1,0.6-0.3c0,0-0.1-0.1-0.1-0.2c0.1-0.1,0.2,0,0.3,0c0.1-0.1,0.1-0.3,0.3-0.5c0.1,0.1,0.2,0.3,0.3,0.2
						c0.3,0,0-0.5,0-0.7c0.3,0.1,0.6-0.2,0.8-0.2c0.1,0,0.1,0.2,0.3,0.2l0.1-0.1c0-0.2-0.2-0.3-0.2-0.6c0.2-0.1,0.3-0.2,0.6-0.2
						c0,0,0,0.1,0.1,0.2c0.1,0,0.2,0,0.2,0c0.2,0.1,0.2,0.3,0.3,0.3c0.2,0,0.2-0.2,0.2-0.5c0-0.1-0.1-0.1-0.2-0.2
						c0.5-0.1,0.9-0.1,1.1,0.3c0.2,0,0.2-0.1,0.3-0.2c0-0.2-0.2-0.2-0.2-0.5c0.1,0,0.3,0,0.5,0c0.2,0,0.2-0.5,0.5-0.5l0,0
						c0,0.1-0.2,0.2-0.2,0.3C53.9,45.6,53.8,46,54,46.1z M53.7,47.3c0.8,0.2,0.3-1.4-0.2-0.8C53.7,46.7,53.6,47,53.7,47.3z
						 M53.7,48.4c0.3-0.2,0-0.9-0.3-0.9C53.4,47.9,53.4,48.2,53.7,48.4z M52.5,47.6c0.6,0.1,0.6-1,0-0.9
						C52.4,47,52.5,47.4,52.5,47.6z M52.4,48.4c0.2-0.2-0.1-0.7-0.3-0.5C52.2,48.2,52.3,48.3,52.4,48.4z M52.3,44.2
						C52.2,44.2,52.2,44.2,52.3,44.2c-0.1,0.2-0.3,0.5-0.2,0.7C52.3,44.8,52.2,44.5,52.3,44.2z M50.5,52.1c0.2,0.2,0.8,0.2,1.2,0.2
						c-0.1-0.1-0.3-0.2-0.6-0.3c-0.3-0.1-0.7-0.2-0.9-0.2c-1.1-0.6-2.3-0.2-3.6,0c-0.5,0-0.9,0.2-1.2,0.3c-0.2,0-0.3,0-0.6,0
						c-1,0-1.8-0.1-2.7-0.2c-0.3,0-0.6-0.2-0.9-0.2c-0.6-0.1-1-0.1-1.4-0.1s-0.6,0.1-0.8,0.3c0.8,0.1,1.5,0.1,2.1,0.3
						c1,0.2,1.9,0.7,2.9,0.6C46.4,52.7,48.3,51.7,50.5,52.1z M51.5,48c0.6,0,0.2-1.1-0.2-1c0,0,0,0,0,0.1
						C51.5,47.4,51.4,47.6,51.5,48z M50.7,45.3c0.2-0.1,0.6-0.6,0.3-0.9c0,0,0,0-0.1,0C51.1,44.8,50.7,44.9,50.7,45.3z M50.3,48.3
						c0.5,0,0.5-0.5,0.2-0.7C50.1,47.5,50.2,48.1,50.3,48.3z M50.3,45.3c0.2-0.5-0.3-0.3-0.5,0C50,45.4,50.2,45.4,50.3,45.3z
						 M50.2,49.2c0.5-0.1,0.2-0.7-0.1-0.6C50.1,48.9,50.1,49,50.2,49.2z M49.3,48.3c-0.2,0.2,0.1,0.7,0.3,0.3
						C49.6,48.4,49.5,48.3,49.3,48.3z M49.3,49.9c0.3-0.3,0-0.7,0-1c-0.1-0.1-0.3-0.1-0.5-0.2c0,0.1,0,0.6,0.1,0.6s0-0.2,0.1-0.2
						C49.2,49.2,49.1,49.7,49.3,49.9z M49.2,46c-0.1-0.1,0-0.3-0.1-0.3c-0.1,0.1-0.3,0.5-0.1,0.6C49.1,46.1,49.1,46,49.2,46z
						 M47.9,46.6c0.5,0.1,0.5-0.3,0.2-0.6c-0.1,0,0,0.1,0,0.2c-0.1,0-0.2,0.1-0.2,0.2C47.9,46.5,47.9,46.5,47.9,46.6z M47.7,47.5
						c-0.1-0.1,0-0.1,0-0.2c-0.1,0,0-0.2-0.2-0.2c0,0.1-0.1,0.3-0.2,0.5c0.1,0,0,0.2,0.2,0.2C47.6,47.6,47.7,47.5,47.7,47.5z
						 M46.7,48.1c0,0.2,0.3,0.3,0.3,0L46.9,48C46.9,48,46.8,48,46.7,48.1z M43.3,32.4c0.1-0.1,0.2-0.2,0.2-0.5c0-0.5-0.9-0.6-0.8,0
						c0,0.1,0.1,0.2,0.2,0.3C43.1,32.4,43.2,32.4,43.3,32.4z M41.2,33.7c0.2,0,0.3-0.3,0.2-0.6c-0.2,0.1-0.3,0.2-0.3,0.6
						C41.1,33.6,41.2,33.6,41.2,33.7z M38.7,51.6c0.1-0.1,0.2,0,0.2-0.1c-0.9-0.1-1.5,0.1-2.3,0.5c0.3,0.2,0.9,0,1.4-0.2
						C38.1,51.8,38.5,51.7,38.7,51.6z M34.9,27.5c0-0.2,0.1-0.2,0.1-0.5c-0.1,0-0.1-0.1-0.1-0.1c-0.3,0.3-0.7-0.1-0.8,0.3
						C34.4,27.3,34.5,27.5,34.9,27.5z M33.6,33c0.1,0,0.1-0.1,0.1-0.1c0-0.2-0.2-0.3-0.5-0.3C33.3,32.7,33.4,33,33.6,33z M33.4,65.2
						c0-0.1,0-0.2,0-0.3c-0.5-0.5-0.9-0.5-1.5-0.5c-0.3,0-0.7-0.1-1-0.2c-1.4-0.2-2.7-0.3-3.9-0.6c-0.3,0-0.7-0.2-1-0.3
						c-0.5-0.3-0.6-0.7-0.6-1.5c0.1-0.7,0.2-1.4,0.2-1.8c0-0.2,0-0.5,0-0.7c0.1-0.8,0.2-1.6,0.3-2.3c0-0.2,0.1-0.5,0.1-0.7
						c0-0.3-0.1-0.6,0-0.8c0.1-1,0.2-1.9,0.2-2.9c0-0.1,0.1-0.1,0.1-0.2c0.1-0.6,0.2-0.9,0.3-1.4c0.6-1.4,1.1-2.7,1.2-4.3
						c0-0.7,0-1.1,0-1.6c0-0.5-0.1-0.8-0.1-1.2c0-0.1,0.1-0.3,0-0.5c0-0.1-0.1-0.2-0.1-0.3c-0.1-0.6-0.2-1-0.6-1.4
						c0.1-0.2,0-0.3-0.1-0.5c-0.2,0.2,0,0.7-0.5,0.7c0-0.3,0-0.8,0-1.2c0.1-1.4,0.5-2.6,0.6-3.9c0.1-0.5,0.1-0.9,0.2-1.4
						c0.1-0.8,0.5-1.9-0.1-2.5c-0.8-0.3-0.6,0.6-0.7,0.9c-0.1,0.2-0.2,0.1-0.3,0.3c-0.1,0.5,0,1,0,1.4s-0.2,0.5-0.3,0.7
						c-0.1,0.5-0.3,0.9-0.7,1.2c-0.2,0-0.3,0-0.6,0.1c0,0.3,0.1,0.6,0,0.9c-0.2-0.1-0.2-0.3-0.5-0.3c-0.3,0-0.5,0.6-0.6,1
						c0.1,0.1,0.1,0.2,0.1,0.3c0.1,0.2,0.5,0.2,0.6,0.5c0.3,0.5,0.2,1.1-0.2,1.5c-0.2-0.1-0.3-0.2-0.5-0.3c-0.3-0.1-0.7-0.1-0.9-0.2
						c-0.1,0-0.2-0.2-0.3-0.2c-0.2-0.1-0.5-0.1-0.7-0.2c-0.2,0.2-0.7-0.1-0.8,0.2c0.8,0.6,1.9,0.3,2.5,0.9c0.3,0.3,0.7,0.8,1,1.2
						c0.5,0.8,0.9,1.7,1.1,2.7c-0.1,0.3,0,0.6,0,0.9s0,0.7,0,1c-0.1,1.9-0.6,3.8-0.9,5.6c-0.1,0.5-0.1,0.9-0.1,1.2
						c0,0.2-0.1,0.6-0.2,0.8c-0.1,0.7-0.1,1.4-0.1,2.1c0,0.3,0,0.6,0.1,0.8c-0.1,0.3,0,0.8,0,1.2c0,0.2-0.1,0.5-0.1,0.7
						c-0.2,1.4-0.1,2.7-0.1,3.9c0.5,0.2,1.1,0.1,1.7,0.1c0.7,0,1.2,0,1.7,0.1c0,0,0.3-0.1,0.2,0.1c-0.1,0.1-0.5,0-0.5,0.2
						c-0.6,0-1.8-0.3-2.3,0.1c0.1,0.1,0.3,0,0.5,0c1.1,0,2,0.3,3.2,0.2c0.3,0,0.6-0.1,0.9,0c0.8,0,1.5,0.2,2.3,0.3
						C32.6,65.3,33.1,65.4,33.4,65.2z M33.3,32.6c0-0.1,0-0.1,0-0.2c-0.2-0.1-0.8-0.3-0.8,0c-0.1-0.2-0.7,0.2-0.8-0.1
						c0-0.1,0.2,0,0.2-0.2c-0.1-0.2-0.3-0.1-0.6-0.2c0-0.1,0.3,0,0.3-0.1c0.1-0.1-0.1-0.1-0.1-0.2c0.1-0.1,0.2-0.1,0.2-0.2
						c-0.2,0-0.6-0.1-0.7,0.1c-0.6,0-1,0.8-1.6,0.3c-0.2-0.1-0.6,0.1-0.9,0.1c-0.2,0-0.5-0.3-0.7-0.1c-0.1,0-0.2-0.2-0.3-0.2
						c-0.1,0.1-0.3,0-0.5-0.1c-0.2,0-0.6-0.1-0.8-0.1c-0.1,0-0.1-0.1-0.2-0.1c-0.1,0-0.2,0-0.3,0c-0.2,0-0.3-0.2-0.6-0.3
						c-0.3-0.1-0.8,0-1-0.1l-0.1-0.1c-0.1,0-0.3,0-0.3-0.1c0-0.5-0.1-1.1,0.2-1.6c0.2,0.2,0,0.6,0,0.8c0.1,0.7,1.1,0.9,1.7,0.9
						c0.2-0.6,0.1-0.9,0.2-1.5c0.3,0.3,0.2,1,0.9,1c0.2,0.5,0.5,0.8,0.9,1c0.2-0.2,0.1-0.7,0.1-1c0.1-0.8,0.2-1.7,0-2.4
						c0.2-0.9-0.6-1.6-0.5-2.5C27.2,25.1,27.1,25,27,25c0-0.3-0.3-0.6-0.5-0.8c-0.6-0.5-1-1.2-1.5-2v-0.1c-0.1-0.5-0.2-0.9-0.3-1.2
						c0-0.1-0.1-0.5-0.3-0.5c-0.3,0.3-0.1,0.8,0,1.2c0,0.1,0,0.2,0,0.3c0,0.5,0.2,0.8,0.2,1.4c0,0.2-0.2,0.2-0.2,0.5
						c0,0.3,0.3,0.8,0.3,1.1c0,0.2-0.1,0.3-0.1,0.5c0,0.2,0.2,0.5,0,0.6c-0.3-0.2-0.2-0.7-0.3-1.1c-0.3,0-0.3-0.3-0.7-0.6
						c-0.1,0.1-0.1,0.5-0.1,0.6c0.1,0.6,0.3,1,0.7,1.5c0,0.1-0.1,0.1-0.1,0.3c0.2,0.5,0.6,0.9,0.6,1.6c-0.2,0-0.1-0.5-0.3-0.6
						c-0.1,0-0.2,0-0.2,0c-0.1,0.6-0.2,1.2-0.5,1.6c-0.2,0.3-0.8,0-1.1,0.3c0,0.9,0.5,1.8,1.5,1.9c0.2,0,0.5,0,0.7,0.1
						c0.8,0.1,1.5,0.1,2.4,0.3c0,0,0.7,0.1,0.8,0.2c0,0.1-0.5,0.2-0.6,0.2C26.6,32.4,26,32,25.4,32c-0.3,0-0.6,0.1-0.8,0.1
						c-0.6,0-0.9,0-1.2,0.2c-0.2-0.1-0.3,0-0.7-0.1c-0.3-0.1-0.3-0.7-0.9-0.6c-0.1,0.2,0,0.7-0.1,0.9c0.2,0.2,0.7-0.1,0.8,0l0,0l0,0
						l0,0l0,0l0,0c0.3-0.1,0.8,0,1.1,0c0.9,0.1,1.8-0.1,2.6-0.1c0.3,0,0.8,0.1,1.1,0.2c0.5,0,1-0.1,1.5-0.1c1,0,1.7,0.3,2.7,0.2
						c0.1,0,0.1,0.1,0.2,0.1c0.3-0.1,0.6,0,0.8,0.2c0.3,0,0.5,0.2,0.8,0.3c0-0.3-0.5-0.5-0.3-0.9c0.1,0,0.2,0,0.2-0.1
						c0-0.1-0.1,0-0.1-0.2C33,32.4,33,32.6,33.3,32.6z M32,29c0.5-0.2,1-0.5,0.8-1c-0.5,0.1-1,0.5-1.6,0.7c0,0.2,0,0.6,0.3,0.6
						C31.6,29.2,31.7,29.1,32,29z M32.3,30.8c0.5,0,0.5-1.1,0.2-1.5c-0.3,0-0.7,0.2-0.9,0.3C31.6,30.1,32,30.8,32.3,30.8z
						 M32.1,67.2c-0.1-0.1-0.3,0-0.3,0.1c0,0.1,0,0.1,0,0.1C32,67.4,32.1,67.3,32.1,67.2z M30.9,68.1c0.3,0,1.1,0.3,1.4-0.1
						c-0.8,0-1.5-0.2-2-0.1C30.2,68.1,30.6,68,30.9,68.1z M30.5,67.6c0.1-0.6-0.3-0.9-0.9-0.9c-0.2-0.1-0.8-0.1-1.1-0.2
						c-1.1-0.1-2-0.1-2.9-0.2c-0.9-0.1-1.8-0.3-2.6-0.7c-0.2,0.1-0.2,0.3-0.5,0.3c-0.7,0-0.2-1.5,0.1-1.7c0.1,0,0.1,0.3,0.2,0.2
						c0.1-0.3,0.2-0.6,0.5-0.7c-0.2-0.3-0.1-0.9-0.1-1.6c0.1-1.7,0.5-3.5,0.7-5.5c0.1-0.8,0.3-1.7,0.3-2.5c0.1-0.3,0-0.8,0.1-1.2
						c0-0.3,0.2-0.8,0.3-1.2c0-0.2,0-0.3,0.1-0.6c0-0.2,0.2-0.5,0.2-0.6c0.1-0.5,0.1-0.8,0.2-1.1c0.1-0.3,0.2-0.7,0.2-1
						c0-0.7,0-1.4-0.1-2c0-0.2,0-0.6-0.1-0.8c-0.1-0.3-0.3-0.7-0.6-1.1c-0.2-0.7-0.6-1.7-1.1-2.1c-0.2-0.1-0.8-0.5-0.9-0.2
						c0,0,0,0,0,0.1c0.7,0.6,1.5,1.4,1.8,2.4c0,0,0,0.2,0.1,0.2c0.1,0.8,0.1,1.7,0.1,2.5l-0.1,0.3c-0.1,0.5-0.1,0.6-0.2,0.8
						c-0.1,0.3-0.1,0.6-0.2,0.9c0.3,0,0.3-0.5,0.6-0.7c0,0.1,0.1,0.1,0.2,0.3c-0.1,0.7-0.2,1.1-0.3,1.8c-0.1,0.3-0.1,0.8-0.3,1
						c-0.1,0.3-0.5,0.7-0.5,1.1c0,0.2,0.1,0.3,0.1,0.6c0,0.5-0.2,1.1-0.3,1.6c-0.1,0.5-0.6,0.9-0.7,1.2s0,0.6-0.1,0.8
						c-0.1,0.3-0.5,0.6-0.6,0.9c-0.2,0.6-0.1,1.4-0.2,2c0,0.1-0.1,0.2-0.1,0.3c0,0.2,0,0.5,0,0.7c0,0.3-0.1,0.6-0.1,0.9
						c0,0.2,0,0.6-0.1,0.8c-0.1,1-0.3,1.9-0.2,2.8c0.1,0.6,0.8,1.1,0,1.4c-0.6-0.7,0-2.3-0.3-3.2c-0.2,0.3-0.2,0.8-0.3,1.2
						c0,0.5,0,0.9-0.3,1.1c-0.1-0.3,0-0.6,0.1-0.8c0.1-0.3,0-0.8,0.1-1.2c0-0.5,0.1-0.8,0.1-1.2c0-0.6,0.3-1,0.2-1.5
						c-0.3,0.2-0.3,0.8-0.3,1.1c-0.1,1-0.3,2-0.3,2.8c0,0.5-0.5,1.1-0.3,1.6c0,0.3,0.3,0.6,0.6,0.8c0.9-0.5,1.8,0.2,2.9,0
						c0-0.2-0.2-0.1-0.2-0.3c0.6-0.1,1-0.1,1.6,0c0.7,0,1.4,0,2.1,0c0.2,0,0.5,0.1,0.6,0.1s0.3,0,0.5,0c0,0,0.1,0,0.2,0
						c0.3,0,0.6,0,0.9,0C29.4,67.4,30,67.7,30.5,67.6z M30.2,31.2c0-0.2-0.3-0.6-0.6-0.5s-0.8,0.3-0.8,0.6
						C29.1,31.4,29.8,31.4,30.2,31.2z M29.4,30.3c0.1-0.7-0.6-1.1-0.7-1.7c0,0.8-0.1,1.4-0.1,1.9C28.8,30.6,29,30.4,29.4,30.3z
						 M26.6,19.4c0-0.1,0.2-0.1,0.2-0.2c0-0.2-0.3-0.2-0.6-0.1C26.2,19.3,26.4,19.3,26.6,19.4z M26.1,18.4c0.1-0.1,0.3,0,0.3-0.1
						c-0.1-0.6-0.6-0.7-0.9-1.1c0,0,0,0-0.1,0c-0.2,0.5,0.3,0.7,0.5,1c-0.1,0-0.2,0.1-0.3,0.1c-0.3-0.2-0.6-0.7-0.9-0.8
						c0,0.2,0,0.3,0,0.7c0,0.2,0.3,0.3,0.3,0.6c0,0.1,0,0.2,0,0.2c0.1,0.2,0.3,0.3,0.6,0.5c0.1-0.1,0.1-0.3,0.1-0.5
						c0.2,0,0.5,0,0.5-0.2C26.2,18.5,26.1,18.5,26.1,18.4z M25.4,16.1c0-0.2,0-0.2,0.1-0.2c-0.2,0-0.5-0.7-0.7-0.2
						C25.1,15.8,25.1,16.1,25.4,16.1z M24.6,19.2c-0.7,0.2,0.7,1.1,0.9,0.5C25.4,19.6,25,19.1,24.6,19.2z M24.7,17.3L24.7,17.3
						c0-0.1-0.1-0.1-0.1,0c0,0,0,0,0,0.1C24.7,17.3,24.7,17.4,24.7,17.3z M24.3,11.7c0,0,0-0.1-0.1-0.1c-0.2,0.2-0.3,0.8-0.5,1.1
						c-0.3,0.3-0.9,1.2-0.3,1.6c0.2-0.1,0.1-0.6,0.1-0.8c0.1-0.2,0.3-0.3,0.3-0.7C24.3,12.8,24.2,12.2,24.3,11.7z M23.7,17
						c0,0,0-0.1,0.1-0.1c-0.2-0.6-1.4-0.6-1.7-0.1c0.1,0.1,0.2,0.3,0.3,0.5c0.3,0,0.8,0.1,1,0c-0.3-0.2-0.8-0.2-1.1-0.5
						c0.2-0.1,0.6-0.1,0.8-0.1c0,0.1,0,0.3,0.2,0.3c0.1-0.1-0.1-0.1,0-0.2C23.6,16.9,23.5,17,23.7,17z M22.8,19.7
						c0.1,0,0.3,0.1,0.5,0c-0.1-0.1-0.8-0.5-0.8,0c0,0.1,0.1,0.5,0.3,0.6C22.9,20.1,22.8,19.8,22.8,19.7z M22.8,54.5
						c0-0.2-0.5-0.3-0.3-0.7c-0.3-0.3-1-0.2-1.4,0c0.2,0.6,0.6,1.1,0.5,1.8c-0.1,0.3-0.2,0.7-0.2,0.9s0,0.5,0,0.7
						c0,0.3-0.2,0.7-0.1,1c0.2,0,0.2-0.3,0.2-0.5c0.1-0.8,0.3-1.4,0.5-2.3C22.2,55.4,22.8,54.7,22.8,54.5z M22.2,56.5
						c0.5,0,0.5-0.6,0.1-0.6C22.2,56.1,22.2,56.3,22.2,56.5z M21.7,17.9c-0.1,0.5,0.3,0.9,0.7,0.9c-0.1-0.3-0.3-0.6-0.5-0.9
						C21.8,17.9,21.8,17.9,21.7,17.9z M22.5,20.3c0-0.5-0.1-0.8-0.3-1.1H22c0,0,0,0,0,0.1C22,19.7,22,20.3,22.5,20.3z M21.6,14.6
						c0.2-0.5-0.1-0.9-0.3-1.4c-0.2-0.3-0.3-0.7-0.5-0.9c-0.2-0.3-0.7-0.8-0.9-0.2c-0.2,0.7-0.3,1.7,0.2,1.8c0-0.3,0-0.7,0.3-1
						c0.3,0.1,0.5,0.6,0.3,0.9C21.3,14,21.3,14.4,21.6,14.6z M21.8,52.7c-0.1-0.2-0.6,0-0.8,0c-0.1-0.1-0.1-0.2-0.2-0.3
						c-0.2-0.3-0.9-0.3-1.1-0.1c0.1,0.3,0.5,0.3,0.7,0.6c0.2,0.2,0.3,0.7,0.8,0.8C21.3,53.3,21.6,53,21.8,52.7z M21,31.7
						c0.3-0.1,0.1-0.8-0.1-1c0,0,0,0-0.1,0C20.7,30.9,20.9,31.3,21,31.7z M20.6,60.4c0.2-1.8,0.8-3.4,0.5-5.2c0-0.3-0.3-0.7-0.2-1
						c-0.2-0.7-1-0.5-1.2,0c-0.5,1.4-0.9,2.8-0.9,4.1c-0.1,2.5-0.6,4.7-1,6.9c0.8,0.1,1.6-0.1,2.4-0.1c0.2-0.3,0.2-0.7,0.2-1.1
						C20.2,62.5,20.4,61.6,20.6,60.4z M21,16c-0.1-0.2-0.3-0.5-0.5-0.5c-0.1,0.5-0.2,0.9,0,1.2C20.7,16.6,20.8,16.1,21,16z
						 M18.4,66.9c0.7-0.1,1.4,0,1.2-1c-0.6-0.2-1.4,0.1-2.1,0c-0.2,0.2-0.5,0.1-0.7,0.3c-0.1,0.1-0.1,0.2-0.2,0.3
						c-0.1,0.1-0.3,0.2-0.3,0.5C17.1,67.1,18.1,66.8,18.4,66.9z M19.5,51.4c0-0.1,0-0.1,0-0.2c-0.2-0.1-0.6-0.1-0.8,0
						C18.9,51.2,19,51.4,19.5,51.4z M18.9,54.7c0.1-0.5,0.2-0.8,0.2-1.2c-0.2,0.3-0.3,0.8-0.6,1.2c-0.2,0.5-0.2,1-0.3,1.5
						c-0.1,0.5-0.3,0.9-0.5,1.4c-0.1,0.6-0.1,1-0.2,1.6c-0.1,0.8-0.1,1.5-0.2,2.4c0,0.2-0.1,0.3-0.1,0.5c0,0.1,0,0.5-0.2,0.5
						c-0.1-1.5,0.3-3,0.6-4.6c0-0.5,0-0.8,0.1-1.2c0.1-0.7,0.5-1.2,0.3-1.8c0-0.1-0.1-0.3-0.1-0.5c0-0.2,0-0.6,0.1-0.8
						c0-0.2,0.1-0.6-0.1-0.7c-0.2,0.2-0.1,0.5-0.2,0.8c-0.1,1-0.6,2.3-0.5,3.4c-0.1,0.1-0.1,0.3-0.1,0.6c0,0.1-0.1,0.2-0.1,0.3
						c-0.1,0.5-0.1,0.9-0.2,1.4c0,0.3,0,0.7,0,1c0,0.1-0.1,0.1-0.1,0.2c0,0.1,0,0.2,0,0.3c0,0.1-0.1,0.3-0.1,0.5
						c0,0.5-0.1,1-0.1,1.5c0,0.2,0,0.5,0,0.7c-0.1,0.3-0.3,0.7-0.2,1c-0.2,0.7-0.6,1.4-1,1.9c-1,1-2.7,1.5-4.3,1.5
						c-0.7,0-1.4,0.1-1.9,0.2c-1.5,0-2.7,0-3.8,0.1c-0.5-0.1-0.9,0-1.2,0c-0.3,0-0.8-0.1-1,0.1c0,0-0.3,0-0.1,0c1,0,2.3,0.2,3.4,0.2
						c0.8,0,1.7,0,2.1,0c0.5-0.1,0.9-0.1,1.2-0.1c0.3,0,0.8,0.1,1.1,0c0.1,0,0.3-0.1,0.5-0.1c0.5,0,0.9,0,1.4,0
						c1.6-0.2,2.6-0.5,3.4-1.2c0.3-0.3,0.7-1.1,1-1.7c0.1-0.2,0.2-0.6,0.3-0.9c0.3-1.4,0.5-2.7,0.6-4.1c0.2-0.6,0.2-1.6,0.3-2.4
						c0.1-0.8,0.3-1.8,0.5-2.4C18.7,55.3,18.8,55.1,18.9,54.7z"/>
					<path id="path138" class="st0" d="M76.6,63.7c0.1,1.2,0.8,2.4,0.3,3.4c-0.2,0-0.1-0.2-0.3-0.3c0-1.7-0.3-3.2-0.5-4.6
						C76,61.8,76,61,75.8,60.5c-0.1-1.4-0.3-2.8-0.9-3.8c-0.1-0.2-0.5-0.3-0.3-0.7c0-0.1-0.1-0.1-0.2-0.2c0-0.2,0.1-0.2,0.2-0.3
						c0-0.5-0.3-0.9-0.3-1.4c0.2,0.1,0.3,0.3,0.5,0.5c0.2,0,0.1-0.2,0.2-0.2c0.3,0.2,0.7,0.8,0.7,1.4c0,0.3,0.2,0.8,0.2,1.1
						c0,0.2,0,0.3,0,0.5c0,0.3,0.1,0.7,0.1,1c0,0.1,0.1,0.3,0.1,0.5c0.2,1.2,0.5,2.3,0.5,3.4C76.6,62.8,76.6,63.3,76.6,63.7z"/>
					<path id="path140" class="st0" d="M73,65.5c0-0.2,0.5-0.1,0.7,0C73.6,65.6,73.1,65.6,73,65.5z"/>
					<path id="path142" class="st0" d="M67.5,15.3c0,0.2-0.3,0.2-0.5,0.3c-0.1,0.3-0.1,0.7-0.2,1c-0.1,0.7-0.6,1.1-1.1,1.4
						c0.1,0.2-0.1,0.3-0.1,0.6c0,0.5,0.3,1,0.2,1.4c-0.3-0.3-0.6-0.9-0.5-1.5c-0.2,0-0.2,0.7-0.1,0.9c-0.3,0.5,0.5,0.6,0.2,1
						c-0.2,0-0.1-0.1-0.3-0.1c-0.1-0.7-0.3-1.2-0.2-1.8c-0.1,0.2-0.1,0.6-0.1,1c0,0.6,0.5,0.9,0.3,1.4c-0.5,0.1-0.3-0.2-0.3-0.3
						c0-0.3-0.2-0.6-0.3-0.9c0-0.6,0.2-1,0.1-1.4c-0.5,0.2-0.2,0.6-0.3,1c0.1,0.1,0.1,0.5,0,0.6c-0.2,0-0.2-0.1-0.3-0.2
						c0-0.5,0.1-0.8,0.2-1.4c-0.7,0-0.5,1-0.5,1.5c-0.5-0.1-0.2-1-0.1-1.5c-0.5-0.2-0.6-0.5-0.7-1.1c0-0.3-0.1-0.6-0.1-0.8
						c0-0.5,0-0.8-0.1-1.1c-0.2-0.2-0.9-0.3-1.2,0c0,0.2-0.1,0.5-0.1,0.8c-0.5,0.5-0.9,0.9-1.4,1.2c-0.2,0.5-0.6,0.8-0.8,1.1
						c-0.2,0.3-0.3,0.7-0.6,0.9c-0.1,0.2-0.3,0.3-0.5,0.5c-0.1,0.2-0.2,0.5-0.3,0.7c-0.1,0.3-0.6,0.6-0.7,0.9
						c0.5,0.1,0.8,0.2,1.1,0.5c0.2,0.6,0.6,1.1,0.3,1.8c-0.2,0.2-0.3,0.5-0.6,0.7c-0.3,0.2-1,0.1-1.4,0c-0.5,0.2-0.8,0.2-1.2,0.1
						c-0.3,0.3-1,0.3-1.5,0c-0.3,0.1-0.7,0.2-1,0.1c-0.1,0-0.2-0.1-0.3-0.1s-0.3,0.1-0.5,0.1c-0.2,0-0.6,0-0.8,0
						c-0.2-0.1-0.5-0.2-0.7-0.2c-0.2,0-0.5,0.1-0.6,0.1c-0.2,0-0.3-0.1-0.7-0.1c-0.3-0.1-0.3,0.1-0.6,0.1c-0.5,0.2-0.8,0-1.1-0.1
						c-0.6,0.1-1,0.3-1.5-0.1c-0.5,0.2-1.2,0.2-1.6-0.1c-0.5,0.2-1,0.3-1.6,0c-0.6,0.2-1.4,0.3-2,0.2c-0.9-0.5-1.6-1.7-0.9-2.6
						c0.2-0.3,0.7-0.3,1-0.6c0-0.3-0.2-0.3-0.3-0.6c-0.3-0.5-0.7-1.1-1.1-1.8c-0.3-0.6-0.8-1.1-1.1-1.7c-0.1-0.2-0.2-0.5-0.3-0.6
						c-0.3-0.3-0.8-0.6-1-1c-0.1-0.2,0-0.5,0-0.7c0-0.3-0.3-0.6-0.7-0.8c-0.6-0.1-0.8,0.2-0.9,0.6c0.2,0.9-0.1,1.8-0.3,2.5
						c-0.1,0.5-0.2,0.7-0.7,0.8c0,0.7-0.3,1.2-0.5,1.9c-0.1,0-0.2,0-0.3,0c0.1-0.3,0.5-0.6,0.6-1c0.1-0.2,0.2-0.7-0.1-0.8
						c-0.2,0.1-0.1,0.2-0.1,0.5c0,0.6-0.5,1.1-0.6,1.6c-0.1,0.1-0.3,0.6-0.6,0.2c0.2-0.3,0.5-0.6,0.7-0.9c0-0.1-0.1-0.1,0-0.2
						c0.2-0.2,0.2-0.7,0.1-1c-0.2,0.7-0.2,1.7-0.9,1.9c0.2-0.6,0.8-1,0.6-1.8c-0.3,0.3-0.1,1.1-0.7,1.2c-0.1-0.3,0.6-0.7,0.2-1.1
						c-0.1,0.5-0.2,1-0.7,1c0-0.3,0.1-0.3,0.3-0.3c0.2-0.5,0.3-1-0.2-1.1c-0.6-0.6-0.3-1.7-0.8-2.4c-0.1-0.1-0.3-0.2-0.3-0.5
						c0.3-0.3,0.8,0.3,1.1,0.2c0.3-0.1,0.1-0.8,0.3-1.1c0.2,0,0.2,0.1,0.3,0.1c0.6-0.1,0.7-1.1,0.6-1.5c-0.2,0.3,0,0.9-0.3,1.1
						c-0.1,0-0.1-0.1-0.1-0.1c-0.1,0-0.2,0.2-0.3,0.1c0-0.1,0-0.1,0-0.2c0-0.1,0.2-0.1,0.3-0.1c0-0.2,0.2-0.5,0.1-0.8
						c-0.1-0.2-0.3-0.2-0.5-0.5c-0.5-0.7-0.5-2-1.1-2.4c0.7-0.2,1,0.6,1.7,0.5c0.2-0.6,0.5-1.1,0.8-1.6c0.5,0,1-0.2,1.5,0
						c0.6,0.2,0.6,0.9,0.9,1.4c-0.1,0.1,0,0.1,0,0.2c0.2,0.2,0.1,0.8,0.5,0.9c0.2-0.1,0.1-0.5,0-0.7c0-0.3,0.1-0.8,0-1
						S36.9,9.3,36.7,9c-0.2-0.3-0.2-0.6-0.3-1c-0.7-1-1.4-2-2.3-2.8c0-0.1,0-0.2,0-0.3c0.3-0.2,0.5-0.3,0.9-0.2
						c1.2,0.1,1.7,1.2,1.8,2.5c0,0.2,0,0.5,0,0.7c0.1,0.2,0.3,0.5,0.7,0.5c0.2-0.1,0.2-0.5,0.3-0.7c-0.1-0.5-0.6-0.6-0.6-1.1
						c0-0.2,0.1-0.5,0.1-0.8c0-0.7-0.5-1.6-0.9-1.9c-0.2-0.2-0.8-0.5-0.8-0.9c0.1-0.3,0.7-0.2,0.9-0.1c0.7,0.2,1.1,1,1.2,1.7
						c0,0.3-0.1,0.8,0,1.1c0,0.2,0.6,1,0.7,0.3c-0.5-0.6,0.1-1.4,0-2c0-0.3-0.1-0.6-0.2-0.8c-0.2-0.5-0.9-0.8-0.7-1.5
						c0.3-0.1,0.7,0.1,0.9,0.2c0.2,0.2,0.5,0.6,0.6,1c0.1,0.9-0.3,1.5-0.1,2c0.6,0.1,0.5-0.3,0.6-0.7c-0.6-0.2-0.3-0.6-0.5-1
						c0-0.9-0.8-1.1-0.8-1.9c0.7-0.2,1.1,0.5,1.2,1c0.2,0.8-0.3,1.6,0.1,2c0.3-0.1,0.5-0.5,0.6-0.7c0.2-0.8-0.3-1.7,0.1-2.5
						c0.6,0,0.7,0.5,0.8,0.8c0.1,0.7-0.5,1.1-0.1,1.7c0.2,0,0.3-0.3,0.5-0.5c0.1-0.3,0.2-0.8,0.2-1.2S41.4,1.2,42,1.1l0,0
						c0.9,0.5-0.1,1.5,0.1,2.3c0.2,0,0.3-0.1,0.3-0.2c0.5-0.5,0.3-1.7,1.1-1.6c0.2,0.2,0.2,0.5,0.1,0.7c-0.3,0.1-0.8,0.7-0.5,1.1
						c0.3,0,0.6,0,0.8,0.1c0,0.2,0,0.3,0,0.7c-0.8,0-1.6,0-2.4,0.2c-0.8,0.1-1.6,0.5-2.1,0.9c-0.5,0.5-0.8,1-1.1,1.6
						c-0.8,1.2-1,2.9-0.9,4.4c0,0.5,0.2,0.9,0.1,1.4c0.2,0.7,0.5,1.4,0.7,2c0.2,0.6,0.3,1,0.7,1.5c0.2,0.5,0.5,0.9,0.7,1.4
						c0.3,0.5,0.7,1,1,1.5c0.3,0.5,0.7,1,1.1,1.4c0.2,0,0.3-0.2,0.3-0.3c0.1-0.9-0.6-2-0.8-2.7c-0.5-0.7-0.7-1.6-1.2-2
						c-0.3,0.1-0.8,0.1-1,0c-0.2-0.1-0.3-0.3-0.3-0.5c-0.1-0.3,0.1-0.7,0-1c-0.1-0.3-0.3-0.3-0.5-0.7c0-0.5,0.1-0.7,0.2-0.9
						c0-0.2-0.2-0.3-0.2-0.5c-0.2-0.6,0.3-0.9,0.6-1.2c-0.1-0.8,0.5-1.2,1-1.5c0.2-0.6,0.5-1,1.1-1c0.1,0,0.3,0.1,0.5,0.1
						c0.2-0.1,0.3-0.3,0.3-0.5c0.2,0,0.5-0.1,0.7-0.1c0.2,0,0.3,0.1,0.6,0.1s0.6-0.2,0.8-0.2c0.5,0,0.8,0.2,1.1,0.6
						c0.5-0.1,1.1-0.1,1.4,0.5c0.7-0.1,1.1,0.3,1.4,0.8c0.5-0.5,0.9-1.2,0.9-1.8c-0.3-0.3-0.7,0.3-1.1,0.2c-0.1-0.6,0-1.5,0-1.9
						C47.8,5.7,48,6,48.5,6c0-0.6-0.5-0.9-0.7-1.4c1,0,1.9-0.1,2.7,0.1c-0.1,0.3-0.6,0.7-0.7,1.1c0.3,0,0.7-0.3,1.1-0.3
						c0.1,0.3,0,0.8-0.1,1.1c0,0.3,0.1,0.7-0.1,0.9c-0.5,0-0.8-0.6-1.1-0.2c0,0.7,0.3,0.9,0.7,1.4c0,0.3,0.1,0.6,0.3,0.6
						c0.1,0,0.2-0.2,0.3-0.3c0.2-0.2,0.7-0.2,1-0.2c0.2-0.1,0.2-0.3,0.3-0.5c0.3-0.2,0.8-0.3,1.2-0.1c0.2-0.3,0.7-0.6,1.1-0.3
						c0.2,0,0.3,0.2,0.6,0.3c0.7-0.3,1.4-0.3,1.7,0.3c0.2,0,0.5,0.1,0.8,0.1c0.3,0.2,0.7,0.3,0.8,0.7v0.2c0.1,0.2,0.6,0.2,0.7,0.2
						c0.2,0.1,0.5,0.3,0.5,0.6c0,0.2-0.1,0.7,0,0.9c0.2,0.3,0.6,0.5,0.5,1c0,0.1-0.2,0.2-0.2,0.5c0,0.1,0.1,0.2,0.2,0.3
						c0.2,0.6-0.1,0.9-0.5,1.1c0.1,0.8-0.2,1.4-0.9,1.4c-0.1,0-0.3-0.1-0.5,0c-0.3,0-0.5,0.6-0.5,0.9c-0.1,0.1-0.2,0.2-0.3,0.3
						c-0.5,0.9-1.4,2.3-1.5,3.4c0,0.3,0,0.7,0.2,0.8c0.6-0.2,0.7-0.9,1.1-1.4c0.3-0.9,1.1-1.5,1.5-2.5c0.5-0.6,0.8-1.2,1-2
						c0.8-1.1,0.9-2.7,0.9-4.2c0-0.3-0.1-0.8-0.1-1.1c0-0.2,0-0.5,0-0.7c-0.1-0.3-0.2-0.7-0.3-1c-0.3-1-0.9-1.9-1.6-2.6
						c-0.5-0.3-1-0.5-1.6-0.7c-0.3-0.1-0.6-0.2-0.9-0.3c-0.6-0.2-1.5-0.3-2-0.5c0-0.1-0.1-0.3,0-0.5c0.3-0.1,0.7,0,0.9-0.2
						c0-0.7-0.5-0.9-0.5-1.4c0-0.3,0.3-0.6,0.7-0.3c0.3,0.3-0.2,2.3,1,1.9c0.3-0.3-0.2-0.7-0.2-1.1c-0.1-0.5,0.1-0.6,0.3-1
						c0.3-0.1,0.3,0.1,0.6,0.3c0,0.3-0.1,0.7,0,1.1c0.1,0.3,0.3,1,0.6,1c0.3,0,0.3-0.3,0.3-0.5c-0.2-0.7-0.7-1.6-0.1-2.3
						c0.3-0.1,0.6,0.1,0.7,0.3c-0.2,1-0.5,1.9,0,2.7c0.1,0.1,0.3,0.3,0.6,0.2c0-0.5-0.1-1-0.1-1.4c0-0.1,0.1-0.7,0.2-0.8
						C59.3,2.2,59.9,2,60.1,2c0.3,0.1,0.2,0.6,0.1,0.8s-0.3,0.3-0.5,0.6c-0.5,0.1-0.6,0.5-0.6,0.7c0,0.2,0.3,0.6,0.3,0.8
						c0.1,0.3-0.1,1,0.6,1c0.2-0.7-0.2-1.2-0.1-2c0-0.2,0.2-0.6,0.5-0.8c0.1-0.1,0.6-0.5,0.7-0.5c0.5,0,0.6,0.3,0.3,0.6
						c-0.1,0.2-0.6,0.7-0.8,1.1c0,0,0,0.1-0.1,0.2c0,0.1-0.1,0.1-0.1,0.2c-0.1,0.5,0.1,1,0,1.4c0,0.2-0.3,0.6-0.2,0.8
						c0.1,0.5,0.7,0.1,0.7-0.1c0-0.9,0.1-1.4,0.3-2.3c0.2,0,0.2-0.3,0.3-0.6c0,0,0.1,0,0.2-0.1c0.1,0,0.1-0.1,0.1-0.2
						c0,0,0.1,0,0.2-0.1c0.1,0,0.1-0.1,0.1-0.1c0.1,0,0.3-0.1,0.5-0.1C63.1,3,63.3,3,63.6,3.4C63,4.3,61.7,4.9,61.7,6
						c-0.2,0.3-0.1,0.8-0.2,1.1C61.3,7.5,61,7.7,60.8,8c0,0.1,0,0.6,0.1,0.8c0.7,0,0.8-0.8,0.9-1.2c0.2-1,0.9-1.5,1.7-2
						c0.6-0.1,1.5-0.6,1.7,0c-0.1,0.2-0.5,0.1-0.7,0.2c-0.6,0.2-0.7,0.7-1.1,1.1c-0.3,0.2-0.7,0.3-0.9,0.6c-0.3,0.6-0.2,1.2-0.6,1.8
						c-0.2,0.3-0.7,0.5-0.7,0.8c-0.1,0.6,0,1,0,1.6c0.3-0.1,0.3-0.6,0.6-0.7c0-0.5,0.2-0.6,0.3-0.9c0.1-0.2,0.2-0.5,0.3-0.6
						c0.1-0.1,0.5-0.2,0.6-0.2c0.1,0,0.3,0,0.6,0c0.5,0.1,0.7,0.2,0.9,0.3c0.3,0.3,0.2,1,0.7,1.2c0.5,0,0.6-0.3,0.9-0.5
						c0.2,0.5-0.2,0.8-0.5,1.2c-0.2,0.7,0,1.4-0.7,1.5c-0.1,0.6,0.6,0.6,0.3,1c-0.5-0.2-0.3-0.8-0.7-1c-0.2,0.5,0.3,0.7,0.3,1
						c-0.6,0.1-0.5-0.7-0.7-1c-0.3,0.2,0,0.7,0.1,1c0.1,0.1,0.3,0.3,0.3,0.6c-0.2,0.2-0.5,0-0.5-0.3c-0.2,0-0.2,0-0.3,0
						c-0.2-0.3-0.2-1-0.2-1.4c-0.7,0.1,0.1,0.6-0.1,1c-0.3,0-0.3-0.7-0.3-0.9c-0.1-0.3-0.5-0.3-0.6-0.7c-0.1-0.5,0.2-0.8-0.1-1.1
						c-0.3,0.1-0.5,0.5-0.7,0.7c0,0.5-0.2,0.7-0.3,1c-0.3,0.1-0.8,0.5-0.7,1c0.5-0.1,0.6-0.5,1-0.5c0.6-0.1,1.1,0.5,1.5,0.8
						c0.2,0.2,0.5,0.5,0.6,0.7s0.1,0.3,0.3,0.5c0.2,0,0.5-0.2,0.7-0.2c0.3,0.1,0.3,0.5,0.7,0.6C66.6,15.7,67,15.1,67.5,15.3z
						 M66.4,17.1c0-0.5,0.2-0.9,0.2-1.4c-0.2,0.1-0.5,0.5-0.7,0.6c-0.1,0.1-0.2,0.3-0.5,0.2c0-0.3,0.2-0.9-0.1-1
						c-0.3,0.1-0.5,1-0.9,0.7c0-0.3-0.2-1.1-0.7-1.2c0,0.3,0.1,0.8,0,1.1c-0.2-0.1-0.3-0.3-0.5-0.3c-0.3,0.3,0.2,0.8,0.2,1.4
						c0,0.2-0.2,0.5-0.1,0.7c0.1,0.8,1.1,0.1,1.8,0.2c0.1,0,0.2,0.1,0.3,0.1C65.9,17.8,66.3,17.4,66.4,17.1z M65.9,11.7
						c0.1-0.3,0.2-0.6,0.1-0.8c-0.3,0.1-0.6,0.3-0.7,0.7c-0.2-0.5-0.1-1-0.6-1.4c-0.2,0.2-0.2,0.8-0.5,1c-0.2-0.2-0.3-0.7-0.7-0.8
						c-0.1,0.3-0.2,0.9-0.3,1.4c0,0.3,0,0.8,0.5,0.9c0.1,0,0.3,0,0.6,0c0.3,0,0.6,0.1,0.8,0.1C65.8,12.6,65.8,12.2,65.9,11.7z
						 M64.6,14c0-0.3,0-0.8-0.1-1.1C64.2,13.3,64.4,13.7,64.6,14z M63.6,9.8h-0.1c-0.1,0.3-0.8,0.6-0.6,1
						C63.1,10.6,63.5,10.2,63.6,9.8z M62.1,14.6c0-0.8-0.8-0.3-0.9,0.2c0,0,0.1,0,0,0C61.7,14.8,61.9,14.7,62.1,14.6z M59,13.8
						c0.9,0.3,1.5-1.1,0.6-1.1c-0.3,0-0.6,0.1-0.8,0.3C58.6,13.3,58.7,13.5,59,13.8z M59.3,12.4c0.6,0,0.8-1.4,0-1.2
						c-0.3,0-0.6,0.2-0.6,0.3C58.5,12.1,59,12.4,59.3,12.4z M58.4,11.1c0.8,0.3,1.4-0.7,0.9-1.2c-0.5-0.5-1.4-0.2-1.2,0.8
						C58.2,10.7,58.2,11,58.4,11.1z M58.7,15.1c1.1,0.2,0.7-1.8-0.2-0.9C58.5,14.6,58.4,15,58.7,15.1z M58.2,14.2
						c0.8-1.6,0.1-3.5-1.1-4.2c-0.6-0.3-1.2-0.6-2-0.6c-1.2,0.1-2.3,0.7-3.4,1c-0.2,0.3-0.6,0.7-0.6,1c0.5-0.1,0.9-0.2,1.4-0.3
						c0.2-0.1,0.6-0.2,0.8-0.3c0.2-0.1,0.6-0.1,0.9-0.2c0.2-0.1,0.3-0.2,0.6-0.2c0.8-0.1,1.4,0.1,1.8,0.3c0.2,0.1,0.6,0.2,0.8,0.5
						c0.3,0.8,0.8,1.8,0.3,2.8C57.6,14.1,57.8,14.2,58.2,14.2z M57.4,10.1c1,0.2,1.1-1.1,0.6-1.4c-0.3-0.2-0.9,0-1,0.3
						C56.7,9.5,57.2,9.8,57.4,10.1z M58.2,14.6c-0.2-0.2-0.7-0.5-1-0.2c0.1,0.7-0.1,0.9,0.2,1.2C57.8,15.6,57.9,15,58.2,14.6z
						 M57.4,16.4c0.1-0.1,0.2-0.1,0.2-0.2c0-0.3-0.2-0.2-0.5-0.3C56.9,16.1,57.3,16.2,57.4,16.4z M56.9,16.7
						c0.1-0.1,0.2-0.1,0.2-0.2c0-0.1-0.1-0.1-0.2-0.1c-0.7,0.3-0.7,1.4-1.5,1.6c-1,0.3-1.4-0.7-1.8-1.2c-0.3,0-0.8,0-1.1-0.1
						c-0.2,0.1-0.3,0.2-0.3,0.5c-0.6,0.5-1.2,0.5-1.9,0.2c-0.3-0.1-0.5-0.7-0.8-0.7c-0.1,0-0.2,0-0.3,0s-0.2-0.1-0.3-0.1
						c-0.2,0-0.2,0.3-0.3,0.5c-0.5,0.5-1.4,0.7-2.1,0.3c-0.2-0.1-0.3-0.3-0.6-0.3c-0.5-0.1-0.7,0-1.1,0.1c-0.3,0.3-0.7,0.8-1.1,0.9
						c-0.5,0-0.7-0.5-1.1-0.3C42.2,17.4,42.2,17,42,17c-0.5,0,0,0.8,0.1,1.1c0.3,0.3,0.8,0.5,1.5,0.5c0.1,0,0.2,0,0.3-0.1
						c0.7,0.1,0.9-0.7,1.2-0.9c0.2,0.3,0.6,0.2,0.7-0.1c0.5,0,0.7,0.3,1,0.3c0.9,0.2,1.7-0.2,2.3-0.7c0.1,0.1,0.1,0.1,0.3,0.2
						c0.1,0,0.1-0.3,0.3-0.2c0.3,0.6,1.1,1,1.9,0.9c0.6-0.1,1-0.5,1.4-0.7c0.1,0.1,0.2,0.2,0.3,0.3c0.2,0,0.1-0.2,0.3-0.2
						c0.2,0.3,0.3,0.6,0.6,0.9c0.3,0.2,0.7,0.6,1.2,0.5c0.1,0,0.1-0.1,0.2-0.1c0.6,0.1,0.8-0.5,1-0.8c0.1-0.1,0.2-0.2,0.3-0.3
						C56.8,17.3,56.8,16.9,56.9,16.7z M56.9,12.2c0.1-0.2-0.1-0.3,0-0.7c-0.3-0.3-0.8-0.6-1.1-0.8c-0.1,0-0.1,0-0.2,0
						c-0.3-0.1-0.8-0.2-1.1-0.1c-0.6,0.1-1.2,0.5-1.9,0.7c-0.3,0.1-0.7,0.2-1,0.3c-0.3,0.1-0.8,0.1-0.8,0.5c0.6,0,1.2-0.1,1.9,0
						c0.5,0,0.8,0.3,1.2,0.2c0.1,0,0.2-0.1,0.3-0.1C55.1,11.7,56.1,11.4,56.9,12.2z M55.8,16.7c0.6-0.1,1.4-0.6,1.1-1.1
						c-0.1-0.2-0.8-0.9-1-0.7C55.9,15.3,55.7,16.1,55.8,16.7z M56.6,23.8l0.1-0.1c-0.2-0.7-0.5-1.5-1.1-1.7c0,0,0,0-0.1,0
						c-0.1,0.2,0.1,0.6,0.3,1C55.9,23.3,56.1,23.8,56.6,23.8z M56.1,9.4c0.7,0,0.9-0.9,0.3-1.4C55.2,7.7,55.1,9.3,56.1,9.4z
						 M55.9,19.1c-0.5,0.1-1,0-1.7-0.3c-0.2-0.3-0.7-0.7-0.8-1.1c-0.3,0.2-0.6,0-0.8-0.1c-0.6,0.2-0.9,0.6-1.5,0.6
						c-0.7,0-1.1-0.3-1.8-0.7c0-0.1-0.1,0.1-0.2,0.1c-0.1,0-0.2-0.2-0.3-0.1c-0.6,0.2-1,0.8-1.8,0.7c-0.3,0-0.8-0.3-1-0.3
						c-0.3,0-0.2,0.2-0.3,0.3c-0.2,0.1-0.5,0-0.7-0.1c-0.5,0.8-1.5,1.2-2.5,0.9c0,0.3,0.1,0.7,0.2,0.9c0.8-0.1,1.4,0,2.1,0.1
						c0.3-0.2,0.8,0,1,0.1c0.2,0,0.7-0.2,0.9,0c0.3-0.1,0.6-0.1,0.9,0c0.6-0.1,1.4,0.1,2.1-0.2c0.3,0.2,0.8,0.2,1.1,0
						c0.7,0.2,1.4,0,2.3,0c0.1,0,0.1,0.1,0.2,0.1c0.2,0,0.5-0.1,0.8-0.1c0.1,0,0.1,0.1,0.2,0.1C55,19.6,55.8,20.1,55.9,19.1z
						 M55.8,21.2c0.1-1.1-0.7-1.2-1.5-1.1c-0.1,0-0.1-0.2-0.3-0.2s-0.3,0.3-0.7,0.3c-0.1,0-0.3-0.2-0.5-0.2c-0.2,0-0.5,0.1-0.8,0
						c-0.1,0-0.2-0.1-0.3-0.1s-0.2,0.1-0.3,0.2c-0.2,0-0.3-0.1-0.6-0.1c-0.2,0-0.5,0.1-0.7,0.1S49.8,20,49.7,20s-0.2,0.1-0.3,0.1
						c-0.2,0-0.3-0.2-0.5-0.2c-0.2,0-0.6,0.2-0.8,0.2c-0.3-0.1-0.6,0.1-1,0.1C47,20.2,47,20,46.9,20c-0.2,0.1-0.3,0.1-0.7,0.1
						c-0.2-0.2-0.6-0.1-0.8,0c-0.3,0-0.6-0.1-1,0c-0.3-0.3-1,0.1-1.4-0.1c-0.2,0.1-0.3,0.1-0.6,0.1c-0.1,0.1-0.2,0.3-0.5,0.3
						c-0.1,0.2,0,0.5,0,0.6c0.3-0.1,0.6,0.1,0.9,0c0.3,0.1,0.5,0.3,0.7,0.2c0.2,0,0.5-0.2,0.7-0.2c0.5-0.1,0.6,0.1,0.9,0.2
						c0.5,0,1-0.1,1.5-0.1c0.3,0,0.6,0.1,0.8,0.1c0.3,0,0.6-0.2,0.8-0.2c0.3,0,0.7,0.2,1,0.2c0.3,0,0.6-0.1,0.9-0.1
						c0.2,0,0.3,0.1,0.6,0.1c0.5,0,0.9-0.1,1.4-0.1c0.3,0.3,0.7,0,1.1,0c0.3,0,0.7,0.2,0.9,0.2c0.2,0,0.5-0.2,0.7-0.2
						C55.2,21.2,55.5,21.1,55.8,21.2z M54,8.4c-0.3,1,1.4,1.4,1.1,0C55,7.8,54.2,7.9,54,8.4z M54.7,16.8c1,0.1,1-1.7,0.2-1.8
						c-0.5-0.1-0.6,0.3-0.9,0.3c-0.1-0.2,0.2-0.6,0.2-0.8c0.1-0.6-0.1-1-0.3-1.4c-0.5-0.1-0.9,0.6-0.9,1c0,0.3,0.2,0.9-0.1,1.1
						c-0.3-0.7-1.5-0.8-1.7,0.1c-0.1,0.5,0.1,1,0.5,1.2c0.2-0.2,0.2-0.7,0.7-0.7C52.9,16.1,54.9,15.5,54.7,16.8z M53.6,23.6
						c0.3,0.2,1.1,0.3,1.6,0.2c0-0.5-0.5-1-0.7-1.5c-0.1-0.3-0.3-0.7-0.9-0.7c-0.7,0.3-1.6-0.3-2.1-0.1c0.1,0.7,0.8,1.1,0.8,1.7
						c0.3,0.3,0.8,0.6,1.5,0.5C53.6,23.8,53.6,23.7,53.6,23.6z M52.8,9.6c0.7,0.1,1.2-0.7,0.7-1.2C52.5,7.8,52.2,9.5,52.8,9.6z
						 M52.7,16.4c0.3,0.1,1.1,0.2,1.2-0.1c-0.5-0.2-0.7-0.1-1.2-0.1C52.7,16.2,52.7,16.2,52.7,16.4z M51.8,10.3
						c0.6-0.1,0.6-1.2-0.1-1.2C51,9.2,51,10.4,51.8,10.3z M51.2,10.2c-0.2,0-0.3,0-0.6,0c-0.3,0.6-0.5,1.1-0.7,1.7
						c-0.2,0.7-0.5,1.4-0.3,2.1c0.1,0,0.2,0.1,0.3,0c0.1-0.8,0.5-1.5,0.5-2.3C50.7,11.4,51.1,10.7,51.2,10.2z M50.7,6.9
						c0.2-0.3,0.3-0.7,0.1-1c-0.3,0-0.7,0.1-0.8,0.3c0,0.1-0.1,0.2-0.1,0.3C50.1,6.8,50.3,6.9,50.7,6.9z M50.6,16.4
						c0.1-0.6,0.2-1,0-1.4c-0.5,0-0.5,0.3-0.9,0.3c-0.1,0.2-0.1,0.5,0,0.8C50.1,16,50.3,16.4,50.6,16.4z M50.4,10.1
						c-0.5-0.1-0.7,0.3-0.8,0.7c0.1,0.1,0.1,0.3,0.2,0.3C50.1,10.7,50.3,10.4,50.4,10.1z M50.2,9.4c0.1-0.1,0.1-0.3,0.1-0.6
						c-0.2-0.2-0.7,0-0.8-0.3c-0.1-0.1,0.1-0.3-0.1-0.6c-0.6-0.1-0.3,0.5-0.5,0.7c-0.2,0.1-0.6,0-0.8,0.1C48,8.8,48,9,48.2,9.2
						C48.7,9.4,49.3,9.2,50.2,9.4z M49.6,5.7C49.7,5.4,50.1,5.3,50,5c0-0.5-1-0.3-1.4-0.3c0,0.3,0.2,0.6,0.3,0.8
						C49.2,5.7,49.4,5.7,49.6,5.7z M49.7,9.7C50,9.7,50,9.5,50,9.4h-0.1C49.7,9.5,49.7,9.6,49.7,9.7z M50,8.5
						c0.1-0.3-0.3-0.3-0.3-0.1C49.7,8.5,49.8,8.5,50,8.5z M48.8,7.7C49.2,8,50,7.8,49.6,7.1c-0.2-0.1-0.5,0-0.6,0
						C48.9,7.4,48.8,7.5,48.8,7.7z M49.5,16.1c0.1-0.3-0.1-0.6-0.2-0.7c0.2-0.1,0.5-0.7,0.7-1c-0.2-0.1-0.8-0.2-1.1-0.1
						c-0.1,0-0.2,0-0.3,0.1c0.1,0.5,0.5,0.7,0.6,1c-0.1,0.1-0.1,0.3-0.2,0.6C48.9,16.2,49.3,16.4,49.5,16.1z M49.3,10.1
						c0.2-0.1,0.2-0.3,0.2-0.7c-0.2,0-0.3,0-0.5,0c0,0.2-0.1,0.5,0,0.6C49.2,9.9,49.3,10.1,49.3,10.1z M49.5,10.2
						c-0.2,0-0.5,0-0.6,0c0,0.1,0.1,0.3,0.2,0.3C49.4,10.5,49.5,10.4,49.5,10.2z M49.4,12.2c0.1-0.1,0-0.2,0.1-0.6
						c-0.2-0.1-0.6-0.1-0.8-0.1c-0.1,0.1-0.1,0.5,0,0.6C49.1,12,49.3,12.1,49.4,12.2z M49.4,13.9c0.1-0.2,0-0.6-0.2-0.7
						c-0.7-0.1-0.8,0.5-0.5,0.8C48.9,14,49.3,14,49.4,13.9z M49.2,6.9c0.6,0,0.7-1.1,0-0.9C48.7,6.1,48.7,6.9,49.2,6.9z M49.4,11.4
						c0.2-0.5-0.7-0.7-0.6-0.1C48.9,11.4,49.2,11.3,49.4,11.4z M48.7,12.9c0.3,0.1,0.7,0,0.7-0.3c-0.2-0.1-0.6-0.2-0.8,0
						C48.6,12.6,48.7,12.9,48.7,12.9z M48.8,23.8c0.2-0.3-0.1-0.7-0.2-0.9c-0.6-0.9-0.7-1.7-1.9-1.1c-0.3-0.2-1-0.5-1.2,0
						c0.3,0.8,0.6,2.1,1.8,2c0.2,0,0.3-0.1,0.6-0.1C48.2,23.7,48.5,23.8,48.8,23.8z M48.7,9.8c0-0.1,0-0.3,0-0.5c-0.1,0-0.2,0-0.3,0
						C48.3,9.7,48.5,9.9,48.7,9.8z M48.7,8.1c-0.2-0.1-0.6,0.1-0.3,0.3C48.7,8.5,48.7,8.4,48.7,8.1z M48.7,16.1c0-0.2,0-0.3,0.1-0.5
						c-0.2-0.2-0.5-0.5-0.8-0.6c-0.2,0.3-0.2,0.9-0.1,1.2C48.2,16.4,48.4,16.1,48.7,16.1z M48.6,11.1c0-0.2,0.2-0.2,0.3-0.5
						c-0.2-0.2-0.5-0.7-0.9-0.7C48.2,10.3,48.3,10.7,48.6,11.1z M47.8,6.8c0.6,0.2,1-0.2,0.6-0.7C47.9,5.7,47.5,6.3,47.8,6.8z
						 M48.5,14c0-1.5,0-3-0.8-4.1c-0.2,0-0.3,0-0.5,0.1c0,0.7,0.5,1.2,0.5,1.8c0.3,0.6,0.1,1.6,0.2,2.1C48.2,14.1,48.2,14,48.5,14z
						 M45.3,12c0.9-0.1,1.5,0,2.3,0c-0.1-0.3-0.6-0.3-0.9-0.6c-0.2-0.1-0.5-0.3-0.8-0.5c-0.2-0.1-0.6-0.2-0.8-0.3
						c-0.1,0-0.2-0.2-0.3-0.2c-0.3-0.1-0.9-0.2-1.2-0.2c-0.7,0-2.4,0.6-2.1,1.5c0.7-0.3,1.4-0.3,2-0.1c0.1,0.1,0.3,0.1,0.5,0.1
						c0.2,0.1,0.7,0.3,0.9,0.3C44.8,12.2,45.1,12.1,45.3,12z M46.2,11c0.3,0.2,0.7,0.5,1,0.3c0-0.3-0.1-0.5-0.2-0.8
						c-0.3-0.3-0.7-0.6-1.1-0.7c-1-0.8-2.4-0.8-3.7-0.5c-0.3,0.2-0.7,0.3-1.1,0.6c-0.2,0.2-0.5,0.5-0.7,0.7
						c-0.8,1.2-0.6,2.8,0.1,4.1c0.3-0.1,0.6-0.1,0.7-0.3c-0.2-0.7-0.3-1-0.3-1.7c0-0.5,0-0.9,0.2-1.2c0.3-0.7,1-1.1,1.8-1.4
						c1.1-0.3,2,0.1,3,0.5C45.9,10.7,46,10.8,46.2,11z M47,16.5c0.2-0.3,0.5-0.9,0.5-1.5c-0.3-0.2-0.6-0.7-1.1-0.6
						c-0.2,0.1-0.3,0.5-0.6,0.6c0-0.3,0-0.7-0.1-1c-0.2-0.3-0.6-1.1-1-0.8c-0.3,0.2-0.3,1-0.3,1.4c0,0.2,0.3,0.6,0.1,0.7
						c-0.2-0.3-0.9-0.3-1.1-0.1c-0.3,0.5,0,1.2,0.3,1.5c0.2-0.2,0.1-0.7,0.6-0.7c0.1,0.1,0.3,0.1,0.5,0.2c0.2-0.2,0.5-0.1,0.8-0.2
						s0.3-0.6,0.8-0.5c0.1,0,0.2,0.1,0.3,0.1C46.6,16,46.7,16.4,47,16.5z M46.6,9.7c0.8,0.1,0.9-1.2,0-1C45.9,8.8,46.1,9.7,46.6,9.7
						z M45.8,9c0.5-0.6-0.6-1.2-1-0.6C44.7,9,45.5,9.4,45.8,9z M44.7,16.5c0.1,0.3,1.4,0.3,1.1-0.2C45.5,16.2,44.9,16.2,44.7,16.5z
						 M44.6,8.6c0.3-0.7-0.9-1.2-1.2-0.6c-0.1,0.2,0,0.3,0.1,0.7C43.8,9,44.3,8.9,44.6,8.6z M44.6,23.6c0-0.1,0-0.1,0-0.3
						c-0.2-0.6-0.5-1.2-1-1.6c-0.5,0.5,0.2,0.7,0.2,1.1c0.1,0.1,0.3,0.3,0.3,0.6C44.3,23.3,44.3,23.6,44.6,23.6z M42.9,8.9
						c0.7-0.9-0.8-1.7-1.1-0.8c-0.1,0.2,0,0.5,0,0.6C42,9,42.5,9.2,42.9,8.9z M43,16.8c0.1-0.6-0.2-1-0.3-1.6
						c-0.1-0.1-0.6,0.7-0.7,0.8C41.7,16.5,42.5,16.8,43,16.8z M42.9,23.7c0-0.2-0.1-0.3-0.2-0.5c-0.2-0.5-0.3-1.4-0.9-1.6
						c-0.3-0.1-0.3,0.1-0.6,0.1c-0.1,0-0.3,0-0.5,0.1c-0.7,0.5-0.3,1.7,0.3,1.8c0.1,0,0.1-0.2,0.3-0.2
						C41.6,23.9,42.3,23.9,42.9,23.7z M41.4,16.7c0.3,0.2,0.6-0.1,0.5-0.5c-0.2-0.1-0.3,0.1-0.5,0.1C41.3,16.5,41.4,16.6,41.4,16.7z
						 M41.7,15.5c0-0.3,0.1-0.7-0.1-0.9c-0.3,0-0.8,0.2-1,0.3c0,0.3,0.3,1.1,0.6,1.4C41.9,16.4,41.7,15.7,41.7,15.5z M40.5,9.6
						c0.5,0.3,1.4-0.2,1-0.9c-0.3-0.5-1.4-0.5-1.4,0.2C40.2,9,40.4,9.5,40.5,9.6z M39.9,10.7c0.5-0.1,0.8-0.9,0.3-1.2
						c-0.1-0.1-0.7-0.1-0.8-0.1c0,0-0.3,0.2-0.3,0.3C38.8,10.2,39.4,10.7,39.9,10.7z M40.1,14.3c0-0.2-0.2-0.7-0.5-0.7h-0.2
						c-0.3,0.1-0.6,0.5-0.5,0.7C38.9,15,40.1,15,40.1,14.3z M39.6,13.2c0.3-0.7-0.3-1.6-0.9-1C38,12.9,38.9,13.8,39.6,13.2z
						 M39.3,12c0.7,0,0.7-1.4-0.2-1.2S38.5,12.1,39.3,12z M37.2,14c0.1-0.2,0-0.7-0.1-0.9C37,13,36.9,13,36.8,12.9
						c-0.2-0.1-0.5-0.3-0.5-0.6c0-0.2,0-0.5-0.1-0.7c-0.1-0.2-0.2-0.3-0.3-0.6c-0.1-0.2-0.1-0.5-0.3-0.5c-0.5,0.3-0.1,0.8-0.1,1.2
						c0,0.3-0.3,0.6-0.5,0.8c-0.2,0.3-0.1,0.7-0.3,0.9c-0.1,0.1-0.2,0.2-0.2,0.3c-0.1,0-0.1,0.1-0.2,0l-0.1-0.1
						c0.3-0.1,0.5-0.7,0.5-1.1c-0.1,0-0.1-0.1-0.2,0c0,0.2,0.1,0.7-0.1,0.9c-0.2-0.2,0.1-0.7-0.2-0.8c0,0.5-0.1,1.4-0.6,1.8
						c0,0.2,0.2,0.5,0.3,0.5c0.2-0.3,0.5-0.8,0.9-1c0.2-0.5,0.7-0.8,1.2-0.8C36.5,13.1,36.8,13.8,37.2,14z M36.2,13.8
						c0.1,0.1,0.5,0.2,0.6,0.1C36.8,13.7,36.1,13.3,36.2,13.8z M35.8,10.1c0-0.3-0.1-1-0.6-0.9C35.3,9.5,35.4,9.9,35.8,10.1z
						 M35.1,16.9c0.1-0.6,0.5-1.7,0.1-2.3c-0.1,0.3-0.3,0.7-0.7,0.8c-0.1-0.5-0.1-0.7,0-1.2h-0.1c-0.3,0.3-0.6,0.7-0.8,1.1
						c-0.3-0.2-0.5-0.6-0.7-0.7c-0.2,0.3-0.1,0.9-0.2,1.2c-0.3,0-0.5-0.3-0.8-0.3c0,0.3,0.3,0.6,0.3,1c0.1,0.3,0,0.7,0.2,0.9
						c0.7,0,1.7-0.1,2.3,0C35.1,17.4,35.1,17.1,35.1,16.9z M34.5,12.1c0.6-0.2,0.6-0.7,0.3-1.5c-0.1-0.3-0.1-0.7-0.3-0.9
						c-0.3,0.3-0.3,0.9-0.6,1.4c-0.1-0.3-0.2-0.7-0.3-1c-0.3,0.1-0.3,0.7-0.7,0.9c-0.2-0.1-0.5-0.3-0.8-0.3c0,0.3,0.3,0.6,0.5,0.9
						c0.1,0.2,0,0.6,0.3,0.7C33.5,12.1,34.2,12.1,34.5,12.1z M33.2,13.2c0.2,0,0.2-0.3,0.1-0.5h-0.1C33.2,13,33.2,13.1,33.2,13.2z
						 M33.1,13.7c0.1,0,0.2-0.3,0.1-0.3C33.2,13.4,33,13.5,33.1,13.7z"/>
					<path id="path144" class="st0" d="M59.6,13.1c0.1,0.2-0.2,0.5-0.5,0.6c-0.1-0.1-0.2-0.1-0.2-0.2c0-0.1,0-0.2,0.1-0.2
						s0.1,0.1,0.2,0.2C59.5,13.2,59.4,13,59.6,13.1z"/>
					<path id="path146" class="st0" d="M59.5,11.7c0.1,0,0.1,0,0.2,0.1c0,0.2-0.2,0.3-0.5,0.3c-0.5-0.1-0.1-0.9,0-0.2
						C59.4,11.9,59.4,11.7,59.5,11.7z"/>
					<path id="path148" class="st0" d="M59.2,14.6c0.1,0.5-0.7,0.7-0.6,0.1c0.1,0,0.1,0,0.2,0.1C59,14.7,59.1,14.4,59.2,14.6z"/>
					<path id="path150" class="st0" d="M59,10.3c0.1,0,0.1,0.1,0.2,0.1c0,0.1-0.1,0.1-0.1,0.3c-0.3,0.2-0.9-0.3-0.3-0.5
						c0,0,0,0.1,0.1,0.1C58.8,10.5,58.8,10.3,59,10.3z"/>
					<path id="path152" class="st0" d="M57.8,9.4c0,0.1,0,0.1,0,0.2c-0.3,0.1-0.7-0.1-0.7-0.5c0.2-0.3,0.2,0,0.3,0.2
						C57.7,9.4,57.7,9.4,57.8,9.4z"/>
					<path id="path154" class="st0" d="M56.3,8.7c0.1,0,0.1,0,0.1,0.1c0,0.2-0.2,0.3-0.5,0.3c-0.1-0.1-0.2-0.3,0-0.3
						c0.1,0,0.1,0,0.1,0.1C56.3,8.8,56.1,8.7,56.3,8.7z"/>
					<path id="path156" class="st0" d="M54.8,8.6C55,9,54.2,9,54.2,8.6c0.1-0.1,0.2,0,0.2,0.1C54.7,8.7,54.7,8.6,54.8,8.6z"/>
					<path id="path158" class="st0" d="M53.4,20.7c0.5-0.1,0.7-0.3,1-0.2c-0.1,0.1-0.2,0.2-0.1,0.5C54,21,53.6,21.1,53.4,20.7z"/>
					<path id="path160" class="st0" d="M53.7,22.1c0.3,0.3,0.7,1,0.3,1.4c-0.3-0.1-0.6-0.2-0.8-0.5c0,0.1,0.1,0.3,0,0.5
						c-0.5,0.1-0.7-0.3-0.8-0.7c-0.2,0-0.2-0.1-0.1-0.3c0.3,0,0.5,0.3,0.7,0.6c0.1-0.2-0.1-0.5,0-0.8c0.3,0.1,0.6,0.2,0.7,0.7
						c0.6,0.2,0.2-0.5,0-0.7C53.7,22.3,53.6,22.2,53.7,22.1z"/>
					<path id="path162" class="st0" d="M53.8,18.6c0.1,0.3-0.3,0.6-0.8,0.6c-0.1,0-0.7-0.1-0.8-0.2c-0.7-0.3,0.2-1.5,0.7-0.8
						C53.3,18.3,53.6,18.4,53.8,18.6z"/>
					<path id="path164" class="st0" d="M53.1,9.2c0-0.1,0.2-0.2,0.3-0.1c0,0.3-0.5,0.5-0.7,0.2C52.8,9,53,9,53.1,9.2z"/>
					<path id="path166" class="st0" d="M51.9,9.7c0,0.3-0.5,0.5-0.6,0.2C51.3,9.7,51.6,9.7,51.9,9.7z"/>
					<path id="path168" class="st0" d="M50.7,20.6c0.3-0.1,0.6-0.5,1-0.3c0,0.1-0.2,0.2-0.1,0.5C51.3,20.9,51,20.9,50.7,20.6z"/>
					<path id="path170" class="st0" d="M49.7,18c0.3,0,0.8,0.3,0.7,0.8c-0.2,0.2-0.9,0.2-1.5,0.2c-0.3,0-0.8,0-1-0.1
						c-0.3-0.3,0-1,0.5-0.9c0.2,0,0.2,0.2,0.5,0.3c0-0.2,0.1-0.5,0.5-0.3c0,0.1,0.1,0.2,0.2,0.3C49.7,18.4,49.6,18,49.7,18z"/>
					<path id="path172" class="st0" d="M50,9.5c0,0.1,0,0.3-0.2,0.3c0-0.2-0.1-0.2,0-0.3C49.8,9.4,50,9.4,50,9.5z"/>
					<path id="path174" class="st0" d="M49.2,20.6c0,0.1,0.2,0,0.2,0.1c-0.3,0.3-0.8-0.1-1,0c0.1-0.5,0.6-0.3,1-0.5
						C49.4,20.5,49.2,20.5,49.2,20.6z"/>
					<path id="path176" class="st0" d="M48.2,23.2c-0.3,0.3-0.7-0.2-1.1-0.3c0,0.2,0.1,0.2,0.1,0.3c-0.7,0.2-1.1-0.6-1.1-1
						c0.3-0.1,0.3,0.5,0.6,0.7c0.1-0.1,0.1-0.2,0.1-0.3c0.3-0.1,0.7,0.1,0.9,0.2c0.1-0.2-0.3-0.5-0.1-0.8
						C47.9,22.4,48,22.8,48.2,23.2z"/>
					<path id="path178" class="st0" d="M46.5,9.2C46.6,9.4,46.8,9,47,9.3C46.9,9.6,46.4,9.8,46.5,9.2C46.4,9.3,46.5,9.3,46.5,9.2z"
						/>
					<path id="path180" class="st0" d="M46.7,20.9c-0.2,0.2-0.6-0.1-1-0.2c0,0,0-0.1,0-0.2c0.3,0,0.7-0.2,0.8-0.1
						C46.5,20.5,46.6,20.7,46.7,20.9z"/>
					<path id="path182" class="st0" d="M46.1,18.2c0.3,0.3,0.1,0.9-0.3,1c-0.3,0-0.5,0-0.9,0c-0.6-0.2-0.3-1,0.3-0.8
						C45.3,18.2,45.7,18.2,46.1,18.2z"/>
					<path id="path184" class="st0" d="M45.6,8.6c0.1,0,0.1,0.2,0,0.3c-0.2,0-0.2,0.1-0.5,0.1c-0.1-0.1-0.1-0.2,0-0.3
						C45.2,8.7,45.3,8.7,45.6,8.6z"/>
					<path id="path186" class="st0" d="M44.2,20.6c0,0.1,0.2,0,0.1,0.1c-0.3,0.1-1,0-1.2-0.3C43.4,20.4,44.3,20.1,44.2,20.6z"/>
					<path id="path188" class="st0" d="M44.3,8.4c0,0.6-0.8,0.5-0.7,0c0.2-0.1,0.2,0.1,0.2,0.2c0.1,0,0.1-0.1,0.2-0.2
						C44.2,8.3,44.2,8.4,44.3,8.4z"/>
					<path id="path190" class="st0" d="M42.8,8.5c0.1,0.2-0.3,0.5-0.6,0.3c0-0.1,0-0.2,0-0.3C42.5,8.6,42.5,8.5,42.8,8.5z"/>
					<path id="path192" class="st0" d="M42.2,23.2c-0.3,0.1-0.5-0.5-0.9-0.5c-0.2,0.1-0.1,0.5-0.3,0.6c-0.5,0-0.6-0.3-0.7-0.8
						c0.2-0.2,0.5,0.2,0.5,0.3c0.1-0.2,0.3-0.7,0.8-0.3c0.1,0,0.1-0.1,0.2-0.1C42,22.7,42.2,23,42.2,23.2z"/>
					<path id="path194" class="st0" d="M41,9c0.2,0,0.2-0.2,0.5-0.1c0,0.5-0.2,0.6-0.7,0.5c0-0.1-0.1-0.1-0.1-0.2
						C40.7,8.9,40.8,8.9,41,9z"/>
					<path id="path196" class="st0" d="M39.7,10.1c0.1-0.1,0.3-0.2,0.3,0c-0.1,0.1-0.2,0.3-0.3,0.3c-0.1-0.1-0.2-0.2-0.2-0.5
						C39.7,9.9,39.7,10.1,39.7,10.1z"/>
					<path id="path198" class="st0" d="M39.7,14.2v0.2c-0.1,0.1-0.6,0.2-0.6-0.1C39.4,14.3,39.5,14.3,39.7,14.2z"/>
					<path id="path200" class="st0" d="M39.3,11.3c0.5,0.2-0.2,0.6-0.3,0.2c0-0.1,0-0.1,0-0.2C39,11.3,39.2,11.4,39.3,11.3z"/>
					<path id="path202" class="st0" d="M38.7,13.1c-0.3-0.3,0.5-0.5,0.6-0.3C39.3,13.2,39,13.1,38.7,13.1z"/>
				</g>
				<g id="g206">
				</g>
			</g>
		</g>
		<polygon id="polygon211" class="st0" points="57.9,68.7 61.1,68.8 60.6,69.4 57.6,69.2 		"/>
		<polygon id="polygon213" class="st0" points="57.4,69.6 60.4,69.7 60.1,70.1 56.9,70.3 		"/>
	</g>
</g>
</svg>
